<?xml version="1.0" encoding="UTF-8" standalone="no"?>
<!DOCTYPE svg PUBLIC "-//W3C//DTD SVG 1.1//EN"
 "http://www.w3.org/Graphics/SVG/1.1/DTD/svg11.dtd">
<!-- Generated by graphviz version 2.43.0 (0)
 -->
<!-- Title: solver/FE/Basis/BasisTraits.h Pages: 1 -->
<svg width="402pt" height="137pt"
 viewBox="0.00 0.00 401.50 137.00" xmlns="http://www.w3.org/2000/svg" xmlns:xlink="http://www.w3.org/1999/xlink">
<g id="graph0" class="graph" transform="scale(1 1) rotate(0) translate(4 133)">
<title>solver/FE/Basis/BasisTraits.h</title>
<!-- Node1 -->
<g id="Node000001" class="node">
<title>Node1</title>
<g id="a_Node000001"><a xlink:title="Reference&#45;topology vocabulary (BasisTopology) and the internal ElementType/topology/order maps.">
<polygon fill="#999999" stroke="#666666" points="169,-129 14,-129 14,-110 169,-110 169,-129"/>
<text text-anchor="middle" x="91.5" y="-117" font-family="Helvetica,sans-Serif" font-size="10.00">solver/FE/Basis/BasisTraits.h</text>
</a>
</g>
</g>
<!-- Node2 -->
<g id="Node000002" class="node">
<title>Node2</title>
<g id="a_Node000002"><a xlink:href="_types_8h.html" target="_top" xlink:title="Fundamental type definitions for the finite element library.">
<polygon fill="white" stroke="#666666" points="183,-74 130,-74 130,-55 183,-55 183,-74"/>
<text text-anchor="middle" x="156.5" y="-62" font-family="Helvetica,sans-Serif" font-size="10.00">Types.h</text>
</a>
</g>
</g>
<!-- Node1&#45;&gt;Node2 -->
<g id="edge1_Node000001_Node000002" class="edge">
<title>Node1&#45;&gt;Node2</title>
<g id="a_edge1_Node000001_Node000002"><a xlink:title=" ">
<path fill="none" stroke="#63b8ff" d="M101.94,-109.98C111.65,-102.07 126.32,-90.11 138,-80.58"/>
<polygon fill="#63b8ff" stroke="#63b8ff" points="140.33,-83.2 145.87,-74.17 135.9,-77.78 140.33,-83.2"/>
</a>
</g>
</g>
<!-- Node4 -->
<g id="Node000004" class="node">
<title>Node4</title>
<g id="a_Node000004"><a xlink:title=" ">
<polygon fill="#e0e0e0" stroke="#999999" points="53,-19 0,-19 0,0 53,0 53,-19"/>
<text text-anchor="middle" x="26.5" y="-7" font-family="Helvetica,sans-Serif" font-size="10.00">cstddef</text>
</a>
</g>
</g>
<!-- Node1&#45;&gt;Node4 -->
<g id="edge8_Node000001_Node000004" class="edge">
<title>Node1&#45;&gt;Node4</title>
<g id="a_edge8_Node000001_Node000004"><a xlink:title=" ">
<path fill="none" stroke="#63b8ff" d="M86.18,-109.66C75.46,-91.85 51.1,-51.37 37.04,-28.01"/>
<polygon fill="#63b8ff" stroke="#63b8ff" points="39.87,-25.92 31.71,-19.16 33.87,-29.53 39.87,-25.92"/>
</a>
</g>
</g>
<!-- Node3 -->
<g id="Node000003" class="node">
<title>Node3</title>
<g id="a_Node000003"><a xlink:title=" ">
<polygon fill="#e0e0e0" stroke="#999999" points="113.5,-19 71.5,-19 71.5,0 113.5,0 113.5,-19"/>
<text text-anchor="middle" x="92.5" y="-7" font-family="Helvetica,sans-Serif" font-size="10.00">array</text>
</a>
</g>
</g>
<!-- Node2&#45;&gt;Node3 -->
<g id="edge2_Node000002_Node000003" class="edge">
<title>Node2&#45;&gt;Node3</title>
<g id="a_edge2_Node000002_Node000003"><a xlink:title=" ">
<path fill="none" stroke="#63b8ff" d="M146.22,-54.98C136.66,-47.07 122.22,-35.11 110.72,-25.58"/>
<polygon fill="#63b8ff" stroke="#63b8ff" points="112.9,-22.85 102.97,-19.17 108.44,-28.24 112.9,-22.85"/>
</a>
</g>
</g>
<!-- Node2&#45;&gt;Node4 -->
<g id="edge3_Node000002_Node000004" class="edge">
<title>Node2&#45;&gt;Node4</title>
<g id="a_edge3_Node000002_Node000004"><a xlink:title=" ">
<path fill="none" stroke="#63b8ff" d="M135.61,-54.98C114.42,-46.34 81.37,-32.87 57.2,-23.02"/>
<polygon fill="#63b8ff" stroke="#63b8ff" points="58.35,-19.7 47.77,-19.17 55.71,-26.19 58.35,-19.7"/>
</a>
</g>
</g>
<!-- Node5 -->
<g id="Node000005" class="node">
<title>Node5</title>
<g id="a_Node000005"><a xlink:title=" ">
<polygon fill="#e0e0e0" stroke="#999999" points="181.5,-19 131.5,-19 131.5,0 181.5,0 181.5,-19"/>
<text text-anchor="middle" x="156.5" y="-7" font-family="Helvetica,sans-Serif" font-size="10.00">cstdint</text>
</a>
</g>
</g>
<!-- Node2&#45;&gt;Node5 -->
<g id="edge4_Node000002_Node000005" class="edge">
<title>Node2&#45;&gt;Node5</title>
<g id="a_edge4_Node000002_Node000005"><a xlink:title=" ">
<path fill="none" stroke="#63b8ff" d="M156.5,-54.75C156.5,-47.8 156.5,-37.85 156.5,-29.13"/>
<polygon fill="#63b8ff" stroke="#63b8ff" points="160,-29.09 156.5,-19.09 153,-29.09 160,-29.09"/>
</a>
</g>
</g>
<!-- Node6 -->
<g id="Node000006" class="node">
<title>Node6</title>
<g id="a_Node000006"><a xlink:title=" ">
<polygon fill="#e0e0e0" stroke="#999999" points="243.5,-19 199.5,-19 199.5,0 243.5,0 243.5,-19"/>
<text text-anchor="middle" x="221.5" y="-7" font-family="Helvetica,sans-Serif" font-size="10.00">string</text>
</a>
</g>
</g>
<!-- Node2&#45;&gt;Node6 -->
<g id="edge5_Node000002_Node000006" class="edge">
<title>Node2&#45;&gt;Node6</title>
<g id="a_edge5_Node000002_Node000006"><a xlink:title=" ">
<path fill="none" stroke="#63b8ff" d="M166.94,-54.98C176.65,-47.07 191.32,-35.11 203,-25.58"/>
<polygon fill="#63b8ff" stroke="#63b8ff" points="205.33,-28.2 210.87,-19.17 200.9,-22.78 205.33,-28.2"/>
</a>
</g>
</g>
<!-- Node7 -->
<g id="Node000007" class="node">
<title>Node7</title>
<g id="a_Node000007"><a xlink:title=" ">
<polygon fill="#e0e0e0" stroke="#999999" points="331,-19 262,-19 262,0 331,0 331,-19"/>
<text text-anchor="middle" x="296.5" y="-7" font-family="Helvetica,sans-Serif" font-size="10.00">type_traits</text>
</a>
</g>
</g>
<!-- Node2&#45;&gt;Node7 -->
<g id="edge6_Node000002_Node000007" class="edge">
<title>Node2&#45;&gt;Node7</title>
<g id="a_edge6_Node000002_Node000007"><a xlink:title=" ">
<path fill="none" stroke="#63b8ff" d="M178.99,-54.98C202.02,-46.27 238.04,-32.63 264.13,-22.75"/>
<polygon fill="#63b8ff" stroke="#63b8ff" points="265.48,-25.98 273.6,-19.17 263.01,-19.44 265.48,-25.98"/>
</a>
</g>
</g>
<!-- Node8 -->
<g id="Node000008" class="node">
<title>Node8</title>
<g id="a_Node000008"><a xlink:title=" ">
<polygon fill="#e0e0e0" stroke="#999999" points="393.5,-19 349.5,-19 349.5,0 393.5,0 393.5,-19"/>
<text text-anchor="middle" x="371.5" y="-7" font-family="Helvetica,sans-Serif" font-size="10.00">limits</text>
</a>
</g>
</g>
<!-- Node2&#45;&gt;Node8 -->
<g id="edge7_Node000002_Node000008" class="edge">
<title>Node2&#45;&gt;Node8</title>
<g id="a_edge7_Node000002_Node000008"><a xlink:title=" ">
<path fill="none" stroke="#63b8ff" d="M183.07,-57.34C217.08,-49.4 278.05,-34.97 339.34,-19.24"/>
<polygon fill="#63b8ff" stroke="#63b8ff" points="340.36,-22.59 349.17,-16.71 338.61,-15.82 340.36,-22.59"/>
</a>
</g>
</g>
</g>
</svg>
