<?xml version="1.0" encoding="UTF-8" standalone="no"?>
<!DOCTYPE svg PUBLIC "-//W3C//DTD SVG 1.1//EN"
 "http://www.w3.org/Graphics/SVG/1.1/DTD/svg11.dtd">
<!-- Generated by graphviz version 2.43.0 (0)
 -->
<!-- Title: solver/FE/Basis/BasisFactory.h Pages: 1 -->
<svg width="1026pt" height="302pt"
 viewBox="0.00 0.00 1025.50 302.00" xmlns="http://www.w3.org/2000/svg" xmlns:xlink="http://www.w3.org/1999/xlink">
<g id="graph0" class="graph" transform="scale(1 1) rotate(0) translate(4 298)">
<title>solver/FE/Basis/BasisFactory.h</title>
<!-- Node1 -->
<g id="Node000001" class="node">
<title>Node1</title>
<g id="a_Node000001"><a xlink:title="Runtime creation of basis families.">
<polygon fill="#999999" stroke="#666666" points="768.5,-294 605.5,-294 605.5,-275 768.5,-275 768.5,-294"/>
<text text-anchor="middle" x="687" y="-282" font-family="Helvetica,sans-Serif" font-size="10.00">solver/FE/Basis/BasisFactory.h</text>
</a>
</g>
</g>
<!-- Node2 -->
<g id="Node000002" class="node">
<title>Node2</title>
<g id="a_Node000002"><a xlink:href="_basis_function_8h_source.html" target="_top" xlink:title=" ">
<polygon fill="white" stroke="#666666" points="413.5,-239 320.5,-239 320.5,-220 413.5,-220 413.5,-239"/>
<text text-anchor="middle" x="367" y="-227" font-family="Helvetica,sans-Serif" font-size="10.00">BasisFunction.h</text>
</a>
</g>
</g>
<!-- Node1&#45;&gt;Node2 -->
<g id="edge1_Node000001_Node000002" class="edge">
<title>Node1&#45;&gt;Node2</title>
<g id="a_edge1_Node000001_Node000002"><a xlink:title=" ">
<path fill="none" stroke="#63b8ff" d="M635.59,-274.98C577.63,-265.39 483.69,-249.83 423.67,-239.89"/>
<polygon fill="#63b8ff" stroke="#63b8ff" points="424.04,-236.4 413.6,-238.22 422.9,-243.31 424.04,-236.4"/>
</a>
</g>
</g>
<!-- Node11 -->
<g id="Node000011" class="node">
<title>Node11</title>
<g id="a_Node000011"><a xlink:title=" ">
<polygon fill="#e0e0e0" stroke="#999999" points="366,-19 322,-19 322,0 366,0 366,-19"/>
<text text-anchor="middle" x="344" y="-7" font-family="Helvetica,sans-Serif" font-size="10.00">string</text>
</a>
</g>
</g>
<!-- Node1&#45;&gt;Node11 -->
<g id="edge41_Node000001_Node000011" class="edge">
<title>Node1&#45;&gt;Node11</title>
<g id="a_edge41_Node000001_Node000011"><a xlink:title=" ">
<path fill="none" stroke="#63b8ff" d="M680.73,-274.96C664.42,-253.36 618.37,-196.05 567,-165 521.89,-137.73 498.5,-157.24 454,-129 452.55,-128.08 389.15,-59.44 359.27,-27.06"/>
<polygon fill="#63b8ff" stroke="#63b8ff" points="361.49,-24.3 352.13,-19.32 356.34,-29.05 361.49,-24.3"/>
</a>
</g>
</g>
<!-- Node15 -->
<g id="Node000015" class="node">
<title>Node15</title>
<g id="a_Node000015"><a xlink:title=" ">
<polygon fill="#e0e0e0" stroke="#999999" points="1017.5,-19 970.5,-19 970.5,0 1017.5,0 1017.5,-19"/>
<text text-anchor="middle" x="994" y="-7" font-family="Helvetica,sans-Serif" font-size="10.00">vector</text>
</a>
</g>
</g>
<!-- Node1&#45;&gt;Node15 -->
<g id="edge42_Node000001_Node000015" class="edge">
<title>Node1&#45;&gt;Node15</title>
<g id="a_edge42_Node000001_Node000015"><a xlink:title=" ">
<path fill="none" stroke="#63b8ff" d="M687,-274.82C687,-256.48 687,-212.44 687,-175.5 687,-175.5 687,-175.5 687,-118.5 687,-104.14 880.74,-44.44 960.41,-20.5"/>
<polygon fill="#63b8ff" stroke="#63b8ff" points="961.85,-23.72 970.42,-17.5 959.84,-17.01 961.85,-23.72"/>
</a>
</g>
</g>
<!-- Node26 -->
<g id="Node000026" class="node">
<title>Node26</title>
<g id="a_Node000026"><a xlink:title=" ">
<polygon fill="#e0e0e0" stroke="#999999" points="773,-239 715,-239 715,-220 773,-220 773,-239"/>
<text text-anchor="middle" x="744" y="-227" font-family="Helvetica,sans-Serif" font-size="10.00">memory</text>
</a>
</g>
</g>
<!-- Node1&#45;&gt;Node26 -->
<g id="edge39_Node000001_Node000026" class="edge">
<title>Node1&#45;&gt;Node26</title>
<g id="a_edge39_Node000001_Node000026"><a xlink:title=" ">
<path fill="none" stroke="#63b8ff" d="M696.16,-274.98C704.5,-267.23 717.03,-255.58 727.18,-246.14"/>
<polygon fill="#63b8ff" stroke="#63b8ff" points="729.74,-248.54 734.68,-239.17 724.97,-243.42 729.74,-248.54"/>
</a>
</g>
</g>
<!-- Node27 -->
<g id="Node000027" class="node">
<title>Node27</title>
<g id="a_Node000027"><a xlink:title=" ">
<polygon fill="#e0e0e0" stroke="#999999" points="847,-239 791,-239 791,-220 847,-220 847,-239"/>
<text text-anchor="middle" x="819" y="-227" font-family="Helvetica,sans-Serif" font-size="10.00">optional</text>
</a>
</g>
</g>
<!-- Node1&#45;&gt;Node27 -->
<g id="edge40_Node000001_Node000027" class="edge">
<title>Node1&#45;&gt;Node27</title>
<g id="a_edge40_Node000001_Node000027"><a xlink:title=" ">
<path fill="none" stroke="#63b8ff" d="M708.21,-274.98C729.73,-266.34 763.28,-252.87 787.83,-243.02"/>
<polygon fill="#63b8ff" stroke="#63b8ff" points="789.43,-246.14 797.41,-239.17 786.82,-239.65 789.43,-246.14"/>
</a>
</g>
</g>
<!-- Node3 -->
<g id="Node000003" class="node">
<title>Node3</title>
<g id="a_Node000003"><a xlink:href="_basis_exceptions_8h_source.html" target="_top" xlink:title=" ">
<polygon fill="white" stroke="#666666" points="558.5,-184 453.5,-184 453.5,-165 558.5,-165 558.5,-184"/>
<text text-anchor="middle" x="506" y="-172" font-family="Helvetica,sans-Serif" font-size="10.00">BasisExceptions.h</text>
</a>
</g>
</g>
<!-- Node2&#45;&gt;Node3 -->
<g id="edge2_Node000002_Node000003" class="edge">
<title>Node2&#45;&gt;Node3</title>
<g id="a_edge2_Node000002_Node000003"><a xlink:title=" ">
<path fill="none" stroke="#63b8ff" d="M389.33,-219.98C412.2,-211.27 447.96,-197.63 473.86,-187.75"/>
<polygon fill="#63b8ff" stroke="#63b8ff" points="475.16,-191 483.26,-184.17 472.67,-184.46 475.16,-191"/>
</a>
</g>
</g>
<!-- Node2&#45;&gt;Node15 -->
<g id="edge38_Node000002_Node000015" class="edge">
<title>Node2&#45;&gt;Node15</title>
<g id="a_edge38_Node000002_Node000015"><a xlink:title=" ">
<path fill="none" stroke="#63b8ff" d="M413.89,-226.66C456.61,-223.09 520.02,-212.86 567,-184 630.23,-145.15 608,-90.8 673,-55 783.5,5.86 832.43,-41.15 960.17,-19.05"/>
<polygon fill="#63b8ff" stroke="#63b8ff" points="961.12,-22.43 970.32,-17.17 959.85,-15.55 961.12,-22.43"/>
</a>
</g>
</g>
<!-- Node17 -->
<g id="Node000017" class="node">
<title>Node17</title>
<g id="a_Node000017"><a xlink:href="_basis_traits_8h.html" target="_top" xlink:title="Reference&#45;topology vocabulary (BasisTopology) and the internal ElementType/topology/order maps.">
<polygon fill="white" stroke="#666666" points="197,-184 119,-184 119,-165 197,-165 197,-184"/>
<text text-anchor="middle" x="158" y="-172" font-family="Helvetica,sans-Serif" font-size="10.00">BasisTraits.h</text>
</a>
</g>
</g>
<!-- Node2&#45;&gt;Node17 -->
<g id="edge19_Node000002_Node000017" class="edge">
<title>Node2&#45;&gt;Node17</title>
<g id="a_edge19_Node000002_Node000017"><a xlink:title=" ">
<path fill="none" stroke="#63b8ff" d="M333.42,-219.98C297.65,-210.91 240.88,-196.52 201.66,-186.57"/>
<polygon fill="#63b8ff" stroke="#63b8ff" points="202.4,-183.15 191.84,-184.08 200.68,-189.93 202.4,-183.15"/>
</a>
</g>
</g>
<!-- Node18 -->
<g id="Node000018" class="node">
<title>Node18</title>
<g id="a_Node000018"><a xlink:href="_types_8h.html" target="_top" xlink:title="Fundamental type definitions for the finite element library.">
<polygon fill="white" stroke="#666666" points="158.5,-129 105.5,-129 105.5,-110 158.5,-110 158.5,-129"/>
<text text-anchor="middle" x="132" y="-117" font-family="Helvetica,sans-Serif" font-size="10.00">Types.h</text>
</a>
</g>
</g>
<!-- Node2&#45;&gt;Node18 -->
<g id="edge35_Node000002_Node000018" class="edge">
<title>Node2&#45;&gt;Node18</title>
<g id="a_edge35_Node000002_Node000018"><a xlink:title=" ">
<path fill="none" stroke="#63b8ff" d="M320.27,-227.34C253.61,-224.59 136.35,-215.31 110,-184 98.78,-170.67 108.13,-151.29 117.87,-137.45"/>
<polygon fill="#63b8ff" stroke="#63b8ff" points="120.83,-139.35 124.12,-129.28 115.27,-135.1 120.83,-139.35"/>
</a>
</g>
</g>
<!-- Node20 -->
<g id="Node000020" class="node">
<title>Node20</title>
<g id="a_Node000020"><a xlink:title=" ">
<polygon fill="#e0e0e0" stroke="#999999" points="289.5,-74 236.5,-74 236.5,-55 289.5,-55 289.5,-74"/>
<text text-anchor="middle" x="263" y="-62" font-family="Helvetica,sans-Serif" font-size="10.00">cstddef</text>
</a>
</g>
</g>
<!-- Node2&#45;&gt;Node20 -->
<g id="edge36_Node000002_Node000020" class="edge">
<title>Node2&#45;&gt;Node20</title>
<g id="a_edge36_Node000002_Node000020"><a xlink:title=" ">
<path fill="none" stroke="#63b8ff" d="M320.19,-224.51C293.14,-219.52 261.15,-208.44 244,-184 222.65,-153.57 240.29,-108 252.94,-83.17"/>
<polygon fill="#63b8ff" stroke="#63b8ff" points="256.12,-84.65 257.77,-74.18 249.95,-81.33 256.12,-84.65"/>
</a>
</g>
</g>
<!-- Node22 -->
<g id="Node000022" class="node">
<title>Node22</title>
<g id="a_Node000022"><a xlink:href="_matrix_8h.html" target="_top" xlink:title="Fixed&#45;size matrix types for FE computations, backed by Eigen.">
<polygon fill="white" stroke="#666666" points="338.5,-184 253.5,-184 253.5,-165 338.5,-165 338.5,-184"/>
<text text-anchor="middle" x="296" y="-172" font-family="Helvetica,sans-Serif" font-size="10.00">Math/Matrix.h</text>
</a>
</g>
</g>
<!-- Node2&#45;&gt;Node22 -->
<g id="edge28_Node000002_Node000022" class="edge">
<title>Node2&#45;&gt;Node22</title>
<g id="a_edge28_Node000002_Node000022"><a xlink:title=" ">
<path fill="none" stroke="#63b8ff" d="M355.59,-219.98C344.89,-212 328.66,-199.88 315.84,-190.31"/>
<polygon fill="#63b8ff" stroke="#63b8ff" points="317.72,-187.35 307.61,-184.17 313.53,-192.96 317.72,-187.35"/>
</a>
</g>
</g>
<!-- Node23 -->
<g id="Node000023" class="node">
<title>Node23</title>
<g id="a_Node000023"><a xlink:href="_f_e_2_math_2_vector_8h.html" target="_top" xlink:title="Fixed&#45;size vector types for FE computations, backed by Eigen.">
<polygon fill="white" stroke="#666666" points="347,-129 291,-129 291,-110 347,-110 347,-129"/>
<text text-anchor="middle" x="319" y="-117" font-family="Helvetica,sans-Serif" font-size="10.00">Vector.h</text>
</a>
</g>
</g>
<!-- Node2&#45;&gt;Node23 -->
<g id="edge34_Node000002_Node000023" class="edge">
<title>Node2&#45;&gt;Node23</title>
<g id="a_edge34_Node000002_Node000023"><a xlink:title=" ">
<path fill="none" stroke="#63b8ff" d="M364.97,-219.61C361.93,-207.08 355.64,-183.67 347,-165 342.65,-155.59 336.65,-145.77 331.32,-137.76"/>
<polygon fill="#63b8ff" stroke="#63b8ff" points="334.06,-135.57 325.51,-129.32 328.29,-139.54 334.06,-135.57"/>
</a>
</g>
</g>
<!-- Node25 -->
<g id="Node000025" class="node">
<title>Node25</title>
<g id="a_Node000025"><a xlink:title=" ">
<polygon fill="#e0e0e0" stroke="#999999" points="435,-184 395,-184 395,-165 435,-165 435,-184"/>
<text text-anchor="middle" x="415" y="-172" font-family="Helvetica,sans-Serif" font-size="10.00">span</text>
</a>
</g>
</g>
<!-- Node2&#45;&gt;Node25 -->
<g id="edge37_Node000002_Node000025" class="edge">
<title>Node2&#45;&gt;Node25</title>
<g id="a_edge37_Node000002_Node000025"><a xlink:title=" ">
<path fill="none" stroke="#63b8ff" d="M374.93,-219.75C381.85,-212.11 392.07,-200.82 400.45,-191.56"/>
<polygon fill="#63b8ff" stroke="#63b8ff" points="403.1,-193.85 407.22,-184.09 397.91,-189.15 403.1,-193.85"/>
</a>
</g>
</g>
<!-- Node4 -->
<g id="Node000004" class="node">
<title>Node4</title>
<g id="a_Node000004"><a xlink:href="_f_e_exception_8h.html" target="_top" xlink:title="Exception hierarchy for error handling in the FE library.">
<polygon fill="white" stroke="#666666" points="549,-129 463,-129 463,-110 549,-110 549,-129"/>
<text text-anchor="middle" x="506" y="-117" font-family="Helvetica,sans-Serif" font-size="10.00">FEException.h</text>
</a>
</g>
</g>
<!-- Node3&#45;&gt;Node4 -->
<g id="edge3_Node000003_Node000004" class="edge">
<title>Node3&#45;&gt;Node4</title>
<g id="a_edge3_Node000003_Node000004"><a xlink:title=" ">
<path fill="none" stroke="#63b8ff" d="M506,-164.75C506,-157.8 506,-147.85 506,-139.13"/>
<polygon fill="#63b8ff" stroke="#63b8ff" points="509.5,-139.09 506,-129.09 502.5,-139.09 509.5,-139.09"/>
</a>
</g>
</g>
<!-- Node5 -->
<g id="Node000005" class="node">
<title>Node5</title>
<g id="a_Node000005"><a xlink:href="_exception_8h_source.html" target="_top" xlink:title=" ">
<polygon fill="white" stroke="#666666" points="621,-74 547,-74 547,-55 621,-55 621,-74"/>
<text text-anchor="middle" x="584" y="-62" font-family="Helvetica,sans-Serif" font-size="10.00">Exception.h</text>
</a>
</g>
</g>
<!-- Node4&#45;&gt;Node5 -->
<g id="edge4_Node000004_Node000005" class="edge">
<title>Node4&#45;&gt;Node5</title>
<g id="a_edge4_Node000004_Node000005"><a xlink:title=" ">
<path fill="none" stroke="#63b8ff" d="M518.53,-109.98C530.4,-101.92 548.46,-89.65 562.61,-80.03"/>
<polygon fill="#63b8ff" stroke="#63b8ff" points="564.94,-82.69 571.24,-74.17 561,-76.9 564.94,-82.69"/>
</a>
</g>
</g>
<!-- Node10 -->
<g id="Node000010" class="node">
<title>Node10</title>
<g id="a_Node000010"><a xlink:title=" ">
<polygon fill="#e0e0e0" stroke="#999999" points="440,-19 384,-19 384,0 440,0 440,-19"/>
<text text-anchor="middle" x="412" y="-7" font-family="Helvetica,sans-Serif" font-size="10.00">sstream</text>
</a>
</g>
</g>
<!-- Node4&#45;&gt;Node10 -->
<g id="edge16_Node000004_Node000010" class="edge">
<title>Node4&#45;&gt;Node10</title>
<g id="a_edge16_Node000004_Node000010"><a xlink:title=" ">
<path fill="none" stroke="#63b8ff" d="M500,-110C491.08,-97.54 473.6,-73.78 457,-55 448.08,-44.92 437.4,-34.29 428.67,-25.96"/>
<polygon fill="#63b8ff" stroke="#63b8ff" points="431,-23.34 421.33,-19.02 426.2,-28.43 431,-23.34"/>
</a>
</g>
</g>
<!-- Node4&#45;&gt;Node11 -->
<g id="edge17_Node000004_Node000011" class="edge">
<title>Node4&#45;&gt;Node11</title>
<g id="a_edge17_Node000004_Node000011"><a xlink:title=" ">
<path fill="none" stroke="#63b8ff" d="M494.98,-109.93C478.7,-97.4 447.1,-73.53 419,-55 402.51,-44.13 383.36,-32.78 368.53,-24.27"/>
<polygon fill="#63b8ff" stroke="#63b8ff" points="369.91,-21.03 359.49,-19.12 366.44,-27.11 369.91,-21.03"/>
</a>
</g>
</g>
<!-- Node14 -->
<g id="Node000014" class="node">
<title>Node14</title>
<g id="a_Node000014"><a xlink:title=" ">
<polygon fill="#e0e0e0" stroke="#999999" points="503.5,-19 458.5,-19 458.5,0 503.5,0 503.5,-19"/>
<text text-anchor="middle" x="481" y="-7" font-family="Helvetica,sans-Serif" font-size="10.00">utility</text>
</a>
</g>
</g>
<!-- Node4&#45;&gt;Node14 -->
<g id="edge18_Node000004_Node000014" class="edge">
<title>Node4&#45;&gt;Node14</title>
<g id="a_edge18_Node000004_Node000014"><a xlink:title=" ">
<path fill="none" stroke="#63b8ff" d="M504.87,-109.8C503.18,-97.49 499.7,-74.35 495,-55 492.9,-46.34 490.02,-36.91 487.42,-28.96"/>
<polygon fill="#63b8ff" stroke="#63b8ff" points="490.66,-27.62 484.14,-19.27 484.02,-29.86 490.66,-27.62"/>
</a>
</g>
</g>
<!-- Node6 -->
<g id="Node000006" class="node">
<title>Node6</title>
<g id="a_Node000006"><a xlink:title=" ">
<polygon fill="#e0e0e0" stroke="#999999" points="200,-19 150,-19 150,0 200,0 200,-19"/>
<text text-anchor="middle" x="175" y="-7" font-family="Helvetica,sans-Serif" font-size="10.00">cstdint</text>
</a>
</g>
</g>
<!-- Node5&#45;&gt;Node6 -->
<g id="edge5_Node000005_Node000006" class="edge">
<title>Node5&#45;&gt;Node6</title>
<g id="a_edge5_Node000005_Node000006"><a xlink:title=" ">
<path fill="none" stroke="#63b8ff" d="M546.95,-59.78C481.01,-52.97 339.06,-37.5 220,-19 216.78,-18.5 213.44,-17.94 210.09,-17.36"/>
<polygon fill="#63b8ff" stroke="#63b8ff" points="210.64,-13.9 200.18,-15.55 209.39,-20.79 210.64,-13.9"/>
</a>
</g>
</g>
<!-- Node7 -->
<g id="Node000007" class="node">
<title>Node7</title>
<g id="a_Node000007"><a xlink:title=" ">
<polygon fill="#e0e0e0" stroke="#999999" points="570.5,-19 521.5,-19 521.5,0 570.5,0 570.5,-19"/>
<text text-anchor="middle" x="546" y="-7" font-family="Helvetica,sans-Serif" font-size="10.00">cstdlib</text>
</a>
</g>
</g>
<!-- Node5&#45;&gt;Node7 -->
<g id="edge6_Node000005_Node000007" class="edge">
<title>Node5&#45;&gt;Node7</title>
<g id="a_edge6_Node000005_Node000007"><a xlink:title=" ">
<path fill="none" stroke="#63b8ff" d="M577.73,-54.75C572.41,-47.34 564.64,-36.5 558.12,-27.41"/>
<polygon fill="#63b8ff" stroke="#63b8ff" points="560.83,-25.18 552.16,-19.09 555.14,-29.26 560.83,-25.18"/>
</a>
</g>
</g>
<!-- Node8 -->
<g id="Node000008" class="node">
<title>Node8</title>
<g id="a_Node000008"><a xlink:title=" ">
<polygon fill="#e0e0e0" stroke="#999999" points="653.5,-19 588.5,-19 588.5,0 653.5,0 653.5,-19"/>
<text text-anchor="middle" x="621" y="-7" font-family="Helvetica,sans-Serif" font-size="10.00">exception</text>
</a>
</g>
</g>
<!-- Node5&#45;&gt;Node8 -->
<g id="edge7_Node000005_Node000008" class="edge">
<title>Node5&#45;&gt;Node8</title>
<g id="a_edge7_Node000005_Node000008"><a xlink:title=" ">
<path fill="none" stroke="#63b8ff" d="M590.11,-54.75C595.28,-47.34 602.85,-36.5 609.19,-27.41"/>
<polygon fill="#63b8ff" stroke="#63b8ff" points="612.15,-29.29 615,-19.09 606.41,-25.29 612.15,-29.29"/>
</a>
</g>
</g>
<!-- Node9 -->
<g id="Node000009" class="node">
<title>Node9</title>
<g id="a_Node000009"><a xlink:title=" ">
<polygon fill="#e0e0e0" stroke="#999999" points="732,-19 672,-19 672,0 732,0 732,-19"/>
<text text-anchor="middle" x="702" y="-7" font-family="Helvetica,sans-Serif" font-size="10.00">iostream</text>
</a>
</g>
</g>
<!-- Node5&#45;&gt;Node9 -->
<g id="edge8_Node000005_Node000009" class="edge">
<title>Node5&#45;&gt;Node9</title>
<g id="a_edge8_Node000005_Node000009"><a xlink:title=" ">
<path fill="none" stroke="#63b8ff" d="M602.96,-54.98C622.03,-46.42 651.66,-33.11 673.55,-23.28"/>
<polygon fill="#63b8ff" stroke="#63b8ff" points="675.01,-26.46 682.7,-19.17 672.14,-20.07 675.01,-26.46"/>
</a>
</g>
</g>
<!-- Node5&#45;&gt;Node10 -->
<g id="edge9_Node000005_Node000010" class="edge">
<title>Node5&#45;&gt;Node10</title>
<g id="a_edge9_Node000005_Node000010"><a xlink:title=" ">
<path fill="none" stroke="#63b8ff" d="M556.37,-54.98C527.49,-46.09 481.99,-32.07 449.8,-22.15"/>
<polygon fill="#63b8ff" stroke="#63b8ff" points="450.44,-18.68 439.85,-19.08 448.38,-25.37 450.44,-18.68"/>
</a>
</g>
</g>
<!-- Node5&#45;&gt;Node11 -->
<g id="edge10_Node000005_Node000011" class="edge">
<title>Node5&#45;&gt;Node11</title>
<g id="a_edge10_Node000005_Node000011"><a xlink:title=" ">
<path fill="none" stroke="#63b8ff" d="M546.85,-56.27C507,-48.36 441.62,-34.95 376.36,-19.22"/>
<polygon fill="#63b8ff" stroke="#63b8ff" points="376.85,-15.74 366.31,-16.78 375.2,-22.54 376.85,-15.74"/>
</a>
</g>
</g>
<!-- Node12 -->
<g id="Node000012" class="node">
<title>Node12</title>
<g id="a_Node000012"><a xlink:title=" ">
<polygon fill="#e0e0e0" stroke="#999999" points="823.5,-19 750.5,-19 750.5,0 823.5,0 823.5,-19"/>
<text text-anchor="middle" x="787" y="-7" font-family="Helvetica,sans-Serif" font-size="10.00">string_view</text>
</a>
</g>
</g>
<!-- Node5&#45;&gt;Node12 -->
<g id="edge11_Node000005_Node000012" class="edge">
<title>Node5&#45;&gt;Node12</title>
<g id="a_edge11_Node000005_Node000012"><a xlink:title=" ">
<path fill="none" stroke="#63b8ff" d="M616.62,-54.98C651.29,-45.93 706.26,-31.58 744.35,-21.64"/>
<polygon fill="#63b8ff" stroke="#63b8ff" points="745.34,-24.99 754.13,-19.08 743.57,-18.22 745.34,-24.99"/>
</a>
</g>
</g>
<!-- Node13 -->
<g id="Node000013" class="node">
<title>Node13</title>
<g id="a_Node000013"><a xlink:title=" ">
<polygon fill="#e0e0e0" stroke="#999999" points="298.5,-19 229.5,-19 229.5,0 298.5,0 298.5,-19"/>
<text text-anchor="middle" x="264" y="-7" font-family="Helvetica,sans-Serif" font-size="10.00">type_traits</text>
</a>
</g>
</g>
<!-- Node5&#45;&gt;Node13 -->
<g id="edge12_Node000005_Node000013" class="edge">
<title>Node5&#45;&gt;Node13</title>
<g id="a_edge12_Node000005_Node000013"><a xlink:title=" ">
<path fill="none" stroke="#63b8ff" d="M546.72,-57.49C494.46,-49.03 396.45,-33.09 313,-19 311.54,-18.75 310.05,-18.5 308.55,-18.25"/>
<polygon fill="#63b8ff" stroke="#63b8ff" points="308.97,-14.77 298.53,-16.53 307.79,-21.67 308.97,-14.77"/>
</a>
</g>
</g>
<!-- Node5&#45;&gt;Node14 -->
<g id="edge13_Node000005_Node000014" class="edge">
<title>Node5&#45;&gt;Node14</title>
<g id="a_edge13_Node000005_Node000014"><a xlink:title=" ">
<path fill="none" stroke="#63b8ff" d="M567.45,-54.98C551.11,-46.57 525.87,-33.59 506.87,-23.81"/>
<polygon fill="#63b8ff" stroke="#63b8ff" points="508.34,-20.63 497.85,-19.17 505.14,-26.86 508.34,-20.63"/>
</a>
</g>
</g>
<!-- Node5&#45;&gt;Node15 -->
<g id="edge14_Node000005_Node000015" class="edge">
<title>Node5&#45;&gt;Node15</title>
<g id="a_edge14_Node000005_Node000015"><a xlink:title=" ">
<path fill="none" stroke="#63b8ff" d="M621.01,-57.08C625.71,-56.34 630.47,-55.63 635,-55 776.58,-35.42 816.49,-45.37 960.25,-19.08"/>
<polygon fill="#63b8ff" stroke="#63b8ff" points="961.13,-22.48 970.32,-17.21 959.85,-15.6 961.13,-22.48"/>
</a>
</g>
</g>
<!-- Node16 -->
<g id="Node000016" class="node">
<title>Node16</title>
<g id="a_Node000016"><a xlink:title=" ">
<polygon fill="#e0e0e0" stroke="#999999" points="952.5,-19 841.5,-19 841.5,0 952.5,0 952.5,-19"/>
<text text-anchor="middle" x="897" y="-7" font-family="Helvetica,sans-Serif" font-size="10.00">PlatformSupport.inl</text>
</a>
</g>
</g>
<!-- Node5&#45;&gt;Node16 -->
<g id="edge15_Node000005_Node000016" class="edge">
<title>Node5&#45;&gt;Node16</title>
<g id="a_edge15_Node000005_Node000016"><a xlink:title=" ">
<path fill="none" stroke="#63b8ff" d="M621.13,-57.21C674.4,-48.19 773.07,-31.49 836.83,-20.69"/>
<polygon fill="#63b8ff" stroke="#63b8ff" points="837.48,-24.13 846.75,-19.01 836.31,-17.23 837.48,-24.13"/>
</a>
</g>
</g>
<!-- Node17&#45;&gt;Node18 -->
<g id="edge20_Node000017_Node000018" class="edge">
<title>Node17&#45;&gt;Node18</title>
<g id="a_edge20_Node000017_Node000018"><a xlink:title=" ">
<path fill="none" stroke="#63b8ff" d="M153.71,-164.75C150.19,-157.57 145.09,-147.18 140.72,-138.27"/>
<polygon fill="#63b8ff" stroke="#63b8ff" points="143.76,-136.53 136.21,-129.09 137.48,-139.61 143.76,-136.53"/>
</a>
</g>
</g>
<!-- Node17&#45;&gt;Node20 -->
<g id="edge27_Node000017_Node000020" class="edge">
<title>Node17&#45;&gt;Node20</title>
<g id="a_edge27_Node000017_Node000020"><a xlink:title=" ">
<path fill="none" stroke="#63b8ff" d="M164.44,-164.9C174.01,-152.31 192.84,-128.39 211,-110 221.31,-99.57 233.76,-88.85 243.9,-80.55"/>
<polygon fill="#63b8ff" stroke="#63b8ff" points="246.19,-83.2 251.77,-74.2 241.79,-77.75 246.19,-83.2"/>
</a>
</g>
</g>
<!-- Node18&#45;&gt;Node6 -->
<g id="edge23_Node000018_Node000006" class="edge">
<title>Node18&#45;&gt;Node6</title>
<g id="a_edge23_Node000018_Node000006"><a xlink:title=" ">
<path fill="none" stroke="#63b8ff" d="M135.15,-109.83C139.63,-97.56 148.17,-74.46 156,-55 159.53,-46.23 163.62,-36.58 167.11,-28.51"/>
<polygon fill="#63b8ff" stroke="#63b8ff" points="170.32,-29.89 171.1,-19.32 163.91,-27.09 170.32,-29.89"/>
</a>
</g>
</g>
<!-- Node18&#45;&gt;Node11 -->
<g id="edge24_Node000018_Node000011" class="edge">
<title>Node18&#45;&gt;Node11</title>
<g id="a_edge24_Node000018_Node000011"><a xlink:title=" ">
<path fill="none" stroke="#63b8ff" d="M143.18,-109.8C160.43,-96.67 194.91,-71.56 227,-55 254.71,-40.7 288.12,-28.45 312.13,-20.44"/>
<polygon fill="#63b8ff" stroke="#63b8ff" points="313.39,-23.72 321.8,-17.28 311.21,-17.06 313.39,-23.72"/>
</a>
</g>
</g>
<!-- Node18&#45;&gt;Node13 -->
<g id="edge25_Node000018_Node000013" class="edge">
<title>Node18&#45;&gt;Node13</title>
<g id="a_edge25_Node000018_Node000013"><a xlink:title=" ">
<path fill="none" stroke="#63b8ff" d="M139.46,-109.65C150.56,-96.77 172.47,-72.48 194,-55 208.17,-43.5 225.47,-32.48 239.32,-24.28"/>
<polygon fill="#63b8ff" stroke="#63b8ff" points="241.39,-27.13 248.29,-19.08 237.88,-21.07 241.39,-27.13"/>
</a>
</g>
</g>
<!-- Node19 -->
<g id="Node000019" class="node">
<title>Node19</title>
<g id="a_Node000019"><a xlink:title=" ">
<polygon fill="#e0e0e0" stroke="#999999" points="42,-74 0,-74 0,-55 42,-55 42,-74"/>
<text text-anchor="middle" x="21" y="-62" font-family="Helvetica,sans-Serif" font-size="10.00">array</text>
</a>
</g>
</g>
<!-- Node18&#45;&gt;Node19 -->
<g id="edge21_Node000018_Node000019" class="edge">
<title>Node18&#45;&gt;Node19</title>
<g id="a_edge21_Node000018_Node000019"><a xlink:title=" ">
<path fill="none" stroke="#63b8ff" d="M114.17,-109.98C96.39,-101.5 68.85,-88.35 48.32,-78.54"/>
<polygon fill="#63b8ff" stroke="#63b8ff" points="49.69,-75.32 39.16,-74.17 46.67,-81.64 49.69,-75.32"/>
</a>
</g>
</g>
<!-- Node18&#45;&gt;Node20 -->
<g id="edge22_Node000018_Node000020" class="edge">
<title>Node18&#45;&gt;Node20</title>
<g id="a_edge22_Node000018_Node000020"><a xlink:title=" ">
<path fill="none" stroke="#63b8ff" d="M153.05,-109.98C174.41,-101.34 207.7,-87.87 232.06,-78.02"/>
<polygon fill="#63b8ff" stroke="#63b8ff" points="233.61,-81.17 241.57,-74.17 230.99,-74.68 233.61,-81.17"/>
</a>
</g>
</g>
<!-- Node21 -->
<g id="Node000021" class="node">
<title>Node21</title>
<g id="a_Node000021"><a xlink:title=" ">
<polygon fill="#e0e0e0" stroke="#999999" points="104,-74 60,-74 60,-55 104,-55 104,-74"/>
<text text-anchor="middle" x="82" y="-62" font-family="Helvetica,sans-Serif" font-size="10.00">limits</text>
</a>
</g>
</g>
<!-- Node18&#45;&gt;Node21 -->
<g id="edge26_Node000018_Node000021" class="edge">
<title>Node18&#45;&gt;Node21</title>
<g id="a_edge26_Node000018_Node000021"><a xlink:title=" ">
<path fill="none" stroke="#63b8ff" d="M123.74,-109.75C116.54,-102.11 105.89,-90.82 97.15,-81.56"/>
<polygon fill="#63b8ff" stroke="#63b8ff" points="99.51,-78.96 90.1,-74.09 94.42,-83.76 99.51,-78.96"/>
</a>
</g>
</g>
<!-- Node22&#45;&gt;Node20 -->
<g id="edge33_Node000022_Node000020" class="edge">
<title>Node22&#45;&gt;Node20</title>
<g id="a_edge33_Node000022_Node000020"><a xlink:title=" ">
<path fill="none" stroke="#63b8ff" d="M293.28,-164.98C290.43,-156.03 285.85,-141.54 282,-129 277.35,-113.85 272.21,-96.63 268.45,-83.95"/>
<polygon fill="#63b8ff" stroke="#63b8ff" points="271.74,-82.74 265.54,-74.14 265.02,-84.72 271.74,-82.74"/>
</a>
</g>
</g>
<!-- Node22&#45;&gt;Node23 -->
<g id="edge29_Node000022_Node000023" class="edge">
<title>Node22&#45;&gt;Node23</title>
<g id="a_edge29_Node000022_Node000023"><a xlink:title=" ">
<path fill="none" stroke="#63b8ff" d="M299.8,-164.75C302.91,-157.57 307.42,-147.18 311.29,-138.27"/>
<polygon fill="#63b8ff" stroke="#63b8ff" points="314.5,-139.66 315.27,-129.09 308.08,-136.87 314.5,-139.66"/>
</a>
</g>
</g>
<!-- Node24 -->
<g id="Node000024" class="node">
<title>Node24</title>
<g id="a_Node000024"><a xlink:title=" ">
<polygon fill="#e0e0e0" stroke="#999999" points="376.5,-74 307.5,-74 307.5,-55 376.5,-55 376.5,-74"/>
<text text-anchor="middle" x="342" y="-62" font-family="Helvetica,sans-Serif" font-size="10.00">Eigen/Core</text>
</a>
</g>
</g>
<!-- Node22&#45;&gt;Node24 -->
<g id="edge32_Node000022_Node000024" class="edge">
<title>Node22&#45;&gt;Node24</title>
<g id="a_edge32_Node000022_Node000024"><a xlink:title=" ">
<path fill="none" stroke="#63b8ff" d="M315.58,-164.98C329.67,-157.68 347.6,-145.68 356,-129 363.28,-114.54 358.01,-96.35 351.96,-83.14"/>
<polygon fill="#63b8ff" stroke="#63b8ff" points="355.05,-81.49 347.38,-74.17 348.81,-84.67 355.05,-81.49"/>
</a>
</g>
</g>
<!-- Node23&#45;&gt;Node20 -->
<g id="edge31_Node000023_Node000020" class="edge">
<title>Node23&#45;&gt;Node20</title>
<g id="a_edge31_Node000023_Node000020"><a xlink:title=" ">
<path fill="none" stroke="#63b8ff" d="M310,-109.98C301.81,-102.23 289.49,-90.58 279.53,-81.14"/>
<polygon fill="#63b8ff" stroke="#63b8ff" points="281.83,-78.5 272.16,-74.17 277.02,-83.59 281.83,-78.5"/>
</a>
</g>
</g>
<!-- Node23&#45;&gt;Node24 -->
<g id="edge30_Node000023_Node000024" class="edge">
<title>Node23&#45;&gt;Node24</title>
<g id="a_edge30_Node000023_Node000024"><a xlink:title=" ">
<path fill="none" stroke="#63b8ff" d="M322.8,-109.75C325.91,-102.57 330.42,-92.18 334.29,-83.27"/>
<polygon fill="#63b8ff" stroke="#63b8ff" points="337.5,-84.66 338.27,-74.09 331.08,-81.87 337.5,-84.66"/>
</a>
</g>
</g>
</g>
</svg>
