<?xml version="1.0" encoding="UTF-8" standalone="no"?>
<!DOCTYPE svg PUBLIC "-//W3C//DTD SVG 1.1//EN"
 "http://www.w3.org/Graphics/SVG/1.1/DTD/svg11.dtd">
<!-- Generated by graphviz version 2.43.0 (0)
 -->
<!-- Title: solver/FE/Basis/BasisTraits.h Pages: 1 -->
<svg width="602pt" height="159pt"
 viewBox="0.00 0.00 602.00 159.00" xmlns="http://www.w3.org/2000/svg" xmlns:xlink="http://www.w3.org/1999/xlink">
<g id="graph0" class="graph" transform="scale(1 1) rotate(0) translate(4 155)">
<title>solver/FE/Basis/BasisTraits.h</title>
<!-- Node1 -->
<g id="Node000001" class="node">
<title>Node1</title>
<g id="a_Node000001"><a xlink:title="Reference&#45;topology vocabulary (BasisTopology) and the internal ElementType/topology/order maps.">
<polygon fill="#999999" stroke="#666666" points="482,-151 327,-151 327,-132 482,-132 482,-151"/>
<text text-anchor="middle" x="404.5" y="-139" font-family="Helvetica,sans-Serif" font-size="10.00">solver/FE/Basis/BasisTraits.h</text>
</a>
</g>
</g>
<!-- Node2 -->
<g id="Node000002" class="node">
<title>Node2</title>
<g id="a_Node000002"><a xlink:href="_basis_function_8h_source.html" target="_top" xlink:title=" ">
<polygon fill="white" stroke="#666666" points="364.5,-90.5 194.5,-90.5 194.5,-71.5 364.5,-71.5 364.5,-90.5"/>
<text text-anchor="middle" x="279.5" y="-78.5" font-family="Helvetica,sans-Serif" font-size="10.00">solver/FE/Basis/BasisFunction.h</text>
</a>
</g>
</g>
<!-- Node1&#45;&gt;Node2 -->
<g id="edge1_Node000001_Node000002" class="edge">
<title>Node1&#45;&gt;Node2</title>
<g id="a_edge1_Node000001_Node000002"><a xlink:title=" ">
<path fill="none" stroke="#63b8ff" d="M377.01,-127.63C352.9,-116.35 318.54,-100.27 297.7,-90.52"/>
<polygon fill="#63b8ff" stroke="#63b8ff" points="375.78,-130.92 386.32,-131.99 378.75,-124.58 375.78,-130.92"/>
</a>
</g>
</g>
<!-- Node4 -->
<g id="Node000004" class="node">
<title>Node4</title>
<g id="a_Node000004"><a xlink:href="_lagrange_basis_8h_source.html" target="_top" xlink:title=" ">
<polygon fill="white" stroke="#666666" points="487,-30 348,-30 348,0 487,0 487,-30"/>
<text text-anchor="start" x="356" y="-18" font-family="Helvetica,sans-Serif" font-size="10.00">solver/FE/Basis/Lagrange</text>
<text text-anchor="middle" x="417.5" y="-7" font-family="Helvetica,sans-Serif" font-size="10.00">Basis.h</text>
</a>
</g>
</g>
<!-- Node1&#45;&gt;Node4 -->
<g id="edge5_Node000001_Node000004" class="edge">
<title>Node1&#45;&gt;Node4</title>
<g id="a_edge5_Node000001_Node000004"><a xlink:title=" ">
<path fill="none" stroke="#63b8ff" d="M406.44,-121.91C409.06,-96.83 413.67,-52.72 416.02,-30.16"/>
<polygon fill="#63b8ff" stroke="#63b8ff" points="402.95,-121.63 405.39,-131.94 409.91,-122.36 402.95,-121.63"/>
</a>
</g>
</g>
<!-- Node6 -->
<g id="Node000006" class="node">
<title>Node6</title>
<g id="a_Node000006"><a xlink:href="_node_ordering_conventions_8h_source.html" target="_top" xlink:title=" ">
<polygon fill="white" stroke="#666666" points="594,-96 433,-96 433,-66 594,-66 594,-96"/>
<text text-anchor="start" x="441" y="-84" font-family="Helvetica,sans-Serif" font-size="10.00">solver/FE/Basis/NodeOrdering</text>
<text text-anchor="middle" x="513.5" y="-73" font-family="Helvetica,sans-Serif" font-size="10.00">Conventions.h</text>
</a>
</g>
</g>
<!-- Node1&#45;&gt;Node6 -->
<g id="edge6_Node000001_Node000006" class="edge">
<title>Node1&#45;&gt;Node6</title>
<g id="a_edge6_Node000001_Node000006"><a xlink:title=" ">
<path fill="none" stroke="#63b8ff" d="M429.52,-127.07C446.78,-117.81 469.67,-105.52 487.2,-96.11"/>
<polygon fill="#63b8ff" stroke="#63b8ff" points="427.74,-124.06 420.58,-131.87 431.05,-130.22 427.74,-124.06"/>
</a>
</g>
</g>
<!-- Node3 -->
<g id="Node000003" class="node">
<title>Node3</title>
<g id="a_Node000003"><a xlink:href="_basis_factory_8h.html" target="_top" xlink:title="Runtime creation of basis families.">
<polygon fill="white" stroke="#666666" points="163,-24.5 0,-24.5 0,-5.5 163,-5.5 163,-24.5"/>
<text text-anchor="middle" x="81.5" y="-12.5" font-family="Helvetica,sans-Serif" font-size="10.00">solver/FE/Basis/BasisFactory.h</text>
</a>
</g>
</g>
<!-- Node2&#45;&gt;Node3 -->
<g id="edge2_Node000002_Node000003" class="edge">
<title>Node2&#45;&gt;Node3</title>
<g id="a_edge2_Node000002_Node000003"><a xlink:title=" ">
<path fill="none" stroke="#63b8ff" d="M243.13,-68.24C204.06,-55.61 142.9,-35.85 108.1,-24.6"/>
<polygon fill="#63b8ff" stroke="#63b8ff" points="242.21,-71.62 252.8,-71.37 244.36,-64.96 242.21,-71.62"/>
</a>
</g>
</g>
<!-- Node2&#45;&gt;Node4 -->
<g id="edge3_Node000002_Node000004" class="edge">
<title>Node2&#45;&gt;Node4</title>
<g id="a_edge3_Node000002_Node000004"><a xlink:title=" ">
<path fill="none" stroke="#63b8ff" d="M307.37,-67.08C330.47,-56.36 363.27,-41.15 387.06,-30.12"/>
<polygon fill="#63b8ff" stroke="#63b8ff" points="305.71,-63.99 298.11,-71.37 308.66,-70.34 305.71,-63.99"/>
</a>
</g>
</g>
<!-- Node5 -->
<g id="Node000005" class="node">
<title>Node5</title>
<g id="a_Node000005"><a xlink:href="_serendipity_basis_8h.html" target="_top" xlink:title="Reduced&#45;degree&#45;of&#45;freedom serendipity bases.">
<polygon fill="white" stroke="#666666" points="330,-30 181,-30 181,0 330,0 330,-30"/>
<text text-anchor="start" x="189" y="-18" font-family="Helvetica,sans-Serif" font-size="10.00">solver/FE/Basis/Serendipity</text>
<text text-anchor="middle" x="255.5" y="-7" font-family="Helvetica,sans-Serif" font-size="10.00">Basis.h</text>
</a>
</g>
</g>
<!-- Node2&#45;&gt;Node5 -->
<g id="edge4_Node000002_Node000005" class="edge">
<title>Node2&#45;&gt;Node5</title>
<g id="a_edge4_Node000002_Node000005"><a xlink:title=" ">
<path fill="none" stroke="#63b8ff" d="M272.74,-61.98C268.99,-51.98 264.39,-39.71 260.89,-30.36"/>
<polygon fill="#63b8ff" stroke="#63b8ff" points="269.47,-63.23 276.26,-71.37 276.03,-60.78 269.47,-63.23"/>
</a>
</g>
</g>
</g>
</svg>
