<?xml version="1.0" encoding="UTF-8" standalone="no"?>
<!DOCTYPE svg PUBLIC "-//W3C//DTD SVG 1.1//EN"
 "http://www.w3.org/Graphics/SVG/1.1/DTD/svg11.dtd">
<!-- Generated by graphviz version 2.43.0 (0)
 -->
<!-- Title: solver/FE/Math/Vector.h Pages: 1 -->
<svg width="495pt" height="214pt"
 viewBox="0.00 0.00 495.00 214.00" xmlns="http://www.w3.org/2000/svg" xmlns:xlink="http://www.w3.org/1999/xlink">
<g id="graph0" class="graph" transform="scale(1 1) rotate(0) translate(4 210)">
<title>solver/FE/Math/Vector.h</title>
<!-- Node1 -->
<g id="Node000001" class="node">
<title>Node1</title>
<g id="a_Node000001"><a xlink:title="Fixed&#45;size vector types for FE computations, backed by Eigen.">
<polygon fill="#999999" stroke="#666666" points="288,-206 157,-206 157,-187 288,-187 288,-206"/>
<text text-anchor="middle" x="222.5" y="-194" font-family="Helvetica,sans-Serif" font-size="10.00">solver/FE/Math/Vector.h</text>
</a>
</g>
</g>
<!-- Node2 -->
<g id="Node000002" class="node">
<title>Node2</title>
<g id="a_Node000002"><a xlink:href="_basis_function_8h_source.html" target="_top" xlink:title=" ">
<polygon fill="white" stroke="#666666" points="335.5,-85 165.5,-85 165.5,-66 335.5,-66 335.5,-85"/>
<text text-anchor="middle" x="250.5" y="-73" font-family="Helvetica,sans-Serif" font-size="10.00">solver/FE/Basis/BasisFunction.h</text>
</a>
</g>
</g>
<!-- Node1&#45;&gt;Node2 -->
<g id="edge1_Node000001_Node000002" class="edge">
<title>Node1&#45;&gt;Node2</title>
<g id="a_edge1_Node000001_Node000002"><a xlink:title=" ">
<path fill="none" stroke="#63b8ff" d="M174.95,-183.29C158.6,-176.56 142.03,-166.35 132.5,-151 125.47,-139.67 124.92,-131.97 132.5,-121 145.51,-102.18 167.57,-91.31 189.11,-85.04"/>
<polygon fill="#63b8ff" stroke="#63b8ff" points="173.89,-186.63 184.49,-186.85 176.35,-180.07 173.89,-186.63"/>
</a>
</g>
</g>
<!-- Node6 -->
<g id="Node000006" class="node">
<title>Node6</title>
<g id="a_Node000006"><a xlink:href="_node_ordering_conventions_8h_source.html" target="_top" xlink:title=" ">
<polygon fill="white" stroke="#666666" points="303,-151 142,-151 142,-121 303,-121 303,-151"/>
<text text-anchor="start" x="150" y="-139" font-family="Helvetica,sans-Serif" font-size="10.00">solver/FE/Basis/NodeOrdering</text>
<text text-anchor="middle" x="222.5" y="-128" font-family="Helvetica,sans-Serif" font-size="10.00">Conventions.h</text>
</a>
</g>
</g>
<!-- Node1&#45;&gt;Node6 -->
<g id="edge5_Node000001_Node000006" class="edge">
<title>Node1&#45;&gt;Node6</title>
<g id="a_edge5_Node000001_Node000006"><a xlink:title=" ">
<path fill="none" stroke="#63b8ff" d="M222.5,-176.65C222.5,-168.36 222.5,-158.78 222.5,-151.11"/>
<polygon fill="#63b8ff" stroke="#63b8ff" points="219,-176.87 222.5,-186.87 226,-176.87 219,-176.87"/>
</a>
</g>
</g>
<!-- Node7 -->
<g id="Node000007" class="node">
<title>Node7</title>
<g id="a_Node000007"><a xlink:href="_matrix_8h.html" target="_top" xlink:title="Fixed&#45;size matrix types for FE computations, backed by Eigen.">
<polygon fill="white" stroke="#666666" points="454,-145.5 321,-145.5 321,-126.5 454,-126.5 454,-145.5"/>
<text text-anchor="middle" x="387.5" y="-133.5" font-family="Helvetica,sans-Serif" font-size="10.00">solver/FE/Math/Matrix.h</text>
</a>
</g>
</g>
<!-- Node1&#45;&gt;Node7 -->
<g id="edge6_Node000001_Node000007" class="edge">
<title>Node1&#45;&gt;Node7</title>
<g id="a_edge6_Node000001_Node000007"><a xlink:title=" ">
<path fill="none" stroke="#63b8ff" d="M256.28,-183.52C288.18,-172.21 335.24,-155.53 363.48,-145.52"/>
<polygon fill="#63b8ff" stroke="#63b8ff" points="254.75,-180.35 246.49,-186.99 257.09,-186.95 254.75,-180.35"/>
</a>
</g>
</g>
<!-- Node3 -->
<g id="Node000003" class="node">
<title>Node3</title>
<g id="a_Node000003"><a xlink:href="_basis_factory_8h.html" target="_top" xlink:title="Runtime creation of basis families.">
<polygon fill="white" stroke="#666666" points="163,-24.5 0,-24.5 0,-5.5 163,-5.5 163,-24.5"/>
<text text-anchor="middle" x="81.5" y="-12.5" font-family="Helvetica,sans-Serif" font-size="10.00">solver/FE/Basis/BasisFactory.h</text>
</a>
</g>
</g>
<!-- Node2&#45;&gt;Node3 -->
<g id="edge2_Node000002_Node000003" class="edge">
<title>Node2&#45;&gt;Node3</title>
<g id="a_edge2_Node000002_Node000003"><a xlink:title=" ">
<path fill="none" stroke="#63b8ff" d="M216.33,-62.67C183.64,-51.36 135.15,-34.57 106.1,-24.52"/>
<polygon fill="#63b8ff" stroke="#63b8ff" points="215.33,-66.03 225.93,-65.99 217.62,-59.41 215.33,-66.03"/>
</a>
</g>
</g>
<!-- Node4 -->
<g id="Node000004" class="node">
<title>Node4</title>
<g id="a_Node000004"><a xlink:href="_lagrange_basis_8h_source.html" target="_top" xlink:title=" ">
<polygon fill="white" stroke="#666666" points="320,-30 181,-30 181,0 320,0 320,-30"/>
<text text-anchor="start" x="189" y="-18" font-family="Helvetica,sans-Serif" font-size="10.00">solver/FE/Basis/Lagrange</text>
<text text-anchor="middle" x="250.5" y="-7" font-family="Helvetica,sans-Serif" font-size="10.00">Basis.h</text>
</a>
</g>
</g>
<!-- Node2&#45;&gt;Node4 -->
<g id="edge3_Node000002_Node000004" class="edge">
<title>Node2&#45;&gt;Node4</title>
<g id="a_edge3_Node000002_Node000004"><a xlink:title=" ">
<path fill="none" stroke="#63b8ff" d="M250.5,-55.65C250.5,-47.36 250.5,-37.78 250.5,-30.11"/>
<polygon fill="#63b8ff" stroke="#63b8ff" points="247,-55.87 250.5,-65.87 254,-55.87 247,-55.87"/>
</a>
</g>
</g>
<!-- Node5 -->
<g id="Node000005" class="node">
<title>Node5</title>
<g id="a_Node000005"><a xlink:href="_serendipity_basis_8h.html" target="_top" xlink:title="Reduced&#45;degree&#45;of&#45;freedom serendipity bases.">
<polygon fill="white" stroke="#666666" points="487,-30 338,-30 338,0 487,0 487,-30"/>
<text text-anchor="start" x="346" y="-18" font-family="Helvetica,sans-Serif" font-size="10.00">solver/FE/Basis/Serendipity</text>
<text text-anchor="middle" x="412.5" y="-7" font-family="Helvetica,sans-Serif" font-size="10.00">Basis.h</text>
</a>
</g>
</g>
<!-- Node2&#45;&gt;Node5 -->
<g id="edge4_Node000002_Node000005" class="edge">
<title>Node2&#45;&gt;Node5</title>
<g id="a_edge4_Node000002_Node000005"><a xlink:title=" ">
<path fill="none" stroke="#63b8ff" d="M283.5,-62.58C309.58,-53.16 346.04,-40 373.55,-30.06"/>
<polygon fill="#63b8ff" stroke="#63b8ff" points="282.27,-59.31 274.06,-65.99 284.65,-65.89 282.27,-59.31"/>
</a>
</g>
</g>
<!-- Node7&#45;&gt;Node2 -->
<g id="edge7_Node000007_Node000002" class="edge">
<title>Node7&#45;&gt;Node2</title>
<g id="a_edge7_Node000007_Node000002"><a xlink:title=" ">
<path fill="none" stroke="#63b8ff" d="M358.07,-122.43C331.62,-111.14 293.49,-94.86 270.45,-85.02"/>
<polygon fill="#63b8ff" stroke="#63b8ff" points="357.01,-125.79 367.58,-126.49 359.76,-119.35 357.01,-125.79"/>
</a>
</g>
</g>
</g>
</svg>
