<?xml version="1.0" encoding="UTF-8" standalone="no"?>
<!DOCTYPE svg PUBLIC "-//W3C//DTD SVG 1.1//EN"
 "http://www.w3.org/Graphics/SVG/1.1/DTD/svg11.dtd">
<!-- Generated by graphviz version 2.43.0 (0)
 -->
<!-- Title: solver/FE/Math/Matrix.h Pages: 1 -->
<svg width="164pt" height="137pt"
 viewBox="0.00 0.00 164.00 137.00" xmlns="http://www.w3.org/2000/svg" xmlns:xlink="http://www.w3.org/1999/xlink">
<g id="graph0" class="graph" transform="scale(1 1) rotate(0) translate(4 133)">
<title>solver/FE/Math/Matrix.h</title>
<!-- Node1 -->
<g id="Node000001" class="node">
<title>Node1</title>
<g id="a_Node000001"><a xlink:title="Fixed&#45;size matrix types for FE computations, backed by Eigen.">
<polygon fill="#999999" stroke="#666666" points="149,-129 16,-129 16,-110 149,-110 149,-129"/>
<text text-anchor="middle" x="82.5" y="-117" font-family="Helvetica,sans-Serif" font-size="10.00">solver/FE/Math/Matrix.h</text>
</a>
</g>
</g>
<!-- Node2 -->
<g id="Node000002" class="node">
<title>Node2</title>
<g id="a_Node000002"><a xlink:href="_f_e_2_math_2_vector_8h.html" target="_top" xlink:title="Fixed&#45;size vector types for FE computations, backed by Eigen.">
<polygon fill="white" stroke="#666666" points="110.5,-74 54.5,-74 54.5,-55 110.5,-55 110.5,-74"/>
<text text-anchor="middle" x="82.5" y="-62" font-family="Helvetica,sans-Serif" font-size="10.00">Vector.h</text>
</a>
</g>
</g>
<!-- Node1&#45;&gt;Node2 -->
<g id="edge1_Node000001_Node000002" class="edge">
<title>Node1&#45;&gt;Node2</title>
<g id="a_edge1_Node000001_Node000002"><a xlink:title=" ">
<path fill="none" stroke="#63b8ff" d="M82.5,-109.75C82.5,-102.8 82.5,-92.85 82.5,-84.13"/>
<polygon fill="#63b8ff" stroke="#63b8ff" points="86,-84.09 82.5,-74.09 79,-84.09 86,-84.09"/>
</a>
</g>
</g>
<!-- Node3 -->
<g id="Node000003" class="node">
<title>Node3</title>
<g id="a_Node000003"><a xlink:title=" ">
<polygon fill="#e0e0e0" stroke="#999999" points="69,-19 0,-19 0,0 69,0 69,-19"/>
<text text-anchor="middle" x="34.5" y="-7" font-family="Helvetica,sans-Serif" font-size="10.00">Eigen/Core</text>
</a>
</g>
</g>
<!-- Node1&#45;&gt;Node3 -->
<g id="edge4_Node000001_Node000003" class="edge">
<title>Node1&#45;&gt;Node3</title>
<g id="a_edge4_Node000001_Node000003"><a xlink:title=" ">
<path fill="none" stroke="#63b8ff" d="M72.98,-109.95C64.37,-101.64 52.07,-88.23 45.5,-74 38.97,-59.86 36.29,-42.32 35.2,-29.26"/>
<polygon fill="#63b8ff" stroke="#63b8ff" points="38.69,-28.91 34.6,-19.13 31.7,-29.32 38.69,-28.91"/>
</a>
</g>
</g>
<!-- Node4 -->
<g id="Node000004" class="node">
<title>Node4</title>
<g id="a_Node000004"><a xlink:title=" ">
<polygon fill="#e0e0e0" stroke="#999999" points="156,-19 103,-19 103,0 156,0 156,-19"/>
<text text-anchor="middle" x="129.5" y="-7" font-family="Helvetica,sans-Serif" font-size="10.00">cstddef</text>
</a>
</g>
</g>
<!-- Node1&#45;&gt;Node4 -->
<g id="edge5_Node000001_Node000004" class="edge">
<title>Node1&#45;&gt;Node4</title>
<g id="a_edge5_Node000001_Node000004"><a xlink:title=" ">
<path fill="none" stroke="#63b8ff" d="M92.07,-109.97C100.71,-101.68 113.04,-88.28 119.5,-74 125.91,-59.84 128.3,-42.31 129.15,-29.25"/>
<polygon fill="#63b8ff" stroke="#63b8ff" points="132.66,-29.26 129.57,-19.13 125.66,-28.98 132.66,-29.26"/>
</a>
</g>
</g>
<!-- Node2&#45;&gt;Node3 -->
<g id="edge2_Node000002_Node000003" class="edge">
<title>Node2&#45;&gt;Node3</title>
<g id="a_edge2_Node000002_Node000003"><a xlink:title=" ">
<path fill="none" stroke="#63b8ff" d="M74.57,-54.75C67.65,-47.11 57.43,-35.82 49.05,-26.56"/>
<polygon fill="#63b8ff" stroke="#63b8ff" points="51.59,-24.15 42.28,-19.09 46.4,-28.85 51.59,-24.15"/>
</a>
</g>
</g>
<!-- Node2&#45;&gt;Node4 -->
<g id="edge3_Node000002_Node000004" class="edge">
<title>Node2&#45;&gt;Node4</title>
<g id="a_edge3_Node000002_Node000004"><a xlink:title=" ">
<path fill="none" stroke="#63b8ff" d="M90.26,-54.75C96.97,-47.18 106.84,-36.05 115.01,-26.84"/>
<polygon fill="#63b8ff" stroke="#63b8ff" points="117.87,-28.89 121.88,-19.09 112.63,-24.25 117.87,-28.89"/>
</a>
</g>
</g>
</g>
</svg>
