<?xml version="1.0" encoding="UTF-8" standalone="no"?>
<!DOCTYPE svg PUBLIC "-//W3C//DTD SVG 1.1//EN"
 "http://www.w3.org/Graphics/SVG/1.1/DTD/svg11.dtd">
<!-- Generated by graphviz version 2.43.0 (0)
 -->
<!-- Title: solver/FE/Math/Matrix.h Pages: 1 -->
<svg width="495pt" height="148pt"
 viewBox="0.00 0.00 495.00 148.00" xmlns="http://www.w3.org/2000/svg" xmlns:xlink="http://www.w3.org/1999/xlink">
<g id="graph0" class="graph" transform="scale(1 1) rotate(0) translate(4 144)">
<title>solver/FE/Math/Matrix.h</title>
<!-- Node1 -->
<g id="Node000001" class="node">
<title>Node1</title>
<g id="a_Node000001"><a xlink:title="Fixed&#45;size matrix types for FE computations, backed by Eigen.">
<polygon fill="#999999" stroke="#666666" points="317,-140 184,-140 184,-121 317,-121 317,-140"/>
<text text-anchor="middle" x="250.5" y="-128" font-family="Helvetica,sans-Serif" font-size="10.00">solver/FE/Math/Matrix.h</text>
</a>
</g>
</g>
<!-- Node2 -->
<g id="Node000002" class="node">
<title>Node2</title>
<g id="a_Node000002"><a xlink:href="_basis_function_8h_source.html" target="_top" xlink:title=" ">
<polygon fill="white" stroke="#666666" points="335.5,-85 165.5,-85 165.5,-66 335.5,-66 335.5,-85"/>
<text text-anchor="middle" x="250.5" y="-73" font-family="Helvetica,sans-Serif" font-size="10.00">solver/FE/Basis/BasisFunction.h</text>
</a>
</g>
</g>
<!-- Node1&#45;&gt;Node2 -->
<g id="edge1_Node000001_Node000002" class="edge">
<title>Node1&#45;&gt;Node2</title>
<g id="a_edge1_Node000001_Node000002"><a xlink:title=" ">
<path fill="none" stroke="#63b8ff" d="M250.5,-110.66C250.5,-101.93 250.5,-91.99 250.5,-85.09"/>
<polygon fill="#63b8ff" stroke="#63b8ff" points="247,-110.75 250.5,-120.75 254,-110.75 247,-110.75"/>
</a>
</g>
</g>
<!-- Node3 -->
<g id="Node000003" class="node">
<title>Node3</title>
<g id="a_Node000003"><a xlink:href="_basis_factory_8h.html" target="_top" xlink:title="Runtime creation of basis families.">
<polygon fill="white" stroke="#666666" points="163,-24.5 0,-24.5 0,-5.5 163,-5.5 163,-24.5"/>
<text text-anchor="middle" x="81.5" y="-12.5" font-family="Helvetica,sans-Serif" font-size="10.00">solver/FE/Basis/BasisFactory.h</text>
</a>
</g>
</g>
<!-- Node2&#45;&gt;Node3 -->
<g id="edge2_Node000002_Node000003" class="edge">
<title>Node2&#45;&gt;Node3</title>
<g id="a_edge2_Node000002_Node000003"><a xlink:title=" ">
<path fill="none" stroke="#63b8ff" d="M216.33,-62.67C183.64,-51.36 135.15,-34.57 106.1,-24.52"/>
<polygon fill="#63b8ff" stroke="#63b8ff" points="215.33,-66.03 225.93,-65.99 217.62,-59.41 215.33,-66.03"/>
</a>
</g>
</g>
<!-- Node4 -->
<g id="Node000004" class="node">
<title>Node4</title>
<g id="a_Node000004"><a xlink:href="_lagrange_basis_8h_source.html" target="_top" xlink:title=" ">
<polygon fill="white" stroke="#666666" points="320,-30 181,-30 181,0 320,0 320,-30"/>
<text text-anchor="start" x="189" y="-18" font-family="Helvetica,sans-Serif" font-size="10.00">solver/FE/Basis/Lagrange</text>
<text text-anchor="middle" x="250.5" y="-7" font-family="Helvetica,sans-Serif" font-size="10.00">Basis.h</text>
</a>
</g>
</g>
<!-- Node2&#45;&gt;Node4 -->
<g id="edge3_Node000002_Node000004" class="edge">
<title>Node2&#45;&gt;Node4</title>
<g id="a_edge3_Node000002_Node000004"><a xlink:title=" ">
<path fill="none" stroke="#63b8ff" d="M250.5,-55.65C250.5,-47.36 250.5,-37.78 250.5,-30.11"/>
<polygon fill="#63b8ff" stroke="#63b8ff" points="247,-55.87 250.5,-65.87 254,-55.87 247,-55.87"/>
</a>
</g>
</g>
<!-- Node5 -->
<g id="Node000005" class="node">
<title>Node5</title>
<g id="a_Node000005"><a xlink:href="_serendipity_basis_8h.html" target="_top" xlink:title="Reduced&#45;degree&#45;of&#45;freedom serendipity bases.">
<polygon fill="white" stroke="#666666" points="487,-30 338,-30 338,0 487,0 487,-30"/>
<text text-anchor="start" x="346" y="-18" font-family="Helvetica,sans-Serif" font-size="10.00">solver/FE/Basis/Serendipity</text>
<text text-anchor="middle" x="412.5" y="-7" font-family="Helvetica,sans-Serif" font-size="10.00">Basis.h</text>
</a>
</g>
</g>
<!-- Node2&#45;&gt;Node5 -->
<g id="edge4_Node000002_Node000005" class="edge">
<title>Node2&#45;&gt;Node5</title>
<g id="a_edge4_Node000002_Node000005"><a xlink:title=" ">
<path fill="none" stroke="#63b8ff" d="M283.5,-62.58C309.58,-53.16 346.04,-40 373.55,-30.06"/>
<polygon fill="#63b8ff" stroke="#63b8ff" points="282.27,-59.31 274.06,-65.99 284.65,-65.89 282.27,-59.31"/>
</a>
</g>
</g>
</g>
</svg>
