<?xml version="1.0" encoding="UTF-8" standalone="no"?>
<!DOCTYPE svg PUBLIC "-//W3C//DTD SVG 1.1//EN"
 "http://www.w3.org/Graphics/SVG/1.1/DTD/svg11.dtd">
<!-- Generated by graphviz version 2.43.0 (0)
 -->
<!-- Title: solver/FE/Quadrature/QuadratureRule.cpp Pages: 1 -->
<svg width="1141pt" height="214pt"
 viewBox="0.00 0.00 1141.00 214.00" xmlns="http://www.w3.org/2000/svg" xmlns:xlink="http://www.w3.org/1999/xlink">
<g id="graph0" class="graph" transform="scale(1 1) rotate(0) translate(4 210)">
<title>solver/FE/Quadrature/QuadratureRule.cpp</title>
<!-- Node1 -->
<g id="Node000001" class="node">
<title>Node1</title>
<g id="a_Node000001"><a xlink:title="Internal construction and structural validation for quadrature rules.">
<polygon fill="#999999" stroke="#666666" points="763,-206 644,-206 644,-176 763,-176 763,-206"/>
<text text-anchor="start" x="652" y="-194" font-family="Helvetica,sans-Serif" font-size="10.00">solver/FE/Quadrature</text>
<text text-anchor="middle" x="703.5" y="-183" font-family="Helvetica,sans-Serif" font-size="10.00">/QuadratureRule.cpp</text>
</a>
</g>
</g>
<!-- Node2 -->
<g id="Node000002" class="node">
<title>Node2</title>
<g id="a_Node000002"><a xlink:href="_quadrature_rule_8h.html" target="_top" xlink:title="Value type for reference&#45;space quadrature rules.">
<polygon fill="white" stroke="#666666" points="329.5,-140 185.5,-140 185.5,-110 329.5,-110 329.5,-140"/>
<text text-anchor="start" x="193.5" y="-128" font-family="Helvetica,sans-Serif" font-size="10.00">FE/Quadrature/Quadrature</text>
<text text-anchor="middle" x="257.5" y="-117" font-family="Helvetica,sans-Serif" font-size="10.00">Rule.h</text>
</a>
</g>
</g>
<!-- Node1&#45;&gt;Node2 -->
<g id="edge1_Node000001_Node000002" class="edge">
<title>Node1&#45;&gt;Node2</title>
<g id="a_edge1_Node000001_Node000002"><a xlink:title=" ">
<path fill="none" stroke="#63b8ff" d="M643.81,-181.44C565.53,-170.2 427.82,-150.44 339.71,-137.8"/>
<polygon fill="#63b8ff" stroke="#63b8ff" points="340.15,-134.32 329.75,-136.37 339.16,-141.25 340.15,-134.32"/>
</a>
</g>
</g>
<!-- Node7 -->
<g id="Node000007" class="node">
<title>Node7</title>
<g id="a_Node000007"><a xlink:title=" ">
<polygon fill="#e0e0e0" stroke="#999999" points="480.5,-19 436.5,-19 436.5,0 480.5,0 480.5,-19"/>
<text text-anchor="middle" x="458.5" y="-7" font-family="Helvetica,sans-Serif" font-size="10.00">string</text>
</a>
</g>
</g>
<!-- Node1&#45;&gt;Node7 -->
<g id="edge32_Node000001_Node000007" class="edge">
<title>Node1&#45;&gt;Node7</title>
<g id="a_edge32_Node000001_Node000007"><a xlink:title=" ">
<path fill="none" stroke="#63b8ff" d="M678.26,-175.96C661.53,-166.37 639.27,-153.07 620.5,-140 565.64,-101.8 505.14,-50.89 476.04,-25.8"/>
<polygon fill="#63b8ff" stroke="#63b8ff" points="478.23,-23.06 468.38,-19.16 473.64,-28.36 478.23,-23.06"/>
</a>
</g>
</g>
<!-- Node14 -->
<g id="Node000014" class="node">
<title>Node14</title>
<g id="a_Node000014"><a xlink:href="_f_e_exception_8h.html" target="_top" xlink:title="Exception hierarchy for error handling in the FE library.">
<polygon fill="white" stroke="#666666" points="777.5,-134.5 629.5,-134.5 629.5,-115.5 777.5,-115.5 777.5,-134.5"/>
<text text-anchor="middle" x="703.5" y="-122.5" font-family="Helvetica,sans-Serif" font-size="10.00">FE/Common/FEException.h</text>
</a>
</g>
</g>
<!-- Node1&#45;&gt;Node14 -->
<g id="edge15_Node000001_Node000014" class="edge">
<title>Node1&#45;&gt;Node14</title>
<g id="a_edge15_Node000001_Node000014"><a xlink:title=" ">
<path fill="none" stroke="#63b8ff" d="M703.5,-175.8C703.5,-166.7 703.5,-154.79 703.5,-144.9"/>
<polygon fill="#63b8ff" stroke="#63b8ff" points="707,-144.84 703.5,-134.84 700,-144.84 707,-144.84"/>
</a>
</g>
</g>
<!-- Node21 -->
<g id="Node000021" class="node">
<title>Node21</title>
<g id="a_Node000021"><a xlink:title=" ">
<polygon fill="#e0e0e0" stroke="#999999" points="1133,-19 1088,-19 1088,0 1133,0 1133,-19"/>
<text text-anchor="middle" x="1110.5" y="-7" font-family="Helvetica,sans-Serif" font-size="10.00">utility</text>
</a>
</g>
</g>
<!-- Node1&#45;&gt;Node21 -->
<g id="edge33_Node000001_Node000021" class="edge">
<title>Node1&#45;&gt;Node21</title>
<g id="a_edge33_Node000001_Node000021"><a xlink:title=" ">
<path fill="none" stroke="#63b8ff" d="M727.37,-175.86C756.22,-159.05 806.52,-130.69 851.5,-110 931.33,-73.27 1028.91,-38.36 1078.4,-21.33"/>
<polygon fill="#63b8ff" stroke="#63b8ff" points="1079.6,-24.62 1087.93,-18.07 1077.33,-18 1079.6,-24.62"/>
</a>
</g>
</g>
<!-- Node23 -->
<g id="Node000023" class="node">
<title>Node23</title>
<g id="a_Node000023"><a xlink:title=" ">
<polygon fill="#e0e0e0" stroke="#999999" points="907,-134.5 860,-134.5 860,-115.5 907,-115.5 907,-134.5"/>
<text text-anchor="middle" x="883.5" y="-122.5" font-family="Helvetica,sans-Serif" font-size="10.00">cmath</text>
</a>
</g>
</g>
<!-- Node1&#45;&gt;Node23 -->
<g id="edge31_Node000001_Node000023" class="edge">
<title>Node1&#45;&gt;Node23</title>
<g id="a_edge31_Node000001_Node000023"><a xlink:title=" ">
<path fill="none" stroke="#63b8ff" d="M743.95,-175.93C772.39,-166 811.32,-152.31 845.5,-140 847.14,-139.41 848.81,-138.8 850.5,-138.19"/>
<polygon fill="#63b8ff" stroke="#63b8ff" points="852.02,-141.36 860.21,-134.64 849.61,-134.79 852.02,-141.36"/>
</a>
</g>
</g>
<!-- Node3 -->
<g id="Node000003" class="node">
<title>Node3</title>
<g id="a_Node000003"><a xlink:href="_types_8h.html" target="_top" xlink:title="Fundamental type definitions for the finite element library.">
<polygon fill="white" stroke="#666666" points="363.5,-74 247.5,-74 247.5,-55 363.5,-55 363.5,-74"/>
<text text-anchor="middle" x="305.5" y="-62" font-family="Helvetica,sans-Serif" font-size="10.00">FE/Common/Types.h</text>
</a>
</g>
</g>
<!-- Node2&#45;&gt;Node3 -->
<g id="edge2_Node000002_Node000003" class="edge">
<title>Node2&#45;&gt;Node3</title>
<g id="a_edge2_Node000002_Node000003"><a xlink:title=" ">
<path fill="none" stroke="#63b8ff" d="M269.12,-109.84C275.94,-101.52 284.61,-90.96 291.77,-82.23"/>
<polygon fill="#63b8ff" stroke="#63b8ff" points="294.67,-84.22 298.31,-74.27 289.26,-79.78 294.67,-84.22"/>
</a>
</g>
</g>
<!-- Node5 -->
<g id="Node000005" class="node">
<title>Node5</title>
<g id="a_Node000005"><a xlink:title=" ">
<polygon fill="#e0e0e0" stroke="#999999" points="140,-19 87,-19 87,0 140,0 140,-19"/>
<text text-anchor="middle" x="113.5" y="-7" font-family="Helvetica,sans-Serif" font-size="10.00">cstddef</text>
</a>
</g>
</g>
<!-- Node2&#45;&gt;Node5 -->
<g id="edge12_Node000002_Node000005" class="edge">
<title>Node2&#45;&gt;Node5</title>
<g id="a_edge12_Node000002_Node000005"><a xlink:title=" ">
<path fill="none" stroke="#63b8ff" d="M233.48,-109.97C217.89,-100.49 197.4,-87.32 180.5,-74 161.73,-59.22 142.11,-40.12 128.98,-26.75"/>
<polygon fill="#63b8ff" stroke="#63b8ff" points="131.19,-23.99 121.72,-19.25 126.16,-28.86 131.19,-23.99"/>
</a>
</g>
</g>
<!-- Node10 -->
<g id="Node000010" class="node">
<title>Node10</title>
<g id="a_Node000010"><a xlink:href="_f_e_2_math_2_vector_8h.html" target="_top" xlink:title="Fixed&#45;size vector types for FE computations, backed by Eigen.">
<polygon fill="white" stroke="#666666" points="133.5,-74 35.5,-74 35.5,-55 133.5,-55 133.5,-74"/>
<text text-anchor="middle" x="84.5" y="-62" font-family="Helvetica,sans-Serif" font-size="10.00">FE/Math/Vector.h</text>
</a>
</g>
</g>
<!-- Node2&#45;&gt;Node10 -->
<g id="edge9_Node000002_Node000010" class="edge">
<title>Node2&#45;&gt;Node10</title>
<g id="a_edge9_Node000002_Node000010"><a xlink:title=" ">
<path fill="none" stroke="#63b8ff" d="M216.06,-109.99C186.59,-100.02 147.44,-86.78 119.53,-77.35"/>
<polygon fill="#63b8ff" stroke="#63b8ff" points="120.39,-73.94 109.8,-74.05 118.15,-80.57 120.39,-73.94"/>
</a>
</g>
</g>
<!-- Node12 -->
<g id="Node000012" class="node">
<title>Node12</title>
<g id="a_Node000012"><a xlink:title=" ">
<polygon fill="#e0e0e0" stroke="#999999" points="229.5,-74 189.5,-74 189.5,-55 229.5,-55 229.5,-74"/>
<text text-anchor="middle" x="209.5" y="-62" font-family="Helvetica,sans-Serif" font-size="10.00">span</text>
</a>
</g>
</g>
<!-- Node2&#45;&gt;Node12 -->
<g id="edge13_Node000002_Node000012" class="edge">
<title>Node2&#45;&gt;Node12</title>
<g id="a_edge13_Node000002_Node000012"><a xlink:title=" ">
<path fill="none" stroke="#63b8ff" d="M245.88,-109.84C239.06,-101.52 230.39,-90.96 223.23,-82.23"/>
<polygon fill="#63b8ff" stroke="#63b8ff" points="225.74,-79.78 216.69,-74.27 220.33,-84.22 225.74,-79.78"/>
</a>
</g>
</g>
<!-- Node13 -->
<g id="Node000013" class="node">
<title>Node13</title>
<g id="a_Node000013"><a xlink:title=" ">
<polygon fill="#e0e0e0" stroke="#999999" points="546,-19 499,-19 499,0 546,0 546,-19"/>
<text text-anchor="middle" x="522.5" y="-7" font-family="Helvetica,sans-Serif" font-size="10.00">vector</text>
</a>
</g>
</g>
<!-- Node2&#45;&gt;Node13 -->
<g id="edge14_Node000002_Node000013" class="edge">
<title>Node2&#45;&gt;Node13</title>
<g id="a_edge14_Node000002_Node000013"><a xlink:title=" ">
<path fill="none" stroke="#63b8ff" d="M290.26,-109.97C342.32,-87.67 443.14,-44.49 493.04,-23.12"/>
<polygon fill="#63b8ff" stroke="#63b8ff" points="494.5,-26.3 502.32,-19.14 491.75,-19.86 494.5,-26.3"/>
</a>
</g>
</g>
<!-- Node4 -->
<g id="Node000004" class="node">
<title>Node4</title>
<g id="a_Node000004"><a xlink:title=" ">
<polygon fill="#e0e0e0" stroke="#999999" points="200.5,-19 158.5,-19 158.5,0 200.5,0 200.5,-19"/>
<text text-anchor="middle" x="179.5" y="-7" font-family="Helvetica,sans-Serif" font-size="10.00">array</text>
</a>
</g>
</g>
<!-- Node3&#45;&gt;Node4 -->
<g id="edge3_Node000003_Node000004" class="edge">
<title>Node3&#45;&gt;Node4</title>
<g id="a_edge3_Node000003_Node000004"><a xlink:title=" ">
<path fill="none" stroke="#63b8ff" d="M285.26,-54.98C264.8,-46.38 232.97,-32.99 209.57,-23.15"/>
<polygon fill="#63b8ff" stroke="#63b8ff" points="210.69,-19.82 200.11,-19.17 207.97,-26.27 210.69,-19.82"/>
</a>
</g>
</g>
<!-- Node3&#45;&gt;Node5 -->
<g id="edge4_Node000003_Node000005" class="edge">
<title>Node3&#45;&gt;Node5</title>
<g id="a_edge4_Node000003_Node000005"><a xlink:title=" ">
<path fill="none" stroke="#63b8ff" d="M274.65,-54.98C240.64,-45.6 185.98,-30.51 149.9,-20.55"/>
<polygon fill="#63b8ff" stroke="#63b8ff" points="150.82,-17.17 140.25,-17.88 148.95,-23.92 150.82,-17.17"/>
</a>
</g>
</g>
<!-- Node6 -->
<g id="Node000006" class="node">
<title>Node6</title>
<g id="a_Node000006"><a xlink:title=" ">
<polygon fill="#e0e0e0" stroke="#999999" points="330.5,-19 280.5,-19 280.5,0 330.5,0 330.5,-19"/>
<text text-anchor="middle" x="305.5" y="-7" font-family="Helvetica,sans-Serif" font-size="10.00">cstdint</text>
</a>
</g>
</g>
<!-- Node3&#45;&gt;Node6 -->
<g id="edge5_Node000003_Node000006" class="edge">
<title>Node3&#45;&gt;Node6</title>
<g id="a_edge5_Node000003_Node000006"><a xlink:title=" ">
<path fill="none" stroke="#63b8ff" d="M305.5,-54.75C305.5,-47.8 305.5,-37.85 305.5,-29.13"/>
<polygon fill="#63b8ff" stroke="#63b8ff" points="309,-29.09 305.5,-19.09 302,-29.09 309,-29.09"/>
</a>
</g>
</g>
<!-- Node3&#45;&gt;Node7 -->
<g id="edge6_Node000003_Node000007" class="edge">
<title>Node3&#45;&gt;Node7</title>
<g id="a_edge6_Node000003_Node000007"><a xlink:title=" ">
<path fill="none" stroke="#63b8ff" d="M330.08,-54.98C356.38,-45.88 398.17,-31.4 426.89,-21.45"/>
<polygon fill="#63b8ff" stroke="#63b8ff" points="428.16,-24.71 436.46,-18.13 425.87,-18.1 428.16,-24.71"/>
</a>
</g>
</g>
<!-- Node8 -->
<g id="Node000008" class="node">
<title>Node8</title>
<g id="a_Node000008"><a xlink:title=" ">
<polygon fill="#e0e0e0" stroke="#999999" points="418,-19 349,-19 349,0 418,0 418,-19"/>
<text text-anchor="middle" x="383.5" y="-7" font-family="Helvetica,sans-Serif" font-size="10.00">type_traits</text>
</a>
</g>
</g>
<!-- Node3&#45;&gt;Node8 -->
<g id="edge7_Node000003_Node000008" class="edge">
<title>Node3&#45;&gt;Node8</title>
<g id="a_edge7_Node000003_Node000008"><a xlink:title=" ">
<path fill="none" stroke="#63b8ff" d="M318.03,-54.98C329.9,-46.92 347.96,-34.65 362.11,-25.03"/>
<polygon fill="#63b8ff" stroke="#63b8ff" points="364.44,-27.69 370.74,-19.17 360.5,-21.9 364.44,-27.69"/>
</a>
</g>
</g>
<!-- Node9 -->
<g id="Node000009" class="node">
<title>Node9</title>
<g id="a_Node000009"><a xlink:title=" ">
<polygon fill="#e0e0e0" stroke="#999999" points="262.5,-19 218.5,-19 218.5,0 262.5,0 262.5,-19"/>
<text text-anchor="middle" x="240.5" y="-7" font-family="Helvetica,sans-Serif" font-size="10.00">limits</text>
</a>
</g>
</g>
<!-- Node3&#45;&gt;Node9 -->
<g id="edge8_Node000003_Node000009" class="edge">
<title>Node3&#45;&gt;Node9</title>
<g id="a_edge8_Node000003_Node000009"><a xlink:title=" ">
<path fill="none" stroke="#63b8ff" d="M295.06,-54.98C285.35,-47.07 270.68,-35.11 259,-25.58"/>
<polygon fill="#63b8ff" stroke="#63b8ff" points="261.1,-22.78 251.13,-19.17 256.67,-28.2 261.1,-22.78"/>
</a>
</g>
</g>
<!-- Node10&#45;&gt;Node5 -->
<g id="edge11_Node000010_Node000005" class="edge">
<title>Node10&#45;&gt;Node5</title>
<g id="a_edge11_Node000010_Node000005"><a xlink:title=" ">
<path fill="none" stroke="#63b8ff" d="M89.29,-54.75C93.26,-47.49 99.03,-36.95 103.93,-27.98"/>
<polygon fill="#63b8ff" stroke="#63b8ff" points="107.07,-29.54 108.8,-19.09 100.93,-26.18 107.07,-29.54"/>
</a>
</g>
</g>
<!-- Node11 -->
<g id="Node000011" class="node">
<title>Node11</title>
<g id="a_Node000011"><a xlink:title=" ">
<polygon fill="#e0e0e0" stroke="#999999" points="69,-19 0,-19 0,0 69,0 69,-19"/>
<text text-anchor="middle" x="34.5" y="-7" font-family="Helvetica,sans-Serif" font-size="10.00">Eigen/Core</text>
</a>
</g>
</g>
<!-- Node10&#45;&gt;Node11 -->
<g id="edge10_Node000010_Node000011" class="edge">
<title>Node10&#45;&gt;Node11</title>
<g id="a_edge10_Node000010_Node000011"><a xlink:title=" ">
<path fill="none" stroke="#63b8ff" d="M76.24,-54.75C69.04,-47.11 58.39,-35.82 49.65,-26.56"/>
<polygon fill="#63b8ff" stroke="#63b8ff" points="52.01,-23.96 42.6,-19.09 46.92,-28.76 52.01,-23.96"/>
</a>
</g>
</g>
<!-- Node14&#45;&gt;Node7 -->
<g id="edge29_Node000014_Node000007" class="edge">
<title>Node14&#45;&gt;Node7</title>
<g id="a_edge29_Node000014_Node000007"><a xlink:title=" ">
<path fill="none" stroke="#63b8ff" d="M685.09,-115.47C642.52,-95.75 537.09,-46.91 486.48,-23.46"/>
<polygon fill="#63b8ff" stroke="#63b8ff" points="487.67,-20.16 477.13,-19.13 484.73,-26.51 487.67,-20.16"/>
</a>
</g>
</g>
<!-- Node15 -->
<g id="Node000015" class="node">
<title>Node15</title>
<g id="a_Node000015"><a xlink:href="_exception_8h_source.html" target="_top" xlink:title=" ">
<polygon fill="white" stroke="#666666" points="727,-74 628,-74 628,-55 727,-55 727,-74"/>
<text text-anchor="middle" x="677.5" y="-62" font-family="Helvetica,sans-Serif" font-size="10.00">Core/Exception.h</text>
</a>
</g>
</g>
<!-- Node14&#45;&gt;Node15 -->
<g id="edge16_Node000014_Node000015" class="edge">
<title>Node14&#45;&gt;Node15</title>
<g id="a_edge16_Node000014_Node000015"><a xlink:title=" ">
<path fill="none" stroke="#63b8ff" d="M699.66,-115.37C695.94,-106.99 690.17,-94.01 685.45,-83.39"/>
<polygon fill="#63b8ff" stroke="#63b8ff" points="688.61,-81.88 681.35,-74.17 682.22,-84.73 688.61,-81.88"/>
</a>
</g>
</g>
<!-- Node19 -->
<g id="Node000019" class="node">
<title>Node19</title>
<g id="a_Node000019"><a xlink:title=" ">
<polygon fill="#e0e0e0" stroke="#999999" points="1069.5,-19 1013.5,-19 1013.5,0 1069.5,0 1069.5,-19"/>
<text text-anchor="middle" x="1041.5" y="-7" font-family="Helvetica,sans-Serif" font-size="10.00">sstream</text>
</a>
</g>
</g>
<!-- Node14&#45;&gt;Node19 -->
<g id="edge28_Node000014_Node000019" class="edge">
<title>Node14&#45;&gt;Node19</title>
<g id="a_edge28_Node000014_Node000019"><a xlink:title=" ">
<path fill="none" stroke="#63b8ff" d="M710.35,-115.05C722.47,-99.92 749.3,-69.51 779.5,-55 867.93,-12.51 902.89,-36.72 1003.33,-19.04"/>
<polygon fill="#63b8ff" stroke="#63b8ff" points="1004.07,-22.46 1013.26,-17.19 1002.79,-15.58 1004.07,-22.46"/>
</a>
</g>
</g>
<!-- Node14&#45;&gt;Node21 -->
<g id="edge30_Node000014_Node000021" class="edge">
<title>Node14&#45;&gt;Node21</title>
<g id="a_edge30_Node000014_Node000021"><a xlink:title=" ">
<path fill="none" stroke="#63b8ff" d="M716.21,-115.4C741.22,-98.63 796.24,-62.54 817.5,-55 924.85,-16.94 961.68,-40.69 1077.87,-18.84"/>
<polygon fill="#63b8ff" stroke="#63b8ff" points="1078.71,-22.24 1087.86,-16.88 1077.37,-15.37 1078.71,-22.24"/>
</a>
</g>
</g>
<!-- Node15&#45;&gt;Node6 -->
<g id="edge17_Node000015_Node000006" class="edge">
<title>Node15&#45;&gt;Node6</title>
<g id="a_edge17_Node000015_Node000006"><a xlink:title=" ">
<path fill="none" stroke="#63b8ff" d="M627.96,-58.77C563.84,-52.24 448.5,-39.17 340.75,-19.04"/>
<polygon fill="#63b8ff" stroke="#63b8ff" points="341.16,-15.56 330.68,-17.13 339.85,-22.43 341.16,-15.56"/>
</a>
</g>
</g>
<!-- Node15&#45;&gt;Node7 -->
<g id="edge22_Node000015_Node000007" class="edge">
<title>Node15&#45;&gt;Node7</title>
<g id="a_edge22_Node000015_Node000007"><a xlink:title=" ">
<path fill="none" stroke="#63b8ff" d="M640.18,-54.92C602.38,-46.16 542.28,-32.04 490.5,-19 490.4,-18.97 490.3,-18.95 490.2,-18.92"/>
<polygon fill="#63b8ff" stroke="#63b8ff" points="491.07,-15.53 480.51,-16.43 489.32,-22.31 491.07,-15.53"/>
</a>
</g>
</g>
<!-- Node15&#45;&gt;Node8 -->
<g id="edge24_Node000015_Node000008" class="edge">
<title>Node15&#45;&gt;Node8</title>
<g id="a_edge24_Node000015_Node000008"><a xlink:title=" ">
<path fill="none" stroke="#63b8ff" d="M628.13,-54.93C579.84,-46.5 503.94,-33.12 428.27,-19.12"/>
<polygon fill="#63b8ff" stroke="#63b8ff" points="428.55,-15.61 418.08,-17.23 427.27,-22.49 428.55,-15.61"/>
</a>
</g>
</g>
<!-- Node15&#45;&gt;Node13 -->
<g id="edge26_Node000015_Node000013" class="edge">
<title>Node15&#45;&gt;Node13</title>
<g id="a_edge26_Node000015_Node000013"><a xlink:title=" ">
<path fill="none" stroke="#63b8ff" d="M652.6,-54.98C626.34,-46.01 584.83,-31.81 555.78,-21.88"/>
<polygon fill="#63b8ff" stroke="#63b8ff" points="556.67,-18.48 546.07,-18.56 554.4,-25.11 556.67,-18.48"/>
</a>
</g>
</g>
<!-- Node16 -->
<g id="Node000016" class="node">
<title>Node16</title>
<g id="a_Node000016"><a xlink:title=" ">
<polygon fill="#e0e0e0" stroke="#999999" points="995,-19 946,-19 946,0 995,0 995,-19"/>
<text text-anchor="middle" x="970.5" y="-7" font-family="Helvetica,sans-Serif" font-size="10.00">cstdlib</text>
</a>
</g>
</g>
<!-- Node15&#45;&gt;Node16 -->
<g id="edge18_Node000015_Node000016" class="edge">
<title>Node15&#45;&gt;Node16</title>
<g id="a_edge18_Node000015_Node000016"><a xlink:title=" ">
<path fill="none" stroke="#63b8ff" d="M727.09,-56.26C777.43,-48.63 857.8,-35.69 935.71,-19.25"/>
<polygon fill="#63b8ff" stroke="#63b8ff" points="936.64,-22.63 945.69,-17.13 935.18,-15.79 936.64,-22.63"/>
</a>
</g>
</g>
<!-- Node17 -->
<g id="Node000017" class="node">
<title>Node17</title>
<g id="a_Node000017"><a xlink:title=" ">
<polygon fill="#e0e0e0" stroke="#999999" points="629,-19 564,-19 564,0 629,0 629,-19"/>
<text text-anchor="middle" x="596.5" y="-7" font-family="Helvetica,sans-Serif" font-size="10.00">exception</text>
</a>
</g>
</g>
<!-- Node15&#45;&gt;Node17 -->
<g id="edge19_Node000015_Node000017" class="edge">
<title>Node15&#45;&gt;Node17</title>
<g id="a_edge19_Node000015_Node000017"><a xlink:title=" ">
<path fill="none" stroke="#63b8ff" d="M664.49,-54.98C652.04,-46.84 633.04,-34.41 618.29,-24.76"/>
<polygon fill="#63b8ff" stroke="#63b8ff" points="620.04,-21.72 609.75,-19.17 616.2,-27.57 620.04,-21.72"/>
</a>
</g>
</g>
<!-- Node18 -->
<g id="Node000018" class="node">
<title>Node18</title>
<g id="a_Node000018"><a xlink:title=" ">
<polygon fill="#e0e0e0" stroke="#999999" points="707.5,-19 647.5,-19 647.5,0 707.5,0 707.5,-19"/>
<text text-anchor="middle" x="677.5" y="-7" font-family="Helvetica,sans-Serif" font-size="10.00">iostream</text>
</a>
</g>
</g>
<!-- Node15&#45;&gt;Node18 -->
<g id="edge20_Node000015_Node000018" class="edge">
<title>Node15&#45;&gt;Node18</title>
<g id="a_edge20_Node000015_Node000018"><a xlink:title=" ">
<path fill="none" stroke="#63b8ff" d="M677.5,-54.75C677.5,-47.8 677.5,-37.85 677.5,-29.13"/>
<polygon fill="#63b8ff" stroke="#63b8ff" points="681,-29.09 677.5,-19.09 674,-29.09 681,-29.09"/>
</a>
</g>
</g>
<!-- Node15&#45;&gt;Node19 -->
<g id="edge21_Node000015_Node000019" class="edge">
<title>Node15&#45;&gt;Node19</title>
<g id="a_edge21_Node000015_Node000019"><a xlink:title=" ">
<path fill="none" stroke="#63b8ff" d="M727.09,-56.87C806.92,-46.19 958.83,-25.78 1003.16,-18.93"/>
<polygon fill="#63b8ff" stroke="#63b8ff" points="1003.98,-22.34 1013.27,-17.26 1002.84,-15.44 1003.98,-22.34"/>
</a>
</g>
</g>
<!-- Node20 -->
<g id="Node000020" class="node">
<title>Node20</title>
<g id="a_Node000020"><a xlink:title=" ">
<polygon fill="#e0e0e0" stroke="#999999" points="799,-19 726,-19 726,0 799,0 799,-19"/>
<text text-anchor="middle" x="762.5" y="-7" font-family="Helvetica,sans-Serif" font-size="10.00">string_view</text>
</a>
</g>
</g>
<!-- Node15&#45;&gt;Node20 -->
<g id="edge23_Node000015_Node000020" class="edge">
<title>Node15&#45;&gt;Node20</title>
<g id="a_edge23_Node000015_Node000020"><a xlink:title=" ">
<path fill="none" stroke="#63b8ff" d="M691.16,-54.98C704.34,-46.77 724.53,-34.18 740.07,-24.49"/>
<polygon fill="#63b8ff" stroke="#63b8ff" points="741.96,-27.43 748.59,-19.17 738.26,-21.49 741.96,-27.43"/>
</a>
</g>
</g>
<!-- Node15&#45;&gt;Node21 -->
<g id="edge25_Node000015_Node000021" class="edge">
<title>Node15&#45;&gt;Node21</title>
<g id="a_edge25_Node000015_Node000021"><a xlink:title=" ">
<path fill="none" stroke="#63b8ff" d="M727.05,-58.93C815.12,-50.67 996.54,-32.94 1077.98,-18.76"/>
<polygon fill="#63b8ff" stroke="#63b8ff" points="1078.66,-22.19 1087.87,-16.96 1077.4,-15.31 1078.66,-22.19"/>
</a>
</g>
</g>
<!-- Node22 -->
<g id="Node000022" class="node">
<title>Node22</title>
<g id="a_Node000022"><a xlink:title=" ">
<polygon fill="#e0e0e0" stroke="#999999" points="928,-19 817,-19 817,0 928,0 928,-19"/>
<text text-anchor="middle" x="872.5" y="-7" font-family="Helvetica,sans-Serif" font-size="10.00">PlatformSupport.inl</text>
</a>
</g>
</g>
<!-- Node15&#45;&gt;Node22 -->
<g id="edge27_Node000015_Node000022" class="edge">
<title>Node15&#45;&gt;Node22</title>
<g id="a_edge27_Node000015_Node000022"><a xlink:title=" ">
<path fill="none" stroke="#63b8ff" d="M708.83,-54.98C741.99,-45.97 794.5,-31.7 831.06,-21.76"/>
<polygon fill="#63b8ff" stroke="#63b8ff" points="832.19,-25.08 840.92,-19.08 830.36,-18.33 832.19,-25.08"/>
</a>
</g>
</g>
</g>
</svg>
