<?xml version="1.0" encoding="UTF-8" standalone="no"?>
<!DOCTYPE svg PUBLIC "-//W3C//DTD SVG 1.1//EN"
 "http://www.w3.org/Graphics/SVG/1.1/DTD/svg11.dtd">
<!-- Generated by graphviz version 2.43.0 (0)
 -->
<!-- Title: solver/FE/Basis/SerendipityBasis.h Pages: 1 -->
<svg width="912pt" height="313pt"
 viewBox="0.00 0.00 911.50 313.00" xmlns="http://www.w3.org/2000/svg" xmlns:xlink="http://www.w3.org/1999/xlink">
<g id="graph0" class="graph" transform="scale(1 1) rotate(0) translate(4 309)">
<title>solver/FE/Basis/SerendipityBasis.h</title>
<!-- Node1 -->
<g id="Node000001" class="node">
<title>Node1</title>
<g id="a_Node000001"><a xlink:title="Reduced&#45;degree&#45;of&#45;freedom serendipity bases.">
<polygon fill="#999999" stroke="#666666" points="407.5,-305 258.5,-305 258.5,-275 407.5,-275 407.5,-305"/>
<text text-anchor="start" x="266.5" y="-293" font-family="Helvetica,sans-Serif" font-size="10.00">solver/FE/Basis/Serendipity</text>
<text text-anchor="middle" x="333" y="-282" font-family="Helvetica,sans-Serif" font-size="10.00">Basis.h</text>
</a>
</g>
</g>
<!-- Node2 -->
<g id="Node000002" class="node">
<title>Node2</title>
<g id="a_Node000002"><a xlink:href="_basis_function_8h_source.html" target="_top" xlink:title=" ">
<polygon fill="white" stroke="#666666" points="379.5,-239 286.5,-239 286.5,-220 379.5,-220 379.5,-239"/>
<text text-anchor="middle" x="333" y="-227" font-family="Helvetica,sans-Serif" font-size="10.00">BasisFunction.h</text>
</a>
</g>
</g>
<!-- Node1&#45;&gt;Node2 -->
<g id="edge1_Node000001_Node000002" class="edge">
<title>Node1&#45;&gt;Node2</title>
<g id="a_edge1_Node000001_Node000002"><a xlink:title=" ">
<path fill="none" stroke="#63b8ff" d="M333,-274.84C333,-267.21 333,-257.7 333,-249.45"/>
<polygon fill="#63b8ff" stroke="#63b8ff" points="336.5,-249.27 333,-239.27 329.5,-249.27 336.5,-249.27"/>
</a>
</g>
</g>
<!-- Node19 -->
<g id="Node000019" class="node">
<title>Node19</title>
<g id="a_Node000019"><a xlink:title=" ">
<polygon fill="#e0e0e0" stroke="#999999" points="42,-74 0,-74 0,-55 42,-55 42,-74"/>
<text text-anchor="middle" x="21" y="-62" font-family="Helvetica,sans-Serif" font-size="10.00">array</text>
</a>
</g>
</g>
<!-- Node1&#45;&gt;Node19 -->
<g id="edge39_Node000001_Node000019" class="edge">
<title>Node1&#45;&gt;Node19</title>
<g id="a_edge39_Node000001_Node000019"><a xlink:title=" ">
<path fill="none" stroke="#63b8ff" d="M281.93,-274.88C231.69,-259.05 154.89,-229.48 101,-184 66.99,-155.3 41.38,-108.67 29.08,-83.31"/>
<polygon fill="#63b8ff" stroke="#63b8ff" points="32.19,-81.7 24.77,-74.14 25.86,-84.68 32.19,-81.7"/>
</a>
</g>
</g>
<!-- Node25 -->
<g id="Node000025" class="node">
<title>Node25</title>
<g id="a_Node000025"><a xlink:title=" ">
<polygon fill="#e0e0e0" stroke="#999999" points="604,-184 564,-184 564,-165 604,-165 604,-184"/>
<text text-anchor="middle" x="584" y="-172" font-family="Helvetica,sans-Serif" font-size="10.00">span</text>
</a>
</g>
</g>
<!-- Node1&#45;&gt;Node25 -->
<g id="edge40_Node000001_Node000025" class="edge">
<title>Node1&#45;&gt;Node25</title>
<g id="a_edge40_Node000001_Node000025"><a xlink:title=" ">
<path fill="none" stroke="#63b8ff" d="M364.03,-274.97C413.13,-252.76 508.03,-209.85 555.51,-188.38"/>
<polygon fill="#63b8ff" stroke="#63b8ff" points="557.21,-191.45 564.88,-184.14 554.33,-185.08 557.21,-191.45"/>
</a>
</g>
</g>
<!-- Node3 -->
<g id="Node000003" class="node">
<title>Node3</title>
<g id="a_Node000003"><a xlink:href="_basis_exceptions_8h_source.html" target="_top" xlink:title=" ">
<polygon fill="white" stroke="#666666" points="545.5,-184 440.5,-184 440.5,-165 545.5,-165 545.5,-184"/>
<text text-anchor="middle" x="493" y="-172" font-family="Helvetica,sans-Serif" font-size="10.00">BasisExceptions.h</text>
</a>
</g>
</g>
<!-- Node2&#45;&gt;Node3 -->
<g id="edge2_Node000002_Node000003" class="edge">
<title>Node2&#45;&gt;Node3</title>
<g id="a_edge2_Node000002_Node000003"><a xlink:title=" ">
<path fill="none" stroke="#63b8ff" d="M358.71,-219.98C385.45,-211.13 427.53,-197.19 457.45,-187.28"/>
<polygon fill="#63b8ff" stroke="#63b8ff" points="458.7,-190.55 467.09,-184.08 456.5,-183.9 458.7,-190.55"/>
</a>
</g>
</g>
<!-- Node15 -->
<g id="Node000015" class="node">
<title>Node15</title>
<g id="a_Node000015"><a xlink:title=" ">
<polygon fill="#e0e0e0" stroke="#999999" points="316.5,-19 269.5,-19 269.5,0 316.5,0 316.5,-19"/>
<text text-anchor="middle" x="293" y="-7" font-family="Helvetica,sans-Serif" font-size="10.00">vector</text>
</a>
</g>
</g>
<!-- Node2&#45;&gt;Node15 -->
<g id="edge38_Node000002_Node000015" class="edge">
<title>Node2&#45;&gt;Node15</title>
<g id="a_edge38_Node000002_Node000015"><a xlink:title=" ">
<path fill="none" stroke="#63b8ff" d="M340.73,-219.75C363.51,-192.84 426.47,-109.84 388,-55 380.37,-44.12 350.58,-31.19 326.37,-22.08"/>
<polygon fill="#63b8ff" stroke="#63b8ff" points="327.34,-18.71 316.75,-18.54 324.93,-25.28 327.34,-18.71"/>
</a>
</g>
</g>
<!-- Node17 -->
<g id="Node000017" class="node">
<title>Node17</title>
<g id="a_Node000017"><a xlink:href="_basis_traits_8h.html" target="_top" xlink:title="Reference&#45;topology vocabulary (BasisTopology) and the internal ElementType/topology/order maps.">
<polygon fill="white" stroke="#666666" points="197,-184 119,-184 119,-165 197,-165 197,-184"/>
<text text-anchor="middle" x="158" y="-172" font-family="Helvetica,sans-Serif" font-size="10.00">BasisTraits.h</text>
</a>
</g>
</g>
<!-- Node2&#45;&gt;Node17 -->
<g id="edge19_Node000002_Node000017" class="edge">
<title>Node2&#45;&gt;Node17</title>
<g id="a_edge19_Node000002_Node000017"><a xlink:title=" ">
<path fill="none" stroke="#63b8ff" d="M304.88,-219.98C275.38,-211.05 228.81,-196.94 196.03,-187.02"/>
<polygon fill="#63b8ff" stroke="#63b8ff" points="196.92,-183.63 186.34,-184.08 194.89,-190.33 196.92,-183.63"/>
</a>
</g>
</g>
<!-- Node18 -->
<g id="Node000018" class="node">
<title>Node18</title>
<g id="a_Node000018"><a xlink:href="_types_8h.html" target="_top" xlink:title="Fundamental type definitions for the finite element library.">
<polygon fill="white" stroke="#666666" points="149.5,-129 96.5,-129 96.5,-110 149.5,-110 149.5,-129"/>
<text text-anchor="middle" x="123" y="-117" font-family="Helvetica,sans-Serif" font-size="10.00">Types.h</text>
</a>
</g>
</g>
<!-- Node2&#45;&gt;Node18 -->
<g id="edge35_Node000002_Node000018" class="edge">
<title>Node2&#45;&gt;Node18</title>
<g id="a_edge35_Node000002_Node000018"><a xlink:title=" ">
<path fill="none" stroke="#63b8ff" d="M286.48,-225.96C227.8,-221.67 131.87,-210.67 110,-184 99.55,-171.26 105.31,-152.31 112.15,-138.43"/>
<polygon fill="#63b8ff" stroke="#63b8ff" points="115.38,-139.83 117.11,-129.38 109.24,-136.47 115.38,-139.83"/>
</a>
</g>
</g>
<!-- Node20 -->
<g id="Node000020" class="node">
<title>Node20</title>
<g id="a_Node000020"><a xlink:title=" ">
<polygon fill="#e0e0e0" stroke="#999999" points="289.5,-74 236.5,-74 236.5,-55 289.5,-55 289.5,-74"/>
<text text-anchor="middle" x="263" y="-62" font-family="Helvetica,sans-Serif" font-size="10.00">cstddef</text>
</a>
</g>
</g>
<!-- Node2&#45;&gt;Node20 -->
<g id="edge36_Node000002_Node000020" class="edge">
<title>Node2&#45;&gt;Node20</title>
<g id="a_edge36_Node000002_Node000020"><a xlink:title=" ">
<path fill="none" stroke="#63b8ff" d="M297.56,-219.99C278.74,-213.48 257.24,-202.38 246,-184 226.74,-152.51 242.39,-107.67 253.78,-83.16"/>
<polygon fill="#63b8ff" stroke="#63b8ff" points="257.01,-84.52 258.28,-74.01 250.73,-81.43 257.01,-84.52"/>
</a>
</g>
</g>
<!-- Node22 -->
<g id="Node000022" class="node">
<title>Node22</title>
<g id="a_Node000022"><a xlink:href="_matrix_8h.html" target="_top" xlink:title="Fixed&#45;size matrix types for FE computations, backed by Eigen.">
<polygon fill="white" stroke="#666666" points="340.5,-184 255.5,-184 255.5,-165 340.5,-165 340.5,-184"/>
<text text-anchor="middle" x="298" y="-172" font-family="Helvetica,sans-Serif" font-size="10.00">Math/Matrix.h</text>
</a>
</g>
</g>
<!-- Node2&#45;&gt;Node22 -->
<g id="edge28_Node000002_Node000022" class="edge">
<title>Node2&#45;&gt;Node22</title>
<g id="a_edge28_Node000002_Node000022"><a xlink:title=" ">
<path fill="none" stroke="#63b8ff" d="M327.22,-219.75C322.38,-212.42 315.32,-201.73 309.36,-192.7"/>
<polygon fill="#63b8ff" stroke="#63b8ff" points="312.1,-190.5 303.67,-184.09 306.26,-194.36 312.1,-190.5"/>
</a>
</g>
</g>
<!-- Node23 -->
<g id="Node000023" class="node">
<title>Node23</title>
<g id="a_Node000023"><a xlink:href="_f_e_2_math_2_vector_8h.html" target="_top" xlink:title="Fixed&#45;size vector types for FE computations, backed by Eigen.">
<polygon fill="white" stroke="#666666" points="384,-129 328,-129 328,-110 384,-110 384,-129"/>
<text text-anchor="middle" x="356" y="-117" font-family="Helvetica,sans-Serif" font-size="10.00">Vector.h</text>
</a>
</g>
</g>
<!-- Node2&#45;&gt;Node23 -->
<g id="edge34_Node000002_Node000023" class="edge">
<title>Node2&#45;&gt;Node23</title>
<g id="a_edge34_Node000002_Node000023"><a xlink:title=" ">
<path fill="none" stroke="#63b8ff" d="M336.81,-219.82C340.53,-210.98 346.04,-196.8 349,-184 352.41,-169.27 354.17,-152.23 355.08,-139.51"/>
<polygon fill="#63b8ff" stroke="#63b8ff" points="358.59,-139.43 355.69,-129.24 351.6,-139.01 358.59,-139.43"/>
</a>
</g>
</g>
<!-- Node2&#45;&gt;Node25 -->
<g id="edge37_Node000002_Node000025" class="edge">
<title>Node2&#45;&gt;Node25</title>
<g id="a_edge37_Node000002_Node000025"><a xlink:title=" ">
<path fill="none" stroke="#63b8ff" d="M379.79,-220.17C424.69,-211.91 494.28,-198.45 554,-184 554.1,-183.98 554.2,-183.95 554.3,-183.93"/>
<polygon fill="#63b8ff" stroke="#63b8ff" points="554.93,-187.38 563.72,-181.47 553.16,-180.61 554.93,-187.38"/>
</a>
</g>
</g>
<!-- Node4 -->
<g id="Node000004" class="node">
<title>Node4</title>
<g id="a_Node000004"><a xlink:href="_f_e_exception_8h.html" target="_top" xlink:title="Exception hierarchy for error handling in the FE library.">
<polygon fill="white" stroke="#666666" points="558,-129 472,-129 472,-110 558,-110 558,-129"/>
<text text-anchor="middle" x="515" y="-117" font-family="Helvetica,sans-Serif" font-size="10.00">FEException.h</text>
</a>
</g>
</g>
<!-- Node3&#45;&gt;Node4 -->
<g id="edge3_Node000003_Node000004" class="edge">
<title>Node3&#45;&gt;Node4</title>
<g id="a_edge3_Node000003_Node000004"><a xlink:title=" ">
<path fill="none" stroke="#63b8ff" d="M496.63,-164.75C499.58,-157.65 503.83,-147.4 507.51,-138.56"/>
<polygon fill="#63b8ff" stroke="#63b8ff" points="510.83,-139.67 511.43,-129.09 504.37,-136.98 510.83,-139.67"/>
</a>
</g>
</g>
<!-- Node5 -->
<g id="Node000005" class="node">
<title>Node5</title>
<g id="a_Node000005"><a xlink:href="_exception_8h_source.html" target="_top" xlink:title=" ">
<polygon fill="white" stroke="#666666" points="552,-74 478,-74 478,-55 552,-55 552,-74"/>
<text text-anchor="middle" x="515" y="-62" font-family="Helvetica,sans-Serif" font-size="10.00">Exception.h</text>
</a>
</g>
</g>
<!-- Node4&#45;&gt;Node5 -->
<g id="edge4_Node000004_Node000005" class="edge">
<title>Node4&#45;&gt;Node5</title>
<g id="a_edge4_Node000004_Node000005"><a xlink:title=" ">
<path fill="none" stroke="#63b8ff" d="M515,-109.75C515,-102.8 515,-92.85 515,-84.13"/>
<polygon fill="#63b8ff" stroke="#63b8ff" points="518.5,-84.09 515,-74.09 511.5,-84.09 518.5,-84.09"/>
</a>
</g>
</g>
<!-- Node10 -->
<g id="Node000010" class="node">
<title>Node10</title>
<g id="a_Node000010"><a xlink:title=" ">
<polygon fill="#e0e0e0" stroke="#999999" points="840,-19 784,-19 784,0 840,0 840,-19"/>
<text text-anchor="middle" x="812" y="-7" font-family="Helvetica,sans-Serif" font-size="10.00">sstream</text>
</a>
</g>
</g>
<!-- Node4&#45;&gt;Node10 -->
<g id="edge16_Node000004_Node000010" class="edge">
<title>Node4&#45;&gt;Node10</title>
<g id="a_edge16_Node000004_Node000010"><a xlink:title=" ">
<path fill="none" stroke="#63b8ff" d="M538.55,-109.94C591.19,-90.79 718.47,-44.51 778.98,-22.51"/>
<polygon fill="#63b8ff" stroke="#63b8ff" points="780.24,-25.77 788.44,-19.07 777.85,-19.19 780.24,-25.77"/>
</a>
</g>
</g>
<!-- Node11 -->
<g id="Node000011" class="node">
<title>Node11</title>
<g id="a_Node000011"><a xlink:title=" ">
<polygon fill="#e0e0e0" stroke="#999999" points="251,-19 207,-19 207,0 251,0 251,-19"/>
<text text-anchor="middle" x="229" y="-7" font-family="Helvetica,sans-Serif" font-size="10.00">string</text>
</a>
</g>
</g>
<!-- Node4&#45;&gt;Node11 -->
<g id="edge17_Node000004_Node000011" class="edge">
<title>Node4&#45;&gt;Node11</title>
<g id="a_edge17_Node000004_Node000011"><a xlink:title=" ">
<path fill="none" stroke="#63b8ff" d="M500.18,-109.92C476.9,-96.71 430.09,-71.24 388,-55 381.98,-52.68 305.84,-31.63 261.14,-19.33"/>
<polygon fill="#63b8ff" stroke="#63b8ff" points="261.89,-15.9 251.32,-16.63 260.03,-22.65 261.89,-15.9"/>
</a>
</g>
</g>
<!-- Node14 -->
<g id="Node000014" class="node">
<title>Node14</title>
<g id="a_Node000014"><a xlink:title=" ">
<polygon fill="#e0e0e0" stroke="#999999" points="903.5,-19 858.5,-19 858.5,0 903.5,0 903.5,-19"/>
<text text-anchor="middle" x="881" y="-7" font-family="Helvetica,sans-Serif" font-size="10.00">utility</text>
</a>
</g>
</g>
<!-- Node4&#45;&gt;Node14 -->
<g id="edge18_Node000004_Node000014" class="edge">
<title>Node4&#45;&gt;Node14</title>
<g id="a_edge18_Node000004_Node000014"><a xlink:title=" ">
<path fill="none" stroke="#63b8ff" d="M547.57,-109.98C580.55,-101.27 632.96,-87.19 678,-74 738.48,-56.29 808.53,-33.98 848.52,-21.06"/>
<polygon fill="#63b8ff" stroke="#63b8ff" points="849.81,-24.32 858.25,-17.92 847.66,-17.66 849.81,-24.32"/>
</a>
</g>
</g>
<!-- Node6 -->
<g id="Node000006" class="node">
<title>Node6</title>
<g id="a_Node000006"><a xlink:title=" ">
<polygon fill="#e0e0e0" stroke="#999999" points="189,-19 139,-19 139,0 189,0 189,-19"/>
<text text-anchor="middle" x="164" y="-7" font-family="Helvetica,sans-Serif" font-size="10.00">cstdint</text>
</a>
</g>
</g>
<!-- Node5&#45;&gt;Node6 -->
<g id="edge5_Node000005_Node000006" class="edge">
<title>Node5&#45;&gt;Node6</title>
<g id="a_edge5_Node000005_Node000006"><a xlink:title=" ">
<path fill="none" stroke="#63b8ff" d="M477.7,-59.56C420.02,-53.18 305.57,-39.4 199.13,-19.04"/>
<polygon fill="#63b8ff" stroke="#63b8ff" points="199.67,-15.58 189.18,-17.11 198.34,-22.45 199.67,-15.58"/>
</a>
</g>
</g>
<!-- Node7 -->
<g id="Node000007" class="node">
<title>Node7</title>
<g id="a_Node000007"><a xlink:title=" ">
<polygon fill="#e0e0e0" stroke="#999999" points="765.5,-19 716.5,-19 716.5,0 765.5,0 765.5,-19"/>
<text text-anchor="middle" x="741" y="-7" font-family="Helvetica,sans-Serif" font-size="10.00">cstdlib</text>
</a>
</g>
</g>
<!-- Node5&#45;&gt;Node7 -->
<g id="edge6_Node000005_Node000007" class="edge">
<title>Node5&#45;&gt;Node7</title>
<g id="a_edge6_Node000005_Node000007"><a xlink:title=" ">
<path fill="none" stroke="#63b8ff" d="M552.21,-55.08C588.88,-46.73 646.77,-33.44 706.51,-19.08"/>
<polygon fill="#63b8ff" stroke="#63b8ff" points="707.6,-22.42 716.5,-16.68 705.96,-15.62 707.6,-22.42"/>
</a>
</g>
</g>
<!-- Node8 -->
<g id="Node000008" class="node">
<title>Node8</title>
<g id="a_Node000008"><a xlink:title=" ">
<polygon fill="#e0e0e0" stroke="#999999" points="399.5,-19 334.5,-19 334.5,0 399.5,0 399.5,-19"/>
<text text-anchor="middle" x="367" y="-7" font-family="Helvetica,sans-Serif" font-size="10.00">exception</text>
</a>
</g>
</g>
<!-- Node5&#45;&gt;Node8 -->
<g id="edge7_Node000005_Node000008" class="edge">
<title>Node5&#45;&gt;Node8</title>
<g id="a_edge7_Node000005_Node000008"><a xlink:title=" ">
<path fill="none" stroke="#63b8ff" d="M491.22,-54.98C466.77,-46.23 428.47,-32.51 400.85,-22.62"/>
<polygon fill="#63b8ff" stroke="#63b8ff" points="401.81,-19.25 391.21,-19.17 399.45,-25.84 401.81,-19.25"/>
</a>
</g>
</g>
<!-- Node9 -->
<g id="Node000009" class="node">
<title>Node9</title>
<g id="a_Node000009"><a xlink:title=" ">
<polygon fill="#e0e0e0" stroke="#999999" points="478,-19 418,-19 418,0 478,0 478,-19"/>
<text text-anchor="middle" x="448" y="-7" font-family="Helvetica,sans-Serif" font-size="10.00">iostream</text>
</a>
</g>
</g>
<!-- Node5&#45;&gt;Node9 -->
<g id="edge8_Node000005_Node000009" class="edge">
<title>Node5&#45;&gt;Node9</title>
<g id="a_edge8_Node000005_Node000009"><a xlink:title=" ">
<path fill="none" stroke="#63b8ff" d="M504.24,-54.98C494.23,-47.07 479.11,-35.11 467.07,-25.58"/>
<polygon fill="#63b8ff" stroke="#63b8ff" points="468.97,-22.63 458.96,-19.17 464.63,-28.12 468.97,-22.63"/>
</a>
</g>
</g>
<!-- Node5&#45;&gt;Node10 -->
<g id="edge9_Node000005_Node000010" class="edge">
<title>Node5&#45;&gt;Node10</title>
<g id="a_edge9_Node000005_Node000010"><a xlink:title=" ">
<path fill="none" stroke="#63b8ff" d="M552.15,-57.82C600.79,-50.23 688.93,-35.97 773.7,-19.17"/>
<polygon fill="#63b8ff" stroke="#63b8ff" points="774.63,-22.55 783.75,-17.16 773.26,-15.69 774.63,-22.55"/>
</a>
</g>
</g>
<!-- Node5&#45;&gt;Node11 -->
<g id="edge10_Node000005_Node000011" class="edge">
<title>Node5&#45;&gt;Node11</title>
<g id="a_edge10_Node000005_Node000011"><a xlink:title=" ">
<path fill="none" stroke="#63b8ff" d="M477.82,-57.21C417.87,-47.05 303,-27.45 261.07,-18.96"/>
<polygon fill="#63b8ff" stroke="#63b8ff" points="261.8,-15.54 251.29,-16.88 260.34,-22.39 261.8,-15.54"/>
</a>
</g>
</g>
<!-- Node12 -->
<g id="Node000012" class="node">
<title>Node12</title>
<g id="a_Node000012"><a xlink:title=" ">
<polygon fill="#e0e0e0" stroke="#999999" points="569.5,-19 496.5,-19 496.5,0 569.5,0 569.5,-19"/>
<text text-anchor="middle" x="533" y="-7" font-family="Helvetica,sans-Serif" font-size="10.00">string_view</text>
</a>
</g>
</g>
<!-- Node5&#45;&gt;Node12 -->
<g id="edge11_Node000005_Node000012" class="edge">
<title>Node5&#45;&gt;Node12</title>
<g id="a_edge11_Node000005_Node000012"><a xlink:title=" ">
<path fill="none" stroke="#63b8ff" d="M517.97,-54.75C520.36,-47.72 523.79,-37.62 526.77,-28.84"/>
<polygon fill="#63b8ff" stroke="#63b8ff" points="530.18,-29.68 530.08,-19.09 523.55,-27.43 530.18,-29.68"/>
</a>
</g>
</g>
<!-- Node13 -->
<g id="Node000013" class="node">
<title>Node13</title>
<g id="a_Node000013"><a xlink:title=" ">
<polygon fill="#e0e0e0" stroke="#999999" points="115.5,-19 46.5,-19 46.5,0 115.5,0 115.5,-19"/>
<text text-anchor="middle" x="81" y="-7" font-family="Helvetica,sans-Serif" font-size="10.00">type_traits</text>
</a>
</g>
</g>
<!-- Node5&#45;&gt;Node13 -->
<g id="edge12_Node000005_Node000013" class="edge">
<title>Node5&#45;&gt;Node13</title>
<g id="a_edge12_Node000005_Node000013"><a xlink:title=" ">
<path fill="none" stroke="#63b8ff" d="M477.74,-59.9C408.9,-53.1 257.2,-37.37 130,-19 128.7,-18.81 127.39,-18.62 126.06,-18.42"/>
<polygon fill="#63b8ff" stroke="#63b8ff" points="126.19,-14.89 115.76,-16.78 125.09,-21.81 126.19,-14.89"/>
</a>
</g>
</g>
<!-- Node5&#45;&gt;Node14 -->
<g id="edge13_Node000005_Node000014" class="edge">
<title>Node5&#45;&gt;Node14</title>
<g id="a_edge13_Node000005_Node000014"><a xlink:title=" ">
<path fill="none" stroke="#63b8ff" d="M552.32,-60.09C612.56,-54.25 735.08,-40.97 848.47,-18.85"/>
<polygon fill="#63b8ff" stroke="#63b8ff" points="849.23,-22.27 858.36,-16.9 847.87,-15.4 849.23,-22.27"/>
</a>
</g>
</g>
<!-- Node5&#45;&gt;Node15 -->
<g id="edge14_Node000005_Node000015" class="edge">
<title>Node5&#45;&gt;Node15</title>
<g id="a_edge14_Node000005_Node000015"><a xlink:title=" ">
<path fill="none" stroke="#63b8ff" d="M477.79,-55.13C441.52,-46.89 384.58,-33.76 326.78,-19.4"/>
<polygon fill="#63b8ff" stroke="#63b8ff" points="327.3,-15.92 316.75,-16.89 325.6,-22.71 327.3,-15.92"/>
</a>
</g>
</g>
<!-- Node16 -->
<g id="Node000016" class="node">
<title>Node16</title>
<g id="a_Node000016"><a xlink:title=" ">
<polygon fill="#e0e0e0" stroke="#999999" points="698.5,-19 587.5,-19 587.5,0 698.5,0 698.5,-19"/>
<text text-anchor="middle" x="643" y="-7" font-family="Helvetica,sans-Serif" font-size="10.00">PlatformSupport.inl</text>
</a>
</g>
</g>
<!-- Node5&#45;&gt;Node16 -->
<g id="edge15_Node000005_Node000016" class="edge">
<title>Node5&#45;&gt;Node16</title>
<g id="a_edge15_Node000005_Node000016"><a xlink:title=" ">
<path fill="none" stroke="#63b8ff" d="M535.57,-54.98C556.43,-46.34 588.97,-32.87 612.77,-23.02"/>
<polygon fill="#63b8ff" stroke="#63b8ff" points="614.16,-26.23 622.06,-19.17 611.48,-19.76 614.16,-26.23"/>
</a>
</g>
</g>
<!-- Node17&#45;&gt;Node18 -->
<g id="edge20_Node000017_Node000018" class="edge">
<title>Node17&#45;&gt;Node18</title>
<g id="a_edge20_Node000017_Node000018"><a xlink:title=" ">
<path fill="none" stroke="#63b8ff" d="M152.22,-164.75C147.38,-157.42 140.32,-146.73 134.36,-137.7"/>
<polygon fill="#63b8ff" stroke="#63b8ff" points="137.1,-135.5 128.67,-129.09 131.26,-139.36 137.1,-135.5"/>
</a>
</g>
</g>
<!-- Node17&#45;&gt;Node20 -->
<g id="edge27_Node000017_Node000020" class="edge">
<title>Node17&#45;&gt;Node20</title>
<g id="a_edge27_Node000017_Node000020"><a xlink:title=" ">
<path fill="none" stroke="#63b8ff" d="M164.26,-164.86C173.59,-152.23 191.98,-128.25 210,-110 220.42,-99.45 233.12,-88.73 243.47,-80.45"/>
<polygon fill="#63b8ff" stroke="#63b8ff" points="245.81,-83.06 251.51,-74.13 241.48,-77.56 245.81,-83.06"/>
</a>
</g>
</g>
<!-- Node18&#45;&gt;Node6 -->
<g id="edge23_Node000018_Node000006" class="edge">
<title>Node18&#45;&gt;Node6</title>
<g id="a_edge23_Node000018_Node000006"><a xlink:title=" ">
<path fill="none" stroke="#63b8ff" d="M129.81,-109.81C136.22,-101.2 145.63,-87.38 151,-74 156.77,-59.62 160.1,-42.34 161.93,-29.44"/>
<polygon fill="#63b8ff" stroke="#63b8ff" points="165.42,-29.77 163.19,-19.42 158.48,-28.9 165.42,-29.77"/>
</a>
</g>
</g>
<!-- Node18&#45;&gt;Node11 -->
<g id="edge24_Node000018_Node000011" class="edge">
<title>Node18&#45;&gt;Node11</title>
<g id="a_edge24_Node000018_Node000011"><a xlink:title=" ">
<path fill="none" stroke="#63b8ff" d="M132.03,-109.7C141.17,-100.77 155.66,-86.52 168,-74 183.67,-58.1 201.31,-39.68 213.57,-26.79"/>
<polygon fill="#63b8ff" stroke="#63b8ff" points="216.43,-28.86 220.78,-19.2 211.36,-24.04 216.43,-28.86"/>
</a>
</g>
</g>
<!-- Node18&#45;&gt;Node13 -->
<g id="edge25_Node000018_Node000013" class="edge">
<title>Node18&#45;&gt;Node13</title>
<g id="a_edge25_Node000018_Node000013"><a xlink:title=" ">
<path fill="none" stroke="#63b8ff" d="M114.12,-109.86C106.12,-101.49 94.75,-88.03 89,-74 83.13,-59.69 81.28,-42.16 80.81,-29.15"/>
<polygon fill="#63b8ff" stroke="#63b8ff" points="84.31,-29.03 80.69,-19.07 77.31,-29.12 84.31,-29.03"/>
</a>
</g>
</g>
<!-- Node18&#45;&gt;Node19 -->
<g id="edge21_Node000018_Node000019" class="edge">
<title>Node18&#45;&gt;Node19</title>
<g id="a_edge21_Node000018_Node000019"><a xlink:title=" ">
<path fill="none" stroke="#63b8ff" d="M106.61,-109.98C90.43,-101.57 65.43,-88.59 46.62,-78.81"/>
<polygon fill="#63b8ff" stroke="#63b8ff" points="48.17,-75.68 37.69,-74.17 44.95,-81.89 48.17,-75.68"/>
</a>
</g>
</g>
<!-- Node18&#45;&gt;Node20 -->
<g id="edge22_Node000018_Node000020" class="edge">
<title>Node18&#45;&gt;Node20</title>
<g id="a_edge22_Node000018_Node000020"><a xlink:title=" ">
<path fill="none" stroke="#63b8ff" d="M145.49,-109.98C168.52,-101.27 204.54,-87.63 230.63,-77.75"/>
<polygon fill="#63b8ff" stroke="#63b8ff" points="231.98,-80.98 240.1,-74.17 229.51,-74.44 231.98,-80.98"/>
</a>
</g>
</g>
<!-- Node21 -->
<g id="Node000021" class="node">
<title>Node21</title>
<g id="a_Node000021"><a xlink:title=" ">
<polygon fill="#e0e0e0" stroke="#999999" points="142,-74 98,-74 98,-55 142,-55 142,-74"/>
<text text-anchor="middle" x="120" y="-62" font-family="Helvetica,sans-Serif" font-size="10.00">limits</text>
</a>
</g>
</g>
<!-- Node18&#45;&gt;Node21 -->
<g id="edge26_Node000018_Node000021" class="edge">
<title>Node18&#45;&gt;Node21</title>
<g id="a_edge26_Node000018_Node000021"><a xlink:title=" ">
<path fill="none" stroke="#63b8ff" d="M122.5,-109.75C122.11,-102.8 121.55,-92.85 121.05,-84.13"/>
<polygon fill="#63b8ff" stroke="#63b8ff" points="124.55,-83.88 120.49,-74.09 117.56,-84.27 124.55,-83.88"/>
</a>
</g>
</g>
<!-- Node22&#45;&gt;Node20 -->
<g id="edge33_Node000022_Node000020" class="edge">
<title>Node22&#45;&gt;Node20</title>
<g id="a_edge33_Node000022_Node000020"><a xlink:title=" ">
<path fill="none" stroke="#63b8ff" d="M295.14,-164.66C289.44,-147.09 276.59,-107.45 268.98,-83.95"/>
<polygon fill="#63b8ff" stroke="#63b8ff" points="272.22,-82.59 265.81,-74.16 265.56,-84.75 272.22,-82.59"/>
</a>
</g>
</g>
<!-- Node22&#45;&gt;Node23 -->
<g id="edge29_Node000022_Node000023" class="edge">
<title>Node22&#45;&gt;Node23</title>
<g id="a_edge29_Node000022_Node000023"><a xlink:title=" ">
<path fill="none" stroke="#63b8ff" d="M307.32,-164.98C315.81,-157.23 328.56,-145.58 338.88,-136.14"/>
<polygon fill="#63b8ff" stroke="#63b8ff" points="341.49,-138.5 346.51,-129.17 336.77,-133.33 341.49,-138.5"/>
</a>
</g>
</g>
<!-- Node24 -->
<g id="Node000024" class="node">
<title>Node24</title>
<g id="a_Node000024"><a xlink:title=" ">
<polygon fill="#e0e0e0" stroke="#999999" points="379.5,-74 310.5,-74 310.5,-55 379.5,-55 379.5,-74"/>
<text text-anchor="middle" x="345" y="-62" font-family="Helvetica,sans-Serif" font-size="10.00">Eigen/Core</text>
</a>
</g>
</g>
<!-- Node22&#45;&gt;Node24 -->
<g id="edge32_Node000022_Node000024" class="edge">
<title>Node22&#45;&gt;Node24</title>
<g id="a_edge32_Node000022_Node000024"><a xlink:title=" ">
<path fill="none" stroke="#63b8ff" d="M300.29,-164.65C303.66,-152.18 310.5,-128.84 319,-110 323.23,-100.62 328.91,-90.69 333.88,-82.59"/>
<polygon fill="#63b8ff" stroke="#63b8ff" points="336.88,-84.4 339.26,-74.08 330.96,-80.66 336.88,-84.4"/>
</a>
</g>
</g>
<!-- Node23&#45;&gt;Node20 -->
<g id="edge31_Node000023_Node000020" class="edge">
<title>Node23&#45;&gt;Node20</title>
<g id="a_edge31_Node000023_Node000020"><a xlink:title=" ">
<path fill="none" stroke="#63b8ff" d="M341.06,-109.98C326.5,-101.69 304.13,-88.94 287.07,-79.22"/>
<polygon fill="#63b8ff" stroke="#63b8ff" points="288.64,-76.08 278.21,-74.17 285.17,-82.16 288.64,-76.08"/>
</a>
</g>
</g>
<!-- Node23&#45;&gt;Node24 -->
<g id="edge30_Node000023_Node000024" class="edge">
<title>Node23&#45;&gt;Node24</title>
<g id="a_edge30_Node000023_Node000024"><a xlink:title=" ">
<path fill="none" stroke="#63b8ff" d="M354.18,-109.75C352.74,-102.8 350.68,-92.85 348.87,-84.13"/>
<polygon fill="#63b8ff" stroke="#63b8ff" points="352.24,-83.17 346.78,-74.09 345.39,-84.59 352.24,-83.17"/>
</a>
</g>
</g>
</g>
</svg>
