<?xml version="1.0" encoding="UTF-8" standalone="no"?>
<!DOCTYPE svg PUBLIC "-//W3C//DTD SVG 1.1//EN"
 "http://www.w3.org/Graphics/SVG/1.1/DTD/svg11.dtd">
<!-- Generated by graphviz version 2.43.0 (0)
 -->
<!-- Title: solver/FE/Common/Types.h Pages: 1 -->
<svg width="688pt" height="225pt"
 viewBox="0.00 0.00 688.00 225.00" xmlns="http://www.w3.org/2000/svg" xmlns:xlink="http://www.w3.org/1999/xlink">
<g id="graph0" class="graph" transform="scale(1 1) rotate(0) translate(4 221)">
<title>solver/FE/Common/Types.h</title>
<!-- Node1 -->
<g id="Node000001" class="node">
<title>Node1</title>
<g id="a_Node000001"><a xlink:title="Fundamental type definitions for the finite element library.">
<polygon fill="#999999" stroke="#666666" points="520,-217 371,-217 371,-198 520,-198 520,-217"/>
<text text-anchor="middle" x="445.5" y="-205" font-family="Helvetica,sans-Serif" font-size="10.00">solver/FE/Common/Types.h</text>
</a>
</g>
</g>
<!-- Node2 -->
<g id="Node000002" class="node">
<title>Node2</title>
<g id="a_Node000002"><a xlink:href="_basis_function_8h_source.html" target="_top" xlink:title=" ">
<polygon fill="white" stroke="#666666" points="364.5,-90.5 194.5,-90.5 194.5,-71.5 364.5,-71.5 364.5,-90.5"/>
<text text-anchor="middle" x="279.5" y="-78.5" font-family="Helvetica,sans-Serif" font-size="10.00">solver/FE/Basis/BasisFunction.h</text>
</a>
</g>
</g>
<!-- Node1&#45;&gt;Node2 -->
<g id="edge1_Node000001_Node000002" class="edge">
<title>Node1&#45;&gt;Node2</title>
<g id="a_edge1_Node000001_Node000002"><a xlink:title=" ">
<path fill="none" stroke="#63b8ff" d="M366.53,-195.26C344.43,-188.72 321.97,-178.36 305.5,-162 285.61,-142.24 280.93,-107.12 279.83,-90.79"/>
<polygon fill="#63b8ff" stroke="#63b8ff" points="365.74,-198.67 376.3,-197.93 367.58,-191.92 365.74,-198.67"/>
</a>
</g>
</g>
<!-- Node6 -->
<g id="Node000006" class="node">
<title>Node6</title>
<g id="a_Node000006"><a xlink:href="_basis_traits_8h.html" target="_top" xlink:title="Reference&#45;topology vocabulary (BasisTopology) and the internal ElementType/topology/order maps.">
<polygon fill="white" stroke="#666666" points="470,-156.5 315,-156.5 315,-137.5 470,-137.5 470,-156.5"/>
<text text-anchor="middle" x="392.5" y="-144.5" font-family="Helvetica,sans-Serif" font-size="10.00">solver/FE/Basis/BasisTraits.h</text>
</a>
</g>
</g>
<!-- Node1&#45;&gt;Node6 -->
<g id="edge5_Node000001_Node000006" class="edge">
<title>Node1&#45;&gt;Node6</title>
<g id="a_edge5_Node000001_Node000006"><a xlink:title=" ">
<path fill="none" stroke="#63b8ff" d="M430.8,-190.27C420.94,-179.39 408.35,-165.49 400.35,-156.67"/>
<polygon fill="#63b8ff" stroke="#63b8ff" points="428.37,-192.81 437.68,-197.87 433.56,-188.11 428.37,-192.81"/>
</a>
</g>
</g>
<!-- Node7 -->
<g id="Node000007" class="node">
<title>Node7</title>
<g id="a_Node000007"><a xlink:href="_node_ordering_conventions_8h_source.html" target="_top" xlink:title=" ">
<polygon fill="white" stroke="#666666" points="582,-96 421,-96 421,-66 582,-66 582,-96"/>
<text text-anchor="start" x="429" y="-84" font-family="Helvetica,sans-Serif" font-size="10.00">solver/FE/Basis/NodeOrdering</text>
<text text-anchor="middle" x="501.5" y="-73" font-family="Helvetica,sans-Serif" font-size="10.00">Conventions.h</text>
</a>
</g>
</g>
<!-- Node1&#45;&gt;Node7 -->
<g id="edge9_Node000001_Node000007" class="edge">
<title>Node1&#45;&gt;Node7</title>
<g id="a_edge9_Node000001_Node000007"><a xlink:title=" ">
<path fill="none" stroke="#63b8ff" d="M460.38,-190.2C467.03,-182.19 474.49,-172.11 479.5,-162 490.25,-140.32 496.37,-112.64 499.3,-96.18"/>
<polygon fill="#63b8ff" stroke="#63b8ff" points="457.54,-188.13 453.63,-197.98 462.83,-192.72 457.54,-188.13"/>
</a>
</g>
</g>
<!-- Node8 -->
<g id="Node000008" class="node">
<title>Node8</title>
<g id="a_Node000008"><a xlink:href="_dense_linear_algebra_8h_source.html" target="_top" xlink:title=" ">
<polygon fill="white" stroke="#666666" points="680,-162 527,-162 527,-132 680,-132 680,-162"/>
<text text-anchor="start" x="535" y="-150" font-family="Helvetica,sans-Serif" font-size="10.00">solver/FE/Math/DenseLinear</text>
<text text-anchor="middle" x="603.5" y="-139" font-family="Helvetica,sans-Serif" font-size="10.00">Algebra.h</text>
</a>
</g>
</g>
<!-- Node1&#45;&gt;Node8 -->
<g id="edge10_Node000001_Node000008" class="edge">
<title>Node1&#45;&gt;Node8</title>
<g id="a_edge10_Node000001_Node000008"><a xlink:title=" ">
<path fill="none" stroke="#63b8ff" d="M478.02,-194.46C503.44,-185.05 538.8,-171.95 565.51,-162.06"/>
<polygon fill="#63b8ff" stroke="#63b8ff" points="476.64,-191.24 468.47,-197.99 479.07,-197.8 476.64,-191.24"/>
</a>
</g>
</g>
<!-- Node3 -->
<g id="Node000003" class="node">
<title>Node3</title>
<g id="a_Node000003"><a xlink:href="_basis_factory_8h.html" target="_top" xlink:title="Runtime creation of basis families.">
<polygon fill="white" stroke="#666666" points="163,-24.5 0,-24.5 0,-5.5 163,-5.5 163,-24.5"/>
<text text-anchor="middle" x="81.5" y="-12.5" font-family="Helvetica,sans-Serif" font-size="10.00">solver/FE/Basis/BasisFactory.h</text>
</a>
</g>
</g>
<!-- Node2&#45;&gt;Node3 -->
<g id="edge2_Node000002_Node000003" class="edge">
<title>Node2&#45;&gt;Node3</title>
<g id="a_edge2_Node000002_Node000003"><a xlink:title=" ">
<path fill="none" stroke="#63b8ff" d="M243.13,-68.24C204.06,-55.61 142.9,-35.85 108.1,-24.6"/>
<polygon fill="#63b8ff" stroke="#63b8ff" points="242.21,-71.62 252.8,-71.37 244.36,-64.96 242.21,-71.62"/>
</a>
</g>
</g>
<!-- Node4 -->
<g id="Node000004" class="node">
<title>Node4</title>
<g id="a_Node000004"><a xlink:href="_lagrange_basis_8h_source.html" target="_top" xlink:title=" ">
<polygon fill="white" stroke="#666666" points="487,-30 348,-30 348,0 487,0 487,-30"/>
<text text-anchor="start" x="356" y="-18" font-family="Helvetica,sans-Serif" font-size="10.00">solver/FE/Basis/Lagrange</text>
<text text-anchor="middle" x="417.5" y="-7" font-family="Helvetica,sans-Serif" font-size="10.00">Basis.h</text>
</a>
</g>
</g>
<!-- Node2&#45;&gt;Node4 -->
<g id="edge3_Node000002_Node000004" class="edge">
<title>Node2&#45;&gt;Node4</title>
<g id="a_edge3_Node000002_Node000004"><a xlink:title=" ">
<path fill="none" stroke="#63b8ff" d="M307.37,-67.08C330.47,-56.36 363.27,-41.15 387.06,-30.12"/>
<polygon fill="#63b8ff" stroke="#63b8ff" points="305.71,-63.99 298.11,-71.37 308.66,-70.34 305.71,-63.99"/>
</a>
</g>
</g>
<!-- Node5 -->
<g id="Node000005" class="node">
<title>Node5</title>
<g id="a_Node000005"><a xlink:href="_serendipity_basis_8h.html" target="_top" xlink:title="Reduced&#45;degree&#45;of&#45;freedom serendipity bases.">
<polygon fill="white" stroke="#666666" points="330,-30 181,-30 181,0 330,0 330,-30"/>
<text text-anchor="start" x="189" y="-18" font-family="Helvetica,sans-Serif" font-size="10.00">solver/FE/Basis/Serendipity</text>
<text text-anchor="middle" x="255.5" y="-7" font-family="Helvetica,sans-Serif" font-size="10.00">Basis.h</text>
</a>
</g>
</g>
<!-- Node2&#45;&gt;Node5 -->
<g id="edge4_Node000002_Node000005" class="edge">
<title>Node2&#45;&gt;Node5</title>
<g id="a_edge4_Node000002_Node000005"><a xlink:title=" ">
<path fill="none" stroke="#63b8ff" d="M272.74,-61.98C268.99,-51.98 264.39,-39.71 260.89,-30.36"/>
<polygon fill="#63b8ff" stroke="#63b8ff" points="269.47,-63.23 276.26,-71.37 276.03,-60.78 269.47,-63.23"/>
</a>
</g>
</g>
<!-- Node6&#45;&gt;Node2 -->
<g id="edge6_Node000006_Node000002" class="edge">
<title>Node6&#45;&gt;Node2</title>
<g id="a_edge6_Node000006_Node000002"><a xlink:title=" ">
<path fill="none" stroke="#63b8ff" d="M368.41,-132.36C346.17,-119.76 313.79,-101.42 294.86,-90.7"/>
<polygon fill="#63b8ff" stroke="#63b8ff" points="366.83,-135.49 377.26,-137.37 370.28,-129.39 366.83,-135.49"/>
</a>
</g>
</g>
<!-- Node6&#45;&gt;Node4 -->
<g id="edge7_Node000006_Node000004" class="edge">
<title>Node6&#45;&gt;Node4</title>
<g id="a_edge7_Node000006_Node000004"><a xlink:title=" ">
<path fill="none" stroke="#63b8ff" d="M396.09,-127.32C401.15,-101 410.27,-53.61 414.79,-30.07"/>
<polygon fill="#63b8ff" stroke="#63b8ff" points="392.59,-126.99 394.14,-137.47 399.47,-128.31 392.59,-126.99"/>
</a>
</g>
</g>
<!-- Node6&#45;&gt;Node7 -->
<g id="edge8_Node000006_Node000007" class="edge">
<title>Node6&#45;&gt;Node7</title>
<g id="a_edge8_Node000006_Node000007"><a xlink:title=" ">
<path fill="none" stroke="#63b8ff" d="M415.99,-132.21C434.14,-121.55 459.17,-106.85 477.46,-96.12"/>
<polygon fill="#63b8ff" stroke="#63b8ff" points="414.05,-129.29 407.2,-137.37 417.6,-135.32 414.05,-129.29"/>
</a>
</g>
</g>
</g>
</svg>
