<?xml version="1.0" encoding="UTF-8" standalone="no"?>
<!DOCTYPE svg PUBLIC "-//W3C//DTD SVG 1.1//EN"
 "http://www.w3.org/Graphics/SVG/1.1/DTD/svg11.dtd">
<!-- Generated by graphviz version 2.43.0 (0)
 -->
<!-- Title: VtkData Pages: 1 -->
<svg width="172pt" height="82pt"
 viewBox="0.00 0.00 172.00 82.00" xmlns="http://www.w3.org/2000/svg" xmlns:xlink="http://www.w3.org/1999/xlink">
<g id="graph0" class="graph" transform="scale(1 1) rotate(0) translate(4 78)">
<title>VtkData</title>
<!-- Node1 -->
<g id="Node000001" class="node">
<title>Node1</title>
<g id="a_Node000001"><a xlink:title=" ">
<polygon fill="#999999" stroke="#666666" points="109.5,-74 53.5,-74 53.5,-55 109.5,-55 109.5,-74"/>
<text text-anchor="middle" x="81.5" y="-62" font-family="Helvetica,sans-Serif" font-size="10.00">VtkData</text>
</a>
</g>
</g>
<!-- Node2 -->
<g id="Node000002" class="node">
<title>Node2</title>
<g id="a_Node000002"><a xlink:href="class_vtk_vtp_data.html" target="_top" xlink:title=" ">
<polygon fill="white" stroke="#bfbfbf" points="73,-19 0,-19 0,0 73,0 73,-19"/>
<text text-anchor="middle" x="36.5" y="-7" font-family="Helvetica,sans-Serif" font-size="10.00">VtkVtpData</text>
</a>
</g>
</g>
<!-- Node1&#45;&gt;Node2 -->
<g id="edge1_Node000001_Node000002" class="edge">
<title>Node1&#45;&gt;Node2</title>
<g id="a_edge1_Node000001_Node000002"><a xlink:title=" ">
<path fill="none" stroke="#63b8ff" d="M67.45,-46.96C59.61,-37.72 50.17,-26.6 43.79,-19.09"/>
<polygon fill="#63b8ff" stroke="#63b8ff" points="64.93,-49.39 74.07,-54.75 70.26,-44.86 64.93,-49.39"/>
</a>
</g>
</g>
<!-- Node3 -->
<g id="Node000003" class="node">
<title>Node3</title>
<g id="a_Node000003"><a xlink:href="class_vtk_vtu_data.html" target="_top" xlink:title=" ">
<polygon fill="white" stroke="#bfbfbf" points="164,-19 91,-19 91,0 164,0 164,-19"/>
<text text-anchor="middle" x="127.5" y="-7" font-family="Helvetica,sans-Serif" font-size="10.00">VtkVtuData</text>
</a>
</g>
</g>
<!-- Node1&#45;&gt;Node3 -->
<g id="edge2_Node000001_Node000003" class="edge">
<title>Node1&#45;&gt;Node3</title>
<g id="a_edge2_Node000001_Node000003"><a xlink:title=" ">
<path fill="none" stroke="#63b8ff" d="M95.86,-46.96C103.87,-37.72 113.53,-26.6 120.05,-19.09"/>
<polygon fill="#63b8ff" stroke="#63b8ff" points="93.01,-44.9 89.1,-54.75 98.29,-49.49 93.01,-44.9"/>
</a>
</g>
</g>
</g>
</svg>
