<?xml version="1.0" encoding="UTF-8" standalone="no"?>
<!DOCTYPE svg PUBLIC "-//W3C//DTD SVG 1.1//EN"
 "http://www.w3.org/Graphics/SVG/1.1/DTD/svg11.dtd">
<!-- Generated by graphviz version 2.43.0 (0)
 -->
<!-- Title: svmp::FE::basis::BasisFunction Pages: 1 -->
<svg width="326pt" height="93pt"
 viewBox="0.00 0.00 325.50 93.00" xmlns="http://www.w3.org/2000/svg" xmlns:xlink="http://www.w3.org/1999/xlink">
<g id="graph0" class="graph" transform="scale(1 1) rotate(0) translate(4 89)">
<title>svmp::FE::basis::BasisFunction</title>
<!-- Node1 -->
<g id="Node000001" class="node">
<title>Node1</title>
<g id="a_Node000001"><a xlink:title="Abstract interface for finite&#45;element basis&#45;function families.">
<polygon fill="#999999" stroke="#666666" points="239.5,-85 72.5,-85 72.5,-66 239.5,-66 239.5,-85"/>
<text text-anchor="middle" x="156" y="-73" font-family="Helvetica,sans-Serif" font-size="10.00">svmp::FE::basis::BasisFunction</text>
</a>
</g>
</g>
<!-- Node2 -->
<g id="Node000002" class="node">
<title>Node2</title>
<g id="a_Node000002"><a xlink:href="classsvmp_1_1_f_e_1_1basis_1_1_lagrange_basis.html" target="_top" xlink:title="Nodal Lagrange basis on supported reference finite elements.">
<polygon fill="white" stroke="#666666" points="144,-30 0,-30 0,0 144,0 144,-30"/>
<text text-anchor="start" x="8" y="-18" font-family="Helvetica,sans-Serif" font-size="10.00">svmp::FE::basis::Lagrange</text>
<text text-anchor="middle" x="72" y="-7" font-family="Helvetica,sans-Serif" font-size="10.00">Basis</text>
</a>
</g>
</g>
<!-- Node1&#45;&gt;Node2 -->
<g id="edge1_Node000001_Node000002" class="edge">
<title>Node1&#45;&gt;Node2</title>
<g id="a_edge1_Node000001_Node000002"><a xlink:title=" ">
<path fill="none" stroke="#63b8ff" d="M135.22,-60.03C122.12,-50.9 105.27,-39.17 92.27,-30.11"/>
<polygon fill="#63b8ff" stroke="#63b8ff" points="133.4,-63.03 143.61,-65.87 137.4,-57.28 133.4,-63.03"/>
</a>
</g>
</g>
<!-- Node3 -->
<g id="Node000003" class="node">
<title>Node3</title>
<g id="a_Node000003"><a xlink:href="classsvmp_1_1_f_e_1_1basis_1_1_serendipity_basis.html" target="_top" xlink:title="Reduced&#45;degree&#45;of&#45;freedom serendipity basis on supported reference elements.">
<polygon fill="white" stroke="#666666" points="317.5,-30 162.5,-30 162.5,0 317.5,0 317.5,-30"/>
<text text-anchor="start" x="170.5" y="-18" font-family="Helvetica,sans-Serif" font-size="10.00">svmp::FE::basis::Serendipity</text>
<text text-anchor="middle" x="240" y="-7" font-family="Helvetica,sans-Serif" font-size="10.00">Basis</text>
</a>
</g>
</g>
<!-- Node1&#45;&gt;Node3 -->
<g id="edge2_Node000001_Node000003" class="edge">
<title>Node1&#45;&gt;Node3</title>
<g id="a_edge2_Node000001_Node000003"><a xlink:title=" ">
<path fill="none" stroke="#63b8ff" d="M176.78,-60.03C189.88,-50.9 206.73,-39.17 219.73,-30.11"/>
<polygon fill="#63b8ff" stroke="#63b8ff" points="174.6,-57.28 168.39,-65.87 178.6,-63.03 174.6,-57.28"/>
</a>
</g>
</g>
</g>
</svg>
