<?xml version="1.0" encoding="UTF-8" standalone="no"?>
<!DOCTYPE svg PUBLIC "-//W3C//DTD SVG 1.1//EN"
 "http://www.w3.org/Graphics/SVG/1.1/DTD/svg11.dtd">
<!-- Generated by graphviz version 2.43.0 (0)
 -->
<!-- Title: svmp::FE::basis::BasisException Pages: 1 -->
<svg width="852pt" height="230pt"
 viewBox="0.00 0.00 852.00 230.00" xmlns="http://www.w3.org/2000/svg" xmlns:xlink="http://www.w3.org/1999/xlink">
<g id="graph0" class="graph" transform="scale(1 1) rotate(0) translate(4 226)">
<title>svmp::FE::basis::BasisException</title>
<!-- Node1 -->
<g id="Node000001" class="node">
<title>Node1</title>
<g id="a_Node000001"><a xlink:title="Base exception type for errors originating in the Basis module.">
<polygon fill="#999999" stroke="#666666" points="617,-120.5 444,-120.5 444,-101.5 617,-101.5 617,-120.5"/>
<text text-anchor="middle" x="530.5" y="-108.5" font-family="Helvetica,sans-Serif" font-size="10.00">svmp::FE::basis::BasisException</text>
</a>
</g>
</g>
<!-- Node5 -->
<g id="Node000005" class="node">
<title>Node5</title>
<g id="a_Node000005"><a xlink:href="classsvmp_1_1_f_e_1_1basis_1_1_basis_configuration_exception.html" target="_top" xlink:title="Invalid Basis request or configuration.">
<polygon fill="white" stroke="#666666" points="844,-222 653,-222 653,-192 844,-192 844,-222"/>
<text text-anchor="start" x="661" y="-210" font-family="Helvetica,sans-Serif" font-size="10.00">svmp::FE::basis::BasisConfiguration</text>
<text text-anchor="middle" x="748.5" y="-199" font-family="Helvetica,sans-Serif" font-size="10.00">Exception</text>
</a>
</g>
</g>
<!-- Node1&#45;&gt;Node5 -->
<g id="edge4_Node000001_Node000005" class="edge">
<title>Node1&#45;&gt;Node5</title>
<g id="a_edge4_Node000001_Node000005"><a xlink:title=" ">
<path fill="none" stroke="#63b8ff" d="M553.19,-126.46C576.75,-142.62 615.99,-167.71 653,-183 661.13,-186.36 669.86,-189.35 678.61,-191.97"/>
<polygon fill="#63b8ff" stroke="#63b8ff" points="554.89,-123.38 544.68,-120.55 550.89,-129.13 554.89,-123.38"/>
</a>
</g>
</g>
<!-- Node6 -->
<g id="Node000006" class="node">
<title>Node6</title>
<g id="a_Node000006"><a xlink:href="classsvmp_1_1_f_e_1_1basis_1_1_basis_construction_exception.html" target="_top" xlink:title="Internal basis construction or transform setup failure.">
<polygon fill="white" stroke="#666666" points="842,-174 655,-174 655,-144 842,-144 842,-174"/>
<text text-anchor="start" x="663" y="-162" font-family="Helvetica,sans-Serif" font-size="10.00">svmp::FE::basis::BasisConstruction</text>
<text text-anchor="middle" x="748.5" y="-151" font-family="Helvetica,sans-Serif" font-size="10.00">Exception</text>
</a>
</g>
</g>
<!-- Node1&#45;&gt;Node6 -->
<g id="edge5_Node000001_Node000006" class="edge">
<title>Node1&#45;&gt;Node6</title>
<g id="a_edge5_Node000001_Node000006"><a xlink:title=" ">
<path fill="none" stroke="#63b8ff" d="M584.31,-122.74C613.14,-129.14 649.14,-137.14 679.98,-144"/>
<polygon fill="#63b8ff" stroke="#63b8ff" points="584.95,-119.29 574.43,-120.54 583.44,-126.13 584.95,-119.29"/>
</a>
</g>
</g>
<!-- Node7 -->
<g id="Node000007" class="node">
<title>Node7</title>
<g id="a_Node000007"><a xlink:href="classsvmp_1_1_f_e_1_1basis_1_1_basis_element_compatibility_exception.html" target="_top" xlink:title="Requested element topology is incompatible with the basis family.">
<polygon fill="white" stroke="#666666" points="831.5,-126 665.5,-126 665.5,-96 831.5,-96 831.5,-126"/>
<text text-anchor="start" x="673.5" y="-114" font-family="Helvetica,sans-Serif" font-size="10.00">svmp::FE::basis::BasisElement</text>
<text text-anchor="middle" x="748.5" y="-103" font-family="Helvetica,sans-Serif" font-size="10.00">CompatibilityException</text>
</a>
</g>
</g>
<!-- Node1&#45;&gt;Node7 -->
<g id="edge6_Node000001_Node000007" class="edge">
<title>Node1&#45;&gt;Node7</title>
<g id="a_edge6_Node000001_Node000007"><a xlink:title=" ">
<path fill="none" stroke="#63b8ff" d="M627.32,-111C640.04,-111 652.99,-111 665.45,-111"/>
<polygon fill="#63b8ff" stroke="#63b8ff" points="627.18,-107.5 617.18,-111 627.18,-114.5 627.18,-107.5"/>
</a>
</g>
</g>
<!-- Node8 -->
<g id="Node000008" class="node">
<title>Node8</title>
<g id="a_Node000008"><a xlink:href="classsvmp_1_1_f_e_1_1basis_1_1_basis_evaluation_exception.html" target="_top" xlink:title="Basis evaluation request cannot be satisfied.">
<polygon fill="white" stroke="#666666" points="837,-78 660,-78 660,-48 837,-48 837,-78"/>
<text text-anchor="start" x="668" y="-66" font-family="Helvetica,sans-Serif" font-size="10.00">svmp::FE::basis::BasisEvaluation</text>
<text text-anchor="middle" x="748.5" y="-55" font-family="Helvetica,sans-Serif" font-size="10.00">Exception</text>
</a>
</g>
</g>
<!-- Node1&#45;&gt;Node8 -->
<g id="edge7_Node000001_Node000008" class="edge">
<title>Node1&#45;&gt;Node8</title>
<g id="a_edge7_Node000001_Node000008"><a xlink:title=" ">
<path fill="none" stroke="#63b8ff" d="M584.31,-99.26C613.14,-92.86 649.14,-84.86 679.98,-78"/>
<polygon fill="#63b8ff" stroke="#63b8ff" points="583.44,-95.87 574.43,-101.46 584.95,-102.71 583.44,-95.87"/>
</a>
</g>
</g>
<!-- Node9 -->
<g id="Node000009" class="node">
<title>Node9</title>
<g id="a_Node000009"><a xlink:href="classsvmp_1_1_f_e_1_1basis_1_1_basis_node_ordering_exception.html" target="_top" xlink:title="Public&#45;to&#45;canonical node ordering or coordinate lookup failure.">
<polygon fill="white" stroke="#666666" points="824,-30 673,-30 673,0 824,0 824,-30"/>
<text text-anchor="start" x="681" y="-18" font-family="Helvetica,sans-Serif" font-size="10.00">svmp::FE::basis::BasisNode</text>
<text text-anchor="middle" x="748.5" y="-7" font-family="Helvetica,sans-Serif" font-size="10.00">OrderingException</text>
</a>
</g>
</g>
<!-- Node1&#45;&gt;Node9 -->
<g id="edge8_Node000001_Node000009" class="edge">
<title>Node1&#45;&gt;Node9</title>
<g id="a_edge8_Node000001_Node000009"><a xlink:title=" ">
<path fill="none" stroke="#63b8ff" d="M553.19,-95.54C576.75,-79.38 615.99,-54.29 653,-39 661.13,-35.64 669.86,-32.65 678.61,-30.03"/>
<polygon fill="#63b8ff" stroke="#63b8ff" points="550.89,-92.87 544.68,-101.45 554.89,-98.62 550.89,-92.87"/>
</a>
</g>
</g>
<!-- Node2 -->
<g id="Node000002" class="node">
<title>Node2</title>
<g id="a_Node000002"><a xlink:href="classsvmp_1_1_f_e_1_1_f_e_exception.html" target="_top" xlink:title="Base exception type for errors originating in the FE library.">
<polygon fill="white" stroke="#666666" points="408,-120.5 280,-120.5 280,-101.5 408,-101.5 408,-120.5"/>
<text text-anchor="middle" x="344" y="-108.5" font-family="Helvetica,sans-Serif" font-size="10.00">svmp::FE::FEException</text>
</a>
</g>
</g>
<!-- Node2&#45;&gt;Node1 -->
<g id="edge1_Node000001_Node000002" class="edge">
<title>Node2&#45;&gt;Node1</title>
<g id="a_edge1_Node000001_Node000002"><a xlink:title=" ">
<path fill="none" stroke="#63b8ff" d="M418.33,-111C426.72,-111 435.32,-111 443.84,-111"/>
<polygon fill="#63b8ff" stroke="#63b8ff" points="418.24,-107.5 408.24,-111 418.24,-114.5 418.24,-107.5"/>
</a>
</g>
</g>
<!-- Node3 -->
<g id="Node000003" class="node">
<title>Node3</title>
<g id="a_Node000003"><a xlink:href="classsvmp_1_1_exception_base.html" target="_top" xlink:title=" ">
<polygon fill="white" stroke="#bfbfbf" points="244,-120.5 122,-120.5 122,-101.5 244,-101.5 244,-120.5"/>
<text text-anchor="middle" x="183" y="-108.5" font-family="Helvetica,sans-Serif" font-size="10.00">svmp::ExceptionBase</text>
</a>
</g>
</g>
<!-- Node3&#45;&gt;Node2 -->
<g id="edge2_Node000002_Node000003" class="edge">
<title>Node3&#45;&gt;Node2</title>
<g id="a_edge2_Node000002_Node000003"><a xlink:title=" ">
<path fill="none" stroke="#63b8ff" d="M254.38,-111C262.87,-111 271.51,-111 279.89,-111"/>
<polygon fill="#63b8ff" stroke="#63b8ff" points="254.11,-107.5 244.11,-111 254.11,-114.5 254.11,-107.5"/>
</a>
</g>
</g>
<!-- Node4 -->
<g id="Node000004" class="node">
<title>Node4</title>
<g id="a_Node000004"><a xlink:title=" ">
<polygon fill="white" stroke="#666666" points="86,-120.5 0,-120.5 0,-101.5 86,-101.5 86,-120.5"/>
<text text-anchor="middle" x="43" y="-108.5" font-family="Helvetica,sans-Serif" font-size="10.00">std::exception</text>
</a>
</g>
</g>
<!-- Node4&#45;&gt;Node3 -->
<g id="edge3_Node000003_Node000004" class="edge">
<title>Node4&#45;&gt;Node3</title>
<g id="a_edge3_Node000003_Node000004"><a xlink:title=" ">
<path fill="none" stroke="#63b8ff" d="M96.16,-111C104.54,-111 113.27,-111 121.82,-111"/>
<polygon fill="#63b8ff" stroke="#63b8ff" points="96.15,-107.5 86.15,-111 96.15,-114.5 96.15,-107.5"/>
</a>
</g>
</g>
</g>
</svg>
