<?xml version="1.0" encoding="UTF-8" standalone="no"?>
<!DOCTYPE svg PUBLIC "-//W3C//DTD SVG 1.1//EN"
 "http://www.w3.org/Graphics/SVG/1.1/DTD/svg11.dtd">
<!-- Generated by graphviz version 2.43.0 (0)
 -->
<!-- Title: svmp::FE::basis::BasisEvaluationException Pages: 1 -->
<svg width="185pt" height="258pt"
 viewBox="0.00 0.00 185.00 258.00" xmlns="http://www.w3.org/2000/svg" xmlns:xlink="http://www.w3.org/1999/xlink">
<g id="graph0" class="graph" transform="scale(1 1) rotate(0) translate(4 254)">
<title>svmp::FE::basis::BasisEvaluationException</title>
<!-- Node1 -->
<g id="Node000001" class="node">
<title>Node1</title>
<g id="a_Node000001"><a xlink:title="Basis evaluation request cannot be satisfied.">
<polygon fill="#999999" stroke="#666666" points="177,-30 0,-30 0,0 177,0 177,-30"/>
<text text-anchor="start" x="8" y="-18" font-family="Helvetica,sans-Serif" font-size="10.00">svmp::FE::basis::BasisEvaluation</text>
<text text-anchor="middle" x="88.5" y="-7" font-family="Helvetica,sans-Serif" font-size="10.00">Exception</text>
</a>
</g>
</g>
<!-- Node2 -->
<g id="Node000002" class="node">
<title>Node2</title>
<g id="a_Node000002"><a xlink:href="classsvmp_1_1_f_e_1_1basis_1_1_basis_exception.html" target="_top" xlink:title="Base exception type for errors originating in the Basis module.">
<polygon fill="white" stroke="#666666" points="175,-85 2,-85 2,-66 175,-66 175,-85"/>
<text text-anchor="middle" x="88.5" y="-73" font-family="Helvetica,sans-Serif" font-size="10.00">svmp::FE::basis::BasisException</text>
</a>
</g>
</g>
<!-- Node2&#45;&gt;Node1 -->
<g id="edge1_Node000001_Node000002" class="edge">
<title>Node2&#45;&gt;Node1</title>
<g id="a_edge1_Node000001_Node000002"><a xlink:title=" ">
<path fill="none" stroke="#63b8ff" d="M88.5,-55.65C88.5,-47.36 88.5,-37.78 88.5,-30.11"/>
<polygon fill="#63b8ff" stroke="#63b8ff" points="85,-55.87 88.5,-65.87 92,-55.87 85,-55.87"/>
</a>
</g>
</g>
<!-- Node3 -->
<g id="Node000003" class="node">
<title>Node3</title>
<g id="a_Node000003"><a xlink:href="classsvmp_1_1_f_e_1_1_f_e_exception.html" target="_top" xlink:title="Base exception type for errors originating in the FE library.">
<polygon fill="white" stroke="#666666" points="152.5,-140 24.5,-140 24.5,-121 152.5,-121 152.5,-140"/>
<text text-anchor="middle" x="88.5" y="-128" font-family="Helvetica,sans-Serif" font-size="10.00">svmp::FE::FEException</text>
</a>
</g>
</g>
<!-- Node3&#45;&gt;Node2 -->
<g id="edge2_Node000002_Node000003" class="edge">
<title>Node3&#45;&gt;Node2</title>
<g id="a_edge2_Node000002_Node000003"><a xlink:title=" ">
<path fill="none" stroke="#63b8ff" d="M88.5,-110.66C88.5,-101.93 88.5,-91.99 88.5,-85.09"/>
<polygon fill="#63b8ff" stroke="#63b8ff" points="85,-110.75 88.5,-120.75 92,-110.75 85,-110.75"/>
</a>
</g>
</g>
<!-- Node4 -->
<g id="Node000004" class="node">
<title>Node4</title>
<g id="a_Node000004"><a xlink:href="classsvmp_1_1_exception_base.html" target="_top" xlink:title=" ">
<polygon fill="white" stroke="#bfbfbf" points="149.5,-195 27.5,-195 27.5,-176 149.5,-176 149.5,-195"/>
<text text-anchor="middle" x="88.5" y="-183" font-family="Helvetica,sans-Serif" font-size="10.00">svmp::ExceptionBase</text>
</a>
</g>
</g>
<!-- Node4&#45;&gt;Node3 -->
<g id="edge3_Node000003_Node000004" class="edge">
<title>Node4&#45;&gt;Node3</title>
<g id="a_edge3_Node000003_Node000004"><a xlink:title=" ">
<path fill="none" stroke="#63b8ff" d="M88.5,-165.66C88.5,-156.93 88.5,-146.99 88.5,-140.09"/>
<polygon fill="#63b8ff" stroke="#63b8ff" points="85,-165.75 88.5,-175.75 92,-165.75 85,-165.75"/>
</a>
</g>
</g>
<!-- Node5 -->
<g id="Node000005" class="node">
<title>Node5</title>
<g id="a_Node000005"><a xlink:title=" ">
<polygon fill="white" stroke="#666666" points="131.5,-250 45.5,-250 45.5,-231 131.5,-231 131.5,-250"/>
<text text-anchor="middle" x="88.5" y="-238" font-family="Helvetica,sans-Serif" font-size="10.00">std::exception</text>
</a>
</g>
</g>
<!-- Node5&#45;&gt;Node4 -->
<g id="edge4_Node000004_Node000005" class="edge">
<title>Node5&#45;&gt;Node4</title>
<g id="a_edge4_Node000004_Node000005"><a xlink:title=" ">
<path fill="none" stroke="#63b8ff" d="M88.5,-220.66C88.5,-211.93 88.5,-201.99 88.5,-195.09"/>
<polygon fill="#63b8ff" stroke="#63b8ff" points="85,-220.75 88.5,-230.75 92,-220.75 85,-220.75"/>
</a>
</g>
</g>
</g>
</svg>
