<?xml version="1.0" encoding="UTF-8" standalone="no"?>
<!DOCTYPE svg PUBLIC "-//W3C//DTD SVG 1.1//EN"
 "http://www.w3.org/Graphics/SVG/1.1/DTD/svg11.dtd">
<!-- Generated by graphviz version 2.43.0 (0)
 -->
<!-- Title: IonicModel Pages: 1 -->
<svg width="359pt" height="82pt"
 viewBox="0.00 0.00 358.50 82.00" xmlns="http://www.w3.org/2000/svg" xmlns:xlink="http://www.w3.org/1999/xlink">
<g id="graph0" class="graph" transform="scale(1 1) rotate(0) translate(4 78)">
<title>IonicModel</title>
<!-- Node1 -->
<g id="Node000001" class="node">
<title>Node1</title>
<g id="a_Node000001"><a xlink:title="Abstract ionic model class.">
<polygon fill="#999999" stroke="#666666" points="227,-74 157,-74 157,-55 227,-55 227,-74"/>
<text text-anchor="middle" x="192" y="-62" font-family="Helvetica,sans-Serif" font-size="10.00">IonicModel</text>
</a>
</g>
</g>
<!-- Node2 -->
<g id="Node000002" class="node">
<title>Node2</title>
<g id="a_Node000002"><a xlink:href="class_aliev_panfilov.html" target="_top" xlink:title="Aliev&#45;Panfilov ionic model.">
<polygon fill="white" stroke="#666666" points="80,-19 0,-19 0,0 80,0 80,-19"/>
<text text-anchor="middle" x="40" y="-7" font-family="Helvetica,sans-Serif" font-size="10.00">AlievPanfilov</text>
</a>
</g>
</g>
<!-- Node1&#45;&gt;Node2 -->
<g id="edge1_Node000001_Node000002" class="edge">
<title>Node1&#45;&gt;Node2</title>
<g id="a_edge1_Node000001_Node000002"><a xlink:title=" ">
<path fill="none" stroke="#63b8ff" d="M158.07,-51.67C129.73,-41.79 89.98,-27.93 64.61,-19.08"/>
<polygon fill="#63b8ff" stroke="#63b8ff" points="156.98,-55 167.58,-54.98 159.29,-48.39 156.98,-55"/>
</a>
</g>
</g>
<!-- Node3 -->
<g id="Node000003" class="node">
<title>Node3</title>
<g id="a_Node000003"><a xlink:href="class_bueno_orovio.html" target="_top" xlink:title="Bueno&#45;Orovio ionic model.">
<polygon fill="white" stroke="#666666" points="178,-19 98,-19 98,0 178,0 178,-19"/>
<text text-anchor="middle" x="138" y="-7" font-family="Helvetica,sans-Serif" font-size="10.00">BuenoOrovio</text>
</a>
</g>
</g>
<!-- Node1&#45;&gt;Node3 -->
<g id="edge2_Node000001_Node000003" class="edge">
<title>Node1&#45;&gt;Node3</title>
<g id="a_edge2_Node000001_Node000003"><a xlink:title=" ">
<path fill="none" stroke="#63b8ff" d="M175.72,-47.52C166.2,-38.18 154.56,-26.75 146.75,-19.09"/>
<polygon fill="#63b8ff" stroke="#63b8ff" points="173.49,-50.24 183.08,-54.75 178.4,-45.25 173.49,-50.24"/>
</a>
</g>
</g>
<!-- Node4 -->
<g id="Node000004" class="node">
<title>Node4</title>
<g id="a_Node000004"><a xlink:href="class_fitz_hugh_nagumo.html" target="_top" xlink:title="FitzHugh&#45;Nagumo ionic model.">
<polygon fill="white" stroke="#666666" points="297.5,-19 196.5,-19 196.5,0 297.5,0 297.5,-19"/>
<text text-anchor="middle" x="247" y="-7" font-family="Helvetica,sans-Serif" font-size="10.00">FitzHughNagumo</text>
</a>
</g>
</g>
<!-- Node1&#45;&gt;Node4 -->
<g id="edge3_Node000001_Node000004" class="edge">
<title>Node1&#45;&gt;Node4</title>
<g id="a_edge3_Node000001_Node000004"><a xlink:title=" ">
<path fill="none" stroke="#63b8ff" d="M208.29,-47.8C218.04,-38.41 230.05,-26.83 238.09,-19.09"/>
<polygon fill="#63b8ff" stroke="#63b8ff" points="205.85,-45.29 201.08,-54.75 210.71,-50.33 205.85,-45.29"/>
</a>
</g>
</g>
<!-- Node5 -->
<g id="Node000005" class="node">
<title>Node5</title>
<g id="a_Node000005"><a xlink:href="class_t_t_p.html" target="_top" xlink:title="Ten Tusscher&#45;Panfilov ionic model.">
<polygon fill="white" stroke="#666666" points="350.5,-19 315.5,-19 315.5,0 350.5,0 350.5,-19"/>
<text text-anchor="middle" x="333" y="-7" font-family="Helvetica,sans-Serif" font-size="10.00">TTP</text>
</a>
</g>
</g>
<!-- Node1&#45;&gt;Node5 -->
<g id="edge4_Node000001_Node000005" class="edge">
<title>Node1&#45;&gt;Node5</title>
<g id="a_edge4_Node000001_Node000005"><a xlink:title=" ">
<path fill="none" stroke="#63b8ff" d="M224.11,-51.43C252.38,-40.8 292.49,-25.73 315.31,-17.15"/>
<polygon fill="#63b8ff" stroke="#63b8ff" points="222.78,-48.19 214.65,-54.98 225.25,-54.74 222.78,-48.19"/>
</a>
</g>
</g>
</g>
</svg>
