<?xml version="1.0" encoding="UTF-8" standalone="no"?>
<!DOCTYPE svg PUBLIC "-//W3C//DTD SVG 1.1//EN"
 "http://www.w3.org/Graphics/SVG/1.1/DTD/svg11.dtd">
<!-- Generated by graphviz version 2.43.0 (0)
 -->
<!-- Title: svmp::ExceptionBase Pages: 1 -->
<svg width="863pt" height="618pt"
 viewBox="0.00 0.00 863.00 617.50" xmlns="http://www.w3.org/2000/svg" xmlns:xlink="http://www.w3.org/1999/xlink">
<g id="graph0" class="graph" transform="scale(1 1) rotate(0) translate(4 613.5)">
<title>svmp::ExceptionBase</title>
<!-- Node1 -->
<g id="Node000001" class="node">
<title>Node1</title>
<g id="a_Node000001"><a xlink:title=" ">
<polygon fill="#999999" stroke="#666666" points="244,-421.5 122,-421.5 122,-402.5 244,-402.5 244,-421.5"/>
<text text-anchor="middle" x="183" y="-409.5" font-family="Helvetica,sans-Serif" font-size="10.00">svmp::ExceptionBase</text>
</a>
</g>
</g>
<!-- Node3 -->
<g id="Node000003" class="node">
<title>Node3</title>
<g id="a_Node000003"><a xlink:href="classsvmp_1_1_core_exception.html" target="_top" xlink:title=" ">
<polygon fill="white" stroke="#bfbfbf" points="404,-535.5 284,-535.5 284,-516.5 404,-516.5 404,-535.5"/>
<text text-anchor="middle" x="344" y="-523.5" font-family="Helvetica,sans-Serif" font-size="10.00">svmp::CoreException</text>
</a>
</g>
</g>
<!-- Node1&#45;&gt;Node3 -->
<g id="edge2_Node000001_Node000003" class="edge">
<title>Node1&#45;&gt;Node3</title>
<g id="a_edge2_Node000001_Node000003"><a xlink:title=" ">
<path fill="none" stroke="#63b8ff" d="M205.44,-427.37C238.69,-451.21 301.75,-496.43 329.42,-516.26"/>
<polygon fill="#63b8ff" stroke="#63b8ff" points="207.45,-424.51 197.28,-421.52 203.37,-430.19 207.45,-424.51"/>
</a>
</g>
</g>
<!-- Node8 -->
<g id="Node000008" class="node">
<title>Node8</title>
<g id="a_Node000008"><a xlink:href="classsvmp_1_1_f_e_1_1_f_e_exception.html" target="_top" xlink:title="Base exception type for errors originating in the FE library.">
<polygon fill="white" stroke="#666666" points="408,-329.5 280,-329.5 280,-310.5 408,-310.5 408,-329.5"/>
<text text-anchor="middle" x="344" y="-317.5" font-family="Helvetica,sans-Serif" font-size="10.00">svmp::FE::FEException</text>
</a>
</g>
</g>
<!-- Node1&#45;&gt;Node8 -->
<g id="edge7_Node000001_Node000008" class="edge">
<title>Node1&#45;&gt;Node8</title>
<g id="a_edge7_Node000001_Node000008"><a xlink:title=" ">
<path fill="none" stroke="#63b8ff" d="M209.74,-397.1C242.69,-378.04 298.79,-345.58 326.51,-329.54"/>
<polygon fill="#63b8ff" stroke="#63b8ff" points="207.62,-394.29 200.72,-402.33 211.12,-400.35 207.62,-394.29"/>
</a>
</g>
</g>
<!-- Node2 -->
<g id="Node000002" class="node">
<title>Node2</title>
<g id="a_Node000002"><a xlink:title=" ">
<polygon fill="white" stroke="#666666" points="86,-421.5 0,-421.5 0,-402.5 86,-402.5 86,-421.5"/>
<text text-anchor="middle" x="43" y="-409.5" font-family="Helvetica,sans-Serif" font-size="10.00">std::exception</text>
</a>
</g>
</g>
<!-- Node2&#45;&gt;Node1 -->
<g id="edge1_Node000001_Node000002" class="edge">
<title>Node2&#45;&gt;Node1</title>
<g id="a_edge1_Node000001_Node000002"><a xlink:title=" ">
<path fill="none" stroke="#63b8ff" d="M96.16,-412C104.54,-412 113.27,-412 121.82,-412"/>
<polygon fill="#63b8ff" stroke="#63b8ff" points="96.15,-408.5 86.15,-412 96.15,-415.5 96.15,-408.5"/>
</a>
</g>
</g>
<!-- Node4 -->
<g id="Node000004" class="node">
<title>Node4</title>
<g id="a_Node000004"><a xlink:href="classsvmp_1_1_dependency_exception.html" target="_top" xlink:title="A required dependency is missing or failed to load.">
<polygon fill="white" stroke="#666666" points="615,-609.5 457,-609.5 457,-590.5 615,-590.5 615,-609.5"/>
<text text-anchor="middle" x="536" y="-597.5" font-family="Helvetica,sans-Serif" font-size="10.00">svmp::DependencyException</text>
</a>
</g>
</g>
<!-- Node3&#45;&gt;Node4 -->
<g id="edge3_Node000003_Node000004" class="edge">
<title>Node3&#45;&gt;Node4</title>
<g id="a_edge3_Node000003_Node000004"><a xlink:title=" ">
<path fill="none" stroke="#63b8ff" d="M367.16,-541.28C386.59,-554 416.03,-571.63 444,-582 453.06,-585.36 462.87,-588.13 472.59,-590.41"/>
<polygon fill="#63b8ff" stroke="#63b8ff" points="368.99,-538.3 358.73,-535.66 365.11,-544.12 368.99,-538.3"/>
</a>
</g>
</g>
<!-- Node5 -->
<g id="Node000005" class="node">
<title>Node5</title>
<g id="a_Node000005"><a xlink:href="classsvmp_1_1_index_out_of_range_exception.html" target="_top" xlink:title="An index is outside its valid range.">
<polygon fill="white" stroke="#666666" points="628,-572.5 444,-572.5 444,-553.5 628,-553.5 628,-572.5"/>
<text text-anchor="middle" x="536" y="-560.5" font-family="Helvetica,sans-Serif" font-size="10.00">svmp::IndexOutOfRangeException</text>
</a>
</g>
</g>
<!-- Node3&#45;&gt;Node5 -->
<g id="edge4_Node000003_Node000005" class="edge">
<title>Node3&#45;&gt;Node5</title>
<g id="a_edge4_Node000003_Node000005"><a xlink:title=" ">
<path fill="none" stroke="#63b8ff" d="M403.79,-537.45C430.12,-542.58 460.82,-548.56 485.91,-553.44"/>
<polygon fill="#63b8ff" stroke="#63b8ff" points="404.41,-534 393.93,-535.53 403.08,-540.88 404.41,-534"/>
</a>
</g>
</g>
<!-- Node6 -->
<g id="Node000006" class="node">
<title>Node6</title>
<g id="a_Node000006"><a xlink:href="classsvmp_1_1_not_implemented_exception.html" target="_top" xlink:title="A requested operation or feature is not implemented.">
<polygon fill="white" stroke="#666666" points="626,-535.5 446,-535.5 446,-516.5 626,-516.5 626,-535.5"/>
<text text-anchor="middle" x="536" y="-523.5" font-family="Helvetica,sans-Serif" font-size="10.00">svmp::NotImplementedException</text>
</a>
</g>
</g>
<!-- Node3&#45;&gt;Node6 -->
<g id="edge5_Node000003_Node000006" class="edge">
<title>Node3&#45;&gt;Node6</title>
<g id="a_edge5_Node000003_Node000006"><a xlink:title=" ">
<path fill="none" stroke="#63b8ff" d="M414.23,-526C424.55,-526 435.31,-526 445.97,-526"/>
<polygon fill="#63b8ff" stroke="#63b8ff" points="414.08,-522.5 404.08,-526 414.08,-529.5 414.08,-522.5"/>
</a>
</g>
</g>
<!-- Node7 -->
<g id="Node000007" class="node">
<title>Node7</title>
<g id="a_Node000007"><a xlink:href="classsvmp_1_1_parse_exception.html" target="_top" xlink:title="A parsing or input&#45;format error.">
<polygon fill="white" stroke="#666666" points="598,-498.5 474,-498.5 474,-479.5 598,-479.5 598,-498.5"/>
<text text-anchor="middle" x="536" y="-486.5" font-family="Helvetica,sans-Serif" font-size="10.00">svmp::ParseException</text>
</a>
</g>
</g>
<!-- Node3&#45;&gt;Node7 -->
<g id="edge6_Node000003_Node000007" class="edge">
<title>Node3&#45;&gt;Node7</title>
<g id="a_edge6_Node000003_Node000007"><a xlink:title=" ">
<path fill="none" stroke="#63b8ff" d="M403.79,-514.55C430.12,-509.42 460.82,-503.44 485.91,-498.56"/>
<polygon fill="#63b8ff" stroke="#63b8ff" points="403.08,-511.12 393.93,-516.47 404.41,-518 403.08,-511.12"/>
</a>
</g>
</g>
<!-- Node9 -->
<g id="Node000009" class="node">
<title>Node9</title>
<g id="a_Node000009"><a xlink:href="classsvmp_1_1_f_e_1_1_assembly_exception.html" target="_top" xlink:title="Global assembly failure.">
<polygon fill="white" stroke="#666666" points="618,-461.5 454,-461.5 454,-442.5 618,-442.5 618,-461.5"/>
<text text-anchor="middle" x="536" y="-449.5" font-family="Helvetica,sans-Serif" font-size="10.00">svmp::FE::AssemblyException</text>
</a>
</g>
</g>
<!-- Node8&#45;&gt;Node9 -->
<g id="edge8_Node000008_Node000009" class="edge">
<title>Node8&#45;&gt;Node9</title>
<g id="a_edge8_Node000008_Node000009"><a xlink:title=" ">
<path fill="none" stroke="#63b8ff" d="M355.74,-338.46C371.62,-363.98 403.86,-409.56 444,-433 450.69,-436.91 458.07,-440.02 465.65,-442.49"/>
<polygon fill="#63b8ff" stroke="#63b8ff" points="358.65,-336.49 350.48,-329.75 352.66,-340.11 358.65,-336.49"/>
</a>
</g>
</g>
<!-- Node10 -->
<g id="Node000010" class="node">
<title>Node10</title>
<g id="a_Node000010"><a xlink:href="classsvmp_1_1_f_e_1_1_backend_exception.html" target="_top" xlink:title="Failure reported by a linear&#45;algebra or solver backend.">
<polygon fill="white" stroke="#666666" points="614.5,-424.5 457.5,-424.5 457.5,-405.5 614.5,-405.5 614.5,-424.5"/>
<text text-anchor="middle" x="536" y="-412.5" font-family="Helvetica,sans-Serif" font-size="10.00">svmp::FE::BackendException</text>
</a>
</g>
</g>
<!-- Node8&#45;&gt;Node10 -->
<g id="edge9_Node000008_Node000010" class="edge">
<title>Node8&#45;&gt;Node10</title>
<g id="a_edge9_Node000008_Node000010"><a xlink:title=" ">
<path fill="none" stroke="#63b8ff" d="M361.73,-336.72C380.25,-354.23 411.75,-381.2 444,-396 452.51,-399.9 461.83,-403.02 471.16,-405.49"/>
<polygon fill="#63b8ff" stroke="#63b8ff" points="364.03,-334.08 354.41,-329.64 359.17,-339.11 364.03,-334.08"/>
</a>
</g>
</g>
<!-- Node11 -->
<g id="Node000011" class="node">
<title>Node11</title>
<g id="a_Node000011"><a xlink:href="classsvmp_1_1_f_e_1_1_convergence_exception.html" target="_top" xlink:title="Iterative process failed to converge.">
<polygon fill="white" stroke="#666666" points="625.5,-387.5 446.5,-387.5 446.5,-368.5 625.5,-368.5 625.5,-387.5"/>
<text text-anchor="middle" x="536" y="-375.5" font-family="Helvetica,sans-Serif" font-size="10.00">svmp::FE::ConvergenceException</text>
</a>
</g>
</g>
<!-- Node8&#45;&gt;Node11 -->
<g id="edge10_Node000008_Node000011" class="edge">
<title>Node8&#45;&gt;Node11</title>
<g id="a_edge10_Node000008_Node000011"><a xlink:title=" ">
<path fill="none" stroke="#63b8ff" d="M375.47,-333.56C394.81,-341.77 420.53,-351.98 444,-359 456.06,-362.61 469.22,-365.78 481.69,-368.45"/>
<polygon fill="#63b8ff" stroke="#63b8ff" points="376.83,-330.33 366.26,-329.59 374.06,-336.76 376.83,-330.33"/>
</a>
</g>
</g>
<!-- Node12 -->
<g id="Node000012" class="node">
<title>Node12</title>
<g id="a_Node000012"><a xlink:href="classsvmp_1_1_f_e_1_1_dof_exception.html" target="_top" xlink:title="Degree&#45;of&#45;freedom numbering or lookup failure.">
<polygon fill="white" stroke="#666666" points="602.5,-350.5 469.5,-350.5 469.5,-331.5 602.5,-331.5 602.5,-350.5"/>
<text text-anchor="middle" x="536" y="-338.5" font-family="Helvetica,sans-Serif" font-size="10.00">svmp::FE::DofException</text>
</a>
</g>
</g>
<!-- Node8&#45;&gt;Node12 -->
<g id="edge11_Node000008_Node000012" class="edge">
<title>Node8&#45;&gt;Node12</title>
<g id="a_edge11_Node000008_Node000012"><a xlink:title=" ">
<path fill="none" stroke="#63b8ff" d="M418.3,-328.1C435.08,-329.96 452.8,-331.92 469.24,-333.73"/>
<polygon fill="#63b8ff" stroke="#63b8ff" points="418.33,-324.58 408,-326.96 417.56,-331.54 418.33,-324.58"/>
</a>
</g>
</g>
<!-- Node13 -->
<g id="Node000013" class="node">
<title>Node13</title>
<g id="a_Node000013"><a xlink:href="classsvmp_1_1_f_e_1_1_invalid_argument_exception.html" target="_top" xlink:title="An argument failed validation.">
<polygon fill="white" stroke="#666666" points="610.5,-313 461.5,-313 461.5,-283 610.5,-283 610.5,-313"/>
<text text-anchor="start" x="469.5" y="-301" font-family="Helvetica,sans-Serif" font-size="10.00">svmp::FE::InvalidArgument</text>
<text text-anchor="middle" x="536" y="-290" font-family="Helvetica,sans-Serif" font-size="10.00">Exception</text>
</a>
</g>
</g>
<!-- Node8&#45;&gt;Node13 -->
<g id="edge12_Node000008_Node000013" class="edge">
<title>Node8&#45;&gt;Node13</title>
<g id="a_edge12_Node000008_Node000013"><a xlink:title=" ">
<path fill="none" stroke="#63b8ff" d="M418.16,-311.53C432.31,-309.89 447.14,-308.17 461.3,-306.53"/>
<polygon fill="#63b8ff" stroke="#63b8ff" points="417.53,-308.08 408,-312.7 418.34,-315.03 417.53,-308.08"/>
</a>
</g>
</g>
<!-- Node14 -->
<g id="Node000014" class="node">
<title>Node14</title>
<g id="a_Node000014"><a xlink:href="classsvmp_1_1_f_e_1_1_invalid_element_exception.html" target="_top" xlink:title="Unsupported or malformed element request.">
<polygon fill="white" stroke="#666666" points="606.5,-265 465.5,-265 465.5,-235 606.5,-235 606.5,-265"/>
<text text-anchor="start" x="473.5" y="-253" font-family="Helvetica,sans-Serif" font-size="10.00">svmp::FE::InvalidElement</text>
<text text-anchor="middle" x="536" y="-242" font-family="Helvetica,sans-Serif" font-size="10.00">Exception</text>
</a>
</g>
</g>
<!-- Node8&#45;&gt;Node14 -->
<g id="edge13_Node000008_Node000014" class="edge">
<title>Node8&#45;&gt;Node14</title>
<g id="a_edge13_Node000008_Node000014"><a xlink:title=" ">
<path fill="none" stroke="#63b8ff" d="M372.15,-305.79C391.74,-295.94 419.03,-283.01 444,-274 452.91,-270.78 462.46,-267.79 471.89,-265.09"/>
<polygon fill="#63b8ff" stroke="#63b8ff" points="370.52,-302.69 363.2,-310.35 373.7,-308.93 370.52,-302.69"/>
</a>
</g>
</g>
<!-- Node15 -->
<g id="Node000015" class="node">
<title>Node15</title>
<g id="a_Node000015"><a xlink:href="classsvmp_1_1_f_e_1_1_not_initialized_exception.html" target="_top" xlink:title="Required initialization step has not been performed.">
<polygon fill="white" stroke="#666666" points="602.5,-217 469.5,-217 469.5,-187 602.5,-187 602.5,-217"/>
<text text-anchor="start" x="477.5" y="-205" font-family="Helvetica,sans-Serif" font-size="10.00">svmp::FE::NotInitialized</text>
<text text-anchor="middle" x="536" y="-194" font-family="Helvetica,sans-Serif" font-size="10.00">Exception</text>
</a>
</g>
</g>
<!-- Node8&#45;&gt;Node15 -->
<g id="edge14_Node000008_Node000015" class="edge">
<title>Node8&#45;&gt;Node15</title>
<g id="a_edge14_Node000008_Node000015"><a xlink:title=" ">
<path fill="none" stroke="#63b8ff" d="M358.67,-302.46C376.18,-281.21 408.52,-245.78 444,-226 451.85,-221.62 460.53,-218.02 469.31,-215.06"/>
<polygon fill="#63b8ff" stroke="#63b8ff" points="355.85,-300.38 352.31,-310.37 361.31,-304.77 355.85,-300.38"/>
</a>
</g>
</g>
<!-- Node16 -->
<g id="Node000016" class="node">
<title>Node16</title>
<g id="a_Node000016"><a xlink:href="classsvmp_1_1_f_e_1_1_singular_mapping_exception.html" target="_top" xlink:title="Element geometric mapping is singular or inverted.">
<polygon fill="white" stroke="#666666" points="610.5,-169 461.5,-169 461.5,-139 610.5,-139 610.5,-169"/>
<text text-anchor="start" x="469.5" y="-157" font-family="Helvetica,sans-Serif" font-size="10.00">svmp::FE::SingularMapping</text>
<text text-anchor="middle" x="536" y="-146" font-family="Helvetica,sans-Serif" font-size="10.00">Exception</text>
</a>
</g>
</g>
<!-- Node8&#45;&gt;Node16 -->
<g id="edge15_Node000008_Node000016" class="edge">
<title>Node8&#45;&gt;Node16</title>
<g id="a_edge15_Node000008_Node000016"><a xlink:title=" ">
<path fill="none" stroke="#63b8ff" d="M352.89,-301.13C366.69,-270.46 398.19,-210.01 444,-178 449.36,-174.26 455.26,-171.1 461.41,-168.43"/>
<polygon fill="#63b8ff" stroke="#63b8ff" points="349.67,-299.74 348.89,-310.3 356.09,-302.53 349.67,-299.74"/>
</a>
</g>
</g>
<!-- Node17 -->
<g id="Node000017" class="node">
<title>Node17</title>
<g id="a_Node000017"><a xlink:href="classsvmp_1_1_f_e_1_1basis_1_1_basis_exception.html" target="_top" xlink:title="Base exception type for errors originating in the Basis module.">
<polygon fill="white" stroke="#666666" points="622.5,-120.5 449.5,-120.5 449.5,-101.5 622.5,-101.5 622.5,-120.5"/>
<text text-anchor="middle" x="536" y="-108.5" font-family="Helvetica,sans-Serif" font-size="10.00">svmp::FE::basis::BasisException</text>
</a>
</g>
</g>
<!-- Node8&#45;&gt;Node17 -->
<g id="edge16_Node000008_Node000017" class="edge">
<title>Node8&#45;&gt;Node17</title>
<g id="a_edge16_Node000008_Node000017"><a xlink:title=" ">
<path fill="none" stroke="#63b8ff" d="M349.31,-300.35C358.95,-261.28 386.12,-173.83 444,-130 449.02,-126.2 454.62,-123.12 460.51,-120.62"/>
<polygon fill="#63b8ff" stroke="#63b8ff" points="345.87,-299.68 347,-310.22 352.68,-301.28 345.87,-299.68"/>
</a>
</g>
</g>
<!-- Node18 -->
<g id="Node000018" class="node">
<title>Node18</title>
<g id="a_Node000018"><a xlink:href="classsvmp_1_1_f_e_1_1basis_1_1_basis_configuration_exception.html" target="_top" xlink:title="Invalid Basis request or configuration.">
<polygon fill="white" stroke="#666666" points="855,-222 664,-222 664,-192 855,-192 855,-222"/>
<text text-anchor="start" x="672" y="-210" font-family="Helvetica,sans-Serif" font-size="10.00">svmp::FE::basis::BasisConfiguration</text>
<text text-anchor="middle" x="759.5" y="-199" font-family="Helvetica,sans-Serif" font-size="10.00">Exception</text>
</a>
</g>
</g>
<!-- Node17&#45;&gt;Node18 -->
<g id="edge17_Node000017_Node000018" class="edge">
<title>Node17&#45;&gt;Node18</title>
<g id="a_edge17_Node000017_Node000018"><a xlink:title=" ">
<path fill="none" stroke="#63b8ff" d="M618.63,-124.61C621.89,-126.22 625.03,-128.01 628,-130 651.66,-145.84 640.68,-166.65 664,-183 668.85,-186.4 674.14,-189.32 679.66,-191.83"/>
<polygon fill="#63b8ff" stroke="#63b8ff" points="619.75,-121.29 609.18,-120.55 616.99,-127.72 619.75,-121.29"/>
</a>
</g>
</g>
<!-- Node19 -->
<g id="Node000019" class="node">
<title>Node19</title>
<g id="a_Node000019"><a xlink:href="classsvmp_1_1_f_e_1_1basis_1_1_basis_construction_exception.html" target="_top" xlink:title="Internal basis construction or transform setup failure.">
<polygon fill="white" stroke="#666666" points="853,-174 666,-174 666,-144 853,-144 853,-174"/>
<text text-anchor="start" x="674" y="-162" font-family="Helvetica,sans-Serif" font-size="10.00">svmp::FE::basis::BasisConstruction</text>
<text text-anchor="middle" x="759.5" y="-151" font-family="Helvetica,sans-Serif" font-size="10.00">Exception</text>
</a>
</g>
</g>
<!-- Node17&#45;&gt;Node19 -->
<g id="edge18_Node000017_Node000019" class="edge">
<title>Node17&#45;&gt;Node19</title>
<g id="a_edge18_Node000017_Node000019"><a xlink:title=" ">
<path fill="none" stroke="#63b8ff" d="M593.26,-122.63C604.76,-125.04 616.77,-127.58 628,-130 648.65,-134.45 671.1,-139.4 691.48,-143.93"/>
<polygon fill="#63b8ff" stroke="#63b8ff" points="593.82,-119.17 583.32,-120.55 592.39,-126.02 593.82,-119.17"/>
</a>
</g>
</g>
<!-- Node20 -->
<g id="Node000020" class="node">
<title>Node20</title>
<g id="a_Node000020"><a xlink:href="classsvmp_1_1_f_e_1_1basis_1_1_basis_element_compatibility_exception.html" target="_top" xlink:title="Requested element topology is incompatible with the basis family.">
<polygon fill="white" stroke="#666666" points="842.5,-126 676.5,-126 676.5,-96 842.5,-96 842.5,-126"/>
<text text-anchor="start" x="684.5" y="-114" font-family="Helvetica,sans-Serif" font-size="10.00">svmp::FE::basis::BasisElement</text>
<text text-anchor="middle" x="759.5" y="-103" font-family="Helvetica,sans-Serif" font-size="10.00">CompatibilityException</text>
</a>
</g>
</g>
<!-- Node17&#45;&gt;Node20 -->
<g id="edge19_Node000017_Node000020" class="edge">
<title>Node17&#45;&gt;Node20</title>
<g id="a_edge19_Node000017_Node000020"><a xlink:title=" ">
<path fill="none" stroke="#63b8ff" d="M632.65,-111C647.21,-111 662.13,-111 676.36,-111"/>
<polygon fill="#63b8ff" stroke="#63b8ff" points="632.64,-107.5 622.64,-111 632.64,-114.5 632.64,-107.5"/>
</a>
</g>
</g>
<!-- Node21 -->
<g id="Node000021" class="node">
<title>Node21</title>
<g id="a_Node000021"><a xlink:href="classsvmp_1_1_f_e_1_1basis_1_1_basis_evaluation_exception.html" target="_top" xlink:title="Basis evaluation request cannot be satisfied.">
<polygon fill="white" stroke="#666666" points="848,-78 671,-78 671,-48 848,-48 848,-78"/>
<text text-anchor="start" x="679" y="-66" font-family="Helvetica,sans-Serif" font-size="10.00">svmp::FE::basis::BasisEvaluation</text>
<text text-anchor="middle" x="759.5" y="-55" font-family="Helvetica,sans-Serif" font-size="10.00">Exception</text>
</a>
</g>
</g>
<!-- Node17&#45;&gt;Node21 -->
<g id="edge20_Node000017_Node000021" class="edge">
<title>Node17&#45;&gt;Node21</title>
<g id="a_edge20_Node000017_Node000021"><a xlink:title=" ">
<path fill="none" stroke="#63b8ff" d="M591.15,-99.26C620.72,-92.86 657.63,-84.86 689.26,-78"/>
<polygon fill="#63b8ff" stroke="#63b8ff" points="590.06,-95.92 581.03,-101.46 591.54,-102.76 590.06,-95.92"/>
</a>
</g>
</g>
<!-- Node22 -->
<g id="Node000022" class="node">
<title>Node22</title>
<g id="a_Node000022"><a xlink:href="classsvmp_1_1_f_e_1_1basis_1_1_basis_node_ordering_exception.html" target="_top" xlink:title="Public&#45;to&#45;canonical node ordering or coordinate lookup failure.">
<polygon fill="white" stroke="#666666" points="835,-30 684,-30 684,0 835,0 835,-30"/>
<text text-anchor="start" x="692" y="-18" font-family="Helvetica,sans-Serif" font-size="10.00">svmp::FE::basis::BasisNode</text>
<text text-anchor="middle" x="759.5" y="-7" font-family="Helvetica,sans-Serif" font-size="10.00">OrderingException</text>
</a>
</g>
</g>
<!-- Node17&#45;&gt;Node22 -->
<g id="edge21_Node000017_Node000022" class="edge">
<title>Node17&#45;&gt;Node22</title>
<g id="a_edge21_Node000017_Node000022"><a xlink:title=" ">
<path fill="none" stroke="#63b8ff" d="M559.46,-95.81C584.14,-79.71 625.42,-54.51 664,-39 672.32,-35.65 681.25,-32.66 690.18,-30.03"/>
<polygon fill="#63b8ff" stroke="#63b8ff" points="557.26,-93.06 550.85,-101.49 561.12,-98.9 557.26,-93.06"/>
</a>
</g>
</g>
</g>
</svg>
