<?xml version="1.0" encoding="UTF-8" standalone="no"?>
<!DOCTYPE svg PUBLIC "-//W3C//DTD SVG 1.1//EN"
 "http://www.w3.org/Graphics/SVG/1.1/DTD/svg11.dtd">
<!-- Generated by graphviz version 2.43.0 (0)
 -->
<!-- Title: IonicModelParameters Pages: 1 -->
<svg width="456pt" height="138pt"
 viewBox="0.00 0.00 456.00 138.00" xmlns="http://www.w3.org/2000/svg" xmlns:xlink="http://www.w3.org/1999/xlink">
<g id="graph0" class="graph" transform="scale(1 1) rotate(0) translate(4 134)">
<title>IonicModelParameters</title>
<!-- Node1 -->
<g id="Node000001" class="node">
<title>Node1</title>
<g id="a_Node000001"><a xlink:title="Initial conditions parameters for a generic ionic model.">
<polygon fill="#999999" stroke="#666666" points="250,-74 125,-74 125,-55 250,-55 250,-74"/>
<text text-anchor="middle" x="187.5" y="-62" font-family="Helvetica,sans-Serif" font-size="10.00">IonicModelParameters</text>
</a>
</g>
</g>
<!-- Node3 -->
<g id="Node000003" class="node">
<title>Node3</title>
<g id="a_Node000003"><a xlink:href="class_aliev_panfilov_1_1_parameters.html" target="_top" xlink:title="Model parameters class.">
<polygon fill="white" stroke="#666666" points="437,-130 297,-130 297,-111 437,-111 437,-130"/>
<text text-anchor="middle" x="367" y="-118" font-family="Helvetica,sans-Serif" font-size="10.00">AlievPanfilov::Parameters</text>
</a>
</g>
</g>
<!-- Node1&#45;&gt;Node3 -->
<g id="edge2_Node000001_Node000003" class="edge">
<title>Node1&#45;&gt;Node3</title>
<g id="a_edge2_Node000001_Node000003"><a xlink:title=" ">
<path fill="none" stroke="#63b8ff" d="M219.57,-77.99C238.51,-85.87 263.36,-95.58 286,-102.5 296.21,-105.62 307.31,-108.46 317.89,-110.91"/>
<polygon fill="#63b8ff" stroke="#63b8ff" points="220.81,-74.72 210.24,-74.06 218.1,-81.17 220.81,-74.72"/>
</a>
</g>
</g>
<!-- Node4 -->
<g id="Node000004" class="node">
<title>Node4</title>
<g id="a_Node000004"><a xlink:href="class_bueno_orovio_1_1_parameters.html" target="_top" xlink:title="Model parameters class.">
<polygon fill="white" stroke="#666666" points="437.5,-93 296.5,-93 296.5,-74 437.5,-74 437.5,-93"/>
<text text-anchor="middle" x="367" y="-81" font-family="Helvetica,sans-Serif" font-size="10.00">BuenoOrovio::Parameters</text>
</a>
</g>
</g>
<!-- Node1&#45;&gt;Node4 -->
<g id="edge3_Node000001_Node000004" class="edge">
<title>Node1&#45;&gt;Node4</title>
<g id="a_edge3_Node000001_Node000004"><a xlink:title=" ">
<path fill="none" stroke="#63b8ff" d="M260.38,-72.19C272.24,-73.46 284.51,-74.78 296.32,-76.04"/>
<polygon fill="#63b8ff" stroke="#63b8ff" points="260.4,-68.68 250.08,-71.09 259.65,-75.64 260.4,-68.68"/>
</a>
</g>
</g>
<!-- Node5 -->
<g id="Node000005" class="node">
<title>Node5</title>
<g id="a_Node000005"><a xlink:href="class_fitz_hugh_nagumo_1_1_parameters.html" target="_top" xlink:title="Model parameters class.">
<polygon fill="white" stroke="#666666" points="448,-56 286,-56 286,-37 448,-37 448,-56"/>
<text text-anchor="middle" x="367" y="-44" font-family="Helvetica,sans-Serif" font-size="10.00">FitzHughNagumo::Parameters</text>
</a>
</g>
</g>
<!-- Node1&#45;&gt;Node5 -->
<g id="edge4_Node000001_Node000005" class="edge">
<title>Node1&#45;&gt;Node5</title>
<g id="a_edge4_Node000001_Node000005"><a xlink:title=" ">
<path fill="none" stroke="#63b8ff" d="M260.22,-57.23C268.63,-56.37 277.25,-55.5 285.77,-54.64"/>
<polygon fill="#63b8ff" stroke="#63b8ff" points="259.68,-53.76 250.08,-58.25 260.38,-60.73 259.68,-53.76"/>
</a>
</g>
</g>
<!-- Node6 -->
<g id="Node000006" class="node">
<title>Node6</title>
<g id="a_Node000006"><a xlink:href="class_t_t_p_1_1_parameters.html" target="_top" xlink:title="Model parameters class.">
<polygon fill="white" stroke="#666666" points="415,-19 319,-19 319,0 415,0 415,-19"/>
<text text-anchor="middle" x="367" y="-7" font-family="Helvetica,sans-Serif" font-size="10.00">TTP::Parameters</text>
</a>
</g>
</g>
<!-- Node1&#45;&gt;Node6 -->
<g id="edge5_Node000001_Node000006" class="edge">
<title>Node1&#45;&gt;Node6</title>
<g id="a_edge5_Node000001_Node000006"><a xlink:title=" ">
<path fill="none" stroke="#63b8ff" d="M220.35,-51.11C239.21,-43.51 263.71,-34.2 286,-27.5 296.5,-24.34 307.92,-21.46 318.76,-18.97"/>
<polygon fill="#63b8ff" stroke="#63b8ff" points="218.98,-47.89 211.04,-54.9 221.62,-54.37 218.98,-47.89"/>
</a>
</g>
</g>
<!-- Node2 -->
<g id="Node000002" class="node">
<title>Node2</title>
<g id="a_Node000002"><a xlink:href="class_parameter_lists.html" target="_top" xlink:title="Defines parameter name and value, and stores them in maps for settng values from XML.">
<polygon fill="white" stroke="#666666" points="89,-74 0,-74 0,-55 89,-55 89,-74"/>
<text text-anchor="middle" x="44.5" y="-62" font-family="Helvetica,sans-Serif" font-size="10.00">ParameterLists</text>
</a>
</g>
</g>
<!-- Node2&#45;&gt;Node1 -->
<g id="edge1_Node000001_Node000002" class="edge">
<title>Node2&#45;&gt;Node1</title>
<g id="a_edge1_Node000001_Node000002"><a xlink:title=" ">
<path fill="none" stroke="#63b8ff" d="M99.59,-64.5C107.85,-64.5 116.42,-64.5 124.83,-64.5"/>
<polygon fill="#63b8ff" stroke="#63b8ff" points="99.34,-61 89.34,-64.5 99.34,-68 99.34,-61"/>
</a>
</g>
</g>
</g>
</svg>
