<?xml version="1.0" encoding="UTF-8" standalone="no"?>
<!DOCTYPE svg PUBLIC "-//W3C//DTD SVG 1.1//EN"
 "http://www.w3.org/Graphics/SVG/1.1/DTD/svg11.dtd">
<!-- Generated by graphviz version 2.43.0 (0)
 -->
<!-- Title: CappingSurfaceBaseException Pages: 1 -->
<svg width="510pt" height="258pt"
 viewBox="0.00 0.00 510.00 257.50" xmlns="http://www.w3.org/2000/svg" xmlns:xlink="http://www.w3.org/1999/xlink">
<g id="graph0" class="graph" transform="scale(1 1) rotate(0) translate(4 253.5)">
<title>CappingSurfaceBaseException</title>
<!-- Node1 -->
<g id="Node000001" class="node">
<title>Node1</title>
<g id="a_Node000001"><a xlink:title="Base exception for capping surface (cap VTP) errors.">
<polygon fill="#999999" stroke="#666666" points="287,-134 122,-134 122,-115 287,-115 287,-134"/>
<text text-anchor="middle" x="204.5" y="-122" font-family="Helvetica,sans-Serif" font-size="10.00">CappingSurfaceBaseException</text>
</a>
</g>
</g>
<!-- Node3 -->
<g id="Node000003" class="node">
<title>Node3</title>
<g id="a_Node000003"><a xlink:href="class_capping_surface_coupling_topology_exception.html" target="_top" xlink:title="Cap mesh shares no nodes with the coupled boundary face.">
<polygon fill="white" stroke="#666666" points="502,-249.5 323,-249.5 323,-219.5 502,-219.5 502,-249.5"/>
<text text-anchor="start" x="331" y="-237.5" font-family="Helvetica,sans-Serif" font-size="10.00">CappingSurfaceCouplingTopology</text>
<text text-anchor="middle" x="412.5" y="-226.5" font-family="Helvetica,sans-Serif" font-size="10.00">Exception</text>
</a>
</g>
</g>
<!-- Node1&#45;&gt;Node3 -->
<g id="edge2_Node000001_Node000003" class="edge">
<title>Node1&#45;&gt;Node3</title>
<g id="a_edge2_Node000001_Node000003"><a xlink:title=" ">
<path fill="none" stroke="#63b8ff" d="M223.51,-141.01C245.46,-160.3 284.42,-191.94 323,-210.5 330.03,-213.88 337.61,-216.85 345.27,-219.43"/>
<polygon fill="#63b8ff" stroke="#63b8ff" points="225.75,-138.32 215.96,-134.27 221.09,-143.54 225.75,-138.32"/>
</a>
</g>
</g>
<!-- Node4 -->
<g id="Node000004" class="node">
<title>Node4</title>
<g id="a_Node000004"><a xlink:href="class_capping_surface_file_exception.html" target="_top" xlink:title="Cap VTP file cannot be opened.">
<polygon fill="white" stroke="#666666" points="491.5,-201 333.5,-201 333.5,-182 491.5,-182 491.5,-201"/>
<text text-anchor="middle" x="412.5" y="-189" font-family="Helvetica,sans-Serif" font-size="10.00">CappingSurfaceFileException</text>
</a>
</g>
</g>
<!-- Node1&#45;&gt;Node4 -->
<g id="edge3_Node000001_Node000004" class="edge">
<title>Node1&#45;&gt;Node4</title>
<g id="a_edge3_Node000001_Node000004"><a xlink:title=" ">
<path fill="none" stroke="#63b8ff" d="M235.28,-138.37C258.71,-148.87 292.42,-163.05 323,-172.5 334.71,-176.12 347.5,-179.3 359.63,-181.96"/>
<polygon fill="#63b8ff" stroke="#63b8ff" points="236.45,-135.06 225.9,-134.12 233.56,-141.44 236.45,-135.06"/>
</a>
</g>
</g>
<!-- Node5 -->
<g id="Node000005" class="node">
<title>Node5</title>
<g id="a_Node000005"><a xlink:href="class_capping_surface_invalid_element_nodes_exception.html" target="_top" xlink:title="Cap VTP connectivity does not match expected TRI3 topology.">
<polygon fill="white" stroke="#666666" points="496,-163.5 329,-163.5 329,-133.5 496,-133.5 496,-163.5"/>
<text text-anchor="start" x="337" y="-151.5" font-family="Helvetica,sans-Serif" font-size="10.00">CappingSurfaceInvalidElement</text>
<text text-anchor="middle" x="412.5" y="-140.5" font-family="Helvetica,sans-Serif" font-size="10.00">NodesException</text>
</a>
</g>
</g>
<!-- Node1&#45;&gt;Node5 -->
<g id="edge4_Node000001_Node000005" class="edge">
<title>Node1&#45;&gt;Node5</title>
<g id="a_edge4_Node000001_Node000005"><a xlink:title=" ">
<path fill="none" stroke="#63b8ff" d="M297.25,-135.19C307.78,-136.42 318.47,-137.66 328.87,-138.87"/>
<polygon fill="#63b8ff" stroke="#63b8ff" points="297.55,-131.7 287.21,-134.02 296.74,-138.65 297.55,-131.7"/>
</a>
</g>
</g>
<!-- Node6 -->
<g id="Node000006" class="node">
<title>Node6</title>
<g id="a_Node000006"><a xlink:href="class_capping_surface_quadrature_exception.html" target="_top" xlink:title="Cap face quadrature (shape functions on TRI3) setup failed.">
<polygon fill="white" stroke="#666666" points="486.5,-115.5 338.5,-115.5 338.5,-85.5 486.5,-85.5 486.5,-115.5"/>
<text text-anchor="start" x="346.5" y="-103.5" font-family="Helvetica,sans-Serif" font-size="10.00">CappingSurfaceQuadrature</text>
<text text-anchor="middle" x="412.5" y="-92.5" font-family="Helvetica,sans-Serif" font-size="10.00">Exception</text>
</a>
</g>
</g>
<!-- Node1&#45;&gt;Node6 -->
<g id="edge5_Node000001_Node000006" class="edge">
<title>Node1&#45;&gt;Node6</title>
<g id="a_edge5_Node000001_Node000006"><a xlink:title=" ">
<path fill="none" stroke="#63b8ff" d="M297.16,-113.82C310.91,-112.22 324.93,-110.59 338.23,-109.04"/>
<polygon fill="#63b8ff" stroke="#63b8ff" points="296.74,-110.35 287.21,-114.98 297.55,-117.3 296.74,-110.35"/>
</a>
</g>
</g>
<!-- Node7 -->
<g id="Node000007" class="node">
<title>Node7</title>
<g id="a_Node000007"><a xlink:href="class_capping_surface_unsupported_cell_exception.html" target="_top" xlink:title="Cap VTP uses an unsupported cell type (only TRI3 is supported).">
<polygon fill="white" stroke="#666666" points="490,-67.5 335,-67.5 335,-37.5 490,-37.5 490,-67.5"/>
<text text-anchor="start" x="343" y="-55.5" font-family="Helvetica,sans-Serif" font-size="10.00">CappingSurfaceUnsupported</text>
<text text-anchor="middle" x="412.5" y="-44.5" font-family="Helvetica,sans-Serif" font-size="10.00">CellException</text>
</a>
</g>
</g>
<!-- Node1&#45;&gt;Node7 -->
<g id="edge6_Node000001_Node000007" class="edge">
<title>Node1&#45;&gt;Node7</title>
<g id="a_edge6_Node000001_Node000007"><a xlink:title=" ">
<path fill="none" stroke="#63b8ff" d="M236.28,-110.71C259.75,-100.49 293.05,-86.64 323,-76.5 332.35,-73.34 342.36,-70.3 352.17,-67.51"/>
<polygon fill="#63b8ff" stroke="#63b8ff" points="234.61,-107.62 226.86,-114.85 237.42,-114.03 234.61,-107.62"/>
</a>
</g>
</g>
<!-- Node8 -->
<g id="Node000008" class="node">
<title>Node8</title>
<g id="a_Node000008"><a xlink:href="class_capping_surface_vtp_exception.html" target="_top" xlink:title="VTP read, parse, or validation error during cap load.">
<polygon fill="white" stroke="#666666" points="491.5,-19 333.5,-19 333.5,0 491.5,0 491.5,-19"/>
<text text-anchor="middle" x="412.5" y="-7" font-family="Helvetica,sans-Serif" font-size="10.00">CappingSurfaceVtpException</text>
</a>
</g>
</g>
<!-- Node1&#45;&gt;Node8 -->
<g id="edge7_Node000001_Node000008" class="edge">
<title>Node1&#45;&gt;Node8</title>
<g id="a_edge7_Node000001_Node000008"><a xlink:title=" ">
<path fill="none" stroke="#63b8ff" d="M221.3,-107.3C242.35,-85.49 281.74,-48.34 323,-28.5 331.07,-24.62 339.94,-21.52 348.84,-19.06"/>
<polygon fill="#63b8ff" stroke="#63b8ff" points="218.5,-105.17 214.17,-114.84 223.58,-109.98 218.5,-105.17"/>
</a>
</g>
</g>
<!-- Node2 -->
<g id="Node000002" class="node">
<title>Node2</title>
<g id="a_Node000002"><a xlink:title=" ">
<polygon fill="white" stroke="#666666" points="86,-134 0,-134 0,-115 86,-115 86,-134"/>
<text text-anchor="middle" x="43" y="-122" font-family="Helvetica,sans-Serif" font-size="10.00">std::exception</text>
</a>
</g>
</g>
<!-- Node2&#45;&gt;Node1 -->
<g id="edge1_Node000001_Node000002" class="edge">
<title>Node2&#45;&gt;Node1</title>
<g id="a_edge1_Node000001_Node000002"><a xlink:title=" ">
<path fill="none" stroke="#63b8ff" d="M96.4,-124.5C104.56,-124.5 113.16,-124.5 121.78,-124.5"/>
<polygon fill="#63b8ff" stroke="#63b8ff" points="96.32,-121 86.32,-124.5 96.32,-128 96.32,-121"/>
</a>
</g>
</g>
</g>
</svg>
