<?xml version="1.0" encoding="UTF-8" standalone="no"?>
<!DOCTYPE svg PUBLIC "-//W3C//DTD SVG 1.1//EN"
 "http://www.w3.org/Graphics/SVG/1.1/DTD/svg11.dtd">
<!-- Generated by graphviz version 2.43.0 (0)
 -->
<!-- Title: svmp::FE::FEException Pages: 1 -->
<svg width="858pt" height="470pt"
 viewBox="0.00 0.00 858.00 469.50" xmlns="http://www.w3.org/2000/svg" xmlns:xlink="http://www.w3.org/1999/xlink">
<g id="graph0" class="graph" transform="scale(1 1) rotate(0) translate(4 465.5)">
<title>svmp::FE::FEException</title>
<!-- Node1 -->
<g id="Node000001" class="node">
<title>Node1</title>
<g id="a_Node000001"><a xlink:title="Base exception type for errors originating in the FE library.">
<polygon fill="#999999" stroke="#666666" points="408,-307.5 280,-307.5 280,-288.5 408,-288.5 408,-307.5"/>
<text text-anchor="middle" x="344" y="-295.5" font-family="Helvetica,sans-Serif" font-size="10.00">svmp::FE::FEException</text>
</a>
</g>
</g>
<!-- Node4 -->
<g id="Node000004" class="node">
<title>Node4</title>
<g id="a_Node000004"><a xlink:href="classsvmp_1_1_f_e_1_1_assembly_exception.html" target="_top" xlink:title="Global assembly failure.">
<polygon fill="white" stroke="#666666" points="615.5,-461.5 451.5,-461.5 451.5,-442.5 615.5,-442.5 615.5,-461.5"/>
<text text-anchor="middle" x="533.5" y="-449.5" font-family="Helvetica,sans-Serif" font-size="10.00">svmp::FE::AssemblyException</text>
</a>
</g>
</g>
<!-- Node1&#45;&gt;Node4 -->
<g id="edge3_Node000001_Node000004" class="edge">
<title>Node1&#45;&gt;Node4</title>
<g id="a_edge3_Node000001_Node000004"><a xlink:title=" ">
<path fill="none" stroke="#63b8ff" d="M353.3,-317.2C367.33,-347.23 398.72,-404.91 444,-434 449.28,-437.39 455.06,-440.16 461.08,-442.42"/>
<polygon fill="#63b8ff" stroke="#63b8ff" points="356.37,-315.49 349.06,-307.82 349.99,-318.37 356.37,-315.49"/>
</a>
</g>
</g>
<!-- Node5 -->
<g id="Node000005" class="node">
<title>Node5</title>
<g id="a_Node000005"><a xlink:href="classsvmp_1_1_f_e_1_1_backend_exception.html" target="_top" xlink:title="Failure reported by a linear&#45;algebra or solver backend.">
<polygon fill="white" stroke="#666666" points="612,-424.5 455,-424.5 455,-405.5 612,-405.5 612,-424.5"/>
<text text-anchor="middle" x="533.5" y="-412.5" font-family="Helvetica,sans-Serif" font-size="10.00">svmp::FE::BackendException</text>
</a>
</g>
</g>
<!-- Node1&#45;&gt;Node5 -->
<g id="edge4_Node000001_Node000005" class="edge">
<title>Node1&#45;&gt;Node5</title>
<g id="a_edge4_Node000001_Node000005"><a xlink:title=" ">
<path fill="none" stroke="#63b8ff" d="M357.52,-315.84C374.43,-338.48 406.76,-376.99 444,-397 450.35,-400.41 457.28,-403.18 464.37,-405.43"/>
<polygon fill="#63b8ff" stroke="#63b8ff" points="360.34,-313.77 351.63,-307.74 354.68,-317.89 360.34,-313.77"/>
</a>
</g>
</g>
<!-- Node6 -->
<g id="Node000006" class="node">
<title>Node6</title>
<g id="a_Node000006"><a xlink:href="classsvmp_1_1_f_e_1_1_convergence_exception.html" target="_top" xlink:title="Iterative process failed to converge.">
<polygon fill="white" stroke="#666666" points="623,-387.5 444,-387.5 444,-368.5 623,-368.5 623,-387.5"/>
<text text-anchor="middle" x="533.5" y="-375.5" font-family="Helvetica,sans-Serif" font-size="10.00">svmp::FE::ConvergenceException</text>
</a>
</g>
</g>
<!-- Node1&#45;&gt;Node6 -->
<g id="edge5_Node000001_Node000006" class="edge">
<title>Node1&#45;&gt;Node6</title>
<g id="a_edge5_Node000001_Node000006"><a xlink:title=" ">
<path fill="none" stroke="#63b8ff" d="M365.03,-313.59C384.25,-327.78 414.6,-348.26 444,-360 452.44,-363.37 461.61,-366.14 470.73,-368.41"/>
<polygon fill="#63b8ff" stroke="#63b8ff" points="367.13,-310.79 357.03,-307.57 362.92,-316.38 367.13,-310.79"/>
</a>
</g>
</g>
<!-- Node7 -->
<g id="Node000007" class="node">
<title>Node7</title>
<g id="a_Node000007"><a xlink:href="classsvmp_1_1_f_e_1_1_dof_exception.html" target="_top" xlink:title="Degree&#45;of&#45;freedom numbering or lookup failure.">
<polygon fill="white" stroke="#666666" points="600,-350.5 467,-350.5 467,-331.5 600,-331.5 600,-350.5"/>
<text text-anchor="middle" x="533.5" y="-338.5" font-family="Helvetica,sans-Serif" font-size="10.00">svmp::FE::DofException</text>
</a>
</g>
</g>
<!-- Node1&#45;&gt;Node7 -->
<g id="edge6_Node000001_Node000007" class="edge">
<title>Node1&#45;&gt;Node7</title>
<g id="a_edge6_Node000001_Node000007"><a xlink:title=" ">
<path fill="none" stroke="#63b8ff" d="M393.25,-309.97C409.37,-313.89 427.44,-318.22 444,-322 457.94,-325.19 473.15,-328.51 486.97,-331.47"/>
<polygon fill="#63b8ff" stroke="#63b8ff" points="394.04,-306.56 383.5,-307.58 392.38,-313.36 394.04,-306.56"/>
</a>
</g>
</g>
<!-- Node8 -->
<g id="Node000008" class="node">
<title>Node8</title>
<g id="a_Node000008"><a xlink:href="classsvmp_1_1_f_e_1_1_invalid_argument_exception.html" target="_top" xlink:title="An argument failed validation.">
<polygon fill="white" stroke="#666666" points="608,-313 459,-313 459,-283 608,-283 608,-313"/>
<text text-anchor="start" x="467" y="-301" font-family="Helvetica,sans-Serif" font-size="10.00">svmp::FE::InvalidArgument</text>
<text text-anchor="middle" x="533.5" y="-290" font-family="Helvetica,sans-Serif" font-size="10.00">Exception</text>
</a>
</g>
</g>
<!-- Node1&#45;&gt;Node8 -->
<g id="edge7_Node000001_Node000008" class="edge">
<title>Node1&#45;&gt;Node8</title>
<g id="a_edge7_Node000001_Node000008"><a xlink:title=" ">
<path fill="none" stroke="#63b8ff" d="M418.28,-298C431.61,-298 445.53,-298 458.87,-298"/>
<polygon fill="#63b8ff" stroke="#63b8ff" points="418.22,-294.5 408.22,-298 418.22,-301.5 418.22,-294.5"/>
</a>
</g>
</g>
<!-- Node9 -->
<g id="Node000009" class="node">
<title>Node9</title>
<g id="a_Node000009"><a xlink:href="classsvmp_1_1_f_e_1_1_invalid_element_exception.html" target="_top" xlink:title="Unsupported or malformed element request.">
<polygon fill="white" stroke="#666666" points="604,-265 463,-265 463,-235 604,-235 604,-265"/>
<text text-anchor="start" x="471" y="-253" font-family="Helvetica,sans-Serif" font-size="10.00">svmp::FE::InvalidElement</text>
<text text-anchor="middle" x="533.5" y="-242" font-family="Helvetica,sans-Serif" font-size="10.00">Exception</text>
</a>
</g>
</g>
<!-- Node1&#45;&gt;Node9 -->
<g id="edge8_Node000001_Node000009" class="edge">
<title>Node1&#45;&gt;Node9</title>
<g id="a_edge8_Node000001_Node000009"><a xlink:title=" ">
<path fill="none" stroke="#63b8ff" d="M392.35,-285.88C417.04,-279.56 447.47,-271.77 473.66,-265.06"/>
<polygon fill="#63b8ff" stroke="#63b8ff" points="391.31,-282.53 382.49,-288.4 393.05,-289.31 391.31,-282.53"/>
</a>
</g>
</g>
<!-- Node10 -->
<g id="Node000010" class="node">
<title>Node10</title>
<g id="a_Node000010"><a xlink:href="classsvmp_1_1_f_e_1_1_not_initialized_exception.html" target="_top" xlink:title="Required initialization step has not been performed.">
<polygon fill="white" stroke="#666666" points="600,-217 467,-217 467,-187 600,-187 600,-217"/>
<text text-anchor="start" x="475" y="-205" font-family="Helvetica,sans-Serif" font-size="10.00">svmp::FE::NotInitialized</text>
<text text-anchor="middle" x="533.5" y="-194" font-family="Helvetica,sans-Serif" font-size="10.00">Exception</text>
</a>
</g>
</g>
<!-- Node1&#45;&gt;Node10 -->
<g id="edge9_Node000001_Node000010" class="edge">
<title>Node1&#45;&gt;Node10</title>
<g id="a_edge9_Node000001_Node000010"><a xlink:title=" ">
<path fill="none" stroke="#63b8ff" d="M362.98,-281.77C381.88,-265.5 413.11,-240.8 444,-226 451.18,-222.56 458.93,-219.55 466.75,-216.93"/>
<polygon fill="#63b8ff" stroke="#63b8ff" points="360.65,-279.15 355.44,-288.38 365.27,-284.42 360.65,-279.15"/>
</a>
</g>
</g>
<!-- Node11 -->
<g id="Node000011" class="node">
<title>Node11</title>
<g id="a_Node000011"><a xlink:href="classsvmp_1_1_f_e_1_1_singular_mapping_exception.html" target="_top" xlink:title="Element geometric mapping is singular or inverted.">
<polygon fill="white" stroke="#666666" points="608,-169 459,-169 459,-139 608,-139 608,-169"/>
<text text-anchor="start" x="467" y="-157" font-family="Helvetica,sans-Serif" font-size="10.00">svmp::FE::SingularMapping</text>
<text text-anchor="middle" x="533.5" y="-146" font-family="Helvetica,sans-Serif" font-size="10.00">Exception</text>
</a>
</g>
</g>
<!-- Node1&#45;&gt;Node11 -->
<g id="edge10_Node000001_Node000011" class="edge">
<title>Node1&#45;&gt;Node11</title>
<g id="a_edge10_Node000001_Node000011"><a xlink:title=" ">
<path fill="none" stroke="#63b8ff" d="M355.22,-279.48C370.83,-252.92 403.17,-204.34 444,-178 449.35,-174.55 455.19,-171.59 461.24,-169.05"/>
<polygon fill="#63b8ff" stroke="#63b8ff" points="352.17,-277.76 350.24,-288.18 358.24,-281.24 352.17,-277.76"/>
</a>
</g>
</g>
<!-- Node12 -->
<g id="Node000012" class="node">
<title>Node12</title>
<g id="a_Node000012"><a xlink:href="classsvmp_1_1_f_e_1_1basis_1_1_basis_exception.html" target="_top" xlink:title="Base exception type for errors originating in the Basis module.">
<polygon fill="white" stroke="#666666" points="620,-120.5 447,-120.5 447,-101.5 620,-101.5 620,-120.5"/>
<text text-anchor="middle" x="533.5" y="-108.5" font-family="Helvetica,sans-Serif" font-size="10.00">svmp::FE::basis::BasisException</text>
</a>
</g>
</g>
<!-- Node1&#45;&gt;Node12 -->
<g id="edge11_Node000001_Node000012" class="edge">
<title>Node1&#45;&gt;Node12</title>
<g id="a_edge11_Node000001_Node000012"><a xlink:title=" ">
<path fill="none" stroke="#63b8ff" d="M350.72,-278.45C362.19,-242.9 391.5,-167.87 444,-130 449.35,-126.14 455.33,-123.03 461.59,-120.54"/>
<polygon fill="#63b8ff" stroke="#63b8ff" points="347.34,-277.54 347.73,-288.13 354.03,-279.61 347.34,-277.54"/>
</a>
</g>
</g>
<!-- Node2 -->
<g id="Node000002" class="node">
<title>Node2</title>
<g id="a_Node000002"><a xlink:href="classsvmp_1_1_exception_base.html" target="_top" xlink:title=" ">
<polygon fill="white" stroke="#bfbfbf" points="244,-307.5 122,-307.5 122,-288.5 244,-288.5 244,-307.5"/>
<text text-anchor="middle" x="183" y="-295.5" font-family="Helvetica,sans-Serif" font-size="10.00">svmp::ExceptionBase</text>
</a>
</g>
</g>
<!-- Node2&#45;&gt;Node1 -->
<g id="edge1_Node000001_Node000002" class="edge">
<title>Node2&#45;&gt;Node1</title>
<g id="a_edge1_Node000001_Node000002"><a xlink:title=" ">
<path fill="none" stroke="#63b8ff" d="M254.38,-298C262.87,-298 271.51,-298 279.89,-298"/>
<polygon fill="#63b8ff" stroke="#63b8ff" points="254.11,-294.5 244.11,-298 254.11,-301.5 254.11,-294.5"/>
</a>
</g>
</g>
<!-- Node3 -->
<g id="Node000003" class="node">
<title>Node3</title>
<g id="a_Node000003"><a xlink:title=" ">
<polygon fill="white" stroke="#666666" points="86,-307.5 0,-307.5 0,-288.5 86,-288.5 86,-307.5"/>
<text text-anchor="middle" x="43" y="-295.5" font-family="Helvetica,sans-Serif" font-size="10.00">std::exception</text>
</a>
</g>
</g>
<!-- Node3&#45;&gt;Node2 -->
<g id="edge2_Node000002_Node000003" class="edge">
<title>Node3&#45;&gt;Node2</title>
<g id="a_edge2_Node000002_Node000003"><a xlink:title=" ">
<path fill="none" stroke="#63b8ff" d="M96.16,-298C104.54,-298 113.27,-298 121.82,-298"/>
<polygon fill="#63b8ff" stroke="#63b8ff" points="96.15,-294.5 86.15,-298 96.15,-301.5 96.15,-294.5"/>
</a>
</g>
</g>
<!-- Node13 -->
<g id="Node000013" class="node">
<title>Node13</title>
<g id="a_Node000013"><a xlink:href="classsvmp_1_1_f_e_1_1basis_1_1_basis_configuration_exception.html" target="_top" xlink:title="Invalid Basis request or configuration.">
<polygon fill="white" stroke="#666666" points="850,-222 659,-222 659,-192 850,-192 850,-222"/>
<text text-anchor="start" x="667" y="-210" font-family="Helvetica,sans-Serif" font-size="10.00">svmp::FE::basis::BasisConfiguration</text>
<text text-anchor="middle" x="754.5" y="-199" font-family="Helvetica,sans-Serif" font-size="10.00">Exception</text>
</a>
</g>
</g>
<!-- Node12&#45;&gt;Node13 -->
<g id="edge12_Node000012_Node000013" class="edge">
<title>Node12&#45;&gt;Node13</title>
<g id="a_edge12_Node000012_Node000013"><a xlink:title=" ">
<path fill="none" stroke="#63b8ff" d="M613.67,-124.62C616.92,-126.22 620.04,-128.01 623,-130 646.62,-145.91 635.68,-166.65 659,-183 663.85,-186.4 669.14,-189.32 674.66,-191.83"/>
<polygon fill="#63b8ff" stroke="#63b8ff" points="614.83,-121.3 604.26,-120.56 612.06,-127.73 614.83,-121.3"/>
</a>
</g>
</g>
<!-- Node14 -->
<g id="Node000014" class="node">
<title>Node14</title>
<g id="a_Node000014"><a xlink:href="classsvmp_1_1_f_e_1_1basis_1_1_basis_construction_exception.html" target="_top" xlink:title="Internal basis construction or transform setup failure.">
<polygon fill="white" stroke="#666666" points="848,-174 661,-174 661,-144 848,-144 848,-174"/>
<text text-anchor="start" x="669" y="-162" font-family="Helvetica,sans-Serif" font-size="10.00">svmp::FE::basis::BasisConstruction</text>
<text text-anchor="middle" x="754.5" y="-151" font-family="Helvetica,sans-Serif" font-size="10.00">Exception</text>
</a>
</g>
</g>
<!-- Node12&#45;&gt;Node14 -->
<g id="edge13_Node000012_Node000014" class="edge">
<title>Node12&#45;&gt;Node14</title>
<g id="a_edge13_Node000012_Node000014"><a xlink:title=" ">
<path fill="none" stroke="#63b8ff" d="M589.18,-122.67C600.37,-125.08 612.07,-127.61 623,-130 643.52,-134.48 665.84,-139.42 686.12,-143.93"/>
<polygon fill="#63b8ff" stroke="#63b8ff" points="589.59,-119.18 579.08,-120.51 588.12,-126.03 589.59,-119.18"/>
</a>
</g>
</g>
<!-- Node15 -->
<g id="Node000015" class="node">
<title>Node15</title>
<g id="a_Node000015"><a xlink:href="classsvmp_1_1_f_e_1_1basis_1_1_basis_element_compatibility_exception.html" target="_top" xlink:title="Requested element topology is incompatible with the basis family.">
<polygon fill="white" stroke="#666666" points="837.5,-126 671.5,-126 671.5,-96 837.5,-96 837.5,-126"/>
<text text-anchor="start" x="679.5" y="-114" font-family="Helvetica,sans-Serif" font-size="10.00">svmp::FE::basis::BasisElement</text>
<text text-anchor="middle" x="754.5" y="-103" font-family="Helvetica,sans-Serif" font-size="10.00">CompatibilityException</text>
</a>
</g>
</g>
<!-- Node12&#45;&gt;Node15 -->
<g id="edge14_Node000012_Node000015" class="edge">
<title>Node12&#45;&gt;Node15</title>
<g id="a_edge14_Node000012_Node000015"><a xlink:title=" ">
<path fill="none" stroke="#63b8ff" d="M630.43,-111C644.01,-111 657.88,-111 671.18,-111"/>
<polygon fill="#63b8ff" stroke="#63b8ff" points="630.11,-107.5 620.11,-111 630.11,-114.5 630.11,-107.5"/>
</a>
</g>
</g>
<!-- Node16 -->
<g id="Node000016" class="node">
<title>Node16</title>
<g id="a_Node000016"><a xlink:href="classsvmp_1_1_f_e_1_1basis_1_1_basis_evaluation_exception.html" target="_top" xlink:title="Basis evaluation request cannot be satisfied.">
<polygon fill="white" stroke="#666666" points="843,-78 666,-78 666,-48 843,-48 843,-78"/>
<text text-anchor="start" x="674" y="-66" font-family="Helvetica,sans-Serif" font-size="10.00">svmp::FE::basis::BasisEvaluation</text>
<text text-anchor="middle" x="754.5" y="-55" font-family="Helvetica,sans-Serif" font-size="10.00">Exception</text>
</a>
</g>
</g>
<!-- Node12&#45;&gt;Node16 -->
<g id="edge15_Node000012_Node000016" class="edge">
<title>Node12&#45;&gt;Node16</title>
<g id="a_edge15_Node000012_Node000016"><a xlink:title=" ">
<path fill="none" stroke="#63b8ff" d="M588.04,-99.26C617.27,-92.86 653.77,-84.86 685.05,-78"/>
<polygon fill="#63b8ff" stroke="#63b8ff" points="587.05,-95.9 578.03,-101.46 588.55,-102.74 587.05,-95.9"/>
</a>
</g>
</g>
<!-- Node17 -->
<g id="Node000017" class="node">
<title>Node17</title>
<g id="a_Node000017"><a xlink:href="classsvmp_1_1_f_e_1_1basis_1_1_basis_node_ordering_exception.html" target="_top" xlink:title="Public&#45;to&#45;canonical node ordering or coordinate lookup failure.">
<polygon fill="white" stroke="#666666" points="830,-30 679,-30 679,0 830,0 830,-30"/>
<text text-anchor="start" x="687" y="-18" font-family="Helvetica,sans-Serif" font-size="10.00">svmp::FE::basis::BasisNode</text>
<text text-anchor="middle" x="754.5" y="-7" font-family="Helvetica,sans-Serif" font-size="10.00">OrderingException</text>
</a>
</g>
</g>
<!-- Node12&#45;&gt;Node17 -->
<g id="edge16_Node000012_Node000017" class="edge">
<title>Node12&#45;&gt;Node17</title>
<g id="a_edge16_Node000012_Node000017"><a xlink:title=" ">
<path fill="none" stroke="#63b8ff" d="M556.47,-95.78C580.62,-79.66 621.06,-54.44 659,-39 667.23,-35.65 676.06,-32.66 684.9,-30.04"/>
<polygon fill="#63b8ff" stroke="#63b8ff" points="554.37,-92.97 548.04,-101.48 558.29,-98.77 554.37,-92.97"/>
</a>
</g>
</g>
</g>
</svg>
