<?xml version="1.0" encoding="UTF-8" standalone="no"?>
<!DOCTYPE svg PUBLIC "-//W3C//DTD SVG 1.1//EN"
 "http://www.w3.org/Graphics/SVG/1.1/DTD/svg11.dtd">
<!-- Generated by graphviz version 2.43.0 (0)
 -->
<!-- Title: svmp::FE::basis::BasisConfigurationException Pages: 1 -->
<svg width="199pt" height="258pt"
 viewBox="0.00 0.00 199.00 258.00" xmlns="http://www.w3.org/2000/svg" xmlns:xlink="http://www.w3.org/1999/xlink">
<g id="graph0" class="graph" transform="scale(1 1) rotate(0) translate(4 254)">
<title>svmp::FE::basis::BasisConfigurationException</title>
<!-- Node1 -->
<g id="Node000001" class="node">
<title>Node1</title>
<g id="a_Node000001"><a xlink:title="Invalid Basis request or configuration.">
<polygon fill="#999999" stroke="#666666" points="191,-30 0,-30 0,0 191,0 191,-30"/>
<text text-anchor="start" x="8" y="-18" font-family="Helvetica,sans-Serif" font-size="10.00">svmp::FE::basis::BasisConfiguration</text>
<text text-anchor="middle" x="95.5" y="-7" font-family="Helvetica,sans-Serif" font-size="10.00">Exception</text>
</a>
</g>
</g>
<!-- Node2 -->
<g id="Node000002" class="node">
<title>Node2</title>
<g id="a_Node000002"><a xlink:href="classsvmp_1_1_f_e_1_1basis_1_1_basis_exception.html" target="_top" xlink:title="Base exception type for errors originating in the Basis module.">
<polygon fill="white" stroke="#666666" points="182,-85 9,-85 9,-66 182,-66 182,-85"/>
<text text-anchor="middle" x="95.5" y="-73" font-family="Helvetica,sans-Serif" font-size="10.00">svmp::FE::basis::BasisException</text>
</a>
</g>
</g>
<!-- Node2&#45;&gt;Node1 -->
<g id="edge1_Node000001_Node000002" class="edge">
<title>Node2&#45;&gt;Node1</title>
<g id="a_edge1_Node000001_Node000002"><a xlink:title=" ">
<path fill="none" stroke="#63b8ff" d="M95.5,-55.65C95.5,-47.36 95.5,-37.78 95.5,-30.11"/>
<polygon fill="#63b8ff" stroke="#63b8ff" points="92,-55.87 95.5,-65.87 99,-55.87 92,-55.87"/>
</a>
</g>
</g>
<!-- Node3 -->
<g id="Node000003" class="node">
<title>Node3</title>
<g id="a_Node000003"><a xlink:href="classsvmp_1_1_f_e_1_1_f_e_exception.html" target="_top" xlink:title="Base exception type for errors originating in the FE library.">
<polygon fill="white" stroke="#666666" points="159.5,-140 31.5,-140 31.5,-121 159.5,-121 159.5,-140"/>
<text text-anchor="middle" x="95.5" y="-128" font-family="Helvetica,sans-Serif" font-size="10.00">svmp::FE::FEException</text>
</a>
</g>
</g>
<!-- Node3&#45;&gt;Node2 -->
<g id="edge2_Node000002_Node000003" class="edge">
<title>Node3&#45;&gt;Node2</title>
<g id="a_edge2_Node000002_Node000003"><a xlink:title=" ">
<path fill="none" stroke="#63b8ff" d="M95.5,-110.66C95.5,-101.93 95.5,-91.99 95.5,-85.09"/>
<polygon fill="#63b8ff" stroke="#63b8ff" points="92,-110.75 95.5,-120.75 99,-110.75 92,-110.75"/>
</a>
</g>
</g>
<!-- Node4 -->
<g id="Node000004" class="node">
<title>Node4</title>
<g id="a_Node000004"><a xlink:href="classsvmp_1_1_exception_base.html" target="_top" xlink:title=" ">
<polygon fill="white" stroke="#bfbfbf" points="156.5,-195 34.5,-195 34.5,-176 156.5,-176 156.5,-195"/>
<text text-anchor="middle" x="95.5" y="-183" font-family="Helvetica,sans-Serif" font-size="10.00">svmp::ExceptionBase</text>
</a>
</g>
</g>
<!-- Node4&#45;&gt;Node3 -->
<g id="edge3_Node000003_Node000004" class="edge">
<title>Node4&#45;&gt;Node3</title>
<g id="a_edge3_Node000003_Node000004"><a xlink:title=" ">
<path fill="none" stroke="#63b8ff" d="M95.5,-165.66C95.5,-156.93 95.5,-146.99 95.5,-140.09"/>
<polygon fill="#63b8ff" stroke="#63b8ff" points="92,-165.75 95.5,-175.75 99,-165.75 92,-165.75"/>
</a>
</g>
</g>
<!-- Node5 -->
<g id="Node000005" class="node">
<title>Node5</title>
<g id="a_Node000005"><a xlink:title=" ">
<polygon fill="white" stroke="#666666" points="138.5,-250 52.5,-250 52.5,-231 138.5,-231 138.5,-250"/>
<text text-anchor="middle" x="95.5" y="-238" font-family="Helvetica,sans-Serif" font-size="10.00">std::exception</text>
</a>
</g>
</g>
<!-- Node5&#45;&gt;Node4 -->
<g id="edge4_Node000004_Node000005" class="edge">
<title>Node5&#45;&gt;Node4</title>
<g id="a_edge4_Node000004_Node000005"><a xlink:title=" ">
<path fill="none" stroke="#63b8ff" d="M95.5,-220.66C95.5,-211.93 95.5,-201.99 95.5,-195.09"/>
<polygon fill="#63b8ff" stroke="#63b8ff" points="92,-220.75 95.5,-230.75 99,-220.75 92,-220.75"/>
</a>
</g>
</g>
</g>
</svg>
