<?xml version="1.0" encoding="UTF-8" standalone="no"?>
<!DOCTYPE svg PUBLIC "-//W3C//DTD SVG 1.1//EN"
 "http://www.w3.org/Graphics/SVG/1.1/DTD/svg11.dtd">
<!-- Generated by graphviz version 2.43.0 (0)
 -->
<!-- Title: BoundaryConditionBaseException Pages: 1 -->
<svg width="540pt" height="524pt"
 viewBox="0.00 0.00 540.00 523.50" xmlns="http://www.w3.org/2000/svg" xmlns:xlink="http://www.w3.org/1999/xlink">
<g id="graph0" class="graph" transform="scale(1 1) rotate(0) translate(4 519.5)">
<title>BoundaryConditionBaseException</title>
<!-- Node1 -->
<g id="Node000001" class="node">
<title>Node1</title>
<g id="a_Node000001"><a xlink:title="Base exception class for BC errors.">
<polygon fill="#999999" stroke="#666666" points="304,-285.5 122,-285.5 122,-266.5 304,-266.5 304,-285.5"/>
<text text-anchor="middle" x="213" y="-273.5" font-family="Helvetica,sans-Serif" font-size="10.00">BoundaryConditionBaseException</text>
</a>
</g>
</g>
<!-- Node3 -->
<g id="Node000003" class="node">
<title>Node3</title>
<g id="a_Node000003"><a xlink:href="class_boundary_condition_array_exception.html" target="_top" xlink:title="Exception thrown when a requested array is not found.">
<polygon fill="white" stroke="#666666" points="528,-515.5 344,-515.5 344,-496.5 528,-496.5 528,-515.5"/>
<text text-anchor="middle" x="436" y="-503.5" font-family="Helvetica,sans-Serif" font-size="10.00">BoundaryConditionArrayException</text>
</a>
</g>
</g>
<!-- Node1&#45;&gt;Node3 -->
<g id="edge2_Node000001_Node000003" class="edge">
<title>Node1&#45;&gt;Node3</title>
<g id="a_edge2_Node000001_Node000003"><a xlink:title=" ">
<path fill="none" stroke="#63b8ff" d="M219.45,-295.18C232.55,-337.5 269.99,-438.97 340,-488 344.81,-491.37 350.09,-494.16 355.6,-496.45"/>
<polygon fill="#63b8ff" stroke="#63b8ff" points="222.79,-294.13 216.58,-285.55 216.09,-296.13 222.79,-294.13"/>
</a>
</g>
</g>
<!-- Node4 -->
<g id="Node000004" class="node">
<title>Node4</title>
<g id="a_Node000004"><a xlink:href="class_boundary_condition_file_exception.html" target="_top" xlink:title="Exception thrown when VTP file cannot be read or is invalid.">
<polygon fill="white" stroke="#666666" points="523.5,-478.5 348.5,-478.5 348.5,-459.5 523.5,-459.5 523.5,-478.5"/>
<text text-anchor="middle" x="436" y="-466.5" font-family="Helvetica,sans-Serif" font-size="10.00">BoundaryConditionFileException</text>
</a>
</g>
</g>
<!-- Node1&#45;&gt;Node4 -->
<g id="edge3_Node000001_Node000004" class="edge">
<title>Node1&#45;&gt;Node4</title>
<g id="a_edge3_Node000001_Node000004"><a xlink:title=" ">
<path fill="none" stroke="#63b8ff" d="M221.85,-295.03C238.02,-331.72 278.78,-412.02 340,-451 345.24,-454.34 350.95,-457.08 356.88,-459.34"/>
<polygon fill="#63b8ff" stroke="#63b8ff" points="224.93,-293.34 217.78,-285.53 218.49,-296.1 224.93,-293.34"/>
</a>
</g>
</g>
<!-- Node5 -->
<g id="Node000005" class="node">
<title>Node5</title>
<g id="a_Node000005"><a xlink:href="class_boundary_condition_flag_exception.html" target="_top" xlink:title="Exception thrown when a requested flag is not defined.">
<polygon fill="white" stroke="#666666" points="525.5,-441.5 346.5,-441.5 346.5,-422.5 525.5,-422.5 525.5,-441.5"/>
<text text-anchor="middle" x="436" y="-429.5" font-family="Helvetica,sans-Serif" font-size="10.00">BoundaryConditionFlagException</text>
</a>
</g>
</g>
<!-- Node1&#45;&gt;Node5 -->
<g id="edge4_Node000001_Node000005" class="edge">
<title>Node1&#45;&gt;Node5</title>
<g id="a_edge4_Node000001_Node000005"><a xlink:title=" ">
<path fill="none" stroke="#63b8ff" d="M225.11,-294.14C244.47,-324.07 287.39,-383.41 340,-413 346.89,-416.88 354.45,-419.97 362.21,-422.43"/>
<polygon fill="#63b8ff" stroke="#63b8ff" points="227.97,-292.12 219.67,-285.53 222.06,-295.86 227.97,-292.12"/>
</a>
</g>
</g>
<!-- Node6 -->
<g id="Node000006" class="node">
<title>Node6</title>
<g id="a_Node000006"><a xlink:href="class_boundary_condition_global_node_id_exception.html" target="_top" xlink:title="Exception thrown when a global node ID is not found in the global&#45;to&#45;local map.">
<polygon fill="white" stroke="#666666" points="519.5,-404 352.5,-404 352.5,-374 519.5,-374 519.5,-404"/>
<text text-anchor="start" x="360.5" y="-392" font-family="Helvetica,sans-Serif" font-size="10.00">BoundaryConditionGlobalNode</text>
<text text-anchor="middle" x="436" y="-381" font-family="Helvetica,sans-Serif" font-size="10.00">IdException</text>
</a>
</g>
</g>
<!-- Node1&#45;&gt;Node6 -->
<g id="edge5_Node000001_Node000006" class="edge">
<title>Node1&#45;&gt;Node6</title>
<g id="a_edge5_Node000001_Node000006"><a xlink:title=" ">
<path fill="none" stroke="#63b8ff" d="M232.32,-292.28C255.71,-312.23 298.18,-345.76 340,-365 347.42,-368.41 355.39,-371.39 363.46,-373.97"/>
<polygon fill="#63b8ff" stroke="#63b8ff" points="234.46,-289.49 224.61,-285.59 229.87,-294.78 234.46,-289.49"/>
</a>
</g>
</g>
<!-- Node7 -->
<g id="Node000007" class="node">
<title>Node7</title>
<g id="a_Node000007"><a xlink:href="class_boundary_condition_node_count_exception.html" target="_top" xlink:title="Exception thrown when node count mismatch between VTP and face.">
<polygon fill="white" stroke="#666666" points="518,-356 354,-356 354,-326 518,-326 518,-356"/>
<text text-anchor="start" x="362" y="-344" font-family="Helvetica,sans-Serif" font-size="10.00">BoundaryConditionNodeCount</text>
<text text-anchor="middle" x="436" y="-333" font-family="Helvetica,sans-Serif" font-size="10.00">Exception</text>
</a>
</g>
</g>
<!-- Node1&#45;&gt;Node7 -->
<g id="edge6_Node000001_Node000007" class="edge">
<title>Node1&#45;&gt;Node7</title>
<g id="a_edge6_Node000001_Node000007"><a xlink:title=" ">
<path fill="none" stroke="#63b8ff" d="M251.65,-288.98C276.58,-297.4 310.09,-308.36 340,-317 350.62,-320.07 361.98,-323.12 373,-325.98"/>
<polygon fill="#63b8ff" stroke="#63b8ff" points="252.45,-285.56 241.86,-285.66 250.2,-292.19 252.45,-285.56"/>
</a>
</g>
</g>
<!-- Node8 -->
<g id="Node000008" class="node">
<title>Node8</title>
<g id="a_Node000008"><a xlink:href="class_boundary_condition_node_id_exception.html" target="_top" xlink:title="Exception thrown when a node ID is out of range.">
<polygon fill="white" stroke="#666666" points="532,-307.5 340,-307.5 340,-288.5 532,-288.5 532,-307.5"/>
<text text-anchor="middle" x="436" y="-295.5" font-family="Helvetica,sans-Serif" font-size="10.00">BoundaryConditionNodeIdException</text>
</a>
</g>
</g>
<!-- Node1&#45;&gt;Node8 -->
<g id="edge7_Node000001_Node000008" class="edge">
<title>Node1&#45;&gt;Node8</title>
<g id="a_edge7_Node000001_Node000008"><a xlink:title=" ">
<path fill="none" stroke="#63b8ff" d="M314.42,-286C322.83,-286.83 331.32,-287.68 339.69,-288.51"/>
<polygon fill="#63b8ff" stroke="#63b8ff" points="314.51,-282.49 304.21,-284.98 313.81,-289.45 314.51,-282.49"/>
</a>
</g>
</g>
<!-- Node9 -->
<g id="Node000009" class="node">
<title>Node9</title>
<g id="a_Node000009"><a xlink:href="class_boundary_condition_not_initialized_exception.html" target="_top" xlink:title="Exception thrown when BoundaryCondition is not properly initialized.">
<polygon fill="white" stroke="#666666" points="523.5,-270 348.5,-270 348.5,-240 523.5,-240 523.5,-270"/>
<text text-anchor="start" x="356.5" y="-258" font-family="Helvetica,sans-Serif" font-size="10.00">BoundaryConditionNotInitialized</text>
<text text-anchor="middle" x="436" y="-247" font-family="Helvetica,sans-Serif" font-size="10.00">Exception</text>
</a>
</g>
</g>
<!-- Node1&#45;&gt;Node9 -->
<g id="edge8_Node000001_Node000009" class="edge">
<title>Node1&#45;&gt;Node9</title>
<g id="a_edge8_Node000001_Node000009"><a xlink:title=" ">
<path fill="none" stroke="#63b8ff" d="M314.17,-266.48C325.56,-265.4 337.1,-264.3 348.29,-263.24"/>
<polygon fill="#63b8ff" stroke="#63b8ff" points="313.83,-263 304.21,-267.43 314.49,-269.97 313.83,-263"/>
</a>
</g>
</g>
<!-- Node10 -->
<g id="Node000010" class="node">
<title>Node10</title>
<g id="a_Node000010"><a xlink:href="class_boundary_condition_null_face_exception.html" target="_top" xlink:title="Exception thrown when face_ is nullptr during distribute.">
<polygon fill="white" stroke="#666666" points="511.5,-222 360.5,-222 360.5,-192 511.5,-192 511.5,-222"/>
<text text-anchor="start" x="368.5" y="-210" font-family="Helvetica,sans-Serif" font-size="10.00">BoundaryConditionNullFace</text>
<text text-anchor="middle" x="436" y="-199" font-family="Helvetica,sans-Serif" font-size="10.00">Exception</text>
</a>
</g>
</g>
<!-- Node1&#45;&gt;Node10 -->
<g id="edge9_Node000001_Node000010" class="edge">
<title>Node1&#45;&gt;Node10</title>
<g id="a_edge9_Node000001_Node000010"><a xlink:title=" ">
<path fill="none" stroke="#63b8ff" d="M248.33,-262.74C273.5,-253.26 308.61,-240.55 340,-231 350.25,-227.88 361.21,-224.84 371.91,-222.04"/>
<polygon fill="#63b8ff" stroke="#63b8ff" points="246.98,-259.51 238.87,-266.32 249.46,-266.05 246.98,-259.51"/>
</a>
</g>
</g>
<!-- Node11 -->
<g id="Node000011" class="node">
<title>Node11</title>
<g id="a_Node000011"><a xlink:href="class_boundary_condition_point_not_found_exception.html" target="_top" xlink:title="Exception thrown when a point cannot be found in VTP file.">
<polygon fill="white" stroke="#666666" points="512,-174 360,-174 360,-144 512,-144 512,-174"/>
<text text-anchor="start" x="368" y="-162" font-family="Helvetica,sans-Serif" font-size="10.00">BoundaryConditionPointNot</text>
<text text-anchor="middle" x="436" y="-151" font-family="Helvetica,sans-Serif" font-size="10.00">FoundException</text>
</a>
</g>
</g>
<!-- Node1&#45;&gt;Node11 -->
<g id="edge10_Node000001_Node000011" class="edge">
<title>Node1&#45;&gt;Node11</title>
<g id="a_edge10_Node000001_Node000011"><a xlink:title=" ">
<path fill="none" stroke="#63b8ff" d="M231.82,-259.27C254.99,-238.42 297.53,-203.08 340,-183 347.23,-179.58 355,-176.61 362.88,-174.04"/>
<polygon fill="#63b8ff" stroke="#63b8ff" points="229.22,-256.91 224.2,-266.24 233.94,-262.08 229.22,-256.91"/>
</a>
</g>
</g>
<!-- Node12 -->
<g id="Node000012" class="node">
<title>Node12</title>
<g id="a_Node000012"><a xlink:href="class_boundary_condition_validation_exception.html" target="_top" xlink:title="Exception thrown when array validation fails.">
<polygon fill="white" stroke="#666666" points="515,-126 357,-126 357,-96 515,-96 515,-126"/>
<text text-anchor="start" x="365" y="-114" font-family="Helvetica,sans-Serif" font-size="10.00">BoundaryConditionValidation</text>
<text text-anchor="middle" x="436" y="-103" font-family="Helvetica,sans-Serif" font-size="10.00">Exception</text>
</a>
</g>
</g>
<!-- Node1&#45;&gt;Node12 -->
<g id="edge11_Node000001_Node000012" class="edge">
<title>Node1&#45;&gt;Node12</title>
<g id="a_edge11_Node000001_Node000012"><a xlink:title=" ">
<path fill="none" stroke="#63b8ff" d="M225.15,-257.62C244.56,-227.24 287.55,-166.76 340,-135 345.68,-131.56 351.83,-128.62 358.18,-126.09"/>
<polygon fill="#63b8ff" stroke="#63b8ff" points="222.02,-256.01 219.69,-266.35 227.96,-259.72 222.02,-256.01"/>
</a>
</g>
</g>
<!-- Node13 -->
<g id="Node000013" class="node">
<title>Node13</title>
<g id="a_Node000013"><a xlink:href="class_boundary_condition_vtp_array_dimension_exception.html" target="_top" xlink:title="Exception thrown when a VTP array has incorrect dimensions.">
<polygon fill="white" stroke="#666666" points="512,-78 360,-78 360,-48 512,-48 512,-78"/>
<text text-anchor="start" x="368" y="-66" font-family="Helvetica,sans-Serif" font-size="10.00">BoundaryConditionVtpArray</text>
<text text-anchor="middle" x="436" y="-55" font-family="Helvetica,sans-Serif" font-size="10.00">DimensionException</text>
</a>
</g>
</g>
<!-- Node1&#45;&gt;Node13 -->
<g id="edge12_Node000001_Node000013" class="edge">
<title>Node1&#45;&gt;Node13</title>
<g id="a_edge12_Node000001_Node000013"><a xlink:title=" ">
<path fill="none" stroke="#63b8ff" d="M221.21,-256.84C236.71,-218.35 277,-131.51 340,-87 345.97,-82.78 352.62,-79.3 359.55,-76.43"/>
<polygon fill="#63b8ff" stroke="#63b8ff" points="217.88,-255.75 217.5,-266.34 224.4,-258.3 217.88,-255.75"/>
</a>
</g>
</g>
<!-- Node14 -->
<g id="Node000014" class="node">
<title>Node14</title>
<g id="a_Node000014"><a xlink:href="class_boundary_condition_vtp_array_exception.html" target="_top" xlink:title="Exception thrown when a VTP file doesn&#39;t contain a required array.">
<polygon fill="white" stroke="#666666" points="512,-30 360,-30 360,0 512,0 512,-30"/>
<text text-anchor="start" x="368" y="-18" font-family="Helvetica,sans-Serif" font-size="10.00">BoundaryConditionVtpArray</text>
<text text-anchor="middle" x="436" y="-7" font-family="Helvetica,sans-Serif" font-size="10.00">Exception</text>
</a>
</g>
</g>
<!-- Node1&#45;&gt;Node14 -->
<g id="edge13_Node000001_Node000014" class="edge">
<title>Node1&#45;&gt;Node14</title>
<g id="a_edge13_Node000001_Node000014"><a xlink:title=" ">
<path fill="none" stroke="#63b8ff" d="M218.67,-256.15C230.51,-210.38 266.14,-96.9 340,-39 345.89,-34.38 352.56,-30.64 359.57,-27.62"/>
<polygon fill="#63b8ff" stroke="#63b8ff" points="215.23,-255.48 216.22,-266.03 222.03,-257.16 215.23,-255.48"/>
</a>
</g>
</g>
<!-- Node2 -->
<g id="Node000002" class="node">
<title>Node2</title>
<g id="a_Node000002"><a xlink:title=" ">
<polygon fill="white" stroke="#666666" points="86,-285.5 0,-285.5 0,-266.5 86,-266.5 86,-285.5"/>
<text text-anchor="middle" x="43" y="-273.5" font-family="Helvetica,sans-Serif" font-size="10.00">std::exception</text>
</a>
</g>
</g>
<!-- Node2&#45;&gt;Node1 -->
<g id="edge1_Node000001_Node000002" class="edge">
<title>Node2&#45;&gt;Node1</title>
<g id="a_edge1_Node000001_Node000002"><a xlink:title=" ">
<path fill="none" stroke="#63b8ff" d="M96.66,-276C104.69,-276 113.17,-276 121.73,-276"/>
<polygon fill="#63b8ff" stroke="#63b8ff" points="96.39,-272.5 86.39,-276 96.39,-279.5 96.39,-272.5"/>
</a>
</g>
</g>
</g>
</svg>
