<?xml version="1.0" encoding="UTF-8" standalone="no"?>
<!DOCTYPE svg PUBLIC "-//W3C//DTD SVG 1.1//EN"
 "http://www.w3.org/Graphics/SVG/1.1/DTD/svg11.dtd">
<!-- Generated by graphviz version 2.43.0 (0)
 -->
<!-- Title: LinearAlgebra Pages: 1 -->
<svg width="381pt" height="82pt"
 viewBox="0.00 0.00 381.00 82.00" xmlns="http://www.w3.org/2000/svg" xmlns:xlink="http://www.w3.org/1999/xlink">
<g id="graph0" class="graph" transform="scale(1 1) rotate(0) translate(4 78)">
<title>LinearAlgebra</title>
<!-- Node1 -->
<g id="Node000001" class="node">
<title>Node1</title>
<g id="a_Node000001"><a xlink:title="The LinearAlgebra class provides an abstract interface to linear algebra frameworks: FSILS,...">
<polygon fill="#999999" stroke="#666666" points="222.5,-74 138.5,-74 138.5,-55 222.5,-55 222.5,-74"/>
<text text-anchor="middle" x="180.5" y="-62" font-family="Helvetica,sans-Serif" font-size="10.00">LinearAlgebra</text>
</a>
</g>
</g>
<!-- Node2 -->
<g id="Node000002" class="node">
<title>Node2</title>
<g id="a_Node000002"><a xlink:href="class_fsils_linear_algebra.html" target="_top" xlink:title="The FsilsLinearAlgebra class implements the LinearAlgebra interface for the FSILS numerical linear al...">
<polygon fill="white" stroke="#666666" points="107,-19 0,-19 0,0 107,0 107,-19"/>
<text text-anchor="middle" x="53.5" y="-7" font-family="Helvetica,sans-Serif" font-size="10.00">FsilsLinearAlgebra</text>
</a>
</g>
</g>
<!-- Node1&#45;&gt;Node2 -->
<g id="edge1_Node000001_Node000002" class="edge">
<title>Node1&#45;&gt;Node2</title>
<g id="a_edge1_Node000001_Node000002"><a xlink:title=" ">
<path fill="none" stroke="#63b8ff" d="M150.62,-51.03C127.13,-41.23 95.03,-27.83 74.28,-19.17"/>
<polygon fill="#63b8ff" stroke="#63b8ff" points="149.52,-54.36 160.1,-54.98 152.21,-47.9 149.52,-54.36"/>
</a>
</g>
</g>
<!-- Node3 -->
<g id="Node000003" class="node">
<title>Node3</title>
<g id="a_Node000003"><a xlink:href="class_petsc_linear_algebra.html" target="_top" xlink:title="The PetscLinearAlgebra class implements the LinearAlgebra interface for the PETSc numerical linear al...">
<polygon fill="white" stroke="#666666" points="235.5,-19 125.5,-19 125.5,0 235.5,0 235.5,-19"/>
<text text-anchor="middle" x="180.5" y="-7" font-family="Helvetica,sans-Serif" font-size="10.00">PetscLinearAlgebra</text>
</a>
</g>
</g>
<!-- Node1&#45;&gt;Node3 -->
<g id="edge2_Node000001_Node000003" class="edge">
<title>Node1&#45;&gt;Node3</title>
<g id="a_edge2_Node000001_Node000003"><a xlink:title=" ">
<path fill="none" stroke="#63b8ff" d="M180.5,-44.66C180.5,-35.93 180.5,-25.99 180.5,-19.09"/>
<polygon fill="#63b8ff" stroke="#63b8ff" points="177,-44.75 180.5,-54.75 184,-44.75 177,-44.75"/>
</a>
</g>
</g>
<!-- Node4 -->
<g id="Node000004" class="node">
<title>Node4</title>
<g id="a_Node000004"><a xlink:href="class_trilinos_linear_algebra.html" target="_top" xlink:title="The TrilinosLinearAlgebra class implements the LinearAlgebra interface for the Trilinos numerical lin...">
<polygon fill="white" stroke="#666666" points="373,-19 254,-19 254,0 373,0 373,-19"/>
<text text-anchor="middle" x="313.5" y="-7" font-family="Helvetica,sans-Serif" font-size="10.00">TrilinosLinearAlgebra</text>
</a>
</g>
</g>
<!-- Node1&#45;&gt;Node4 -->
<g id="edge3_Node000001_Node000004" class="edge">
<title>Node1&#45;&gt;Node4</title>
<g id="a_edge3_Node000001_Node000004"><a xlink:title=" ">
<path fill="none" stroke="#63b8ff" d="M211.47,-51.16C236.09,-41.35 269.91,-27.87 291.74,-19.17"/>
<polygon fill="#63b8ff" stroke="#63b8ff" points="209.86,-48.03 201.87,-54.98 212.45,-54.53 209.86,-48.03"/>
</a>
</g>
</g>
</g>
</svg>
