<?xml version="1.0" encoding="UTF-8" standalone="no"?>
<!DOCTYPE svg PUBLIC "-//W3C//DTD SVG 1.1//EN"
 "http://www.w3.org/Graphics/SVG/1.1/DTD/svg11.dtd">
<!-- Generated by graphviz version 2.43.0 (0)
 -->
<!-- Title: fe_basis_information_flow Pages: 1 -->
<svg width="539pt" height="125pt"
 viewBox="0.00 0.00 539.00 125.00" xmlns="http://www.w3.org/2000/svg" xmlns:xlink="http://www.w3.org/1999/xlink">
<g id="graph0" class="graph" transform="scale(1 1) rotate(0) translate(4 121)">
<title>fe_basis_information_flow</title>
<polygon fill="white" stroke="transparent" points="-4,4 -4,-121 535,-121 535,4 -4,4"/>
<!-- mesh -->
<g id="node1" class="node">
<title>mesh</title>
<polygon fill="none" stroke="black" points="111,-117 0,-117 0,-81 111,-81 111,-117"/>
<text text-anchor="middle" x="55.5" y="-96.5" font-family="Helvetica,sans-Serif" font-size="10.00">Mesh element type</text>
</g>
<!-- topology -->
<g id="node3" class="node">
<title>topology</title>
<polygon fill="none" stroke="black" points="259,-117 147,-117 147,-81 259,-81 259,-117"/>
<text text-anchor="middle" x="203" y="-102" font-family="Helvetica,sans-Serif" font-size="10.00">Reference topology</text>
<text text-anchor="middle" x="203" y="-91" font-family="Helvetica,sans-Serif" font-size="10.00">and node layout</text>
</g>
<!-- mesh&#45;&gt;topology -->
<g id="edge1" class="edge">
<title>mesh&#45;&gt;topology</title>
<path fill="none" stroke="black" d="M111.09,-99C119.35,-99 127.94,-99 136.39,-99"/>
<polygon fill="black" stroke="black" points="136.62,-102.5 146.62,-99 136.62,-95.5 136.62,-102.5"/>
</g>
<!-- request -->
<g id="node2" class="node">
<title>request</title>
<polygon fill="none" stroke="black" points="247,-63 159,-63 159,-27 247,-27 247,-63"/>
<text text-anchor="middle" x="203" y="-48" font-family="Helvetica,sans-Serif" font-size="10.00">BasisRequest</text>
<text text-anchor="middle" x="203" y="-37" font-family="Helvetica,sans-Serif" font-size="10.00">family + order</text>
</g>
<!-- basis -->
<g id="node4" class="node">
<title>basis</title>
<polygon fill="lightgray" stroke="black" points="382.5,-90 306.5,-90 306.5,-54 382.5,-54 382.5,-90"/>
<text text-anchor="middle" x="344.5" y="-69.5" font-family="Helvetica,sans-Serif" font-size="10.00">Basis object</text>
</g>
<!-- request&#45;&gt;basis -->
<g id="edge2" class="edge">
<title>request&#45;&gt;basis</title>
<path fill="none" stroke="black" d="M247.37,-53.39C262.86,-56.39 280.38,-59.78 296.18,-62.84"/>
<polygon fill="black" stroke="black" points="295.79,-66.33 306.27,-64.79 297.12,-59.46 295.79,-66.33"/>
</g>
<!-- topology&#45;&gt;basis -->
<g id="edge3" class="edge">
<title>topology&#45;&gt;basis</title>
<path fill="none" stroke="black" d="M259.13,-88.33C271.39,-85.96 284.27,-83.46 296.17,-81.16"/>
<polygon fill="black" stroke="black" points="297.19,-84.53 306.35,-79.19 295.86,-77.66 297.19,-84.53"/>
</g>
<!-- outputs -->
<g id="node6" class="node">
<title>outputs</title>
<polygon fill="none" stroke="black" points="531,-63 430,-63 430,-27 531,-27 531,-63"/>
<text text-anchor="middle" x="480.5" y="-48" font-family="Helvetica,sans-Serif" font-size="10.00">Reference values</text>
<text text-anchor="middle" x="480.5" y="-37" font-family="Helvetica,sans-Serif" font-size="10.00">and derivatives</text>
</g>
<!-- basis&#45;&gt;outputs -->
<g id="edge4" class="edge">
<title>basis&#45;&gt;outputs</title>
<path fill="none" stroke="black" d="M382.83,-64.48C394.31,-62.16 407.26,-59.56 419.86,-57.02"/>
<polygon fill="black" stroke="black" points="420.74,-60.41 429.85,-55 419.35,-53.55 420.74,-60.41"/>
</g>
<!-- points -->
<g id="node5" class="node">
<title>points</title>
<polygon fill="none" stroke="black" points="394,-36 295,-36 295,0 394,0 394,-36"/>
<text text-anchor="middle" x="344.5" y="-15.5" font-family="Helvetica,sans-Serif" font-size="10.00">Reference points</text>
</g>
<!-- points&#45;&gt;outputs -->
<g id="edge5" class="edge">
<title>points&#45;&gt;outputs</title>
<path fill="none" stroke="black" d="M394.26,-27.82C402.54,-29.49 411.22,-31.24 419.75,-32.96"/>
<polygon fill="black" stroke="black" points="419.16,-36.41 429.66,-34.96 420.54,-29.55 419.16,-36.41"/>
</g>
</g>
</svg>
