<?xml version="1.0" encoding="UTF-8" standalone="no"?>
<!DOCTYPE svg PUBLIC "-//W3C//DTD SVG 1.1//EN"
 "http://www.w3.org/Graphics/SVG/1.1/DTD/svg11.dtd">
<!-- Generated by graphviz version 2.43.0 (0)
 -->
<!-- Title: Common Pages: 1 -->
<svg width="276pt" height="64pt"
 viewBox="0.00 0.00 276.00 64.00" xmlns="http://www.w3.org/2000/svg" xmlns:xlink="http://www.w3.org/1999/xlink">
<g id="graph0" class="graph" transform="scale(1 1) rotate(0) translate(4 60)">
<title>Common</title>
<!-- Node2 -->
<g id="Node000002" class="node">
<title>Node2</title>
<g id="a_Node000002"><a xlink:href="group___f_e.html" target="_top" xlink:title="Finite&#45;element interfaces and utilities used by the solver.">
<polygon fill="white" stroke="#666666" points="65,-37 0,-37 0,-18 65,-18 65,-37"/>
<text text-anchor="middle" x="32.5" y="-25" font-family="Helvetica,sans-Serif" font-size="10.00">FE Library</text>
</a>
</g>
</g>
<!-- Node1 -->
<g id="Node000001" class="node">
<title>Node1</title>
<g id="a_Node000001"><a xlink:title="Shared vocabulary types, constants, and exception infrastructure used by every FE module.">
<polygon fill="#999999" stroke="#666666" points="162,-37 101,-37 101,-18 162,-18 162,-37"/>
<text text-anchor="middle" x="131.5" y="-25" font-family="Helvetica,sans-Serif" font-size="10.00">Common</text>
</a>
</g>
</g>
<!-- Node2&#45;&gt;Node1 -->
<g id="edge1" class="edge">
<title>Node2&#45;&gt;Node1</title>
<path fill="none" stroke="black" d="M75.51,-27.5C84.09,-27.5 92.94,-27.5 100.97,-27.5"/>
<polygon fill="black" stroke="black" points="75.26,-24 65.26,-27.5 75.26,-31 75.26,-24"/>
</g>
<!-- Node3 -->
<g id="Node000003" class="node">
<title>Node3</title>
<g id="a_Node000003"><a xlink:href="group___f_e___common_exceptions.html" target="_top" xlink:title="FE exception hierarchy.">
<polygon fill="white" stroke="#666666" points="268,-56 198,-56 198,-37 268,-37 268,-56"/>
<text text-anchor="middle" x="233" y="-44" font-family="Helvetica,sans-Serif" font-size="10.00">Exceptions</text>
</a>
</g>
</g>
<!-- Node1&#45;&gt;Node3 -->
<g id="edge2" class="edge">
<title>Node1&#45;&gt;Node3</title>
<path fill="none" stroke="black" d="M172.16,-35.07C180.65,-36.69 189.55,-38.39 197.81,-39.97"/>
<polygon fill="black" stroke="black" points="172.56,-31.59 162.08,-33.15 171.25,-38.46 172.56,-31.59"/>
</g>
<!-- Node4 -->
<g id="Node000004" class="node">
<title>Node4</title>
<g id="a_Node000004"><a xlink:href="group___f_e___common_types.html" target="_top" xlink:title="Core type aliases, enumerations, constants, geometric types, and compile&#45;time traits.">
<polygon fill="white" stroke="#666666" points="255,-19 211,-19 211,0 255,0 255,-19"/>
<text text-anchor="middle" x="233" y="-7" font-family="Helvetica,sans-Serif" font-size="10.00">Types</text>
</a>
</g>
</g>
<!-- Node1&#45;&gt;Node4 -->
<g id="edge3" class="edge">
<title>Node1&#45;&gt;Node4</title>
<path fill="none" stroke="black" d="M171.98,-20.36C185.27,-17.95 199.58,-15.36 210.9,-13.32"/>
<polygon fill="black" stroke="black" points="171.3,-16.92 162.08,-22.15 172.55,-23.81 171.3,-16.92"/>
</g>
</g>
</svg>
