<?xml version="1.0" encoding="UTF-8" standalone="no"?>
<!DOCTYPE svg PUBLIC "-//W3C//DTD SVG 1.1//EN"
 "http://www.w3.org/Graphics/SVG/1.1/DTD/svg11.dtd">
<!-- Generated by graphviz version 2.43.0 (0)
 -->
<!-- Title: Basis Pages: 1 -->
<svg width="337pt" height="150pt"
 viewBox="0.00 0.00 337.00 150.00" xmlns="http://www.w3.org/2000/svg" xmlns:xlink="http://www.w3.org/1999/xlink">
<g id="graph0" class="graph" transform="scale(1 1) rotate(0) translate(4 146)">
<title>Basis</title>
<!-- Node2 -->
<g id="Node000002" class="node">
<title>Node2</title>
<g id="a_Node000002"><a xlink:href="group___f_e.html" target="_top" xlink:title="Finite&#45;element interfaces and utilities used by the solver.">
<polygon fill="white" stroke="#666666" points="65,-77 0,-77 0,-58 65,-58 65,-77"/>
<text text-anchor="middle" x="32.5" y="-65" font-family="Helvetica,sans-Serif" font-size="10.00">FE Library</text>
</a>
</g>
</g>
<!-- Node1 -->
<g id="Node000001" class="node">
<title>Node1</title>
<g id="a_Node000001"><a xlink:title="Basis&#45;function interfaces, concrete basis families, and reference&#45;node conventions.">
<polygon fill="#999999" stroke="#666666" points="144,-77 101,-77 101,-58 144,-58 144,-77"/>
<text text-anchor="middle" x="122.5" y="-65" font-family="Helvetica,sans-Serif" font-size="10.00">Basis</text>
</a>
</g>
</g>
<!-- Node2&#45;&gt;Node1 -->
<g id="edge1" class="edge">
<title>Node2&#45;&gt;Node1</title>
<path fill="none" stroke="black" d="M75.46,-67.5C84.25,-67.5 93.15,-67.5 100.76,-67.5"/>
<polygon fill="black" stroke="black" points="75.27,-64 65.27,-67.5 75.27,-71 75.27,-64"/>
</g>
<!-- Node3 -->
<g id="Node000003" class="node">
<title>Node3</title>
<g id="a_Node000003"><a xlink:href="group___f_e___basis_exceptions.html" target="_top" xlink:title="Basis&#45;module exception hierarchy.">
<polygon fill="white" stroke="#666666" points="289.5,-142 219.5,-142 219.5,-123 289.5,-123 289.5,-142"/>
<text text-anchor="middle" x="254.5" y="-130" font-family="Helvetica,sans-Serif" font-size="10.00">Exceptions</text>
</a>
</g>
</g>
<!-- Node1&#45;&gt;Node3 -->
<g id="edge2" class="edge">
<title>Node1&#45;&gt;Node3</title>
<path fill="none" stroke="black" d="M139.87,-84.06C150.48,-93.92 165.07,-105.95 180,-113.5 192.23,-119.69 206.66,-123.98 219.47,-126.9"/>
<polygon fill="black" stroke="black" points="142.22,-81.46 132.59,-77.05 137.37,-86.5 142.22,-81.46"/>
</g>
<!-- Node5 -->
<g id="Node000005" class="node">
<title>Node5</title>
<g id="a_Node000005"><a xlink:href="group___f_e___basis_node_ordering.html" target="_top" xlink:title="Reference&#45;node generators that the basis families build on.">
<polygon fill="white" stroke="#666666" points="329,-104.5 180,-104.5 180,-74.5 329,-74.5 329,-104.5"/>
<text text-anchor="start" x="188" y="-92.5" font-family="Helvetica,sans-Serif" font-size="10.00">Reference&#45;node generation</text>
<text text-anchor="middle" x="254.5" y="-81.5" font-family="Helvetica,sans-Serif" font-size="10.00"> (internal)</text>
</a>
</g>
</g>
<!-- Node1&#45;&gt;Node5 -->
<g id="edge4" class="edge">
<title>Node1&#45;&gt;Node5</title>
<path fill="none" stroke="black" d="M154.14,-72.69C161.98,-74.01 170.75,-75.5 179.76,-77.02"/>
<polygon fill="black" stroke="black" points="154.54,-69.2 144.1,-70.99 153.37,-76.11 154.54,-69.2"/>
</g>
<!-- Node4 -->
<g id="Node000004" class="node">
<title>Node4</title>
<g id="a_Node000004"><a xlink:href="group___f_e___lagrange_basis.html" target="_top" xlink:title="Construction and evaluation API for nodal Lagrange finite&#45;element bases.">
<polygon fill="white" stroke="#666666" points="298.5,-56 210.5,-56 210.5,-37 298.5,-37 298.5,-56"/>
<text text-anchor="middle" x="254.5" y="-44" font-family="Helvetica,sans-Serif" font-size="10.00">LagrangeBasis</text>
</a>
</g>
</g>
<!-- Node1&#45;&gt;Node4 -->
<g id="edge3" class="edge">
<title>Node1&#45;&gt;Node4</title>
<path fill="none" stroke="black" d="M154.42,-62.51C171.15,-59.8 192.09,-56.42 210.4,-53.46"/>
<polygon fill="black" stroke="black" points="153.41,-59.12 144.1,-64.17 154.53,-66.03 153.41,-59.12"/>
</g>
<!-- Node6 -->
<g id="Node000006" class="node">
<title>Node6</title>
<g id="a_Node000006"><a xlink:href="group___f_e___serendipity_basis.html" target="_top" xlink:title="Construction and evaluation API for reduced serendipity finite&#45;element bases.">
<polygon fill="white" stroke="#666666" points="303.5,-19 205.5,-19 205.5,0 303.5,0 303.5,-19"/>
<text text-anchor="middle" x="254.5" y="-7" font-family="Helvetica,sans-Serif" font-size="10.00">SerendipityBasis</text>
</a>
</g>
</g>
<!-- Node1&#45;&gt;Node6 -->
<g id="edge5" class="edge">
<title>Node1&#45;&gt;Node6</title>
<path fill="none" stroke="black" d="M142.9,-51.57C153.35,-43.66 166.79,-34.54 180,-28.5 188.27,-24.72 197.42,-21.6 206.38,-19.05"/>
<polygon fill="black" stroke="black" points="140.61,-48.92 134.89,-57.83 144.92,-54.43 140.61,-48.92"/>
</g>
</g>
</svg>
