<?xml version="1.0" encoding="UTF-8" standalone="no"?>
<!DOCTYPE svg PUBLIC "-//W3C//DTD SVG 1.1//EN"
 "http://www.w3.org/Graphics/SVG/1.1/DTD/svg11.dtd">
<!-- Generated by graphviz version 2.43.0 (0)
 -->
<!-- Title: FE Library Pages: 1 -->
<svg width="170pt" height="101pt"
 viewBox="0.00 0.00 170.00 101.00" xmlns="http://www.w3.org/2000/svg" xmlns:xlink="http://www.w3.org/1999/xlink">
<g id="graph0" class="graph" transform="scale(1 1) rotate(0) translate(4 97)">
<title>FE Library</title>
<!-- Node1 -->
<g id="Node000001" class="node">
<title>Node1</title>
<g id="a_Node000001"><a xlink:title="Finite&#45;element interfaces and utilities used by the solver.">
<polygon fill="#999999" stroke="#666666" points="65,-56 0,-56 0,-37 65,-37 65,-56"/>
<text text-anchor="middle" x="32.5" y="-44" font-family="Helvetica,sans-Serif" font-size="10.00">FE Library</text>
</a>
</g>
</g>
<!-- Node2 -->
<g id="Node000002" class="node">
<title>Node2</title>
<g id="a_Node000002"><a xlink:href="group___f_e___basis.html" target="_top" xlink:title="Basis&#45;function interfaces, concrete basis families, and reference&#45;node conventions.">
<polygon fill="white" stroke="#666666" points="153,-93 110,-93 110,-74 153,-74 153,-93"/>
<text text-anchor="middle" x="131.5" y="-81" font-family="Helvetica,sans-Serif" font-size="10.00">Basis</text>
</a>
</g>
</g>
<!-- Node1&#45;&gt;Node2 -->
<g id="edge1" class="edge">
<title>Node1&#45;&gt;Node2</title>
<path fill="none" stroke="black" d="M67.85,-59.6C81.89,-64.96 97.65,-70.97 109.86,-75.63"/>
<polygon fill="black" stroke="black" points="69.07,-56.32 58.48,-56.03 66.58,-62.86 69.07,-56.32"/>
</g>
<!-- Node3 -->
<g id="Node000003" class="node">
<title>Node3</title>
<g id="a_Node000003"><a xlink:href="group___f_e___common.html" target="_top" xlink:title="Shared vocabulary types, constants, and exception infrastructure used by every FE module.">
<polygon fill="white" stroke="#666666" points="162,-56 101,-56 101,-37 162,-37 162,-56"/>
<text text-anchor="middle" x="131.5" y="-44" font-family="Helvetica,sans-Serif" font-size="10.00">Common</text>
</a>
</g>
</g>
<!-- Node1&#45;&gt;Node3 -->
<g id="edge2" class="edge">
<title>Node1&#45;&gt;Node3</title>
<path fill="none" stroke="black" d="M75.51,-46.5C84.09,-46.5 92.94,-46.5 100.97,-46.5"/>
<polygon fill="black" stroke="black" points="75.26,-43 65.26,-46.5 75.26,-50 75.26,-43"/>
</g>
<!-- Node4 -->
<g id="Node000004" class="node">
<title>Node4</title>
<g id="a_Node000004"><a xlink:href="group___f_e___math.html" target="_top" xlink:title="Linear algebra vocabulary types and dense utilities for finite&#45;element computations.">
<polygon fill="white" stroke="#666666" points="152,-19 111,-19 111,0 152,0 152,-19"/>
<text text-anchor="middle" x="131.5" y="-7" font-family="Helvetica,sans-Serif" font-size="10.00">Math</text>
</a>
</g>
</g>
<!-- Node1&#45;&gt;Node4 -->
<g id="edge3" class="edge">
<title>Node1&#45;&gt;Node4</title>
<path fill="none" stroke="black" d="M68.06,-33.32C82.41,-27.84 98.53,-21.69 110.8,-17.01"/>
<polygon fill="black" stroke="black" points="66.58,-30.14 58.48,-36.97 69.07,-36.68 66.58,-30.14"/>
</g>
</g>
</svg>
