<?xml version="1.0" encoding="UTF-8" standalone="no"?>
<!DOCTYPE svg PUBLIC "-//W3C//DTD SVG 1.1//EN"
 "http://www.w3.org/Graphics/SVG/1.1/DTD/svg11.dtd">
<!-- Generated by graphviz version 2.43.0 (0)
 -->
<!-- Title: Math Pages: 1 -->
<svg width="234pt" height="64pt"
 viewBox="0.00 0.00 234.00 64.00" xmlns="http://www.w3.org/2000/svg" xmlns:xlink="http://www.w3.org/1999/xlink">
<g id="graph0" class="graph" transform="scale(1 1) rotate(0) translate(4 60)">
<title>Math</title>
<!-- Node2 -->
<g id="Node000002" class="node">
<title>Node2</title>
<g id="a_Node000002"><a xlink:href="group___f_e.html" target="_top" xlink:title="Finite&#45;element interfaces and utilities used by the solver.">
<polygon fill="white" stroke="#666666" points="65,-37 0,-37 0,-18 65,-18 65,-37"/>
<text text-anchor="middle" x="32.5" y="-25" font-family="Helvetica,sans-Serif" font-size="10.00">FE Library</text>
</a>
</g>
</g>
<!-- Node1 -->
<g id="Node000001" class="node">
<title>Node1</title>
<g id="a_Node000001"><a xlink:title="Linear algebra vocabulary types and dense utilities for finite&#45;element computations.">
<polygon fill="#999999" stroke="#666666" points="142,-37 101,-37 101,-18 142,-18 142,-37"/>
<text text-anchor="middle" x="121.5" y="-25" font-family="Helvetica,sans-Serif" font-size="10.00">Math</text>
</a>
</g>
</g>
<!-- Node2&#45;&gt;Node1 -->
<g id="edge1" class="edge">
<title>Node2&#45;&gt;Node1</title>
<path fill="none" stroke="black" d="M75.68,-27.5C84.53,-27.5 93.46,-27.5 101,-27.5"/>
<polygon fill="black" stroke="black" points="75.4,-24 65.4,-27.5 75.4,-31 75.4,-24"/>
</g>
<!-- Node3 -->
<g id="Node000003" class="node">
<title>Node3</title>
<g id="a_Node000003"><a xlink:href="group___f_e___matrix_math.html" target="_top" xlink:title="Fixed&#45;size matrix type aliases.">
<polygon fill="white" stroke="#666666" points="226,-56 178,-56 178,-37 226,-37 226,-56"/>
<text text-anchor="middle" x="202" y="-44" font-family="Helvetica,sans-Serif" font-size="10.00">Matrix</text>
</a>
</g>
</g>
<!-- Node1&#45;&gt;Node3 -->
<g id="edge2" class="edge">
<title>Node1&#45;&gt;Node3</title>
<path fill="none" stroke="black" d="M152.23,-34.7C160.71,-36.75 169.82,-38.95 177.85,-40.9"/>
<polygon fill="black" stroke="black" points="152.85,-31.25 142.31,-32.29 151.2,-38.05 152.85,-31.25"/>
</g>
<!-- Node4 -->
<g id="Node000004" class="node">
<title>Node4</title>
<g id="a_Node000004"><a xlink:href="group___f_e___vector_math.html" target="_top" xlink:title="Fixed&#45;size vector type aliases.">
<polygon fill="white" stroke="#666666" points="225.5,-19 178.5,-19 178.5,0 225.5,0 225.5,-19"/>
<text text-anchor="middle" x="202" y="-7" font-family="Helvetica,sans-Serif" font-size="10.00">Vector</text>
</a>
</g>
</g>
<!-- Node1&#45;&gt;Node4 -->
<g id="edge3" class="edge">
<title>Node1&#45;&gt;Node4</title>
<path fill="none" stroke="black" d="M152.12,-20.71C160.83,-18.71 170.22,-16.56 178.42,-14.68"/>
<polygon fill="black" stroke="black" points="151.27,-17.31 142.31,-22.96 152.84,-24.13 151.27,-17.31"/>
</g>
</g>
</svg>
