<?xml version="1.0" encoding="UTF-8" standalone="no"?>
<!DOCTYPE svg PUBLIC "-//W3C//DTD SVG 1.1//EN"
 "http://www.w3.org/Graphics/SVG/1.1/DTD/svg11.dtd">
<!-- Generated by graphviz version 2.43.0 (0)
 -->
<!-- Title: Graphical Class Hierarchy Pages: 1 -->
<svg width="366pt" height="86pt"
 viewBox="0.00 0.00 366.00 86.00" xmlns="http://www.w3.org/2000/svg" xmlns:xlink="http://www.w3.org/1999/xlink">
<g id="graph0" class="graph" transform="scale(1 1) rotate(0) translate(4 82)">
<title>Graphical Class Hierarchy</title>
<!-- Node0 -->
<g id="Node000000" class="node">
<title>Node0</title>
<g id="a_Node000000"><a xlink:href="classsvmp_1_1_f_e_1_1basis_1_1_basis_function.html" target="_top" xlink:title="Abstract interface for finite&#45;element basis&#45;function families.">
<polygon fill="white" stroke="#666666" points="167,-48.5 0,-48.5 0,-29.5 167,-29.5 167,-48.5"/>
<text text-anchor="middle" x="83.5" y="-36.5" font-family="Helvetica,sans-Serif" font-size="10.00">svmp::FE::basis::BasisFunction</text>
</a>
</g>
</g>
<!-- Node1 -->
<g id="Node000001" class="node">
<title>Node1</title>
<g id="a_Node000001"><a xlink:href="classsvmp_1_1_f_e_1_1basis_1_1_lagrange_basis.html" target="_top" xlink:title="Nodal Lagrange basis on supported reference finite elements.">
<polygon fill="white" stroke="#666666" points="352.5,-78 208.5,-78 208.5,-48 352.5,-48 352.5,-78"/>
<text text-anchor="start" x="216.5" y="-66" font-family="Helvetica,sans-Serif" font-size="10.00">svmp::FE::basis::Lagrange</text>
<text text-anchor="middle" x="280.5" y="-55" font-family="Helvetica,sans-Serif" font-size="10.00">Basis</text>
</a>
</g>
</g>
<!-- Node0&#45;&gt;Node1 -->
<g id="edge105_Node000000_Node000001" class="edge">
<title>Node0&#45;&gt;Node1</title>
<g id="a_edge105_Node000000_Node000001"><a xlink:title=" ">
<path fill="none" stroke="#63b8ff" d="M171.98,-49.77C184.12,-51.26 196.47,-52.78 208.26,-54.23"/>
<polygon fill="#63b8ff" stroke="#63b8ff" points="172.2,-46.27 161.85,-48.52 171.35,-53.22 172.2,-46.27"/>
</a>
</g>
</g>
<!-- Node2 -->
<g id="Node000002" class="node">
<title>Node2</title>
<g id="a_Node000002"><a xlink:href="classsvmp_1_1_f_e_1_1basis_1_1_serendipity_basis.html" target="_top" xlink:title="Reduced&#45;degree&#45;of&#45;freedom serendipity basis on supported reference elements.">
<polygon fill="white" stroke="#666666" points="358,-30 203,-30 203,0 358,0 358,-30"/>
<text text-anchor="start" x="211" y="-18" font-family="Helvetica,sans-Serif" font-size="10.00">svmp::FE::basis::Serendipity</text>
<text text-anchor="middle" x="280.5" y="-7" font-family="Helvetica,sans-Serif" font-size="10.00">Basis</text>
</a>
</g>
</g>
<!-- Node0&#45;&gt;Node2 -->
<g id="edge106_Node000000_Node000002" class="edge">
<title>Node0&#45;&gt;Node2</title>
<g id="a_edge106_Node000000_Node000002"><a xlink:title=" ">
<path fill="none" stroke="#63b8ff" d="M172.06,-28.22C182.34,-26.96 192.77,-25.67 202.88,-24.43"/>
<polygon fill="#63b8ff" stroke="#63b8ff" points="171.35,-24.78 161.85,-29.48 172.2,-31.73 171.35,-24.78"/>
</a>
</g>
</g>
</g>
</svg>
