<?xml version="1.0" encoding="UTF-8" standalone="no"?>
<!DOCTYPE svg PUBLIC "-//W3C//DTD SVG 1.1//EN"
 "http://www.w3.org/Graphics/SVG/1.1/DTD/svg11.dtd">
<!-- Generated by graphviz version 2.43.0 (0)
 -->
<!-- Title: Graphical Class Hierarchy Pages: 1 -->
<svg width="524pt" height="1678pt"
 viewBox="0.00 0.00 524.00 1678.00" xmlns="http://www.w3.org/2000/svg" xmlns:xlink="http://www.w3.org/1999/xlink">
<g id="graph0" class="graph" transform="scale(1 1) rotate(0) translate(4 1674)">
<title>Graphical Class Hierarchy</title>
<!-- Node0 -->
<g id="Node000000" class="node">
<title>Node0</title>
<g id="a_Node000000"><a xlink:href="class_parameter_lists.html" target="_top" xlink:title="Defines parameter name and value, and stores them in maps for settng values from XML.">
<polygon fill="white" stroke="#666666" points="89,-833 0,-833 0,-814 89,-814 89,-833"/>
<text text-anchor="middle" x="44.5" y="-821" font-family="Helvetica,sans-Serif" font-size="10.00">ParameterLists</text>
</a>
</g>
</g>
<!-- Node1 -->
<g id="Node000001" class="node">
<title>Node1</title>
<g id="a_Node000001"><a xlink:href="class_body_force_parameters.html" target="_top" xlink:title="Body force over a mesh using the &quot;Add_BF&quot; command.">
<polygon fill="white" stroke="#666666" points="283,-1670 160,-1670 160,-1651 283,-1651 283,-1670"/>
<text text-anchor="middle" x="221.5" y="-1658" font-family="Helvetica,sans-Serif" font-size="10.00">BodyForceParameters</text>
</a>
</g>
</g>
<!-- Node0&#45;&gt;Node1 -->
<g id="edge9_Node000000_Node000001" class="edge">
<title>Node0&#45;&gt;Node1</title>
<g id="a_edge9_Node000000_Node000001"><a xlink:title=" ">
<path fill="none" stroke="#63b8ff" d="M46.02,-843.2C49.35,-962.16 69.26,-1581.53 125,-1642.5 133.99,-1652.34 146.53,-1657.82 159.57,-1660.69"/>
<polygon fill="#63b8ff" stroke="#63b8ff" points="49.51,-842.92 45.74,-833.02 42.52,-843.11 49.51,-842.92"/>
</a>
</g>
</g>
<!-- Node2 -->
<g id="Node000002" class="node">
<title>Node2</title>
<g id="a_Node000002"><a xlink:href="class_boundary_condition_parameters.html" target="_top" xlink:title="The BoundaryConditionParameters stores paramaters for various type of boundary conditions under the A...">
<polygon fill="white" stroke="#666666" points="304,-1633 139,-1633 139,-1614 304,-1614 304,-1633"/>
<text text-anchor="middle" x="221.5" y="-1621" font-family="Helvetica,sans-Serif" font-size="10.00">BoundaryConditionParameters</text>
</a>
</g>
</g>
<!-- Node0&#45;&gt;Node2 -->
<g id="edge10_Node000000_Node000002" class="edge">
<title>Node0&#45;&gt;Node2</title>
<g id="a_edge10_Node000000_Node000002"><a xlink:title=" ">
<path fill="none" stroke="#63b8ff" d="M46.12,-843.38C49.94,-959.58 71.79,-1547.56 125,-1605.5 128.99,-1609.85 133.68,-1613.35 138.8,-1616.14"/>
<polygon fill="#63b8ff" stroke="#63b8ff" points="49.61,-843.01 45.79,-833.12 42.62,-843.23 49.61,-843.01"/>
</a>
</g>
</g>
<!-- Node3 -->
<g id="Node000003" class="node">
<title>Node3</title>
<g id="a_Node000003"><a xlink:href="class_boundary_condition_r_c_r_parameters.html" target="_top" xlink:title="RCR values for Neumann BC type.">
<polygon fill="white" stroke="#666666" points="314,-1596 129,-1596 129,-1577 314,-1577 314,-1596"/>
<text text-anchor="middle" x="221.5" y="-1584" font-family="Helvetica,sans-Serif" font-size="10.00">BoundaryConditionRCRParameters</text>
</a>
</g>
</g>
<!-- Node0&#45;&gt;Node3 -->
<g id="edge11_Node000000_Node000003" class="edge">
<title>Node0&#45;&gt;Node3</title>
<g id="a_edge11_Node000000_Node000003"><a xlink:title=" ">
<path fill="none" stroke="#63b8ff" d="M46.23,-843.49C50.55,-956.63 74.3,-1513.57 125,-1568.5 127.98,-1571.72 131.33,-1574.48 134.96,-1576.82"/>
<polygon fill="#63b8ff" stroke="#63b8ff" points="49.72,-843.05 45.85,-833.19 42.72,-843.31 49.72,-843.05"/>
</a>
</g>
</g>
<!-- Node4 -->
<g id="Node000004" class="node">
<title>Node4</title>
<g id="a_Node000004"><a xlink:href="class_c_a_n_n_parameters.html" target="_top" xlink:title="The CANNParameters class stores the parameters table rows for xml element &quot;Constitutive_model type=CA...">
<polygon fill="white" stroke="#666666" points="272,-1559 171,-1559 171,-1540 272,-1540 272,-1559"/>
<text text-anchor="middle" x="221.5" y="-1547" font-family="Helvetica,sans-Serif" font-size="10.00">CANNParameters</text>
</a>
</g>
</g>
<!-- Node0&#45;&gt;Node4 -->
<g id="edge12_Node000000_Node000004" class="edge">
<title>Node0&#45;&gt;Node4</title>
<g id="a_edge12_Node000000_Node000004"><a xlink:title=" ">
<path fill="none" stroke="#63b8ff" d="M46.35,-843.52C51.19,-953.33 76.8,-1479.56 125,-1531.5 136.59,-1543.99 153.9,-1549.43 170.61,-1551.43"/>
<polygon fill="#63b8ff" stroke="#63b8ff" points="49.83,-843.05 45.9,-833.21 42.84,-843.36 49.83,-843.05"/>
</a>
</g>
</g>
<!-- Node5 -->
<g id="Node000005" class="node">
<title>Node5</title>
<g id="a_Node000005"><a xlink:href="class_c_a_n_n_row_parameters.html" target="_top" xlink:title="The CANNRowParameters class is used to store the parameters for each row of the CANN table for the xm...">
<polygon fill="white" stroke="#666666" points="282.5,-1522 160.5,-1522 160.5,-1503 282.5,-1503 282.5,-1522"/>
<text text-anchor="middle" x="221.5" y="-1510" font-family="Helvetica,sans-Serif" font-size="10.00">CANNRowParameters</text>
</a>
</g>
</g>
<!-- Node0&#45;&gt;Node5 -->
<g id="edge13_Node000000_Node000005" class="edge">
<title>Node0&#45;&gt;Node5</title>
<g id="a_edge13_Node000000_Node000005"><a xlink:title=" ">
<path fill="none" stroke="#63b8ff" d="M46.48,-843.46C51.85,-949.67 79.28,-1445.54 125,-1494.5 134.21,-1504.36 146.99,-1509.82 160.21,-1512.66"/>
<polygon fill="#63b8ff" stroke="#63b8ff" points="49.96,-843.01 45.96,-833.2 42.97,-843.36 49.96,-843.01"/>
</a>
</g>
</g>
<!-- Node6 -->
<g id="Node000006" class="node">
<title>Node6</title>
<g id="a_Node000006"><a xlink:href="class_constitutive_model_parameters.html" target="_top" xlink:title="The ConstitutiveModelParameters class store parameters for various constitutive models.">
<polygon fill="white" stroke="#666666" points="302,-1485 141,-1485 141,-1466 302,-1466 302,-1485"/>
<text text-anchor="middle" x="221.5" y="-1473" font-family="Helvetica,sans-Serif" font-size="10.00">ConstitutiveModelParameters</text>
</a>
</g>
</g>
<!-- Node0&#45;&gt;Node6 -->
<g id="edge14_Node000000_Node000006" class="edge">
<title>Node0&#45;&gt;Node6</title>
<g id="a_edge14_Node000000_Node000006"><a xlink:title=" ">
<path fill="none" stroke="#63b8ff" d="M46.61,-843.31C52.54,-945.66 81.74,-1411.49 125,-1457.5 129.51,-1462.29 134.86,-1466.04 140.69,-1468.96"/>
<polygon fill="#63b8ff" stroke="#63b8ff" points="50.1,-842.93 46.03,-833.14 43.11,-843.33 50.1,-842.93"/>
</a>
</g>
</g>
<!-- Node7 -->
<g id="Node000007" class="node">
<title>Node7</title>
<g id="a_Node000007"><a xlink:href="class_contact_parameters.html" target="_top" xlink:title="The ContactParameters class stores parameters for the &#39;Contact&#39;&#39; XML element used to specify paramete...">
<polygon fill="white" stroke="#666666" points="276.5,-1448 166.5,-1448 166.5,-1429 276.5,-1429 276.5,-1448"/>
<text text-anchor="middle" x="221.5" y="-1436" font-family="Helvetica,sans-Serif" font-size="10.00">ContactParameters</text>
</a>
</g>
</g>
<!-- Node0&#45;&gt;Node7 -->
<g id="edge15_Node000000_Node000007" class="edge">
<title>Node0&#45;&gt;Node7</title>
<g id="a_edge15_Node000000_Node000007"><a xlink:title=" ">
<path fill="none" stroke="#63b8ff" d="M45.17,-843.15C43.99,-936.57 43.88,-1334.89 125,-1420.5 135.68,-1431.77 151.01,-1437.26 166.28,-1439.68"/>
<polygon fill="#63b8ff" stroke="#63b8ff" points="48.67,-843.14 45.31,-833.09 41.67,-843.04 48.67,-843.14"/>
</a>
</g>
</g>
<!-- Node8 -->
<g id="Node000008" class="node">
<title>Node8</title>
<g id="a_Node000008"><a xlink:href="class_couple_gen_b_c_parameters.html" target="_top" xlink:title="Coupling to GenBC.">
<polygon fill="white" stroke="#666666" points="291,-1411 152,-1411 152,-1392 291,-1392 291,-1411"/>
<text text-anchor="middle" x="221.5" y="-1399" font-family="Helvetica,sans-Serif" font-size="10.00">CoupleGenBCParameters</text>
</a>
</g>
</g>
<!-- Node0&#45;&gt;Node8 -->
<g id="edge16_Node000000_Node000008" class="edge">
<title>Node0&#45;&gt;Node8</title>
<g id="a_edge16_Node000000_Node000008"><a xlink:title=" ">
<path fill="none" stroke="#63b8ff" d="M45.35,-843.62C45.13,-934.3 48.95,-1303.93 125,-1383.5 132.23,-1391.06 141.56,-1396.02 151.54,-1399.18"/>
<polygon fill="#63b8ff" stroke="#63b8ff" points="48.86,-843.37 45.4,-833.36 41.86,-843.34 48.86,-843.37"/>
</a>
</g>
</g>
<!-- Node9 -->
<g id="Node000009" class="node">
<title>Node9</title>
<g id="a_Node000009"><a xlink:href="class_coupling_interface_parameters.html" target="_top" xlink:title="svZeroDSolver coupling options under Add_BC (with Time_dependence Coupled).">
<polygon fill="white" stroke="#666666" points="300.5,-1374 142.5,-1374 142.5,-1355 300.5,-1355 300.5,-1374"/>
<text text-anchor="middle" x="221.5" y="-1362" font-family="Helvetica,sans-Serif" font-size="10.00">CouplingInterfaceParameters</text>
</a>
</g>
</g>
<!-- Node0&#45;&gt;Node9 -->
<g id="edge17_Node000000_Node000009" class="edge">
<title>Node0&#45;&gt;Node9</title>
<g id="a_edge17_Node000000_Node000009"><a xlink:title=" ">
<path fill="none" stroke="#63b8ff" d="M45.57,-843.38C46.32,-929.92 53.81,-1272.74 125,-1346.5 129.92,-1351.6 135.8,-1355.51 142.18,-1358.48"/>
<polygon fill="#63b8ff" stroke="#63b8ff" points="49.07,-843.1 45.51,-833.12 42.07,-843.14 49.07,-843.1"/>
</a>
</g>
</g>
<!-- Node10 -->
<g id="Node000010" class="node">
<title>Node10</title>
<g id="a_Node000010"><a xlink:href="class_directional_distribution_parameters.html" target="_top" xlink:title="The DirectionalDistributionParameters class stores directional distribution parameters for active str...">
<polygon fill="white" stroke="#666666" points="312.5,-1337 130.5,-1337 130.5,-1318 312.5,-1318 312.5,-1337"/>
<text text-anchor="middle" x="221.5" y="-1325" font-family="Helvetica,sans-Serif" font-size="10.00">DirectionalDistributionParameters</text>
</a>
</g>
</g>
<!-- Node0&#45;&gt;Node10 -->
<g id="edge18_Node000000_Node000010" class="edge">
<title>Node0&#45;&gt;Node10</title>
<g id="a_edge18_Node000000_Node000010"><a xlink:title=" ">
<path fill="none" stroke="#63b8ff" d="M45.83,-843.29C47.6,-925.82 58.69,-1241.57 125,-1309.5 128.18,-1312.76 131.76,-1315.53 135.6,-1317.88"/>
<polygon fill="#63b8ff" stroke="#63b8ff" points="49.32,-843.17 45.63,-833.24 42.32,-843.3 49.32,-843.17"/>
</a>
</g>
</g>
<!-- Node11 -->
<g id="Node000011" class="node">
<title>Node11</title>
<g id="a_Node000011"><a xlink:href="class_domain_parameters.html" target="_top" xlink:title="The DomainParameters class stores parameters for the XML &#39;Domain&#39; element to specify properties for s...">
<polygon fill="white" stroke="#666666" points="276.5,-1300 166.5,-1300 166.5,-1281 276.5,-1281 276.5,-1300"/>
<text text-anchor="middle" x="221.5" y="-1288" font-family="Helvetica,sans-Serif" font-size="10.00">DomainParameters</text>
</a>
</g>
</g>
<!-- Node0&#45;&gt;Node11 -->
<g id="edge19_Node000000_Node000011" class="edge">
<title>Node0&#45;&gt;Node11</title>
<g id="a_edge19_Node000000_Node000011"><a xlink:title=" ">
<path fill="none" stroke="#63b8ff" d="M46.12,-843.27C48.98,-921.79 63.59,-1210.4 125,-1272.5 135.8,-1283.42 150.98,-1288.85 166.08,-1291.31"/>
<polygon fill="#63b8ff" stroke="#63b8ff" points="49.61,-843.13 45.77,-833.26 42.62,-843.37 49.61,-843.13"/>
</a>
</g>
</g>
<!-- Node12 -->
<g id="Node000012" class="node">
<title>Node12</title>
<g id="a_Node000012"><a xlink:href="class_e_c_g_leads_parameters.html" target="_top" xlink:title=" ">
<polygon fill="white" stroke="#666666" points="282,-1263 161,-1263 161,-1244 282,-1244 282,-1263"/>
<text text-anchor="middle" x="221.5" y="-1251" font-family="Helvetica,sans-Serif" font-size="10.00">ECGLeadsParameters</text>
</a>
</g>
</g>
<!-- Node0&#45;&gt;Node12 -->
<g id="edge20_Node000000_Node000012" class="edge">
<title>Node0&#45;&gt;Node12</title>
<g id="a_edge20_Node000000_Node000012"><a xlink:title=" ">
<path fill="none" stroke="#63b8ff" d="M46.47,-843.51C50.51,-918.21 68.53,-1179.27 125,-1235.5 134.56,-1245.02 147.48,-1250.35 160.71,-1253.18"/>
<polygon fill="#63b8ff" stroke="#63b8ff" points="49.95,-842.99 45.94,-833.19 42.96,-843.35 49.95,-842.99"/>
</a>
</g>
</g>
<!-- Node13 -->
<g id="Node000013" class="node">
<title>Node13</title>
<g id="a_Node000013"><a xlink:href="class_equation_parameters.html" target="_top" xlink:title="The EquationParameters class stores parameters for the &#39;Add_equation&#39; XML element used to specify an ...">
<polygon fill="white" stroke="#666666" points="279,-1226 164,-1226 164,-1207 279,-1207 279,-1226"/>
<text text-anchor="middle" x="221.5" y="-1214" font-family="Helvetica,sans-Serif" font-size="10.00">EquationParameters</text>
</a>
</g>
</g>
<!-- Node0&#45;&gt;Node13 -->
<g id="edge21_Node000000_Node000013" class="edge">
<title>Node0&#45;&gt;Node13</title>
<g id="a_edge21_Node000000_Node000013"><a xlink:title=" ">
<path fill="none" stroke="#63b8ff" d="M46.85,-843.06C52.07,-912.82 73.27,-1147.93 125,-1198.5 135.38,-1208.64 149.56,-1214 163.82,-1216.65"/>
<polygon fill="#63b8ff" stroke="#63b8ff" points="50.33,-842.73 46.12,-833.01 43.35,-843.23 50.33,-842.73"/>
</a>
</g>
</g>
<!-- Node14 -->
<g id="Node000014" class="node">
<title>Node14</title>
<g id="a_Node000014"><a xlink:href="class_face_parameters.html" target="_top" xlink:title="The FaceParameters class is used to store parameters for the &#39;Add_face&#39; XML element.">
<polygon fill="white" stroke="#666666" points="268.5,-1189 174.5,-1189 174.5,-1170 268.5,-1170 268.5,-1189"/>
<text text-anchor="middle" x="221.5" y="-1177" font-family="Helvetica,sans-Serif" font-size="10.00">FaceParameters</text>
</a>
</g>
</g>
<!-- Node0&#45;&gt;Node14 -->
<g id="edge22_Node000000_Node000014" class="edge">
<title>Node0&#45;&gt;Node14</title>
<g id="a_edge22_Node000000_Node000014"><a xlink:title=" ">
<path fill="none" stroke="#63b8ff" d="M47.38,-843.13C54.01,-908.26 78.49,-1115.6 125,-1160.5 138.01,-1173.06 156.83,-1178.44 174.33,-1180.45"/>
<polygon fill="#63b8ff" stroke="#63b8ff" points="50.84,-842.61 46.38,-833 43.88,-843.3 50.84,-842.61"/>
</a>
</g>
</g>
<!-- Node15 -->
<g id="Node000015" class="node">
<title>Node15</title>
<g id="a_Node000015"><a xlink:href="class_fiber_reinforcement_stress_parameters.html" target="_top" xlink:title="The FiberReinforcementStressParameters class stores fiber reinforcement stress parameters for the &#39;Fi...">
<polygon fill="white" stroke="#666666" points="293,-1151.5 150,-1151.5 150,-1121.5 293,-1121.5 293,-1151.5"/>
<text text-anchor="start" x="158" y="-1139.5" font-family="Helvetica,sans-Serif" font-size="10.00">FiberReinforcementStress</text>
<text text-anchor="middle" x="221.5" y="-1128.5" font-family="Helvetica,sans-Serif" font-size="10.00">Parameters</text>
</a>
</g>
</g>
<!-- Node0&#45;&gt;Node15 -->
<g id="edge23_Node000000_Node000015" class="edge">
<title>Node0&#45;&gt;Node15</title>
<g id="a_edge23_Node000000_Node000015"><a xlink:title=" ">
<path fill="none" stroke="#63b8ff" d="M44.65,-843.39C43.57,-895.55 48.22,-1037.41 125,-1112.5 131.97,-1119.31 140.57,-1124.28 149.72,-1127.89"/>
<polygon fill="#63b8ff" stroke="#63b8ff" points="48.15,-843.27 44.96,-833.16 41.16,-843.05 48.15,-843.27"/>
</a>
</g>
</g>
<!-- Node16 -->
<g id="Node000016" class="node">
<title>Node16</title>
<g id="a_Node000016"><a xlink:href="class_fluid_viscosity_carreau_yasuda_parameters.html" target="_top" xlink:title=" ">
<polygon fill="white" stroke="#666666" points="300,-1103.5 143,-1103.5 143,-1073.5 300,-1073.5 300,-1103.5"/>
<text text-anchor="start" x="151" y="-1091.5" font-family="Helvetica,sans-Serif" font-size="10.00">FluidViscosityCarreauYasuda</text>
<text text-anchor="middle" x="221.5" y="-1080.5" font-family="Helvetica,sans-Serif" font-size="10.00">Parameters</text>
</a>
</g>
</g>
<!-- Node0&#45;&gt;Node16 -->
<g id="edge24_Node000000_Node000016" class="edge">
<title>Node0&#45;&gt;Node16</title>
<g id="a_edge24_Node000000_Node000016"><a xlink:title=" ">
<path fill="none" stroke="#63b8ff" d="M45.92,-843.13C48.02,-889 59.87,-1003.92 125,-1064.5 130.26,-1069.39 136.36,-1073.32 142.89,-1076.48"/>
<polygon fill="#63b8ff" stroke="#63b8ff" points="49.42,-842.9 45.57,-833.03 42.42,-843.14 49.42,-842.9"/>
</a>
</g>
</g>
<!-- Node17 -->
<g id="Node000017" class="node">
<title>Node17</title>
<g id="a_Node000017"><a xlink:href="class_fluid_viscosity_cassons_parameters.html" target="_top" xlink:title=" ">
<polygon fill="white" stroke="#666666" points="312,-1055 131,-1055 131,-1036 312,-1036 312,-1055"/>
<text text-anchor="middle" x="221.5" y="-1043" font-family="Helvetica,sans-Serif" font-size="10.00">FluidViscosityCassonsParameters</text>
</a>
</g>
</g>
<!-- Node0&#45;&gt;Node17 -->
<g id="edge25_Node000000_Node000017" class="edge">
<title>Node0&#45;&gt;Node17</title>
<g id="a_edge25_Node000000_Node000017"><a xlink:title=" ">
<path fill="none" stroke="#63b8ff" d="M47.01,-843.12C51.29,-884.23 67.25,-979.57 125,-1027.5 129.02,-1030.84 133.47,-1033.64 138.19,-1035.97"/>
<polygon fill="#63b8ff" stroke="#63b8ff" points="50.49,-842.68 46.09,-833.04 43.52,-843.32 50.49,-842.68"/>
</a>
</g>
</g>
<!-- Node18 -->
<g id="Node000018" class="node">
<title>Node18</title>
<g id="a_Node000018"><a xlink:href="class_fluid_viscosity_newtonian_parameters.html" target="_top" xlink:title=" ">
<polygon fill="white" stroke="#666666" points="318,-1018 125,-1018 125,-999 318,-999 318,-1018"/>
<text text-anchor="middle" x="221.5" y="-1006" font-family="Helvetica,sans-Serif" font-size="10.00">FluidViscosityNewtonianParameters</text>
</a>
</g>
</g>
<!-- Node0&#45;&gt;Node18 -->
<g id="edge26_Node000000_Node000018" class="edge">
<title>Node0&#45;&gt;Node18</title>
<g id="a_edge26_Node000000_Node000018"><a xlink:title=" ">
<path fill="none" stroke="#63b8ff" d="M48.94,-843.43C56.2,-879 76.57,-953.19 125,-990.5 129.28,-993.79 133.98,-996.55 138.93,-998.84"/>
<polygon fill="#63b8ff" stroke="#63b8ff" points="52.33,-842.51 47.03,-833.33 45.45,-843.81 52.33,-842.51"/>
</a>
</g>
</g>
<!-- Node19 -->
<g id="Node000019" class="node">
<title>Node19</title>
<g id="a_Node000019"><a xlink:href="class_fluid_viscosity_parameters.html" target="_top" xlink:title=" ">
<polygon fill="white" stroke="#666666" points="291.5,-981 151.5,-981 151.5,-962 291.5,-962 291.5,-981"/>
<text text-anchor="middle" x="221.5" y="-969" font-family="Helvetica,sans-Serif" font-size="10.00">FluidViscosityParameters</text>
</a>
</g>
</g>
<!-- Node0&#45;&gt;Node19 -->
<g id="edge27_Node000000_Node000019" class="edge">
<title>Node0&#45;&gt;Node19</title>
<g id="a_edge27_Node000000_Node000019"><a xlink:title=" ">
<path fill="none" stroke="#63b8ff" d="M51.69,-843.06C61.97,-872.11 85.42,-926.18 125,-953.5 132.91,-958.96 142.04,-962.89 151.44,-965.68"/>
<polygon fill="#63b8ff" stroke="#63b8ff" points="54.9,-841.62 48.39,-833.25 48.27,-843.85 54.9,-841.62"/>
</a>
</g>
</g>
<!-- Node20 -->
<g id="Node000020" class="node">
<title>Node20</title>
<g id="a_Node000020"><a xlink:href="class_general_simulation_parameters.html" target="_top" xlink:title="The GeneralSimulationParameters class stores paramaters for the &#39;GeneralSimulationParameters&#39; XML ele...">
<polygon fill="white" stroke="#666666" points="303,-944 140,-944 140,-925 303,-925 303,-944"/>
<text text-anchor="middle" x="221.5" y="-932" font-family="Helvetica,sans-Serif" font-size="10.00">GeneralSimulationParameters</text>
</a>
</g>
</g>
<!-- Node0&#45;&gt;Node20 -->
<g id="edge28_Node000000_Node000020" class="edge">
<title>Node0&#45;&gt;Node20</title>
<g id="a_edge28_Node000000_Node000020"><a xlink:title=" ">
<path fill="none" stroke="#63b8ff" d="M56.02,-842.15C69.21,-863.7 93.92,-898.5 125,-916.5 130.84,-919.88 137.19,-922.65 143.74,-924.9"/>
<polygon fill="#63b8ff" stroke="#63b8ff" points="58.88,-840.12 50.78,-833.29 52.86,-843.68 58.88,-840.12"/>
</a>
</g>
</g>
<!-- Node21 -->
<g id="Node000021" class="node">
<title>Node21</title>
<g id="a_Node000021"><a xlink:href="class_guccione_parameters.html" target="_top" xlink:title=" ">
<polygon fill="white" stroke="#666666" points="280,-907 163,-907 163,-888 280,-888 280,-907"/>
<text text-anchor="middle" x="221.5" y="-895" font-family="Helvetica,sans-Serif" font-size="10.00">GuccioneParameters</text>
</a>
</g>
</g>
<!-- Node0&#45;&gt;Node21 -->
<g id="edge29_Node000000_Node000021" class="edge">
<title>Node0&#45;&gt;Node21</title>
<g id="a_edge29_Node000000_Node000021"><a xlink:title=" ">
<path fill="none" stroke="#63b8ff" d="M63.57,-839.67C78.86,-852.46 101.91,-869.74 125,-879.5 136.81,-884.49 150.03,-888.11 162.77,-890.72"/>
<polygon fill="#63b8ff" stroke="#63b8ff" points="65.79,-836.96 55.92,-833.1 61.23,-842.27 65.79,-836.96"/>
</a>
</g>
</g>
<!-- Node22 -->
<g id="Node000022" class="node">
<title>Node22</title>
<g id="a_Node000022"><a xlink:href="class_holzapfel_gasser_ogden_parameters.html" target="_top" xlink:title=" ">
<polygon fill="white" stroke="#666666" points="313.5,-870 129.5,-870 129.5,-851 313.5,-851 313.5,-870"/>
<text text-anchor="middle" x="221.5" y="-858" font-family="Helvetica,sans-Serif" font-size="10.00">HolzapfelGasserOgdenParameters</text>
</a>
</g>
</g>
<!-- Node0&#45;&gt;Node22 -->
<g id="edge30_Node000000_Node000022" class="edge">
<title>Node0&#45;&gt;Node22</title>
<g id="a_edge30_Node000000_Node000022"><a xlink:title=" ">
<path fill="none" stroke="#63b8ff" d="M93.87,-835.45C104.13,-837.88 114.9,-840.34 125,-842.5 138.69,-845.43 153.55,-848.35 167.37,-850.96"/>
<polygon fill="#63b8ff" stroke="#63b8ff" points="94.37,-831.97 83.83,-833.06 92.74,-838.78 94.37,-831.97"/>
</a>
</g>
</g>
<!-- Node23 -->
<g id="Node000023" class="node">
<title>Node23</title>
<g id="a_Node000023"><a xlink:href="class_holzapfel_parameters.html" target="_top" xlink:title=" ">
<polygon fill="white" stroke="#666666" points="281,-833 162,-833 162,-814 281,-814 281,-833"/>
<text text-anchor="middle" x="221.5" y="-821" font-family="Helvetica,sans-Serif" font-size="10.00">HolzapfelParameters</text>
</a>
</g>
</g>
<!-- Node0&#45;&gt;Node23 -->
<g id="edge31_Node000000_Node000023" class="edge">
<title>Node0&#45;&gt;Node23</title>
<g id="a_edge31_Node000000_Node000023"><a xlink:title=" ">
<path fill="none" stroke="#63b8ff" d="M99.29,-823.5C119.1,-823.5 141.63,-823.5 161.85,-823.5"/>
<polygon fill="#63b8ff" stroke="#63b8ff" points="99.21,-820 89.21,-823.5 99.21,-827 99.21,-820"/>
</a>
</g>
</g>
<!-- Node24 -->
<g id="Node000024" class="node">
<title>Node24</title>
<g id="a_Node000024"><a xlink:href="class_ionic_initial_state_parameters.html" target="_top" xlink:title="Generic ionic model initial conditions parameters.">
<polygon fill="white" stroke="#666666" points="296,-796 147,-796 147,-777 296,-777 296,-796"/>
<text text-anchor="middle" x="221.5" y="-784" font-family="Helvetica,sans-Serif" font-size="10.00">IonicInitialStateParameters</text>
</a>
</g>
</g>
<!-- Node0&#45;&gt;Node24 -->
<g id="edge32_Node000000_Node000024" class="edge">
<title>Node0&#45;&gt;Node24</title>
<g id="a_edge32_Node000000_Node000024"><a xlink:title=" ">
<path fill="none" stroke="#63b8ff" d="M96.74,-811.69C106.13,-809.59 115.85,-807.45 125,-805.5 140.05,-802.3 156.46,-798.97 171.37,-796.02"/>
<polygon fill="#63b8ff" stroke="#63b8ff" points="95.7,-808.34 86.72,-813.95 97.24,-815.17 95.7,-808.34"/>
</a>
</g>
</g>
<!-- Node25 -->
<g id="Node000025" class="node">
<title>Node25</title>
<g id="a_Node000025"><a xlink:href="class_ionic_model_parameters.html" target="_top" xlink:title="Initial conditions parameters for a generic ionic model.">
<polygon fill="white" stroke="#666666" points="284,-759 159,-759 159,-740 284,-740 284,-759"/>
<text text-anchor="middle" x="221.5" y="-747" font-family="Helvetica,sans-Serif" font-size="10.00">IonicModelParameters</text>
</a>
</g>
</g>
<!-- Node0&#45;&gt;Node25 -->
<g id="edge33_Node000000_Node000025" class="edge">
<title>Node0&#45;&gt;Node25</title>
<g id="a_edge33_Node000000_Node000025"><a xlink:title=" ">
<path fill="none" stroke="#63b8ff" d="M63.91,-807.48C79.24,-794.98 102.18,-778.17 125,-768.5 135.58,-764.02 147.28,-760.57 158.76,-757.93"/>
<polygon fill="#63b8ff" stroke="#63b8ff" points="61.64,-804.81 56.22,-813.91 66.14,-810.18 61.64,-804.81"/>
</a>
</g>
</g>
<!-- Node30 -->
<g id="Node000030" class="node">
<title>Node30</title>
<g id="a_Node000030"><a xlink:href="class_lee_sacks_parameters.html" target="_top" xlink:title=" ">
<polygon fill="white" stroke="#666666" points="280.5,-722 162.5,-722 162.5,-703 280.5,-703 280.5,-722"/>
<text text-anchor="middle" x="221.5" y="-710" font-family="Helvetica,sans-Serif" font-size="10.00">LeeSacksParameters</text>
</a>
</g>
</g>
<!-- Node0&#45;&gt;Node30 -->
<g id="edge38_Node000000_Node000030" class="edge">
<title>Node0&#45;&gt;Node30</title>
<g id="a_edge38_Node000000_Node000030"><a xlink:title=" ">
<path fill="none" stroke="#63b8ff" d="M56.1,-805.1C69.37,-783.84 94.15,-749.46 125,-731.5 136.32,-724.91 149.54,-720.57 162.47,-717.72"/>
<polygon fill="#63b8ff" stroke="#63b8ff" points="52.99,-803.47 50.83,-813.85 58.99,-807.09 52.99,-803.47"/>
</a>
</g>
</g>
<!-- Node31 -->
<g id="Node000031" class="node">
<title>Node31</title>
<g id="a_Node000031"><a xlink:href="class_linear_algebra_parameters.html" target="_top" xlink:title="The LinearAlgebraParameters class stores parameters for the &#39;Linear_algebra&#39; XML element.">
<polygon fill="white" stroke="#666666" points="291.5,-685 151.5,-685 151.5,-666 291.5,-666 291.5,-685"/>
<text text-anchor="middle" x="221.5" y="-673" font-family="Helvetica,sans-Serif" font-size="10.00">LinearAlgebraParameters</text>
</a>
</g>
</g>
<!-- Node0&#45;&gt;Node31 -->
<g id="edge39_Node000000_Node000031" class="edge">
<title>Node0&#45;&gt;Node31</title>
<g id="a_edge39_Node000000_Node000031"><a xlink:title=" ">
<path fill="none" stroke="#63b8ff" d="M51.69,-803.94C61.97,-774.89 85.42,-720.82 125,-693.5 132.91,-688.04 142.04,-684.11 151.44,-681.32"/>
<polygon fill="#63b8ff" stroke="#63b8ff" points="48.27,-803.15 48.39,-813.75 54.9,-805.38 48.27,-803.15"/>
</a>
</g>
</g>
<!-- Node32 -->
<g id="Node000032" class="node">
<title>Node32</title>
<g id="a_Node000032"><a xlink:href="class_linear_solver_parameters.html" target="_top" xlink:title="The LinearSolverParameters class stores parameters for the &#39;LS&#39; XML element.">
<polygon fill="white" stroke="#666666" points="288,-648 155,-648 155,-629 288,-629 288,-648"/>
<text text-anchor="middle" x="221.5" y="-636" font-family="Helvetica,sans-Serif" font-size="10.00">LinearSolverParameters</text>
</a>
</g>
</g>
<!-- Node0&#45;&gt;Node32 -->
<g id="edge40_Node000000_Node000032" class="edge">
<title>Node0&#45;&gt;Node32</title>
<g id="a_edge40_Node000000_Node000032"><a xlink:title=" ">
<path fill="none" stroke="#63b8ff" d="M48.94,-803.57C56.2,-768 76.57,-693.81 125,-656.5 133.69,-649.81 144.12,-645.35 154.85,-642.43"/>
<polygon fill="#63b8ff" stroke="#63b8ff" points="45.45,-803.19 47.03,-813.67 52.33,-804.49 45.45,-803.19"/>
</a>
</g>
</g>
<!-- Node33 -->
<g id="Node000033" class="node">
<title>Node33</title>
<g id="a_Node000033"><a xlink:href="class_mesh_parameters.html" target="_top" xlink:title="The MeshParameters class is used to store paramaters for the &#39;Add_mesh&#39; XML element.">
<polygon fill="white" stroke="#666666" points="270.5,-611 172.5,-611 172.5,-592 270.5,-592 270.5,-611"/>
<text text-anchor="middle" x="221.5" y="-599" font-family="Helvetica,sans-Serif" font-size="10.00">MeshParameters</text>
</a>
</g>
</g>
<!-- Node0&#45;&gt;Node33 -->
<g id="edge41_Node000000_Node000033" class="edge">
<title>Node0&#45;&gt;Node33</title>
<g id="a_edge41_Node000000_Node000033"><a xlink:title=" ">
<path fill="none" stroke="#63b8ff" d="M47.01,-803.88C51.29,-762.77 67.25,-667.43 125,-619.5 138.11,-608.62 155.74,-603.52 172.29,-601.34"/>
<polygon fill="#63b8ff" stroke="#63b8ff" points="43.52,-803.68 46.09,-813.96 50.49,-804.32 43.52,-803.68"/>
</a>
</g>
</g>
<!-- Node34 -->
<g id="Node000034" class="node">
<title>Node34</title>
<g id="a_Node000034"><a xlink:href="class_mooney_rivlin_parameters.html" target="_top" xlink:title=" ">
<polygon fill="white" stroke="#666666" points="291,-574 152,-574 152,-555 291,-555 291,-574"/>
<text text-anchor="middle" x="221.5" y="-562" font-family="Helvetica,sans-Serif" font-size="10.00">MooneyRivlinParameters</text>
</a>
</g>
</g>
<!-- Node0&#45;&gt;Node34 -->
<g id="edge42_Node000000_Node000034" class="edge">
<title>Node0&#45;&gt;Node34</title>
<g id="a_edge42_Node000000_Node000034"><a xlink:title=" ">
<path fill="none" stroke="#63b8ff" d="M45.68,-803.61C47.27,-757.16 58.08,-641.1 125,-582.5 132.62,-575.83 141.91,-571.3 151.67,-568.27"/>
<polygon fill="#63b8ff" stroke="#63b8ff" points="42.18,-803.76 45.45,-813.84 49.18,-803.92 42.18,-803.76"/>
</a>
</g>
</g>
<!-- Node35 -->
<g id="Node000035" class="node">
<title>Node35</title>
<g id="a_Node000035"><a xlink:href="class_neo_hookean_parameters.html" target="_top" xlink:title=" ">
<polygon fill="white" stroke="#666666" points="288.5,-537 154.5,-537 154.5,-518 288.5,-518 288.5,-537"/>
<text text-anchor="middle" x="221.5" y="-525" font-family="Helvetica,sans-Serif" font-size="10.00">NeoHookeanParameters</text>
</a>
</g>
</g>
<!-- Node0&#45;&gt;Node35 -->
<g id="edge43_Node000000_Node000035" class="edge">
<title>Node0&#45;&gt;Node35</title>
<g id="a_edge43_Node000000_Node000035"><a xlink:title=" ">
<path fill="none" stroke="#63b8ff" d="M44.67,-803.75C43.68,-752.63 48.61,-615.15 125,-545.5 133.23,-538 143.56,-533.17 154.37,-530.13"/>
<polygon fill="#63b8ff" stroke="#63b8ff" points="41.17,-803.9 44.97,-813.8 48.17,-803.7 41.17,-803.9"/>
</a>
</g>
</g>
<!-- Node36 -->
<g id="Node000036" class="node">
<title>Node36</title>
<g id="a_Node000036"><a xlink:href="class_output_parameters.html" target="_top" xlink:title="The OutputParameters class stores parameters for the Output XML element under Add_equation.">
<polygon fill="white" stroke="#666666" points="274,-500 169,-500 169,-481 274,-481 274,-500"/>
<text text-anchor="middle" x="221.5" y="-488" font-family="Helvetica,sans-Serif" font-size="10.00">OutputParameters</text>
</a>
</g>
</g>
<!-- Node0&#45;&gt;Node36 -->
<g id="edge44_Node000000_Node000036" class="edge">
<title>Node0&#45;&gt;Node36</title>
<g id="a_edge44_Node000000_Node000036"><a xlink:title=" ">
<path fill="none" stroke="#63b8ff" d="M47.7,-803.92C55.1,-741.65 81.11,-549.8 125,-508.5 136.67,-497.52 152.83,-492.21 168.54,-489.87"/>
<polygon fill="#63b8ff" stroke="#63b8ff" points="44.21,-803.64 46.53,-813.98 51.16,-804.45 44.21,-803.64"/>
</a>
</g>
</g>
<!-- Node37 -->
<g id="Node000037" class="node">
<title>Node37</title>
<g id="a_Node000037"><a xlink:href="class_precomputed_solution_parameters.html" target="_top" xlink:title="The PrecomputedSolutionParameters class stores parameters for the &#39;Precomputed_solution&#39; XML element ...">
<polygon fill="white" stroke="#666666" points="309.5,-463 133.5,-463 133.5,-444 309.5,-444 309.5,-463"/>
<text text-anchor="middle" x="221.5" y="-451" font-family="Helvetica,sans-Serif" font-size="10.00">PrecomputedSolutionParameters</text>
</a>
</g>
</g>
<!-- Node0&#45;&gt;Node37 -->
<g id="edge45_Node000000_Node000037" class="edge">
<title>Node0&#45;&gt;Node37</title>
<g id="a_edge45_Node000000_Node000037"><a xlink:title=" ">
<path fill="none" stroke="#63b8ff" d="M47.15,-803.85C53.19,-736.78 76.31,-518.48 125,-471.5 128.4,-468.22 132.2,-465.44 136.27,-463.1"/>
<polygon fill="#63b8ff" stroke="#63b8ff" points="43.65,-803.64 46.27,-813.91 50.63,-804.25 43.65,-803.64"/>
</a>
</g>
</g>
<!-- Node38 -->
<g id="Node000038" class="node">
<title>Node38</title>
<g id="a_Node000038"><a xlink:href="class_projection_parameters.html" target="_top" xlink:title="The ProjectionParameters class stores parameters for the &#39;Add_projection&#39; XML element used for fluid&#45;...">
<polygon fill="white" stroke="#666666" points="282,-426 161,-426 161,-407 282,-407 282,-426"/>
<text text-anchor="middle" x="221.5" y="-414" font-family="Helvetica,sans-Serif" font-size="10.00">ProjectionParameters</text>
</a>
</g>
</g>
<!-- Node0&#45;&gt;Node38 -->
<g id="edge46_Node000000_Node000038" class="edge">
<title>Node0&#45;&gt;Node38</title>
<g id="a_edge46_Node000000_Node000038"><a xlink:title=" ">
<path fill="none" stroke="#63b8ff" d="M46.7,-803.69C51.48,-731.95 71.5,-487.19 125,-434.5 134.62,-425.03 147.55,-419.72 160.79,-416.9"/>
<polygon fill="#63b8ff" stroke="#63b8ff" points="43.19,-803.8 46.05,-814 50.18,-804.24 43.19,-803.8"/>
</a>
</g>
</g>
<!-- Node39 -->
<g id="Node000039" class="node">
<title>Node39</title>
<g id="a_Node000039"><a xlink:href="class_r_i_s_projection_parameters.html" target="_top" xlink:title="The RISProjectionParameters class stores parameters for the &#39;Add_RIS_projection&#39; XML element used for...">
<polygon fill="white" stroke="#666666" points="290,-389 153,-389 153,-370 290,-370 290,-389"/>
<text text-anchor="middle" x="221.5" y="-377" font-family="Helvetica,sans-Serif" font-size="10.00">RISProjectionParameters</text>
</a>
</g>
</g>
<!-- Node0&#45;&gt;Node39 -->
<g id="edge47_Node000000_Node000039" class="edge">
<title>Node0&#45;&gt;Node39</title>
<g id="a_edge47_Node000000_Node000039"><a xlink:title=" ">
<path fill="none" stroke="#63b8ff" d="M46.32,-803.78C49.89,-727.89 66.61,-456 125,-397.5 132.63,-389.86 142.41,-384.91 152.79,-381.79"/>
<polygon fill="#63b8ff" stroke="#63b8ff" points="42.82,-803.72 45.87,-813.87 49.81,-804.03 42.82,-803.72"/>
</a>
</g>
</g>
<!-- Node40 -->
<g id="Node000040" class="node">
<title>Node40</title>
<g id="a_Node000040"><a xlink:href="class_remesher_parameters.html" target="_top" xlink:title="The RemesherParameters class stores parameters for the &#39;Remesher&#39; XML element used for remeshing.">
<polygon fill="white" stroke="#666666" points="282.5,-352 160.5,-352 160.5,-333 282.5,-333 282.5,-352"/>
<text text-anchor="middle" x="221.5" y="-340" font-family="Helvetica,sans-Serif" font-size="10.00">RemesherParameters</text>
</a>
</g>
</g>
<!-- Node0&#45;&gt;Node40 -->
<g id="edge48_Node000000_Node000040" class="edge">
<title>Node0&#45;&gt;Node40</title>
<g id="a_edge48_Node000000_Node000040"><a xlink:title=" ">
<path fill="none" stroke="#63b8ff" d="M46,-803.64C48.45,-723.46 61.76,-424.78 125,-360.5 134.35,-351 147.02,-345.65 160.08,-342.79"/>
<polygon fill="#63b8ff" stroke="#63b8ff" points="42.5,-803.74 45.72,-813.83 49.5,-803.94 42.5,-803.74"/>
</a>
</g>
</g>
<!-- Node41 -->
<g id="Node000041" class="node">
<title>Node41</title>
<g id="a_Node000041"><a xlink:href="class_solid_viscosity_newtonian_parameters.html" target="_top" xlink:title=" ">
<polygon fill="white" stroke="#666666" points="318,-315 125,-315 125,-296 318,-296 318,-315"/>
<text text-anchor="middle" x="221.5" y="-303" font-family="Helvetica,sans-Serif" font-size="10.00">SolidViscosityNewtonianParameters</text>
</a>
</g>
</g>
<!-- Node0&#45;&gt;Node41 -->
<g id="edge49_Node000000_Node000041" class="edge">
<title>Node0&#45;&gt;Node41</title>
<g id="a_edge49_Node000000_Node000041"><a xlink:title=" ">
<path fill="none" stroke="#63b8ff" d="M45.73,-803.69C47.11,-719.65 56.84,-393.64 125,-323.5 128.17,-320.23 131.74,-317.46 135.58,-315.1"/>
<polygon fill="#63b8ff" stroke="#63b8ff" points="42.22,-803.85 45.58,-813.9 49.22,-803.95 42.22,-803.85"/>
</a>
</g>
</g>
<!-- Node42 -->
<g id="Node000042" class="node">
<title>Node42</title>
<g id="a_Node000042"><a xlink:href="class_solid_viscosity_parameters.html" target="_top" xlink:title=" ">
<polygon fill="white" stroke="#666666" points="291.5,-278 151.5,-278 151.5,-259 291.5,-259 291.5,-278"/>
<text text-anchor="middle" x="221.5" y="-266" font-family="Helvetica,sans-Serif" font-size="10.00">SolidViscosityParameters</text>
</a>
</g>
</g>
<!-- Node0&#45;&gt;Node42 -->
<g id="edge50_Node000000_Node000042" class="edge">
<title>Node0&#45;&gt;Node42</title>
<g id="a_edge50_Node000000_Node000042"><a xlink:title=" ">
<path fill="none" stroke="#63b8ff" d="M45.49,-803.36C45.87,-714.98 52.02,-362.41 125,-286.5 132.13,-279.08 141.29,-274.18 151.1,-271.01"/>
<polygon fill="#63b8ff" stroke="#63b8ff" points="41.99,-803.62 45.47,-813.62 48.99,-803.63 41.99,-803.62"/>
</a>
</g>
</g>
<!-- Node43 -->
<g id="Node000043" class="node">
<title>Node43</title>
<g id="a_Node000043"><a xlink:href="class_solid_viscosity_potential_parameters.html" target="_top" xlink:title=" ">
<polygon fill="white" stroke="#666666" points="313.5,-241 129.5,-241 129.5,-222 313.5,-222 313.5,-241"/>
<text text-anchor="middle" x="221.5" y="-229" font-family="Helvetica,sans-Serif" font-size="10.00">SolidViscosityPotentialParameters</text>
</a>
</g>
</g>
<!-- Node0&#45;&gt;Node43 -->
<g id="edge51_Node000000_Node000043" class="edge">
<title>Node0&#45;&gt;Node43</title>
<g id="a_edge51_Node000000_Node000043"><a xlink:title=" ">
<path fill="none" stroke="#63b8ff" d="M45.28,-803.75C44.69,-712.35 46.98,-331.41 125,-249.5 128.14,-246.2 131.68,-243.4 135.5,-241.02"/>
<polygon fill="#63b8ff" stroke="#63b8ff" points="41.78,-803.87 45.37,-813.84 48.78,-803.81 41.78,-803.87"/>
</a>
</g>
</g>
<!-- Node44 -->
<g id="Node000044" class="node">
<title>Node44</title>
<g id="a_Node000044"><a xlink:href="class_st_venant_kirchhoff_parameters.html" target="_top" xlink:title=" ">
<polygon fill="white" stroke="#666666" points="301,-204 142,-204 142,-185 301,-185 301,-204"/>
<text text-anchor="middle" x="221.5" y="-192" font-family="Helvetica,sans-Serif" font-size="10.00">StVenantKirchhoffParameters</text>
</a>
</g>
</g>
<!-- Node0&#45;&gt;Node44 -->
<g id="edge52_Node000000_Node000044" class="edge">
<title>Node0&#45;&gt;Node44</title>
<g id="a_edge52_Node000000_Node000044"><a xlink:title=" ">
<path fill="none" stroke="#63b8ff" d="M45.09,-803.4C43.58,-707.8 42.14,-300.21 125,-212.5 129.75,-207.47 135.43,-203.59 141.62,-200.62"/>
<polygon fill="#63b8ff" stroke="#63b8ff" points="41.6,-803.75 45.27,-813.68 48.6,-803.62 41.6,-803.75"/>
</a>
</g>
</g>
<!-- Node45 -->
<g id="Node000045" class="node">
<title>Node45</title>
<g id="a_Node000045"><a xlink:href="class_stimulus_parameters.html" target="_top" xlink:title="The StimulusParameters class stores parameters for &#39;Stimulus&#39; XML element used to parameters for pace...">
<polygon fill="white" stroke="#666666" points="279,-167 164,-167 164,-148 279,-148 279,-167"/>
<text text-anchor="middle" x="221.5" y="-155" font-family="Helvetica,sans-Serif" font-size="10.00">StimulusParameters</text>
</a>
</g>
</g>
<!-- Node0&#45;&gt;Node45 -->
<g id="edge53_Node000000_Node000045" class="edge">
<title>Node0&#45;&gt;Node45</title>
<g id="a_edge53_Node000000_Node000045"><a xlink:title=" ">
<path fill="none" stroke="#63b8ff" d="M46.56,-803.57C52.28,-699.62 80.82,-222.62 125,-175.5 135.04,-164.79 149.29,-159.28 163.72,-156.68"/>
<polygon fill="#63b8ff" stroke="#63b8ff" points="43.06,-803.47 46.02,-813.64 50.05,-803.85 43.06,-803.47"/>
</a>
</g>
</g>
<!-- Node46 -->
<g id="Node000046" class="node">
<title>Node46</title>
<g id="a_Node000046"><a xlink:href="class_u_r_i_s_face_parameters.html" target="_top" xlink:title="The URISFaceParameters class is used to store parameters for the &#39;Add_URIS_face&#39; XML element.">
<polygon fill="white" stroke="#666666" points="280,-130 163,-130 163,-111 280,-111 280,-130"/>
<text text-anchor="middle" x="221.5" y="-118" font-family="Helvetica,sans-Serif" font-size="10.00">URISFaceParameters</text>
</a>
</g>
</g>
<!-- Node0&#45;&gt;Node46 -->
<g id="edge54_Node000000_Node000046" class="edge">
<title>Node0&#45;&gt;Node46</title>
<g id="a_edge54_Node000000_Node000046"><a xlink:title=" ">
<path fill="none" stroke="#63b8ff" d="M46.41,-803.79C51.55,-696.8 78.3,-188.63 125,-138.5 134.78,-128.01 148.59,-122.5 162.68,-119.82"/>
<polygon fill="#63b8ff" stroke="#63b8ff" points="42.91,-803.7 45.94,-813.85 49.91,-804.03 42.91,-803.7"/>
</a>
</g>
</g>
<!-- Node47 -->
<g id="Node000047" class="node">
<title>Node47</title>
<g id="a_Node000047"><a xlink:href="class_u_r_i_s_mesh_parameters.html" target="_top" xlink:title="The URISMeshParameters class is used to store paramaters for the &#39;Add_URIS_mesh&#39; XML element.">
<polygon fill="white" stroke="#666666" points="282.5,-93 160.5,-93 160.5,-74 282.5,-74 282.5,-93"/>
<text text-anchor="middle" x="221.5" y="-81" font-family="Helvetica,sans-Serif" font-size="10.00">URISMeshParameters</text>
</a>
</g>
</g>
<!-- Node0&#45;&gt;Node47 -->
<g id="edge55_Node000000_Node000047" class="edge">
<title>Node0&#45;&gt;Node47</title>
<g id="a_edge55_Node000000_Node000047"><a xlink:title=" ">
<path fill="none" stroke="#63b8ff" d="M46.29,-803.78C50.9,-693.33 75.81,-154.61 125,-101.5 134.17,-91.6 146.94,-86.13 160.15,-83.28"/>
<polygon fill="#63b8ff" stroke="#63b8ff" points="42.79,-803.72 45.88,-813.85 49.79,-804.01 42.79,-803.72"/>
</a>
</g>
</g>
<!-- Node48 -->
<g id="Node000048" class="node">
<title>Node48</title>
<g id="a_Node000048"><a xlink:href="class_variable_wall_props_parameters.html" target="_top" xlink:title="The VariableWallPropsParameters class stores parameters for variable wall properties for the CMM equa...">
<polygon fill="white" stroke="#666666" points="301.5,-56 141.5,-56 141.5,-37 301.5,-37 301.5,-56"/>
<text text-anchor="middle" x="221.5" y="-44" font-family="Helvetica,sans-Serif" font-size="10.00">VariableWallPropsParameters</text>
</a>
</g>
</g>
<!-- Node0&#45;&gt;Node48 -->
<g id="edge56_Node000000_Node000048" class="edge">
<title>Node0&#45;&gt;Node48</title>
<g id="a_edge56_Node000000_Node000048"><a xlink:title=" ">
<path fill="none" stroke="#63b8ff" d="M46.18,-803.84C50.28,-690.22 73.31,-120.61 125,-64.5 129.69,-59.41 135.32,-55.49 141.48,-52.5"/>
<polygon fill="#63b8ff" stroke="#63b8ff" points="42.68,-803.78 45.82,-813.9 49.67,-804.03 42.68,-803.78"/>
</a>
</g>
</g>
<!-- Node49 -->
<g id="Node000049" class="node">
<title>Node49</title>
<g id="a_Node000049"><a xlink:href="classsv_zero_d_solver_interface_parameters.html" target="_top" xlink:title=" ">
<polygon fill="white" stroke="#666666" points="315.5,-19 127.5,-19 127.5,0 315.5,0 315.5,-19"/>
<text text-anchor="middle" x="221.5" y="-7" font-family="Helvetica,sans-Serif" font-size="10.00">svZeroDSolverInterfaceParameters</text>
</a>
</g>
</g>
<!-- Node0&#45;&gt;Node49 -->
<g id="edge57_Node000000_Node000049" class="edge">
<title>Node0&#45;&gt;Node49</title>
<g id="a_edge57_Node000000_Node000049"><a xlink:title=" ">
<path fill="none" stroke="#63b8ff" d="M46.08,-803.63C49.72,-686.25 70.84,-86.57 125,-27.5 127.96,-24.27 131.31,-21.5 134.93,-19.15"/>
<polygon fill="#63b8ff" stroke="#63b8ff" points="42.58,-803.88 45.77,-813.98 49.57,-804.09 42.58,-803.88"/>
</a>
</g>
</g>
<!-- Node26 -->
<g id="Node000026" class="node">
<title>Node26</title>
<g id="a_Node000026"><a xlink:href="class_aliev_panfilov_1_1_parameters.html" target="_top" xlink:title="Model parameters class.">
<polygon fill="white" stroke="#666666" points="505,-815 365,-815 365,-796 505,-796 505,-815"/>
<text text-anchor="middle" x="435" y="-803" font-family="Helvetica,sans-Serif" font-size="10.00">AlievPanfilov::Parameters</text>
</a>
</g>
</g>
<!-- Node25&#45;&gt;Node26 -->
<g id="edge34_Node000025_Node000026" class="edge">
<title>Node25&#45;&gt;Node26</title>
<g id="a_edge34_Node000025_Node000026"><a xlink:title=" ">
<path fill="none" stroke="#63b8ff" d="M294.05,-761.37C302.22,-763.42 310.35,-765.79 318,-768.5 335.05,-774.55 337.03,-781.24 354,-787.5 362.95,-790.8 372.69,-793.61 382.2,-795.95"/>
<polygon fill="#63b8ff" stroke="#63b8ff" points="294.63,-757.91 284.09,-759.03 293.02,-764.73 294.63,-757.91"/>
</a>
</g>
</g>
<!-- Node27 -->
<g id="Node000027" class="node">
<title>Node27</title>
<g id="a_Node000027"><a xlink:href="class_bueno_orovio_1_1_parameters.html" target="_top" xlink:title="Model parameters class.">
<polygon fill="white" stroke="#666666" points="505.5,-778 364.5,-778 364.5,-759 505.5,-759 505.5,-778"/>
<text text-anchor="middle" x="435" y="-766" font-family="Helvetica,sans-Serif" font-size="10.00">BuenoOrovio::Parameters</text>
</a>
</g>
</g>
<!-- Node25&#45;&gt;Node27 -->
<g id="edge35_Node000025_Node000027" class="edge">
<title>Node25&#45;&gt;Node27</title>
<g id="a_edge35_Node000025_Node000027"><a xlink:title=" ">
<path fill="none" stroke="#63b8ff" d="M294.45,-755.96C317.04,-757.99 341.94,-760.23 364.38,-762.25"/>
<polygon fill="#63b8ff" stroke="#63b8ff" points="294.52,-752.46 284.24,-755.05 293.89,-759.43 294.52,-752.46"/>
</a>
</g>
</g>
<!-- Node28 -->
<g id="Node000028" class="node">
<title>Node28</title>
<g id="a_Node000028"><a xlink:href="class_fitz_hugh_nagumo_1_1_parameters.html" target="_top" xlink:title="Model parameters class.">
<polygon fill="white" stroke="#666666" points="516,-741 354,-741 354,-722 516,-722 516,-741"/>
<text text-anchor="middle" x="435" y="-729" font-family="Helvetica,sans-Serif" font-size="10.00">FitzHughNagumo::Parameters</text>
</a>
</g>
</g>
<!-- Node25&#45;&gt;Node28 -->
<g id="edge36_Node000025_Node000028" class="edge">
<title>Node25&#45;&gt;Node28</title>
<g id="a_edge36_Node000025_Node000028"><a xlink:title=" ">
<path fill="none" stroke="#63b8ff" d="M294.36,-743.38C313.44,-741.76 334.16,-740 353.67,-738.34"/>
<polygon fill="#63b8ff" stroke="#63b8ff" points="293.91,-739.91 284.24,-744.25 294.5,-746.88 293.91,-739.91"/>
</a>
</g>
</g>
<!-- Node29 -->
<g id="Node000029" class="node">
<title>Node29</title>
<g id="a_Node000029"><a xlink:href="class_t_t_p_1_1_parameters.html" target="_top" xlink:title="Model parameters class.">
<polygon fill="white" stroke="#666666" points="483,-704 387,-704 387,-685 483,-685 483,-704"/>
<text text-anchor="middle" x="435" y="-692" font-family="Helvetica,sans-Serif" font-size="10.00">TTP::Parameters</text>
</a>
</g>
</g>
<!-- Node25&#45;&gt;Node29 -->
<g id="edge37_Node000025_Node000029" class="edge">
<title>Node25&#45;&gt;Node29</title>
<g id="a_edge37_Node000025_Node000029"><a xlink:title=" ">
<path fill="none" stroke="#63b8ff" d="M294.05,-738.45C302.22,-736.47 310.36,-734.17 318,-731.5 335.08,-725.54 337.03,-718.76 354,-712.5 364.42,-708.66 375.91,-705.48 386.86,-702.93"/>
<polygon fill="#63b8ff" stroke="#63b8ff" points="293.08,-735.08 284.09,-740.7 294.62,-741.91 293.08,-735.08"/>
</a>
</g>
</g>
</g>
</svg>
