<?xml version="1.0" encoding="UTF-8" standalone="no"?>
<!DOCTYPE svg PUBLIC "-//W3C//DTD SVG 1.1//EN"
 "http://www.w3.org/Graphics/SVG/1.1/DTD/svg11.dtd">
<!-- Generated by graphviz version 2.43.0 (0)
 -->
<!-- Title: Graphical Class Hierarchy Pages: 1 -->
<svg width="987pt" height="1345pt"
 viewBox="0.00 0.00 987.00 1344.50" xmlns="http://www.w3.org/2000/svg" xmlns:xlink="http://www.w3.org/1999/xlink">
<g id="graph0" class="graph" transform="scale(1 1) rotate(0) translate(4 1340.5)">
<title>Graphical Class Hierarchy</title>
<!-- Node0 -->
<g id="Node000000" class="node">
<title>Node0</title>
<g id="a_Node000000"><a xlink:title=" ">
<polygon fill="#e0e0e0" stroke="#999999" points="86,-687.5 0,-687.5 0,-668.5 86,-668.5 86,-687.5"/>
<text text-anchor="middle" x="43" y="-675.5" font-family="Helvetica,sans-Serif" font-size="10.00">std::exception</text>
</a>
</g>
</g>
<!-- Node1 -->
<g id="Node000001" class="node">
<title>Node1</title>
<g id="a_Node000001"><a xlink:href="class_boundary_condition_base_exception.html" target="_top" xlink:title="Base exception class for BC errors.">
<polygon fill="white" stroke="#666666" points="304,-1085.5 122,-1085.5 122,-1066.5 304,-1066.5 304,-1085.5"/>
<text text-anchor="middle" x="213" y="-1073.5" font-family="Helvetica,sans-Serif" font-size="10.00">BoundaryConditionBaseException</text>
</a>
</g>
</g>
<!-- Node0&#45;&gt;Node1 -->
<g id="edge58_Node000000_Node000001" class="edge">
<title>Node0&#45;&gt;Node1</title>
<g id="a_edge58_Node000000_Node000001"><a xlink:title=" ">
<path fill="none" stroke="#63b8ff" d="M52.17,-697.36C82.19,-768.48 185.77,-1013.86 207.84,-1066.15"/>
<polygon fill="#63b8ff" stroke="#63b8ff" points="55.27,-695.69 48.15,-687.84 48.82,-698.41 55.27,-695.69"/>
</a>
</g>
</g>
<!-- Node14 -->
<g id="Node000014" class="node">
<title>Node14</title>
<g id="a_Node000014"><a xlink:href="class_capping_surface_base_exception.html" target="_top" xlink:title="Base exception for capping surface (cap VTP) errors.">
<polygon fill="white" stroke="#666666" points="295.5,-687.5 130.5,-687.5 130.5,-668.5 295.5,-668.5 295.5,-687.5"/>
<text text-anchor="middle" x="213" y="-675.5" font-family="Helvetica,sans-Serif" font-size="10.00">CappingSurfaceBaseException</text>
</a>
</g>
</g>
<!-- Node0&#45;&gt;Node14 -->
<g id="edge71_Node000000_Node000014" class="edge">
<title>Node0&#45;&gt;Node14</title>
<g id="a_edge71_Node000000_Node000014"><a xlink:title=" ">
<path fill="none" stroke="#63b8ff" d="M96.44,-678C107.22,-678 118.8,-678 130.32,-678"/>
<polygon fill="#63b8ff" stroke="#63b8ff" points="96.39,-674.5 86.39,-678 96.39,-681.5 96.39,-674.5"/>
</a>
</g>
</g>
<!-- Node21 -->
<g id="Node000021" class="node">
<title>Node21</title>
<g id="a_Node000021"><a xlink:href="classsvmp_1_1_exception_base.html" target="_top" xlink:title=" ">
<polygon fill="white" stroke="#666666" points="274,-535.5 152,-535.5 152,-516.5 274,-516.5 274,-535.5"/>
<text text-anchor="middle" x="213" y="-523.5" font-family="Helvetica,sans-Serif" font-size="10.00">svmp::ExceptionBase</text>
</a>
</g>
</g>
<!-- Node0&#45;&gt;Node21 -->
<g id="edge78_Node000000_Node000021" class="edge">
<title>Node0&#45;&gt;Node21</title>
<g id="a_edge78_Node000000_Node000021"><a xlink:title=" ">
<path fill="none" stroke="#63b8ff" d="M62.11,-661.61C97.23,-629.84 173.57,-560.77 201.49,-535.5"/>
<polygon fill="#63b8ff" stroke="#63b8ff" points="59.58,-659.19 54.51,-668.49 64.27,-664.38 59.58,-659.19"/>
</a>
</g>
</g>
<!-- Node2 -->
<g id="Node000002" class="node">
<title>Node2</title>
<g id="a_Node000002"><a xlink:href="class_boundary_condition_array_exception.html" target="_top" xlink:title="Exception thrown when a requested array is not found.">
<polygon fill="white" stroke="#666666" points="528,-1336.5 344,-1336.5 344,-1317.5 528,-1317.5 528,-1336.5"/>
<text text-anchor="middle" x="436" y="-1324.5" font-family="Helvetica,sans-Serif" font-size="10.00">BoundaryConditionArrayException</text>
</a>
</g>
</g>
<!-- Node1&#45;&gt;Node2 -->
<g id="edge59_Node000001_Node000002" class="edge">
<title>Node1&#45;&gt;Node2</title>
<g id="a_edge59_Node000001_Node000002"><a xlink:title=" ">
<path fill="none" stroke="#63b8ff" d="M218.55,-1095.82C230.12,-1141.48 265.23,-1254.35 340,-1309 344.61,-1312.37 349.67,-1315.16 354.98,-1317.47"/>
<polygon fill="#63b8ff" stroke="#63b8ff" points="221.91,-1094.86 216.15,-1085.97 215.11,-1096.51 221.91,-1094.86"/>
</a>
</g>
</g>
<!-- Node3 -->
<g id="Node000003" class="node">
<title>Node3</title>
<g id="a_Node000003"><a xlink:href="class_boundary_condition_file_exception.html" target="_top" xlink:title="Exception thrown when VTP file cannot be read or is invalid.">
<polygon fill="white" stroke="#666666" points="523.5,-1299.5 348.5,-1299.5 348.5,-1280.5 523.5,-1280.5 523.5,-1299.5"/>
<text text-anchor="middle" x="436" y="-1287.5" font-family="Helvetica,sans-Serif" font-size="10.00">BoundaryConditionFileException</text>
</a>
</g>
</g>
<!-- Node1&#45;&gt;Node3 -->
<g id="edge60_Node000001_Node000003" class="edge">
<title>Node1&#45;&gt;Node3</title>
<g id="a_edge60_Node000001_Node000003"><a xlink:title=" ">
<path fill="none" stroke="#63b8ff" d="M220.48,-1095.37C234.95,-1135.45 273.95,-1227.45 340,-1272 345.01,-1275.38 350.49,-1278.16 356.21,-1280.45"/>
<polygon fill="#63b8ff" stroke="#63b8ff" points="223.71,-1094.02 217.11,-1085.73 217.1,-1096.32 223.71,-1094.02"/>
</a>
</g>
</g>
<!-- Node4 -->
<g id="Node000004" class="node">
<title>Node4</title>
<g id="a_Node000004"><a xlink:href="class_boundary_condition_flag_exception.html" target="_top" xlink:title="Exception thrown when a requested flag is not defined.">
<polygon fill="white" stroke="#666666" points="525.5,-1262.5 346.5,-1262.5 346.5,-1243.5 525.5,-1243.5 525.5,-1262.5"/>
<text text-anchor="middle" x="436" y="-1250.5" font-family="Helvetica,sans-Serif" font-size="10.00">BoundaryConditionFlagException</text>
</a>
</g>
</g>
<!-- Node1&#45;&gt;Node4 -->
<g id="edge61_Node000001_Node000004" class="edge">
<title>Node1&#45;&gt;Node4</title>
<g id="a_edge61_Node000001_Node000004"><a xlink:title=" ">
<path fill="none" stroke="#63b8ff" d="M223.37,-1095C241.11,-1128.84 282.99,-1199.24 340,-1234 346.32,-1237.85 353.27,-1240.94 360.45,-1243.42"/>
<polygon fill="#63b8ff" stroke="#63b8ff" points="226.31,-1093.07 218.65,-1085.76 220.08,-1096.25 226.31,-1093.07"/>
</a>
</g>
</g>
<!-- Node5 -->
<g id="Node000005" class="node">
<title>Node5</title>
<g id="a_Node000005"><a xlink:href="class_boundary_condition_global_node_id_exception.html" target="_top" xlink:title="Exception thrown when a global node ID is not found in the global&#45;to&#45;local map.">
<polygon fill="white" stroke="#666666" points="519.5,-1225 352.5,-1225 352.5,-1195 519.5,-1195 519.5,-1225"/>
<text text-anchor="start" x="360.5" y="-1213" font-family="Helvetica,sans-Serif" font-size="10.00">BoundaryConditionGlobalNode</text>
<text text-anchor="middle" x="436" y="-1202" font-family="Helvetica,sans-Serif" font-size="10.00">IdException</text>
</a>
</g>
</g>
<!-- Node1&#45;&gt;Node5 -->
<g id="edge62_Node000001_Node000005" class="edge">
<title>Node1&#45;&gt;Node5</title>
<g id="a_edge62_Node000001_Node000005"><a xlink:title=" ">
<path fill="none" stroke="#63b8ff" d="M228.88,-1093.36C250.75,-1117.76 293.98,-1161.89 340,-1186 346.48,-1189.39 353.46,-1192.33 360.6,-1194.85"/>
<polygon fill="#63b8ff" stroke="#63b8ff" points="231.3,-1090.81 222.07,-1085.62 226.04,-1095.44 231.3,-1090.81"/>
</a>
</g>
</g>
<!-- Node6 -->
<g id="Node000006" class="node">
<title>Node6</title>
<g id="a_Node000006"><a xlink:href="class_boundary_condition_node_count_exception.html" target="_top" xlink:title="Exception thrown when node count mismatch between VTP and face.">
<polygon fill="white" stroke="#666666" points="518,-1177 354,-1177 354,-1147 518,-1147 518,-1177"/>
<text text-anchor="start" x="362" y="-1165" font-family="Helvetica,sans-Serif" font-size="10.00">BoundaryConditionNodeCount</text>
<text text-anchor="middle" x="436" y="-1154" font-family="Helvetica,sans-Serif" font-size="10.00">Exception</text>
</a>
</g>
</g>
<!-- Node1&#45;&gt;Node6 -->
<g id="edge63_Node000001_Node000006" class="edge">
<title>Node1&#45;&gt;Node6</title>
<g id="a_edge63_Node000001_Node000006"><a xlink:title=" ">
<path fill="none" stroke="#63b8ff" d="M239.44,-1090.5C264.41,-1104.25 303.88,-1124.72 340,-1138 348.94,-1141.29 358.52,-1144.29 368.02,-1146.96"/>
<polygon fill="#63b8ff" stroke="#63b8ff" points="241.06,-1087.4 230.62,-1085.59 237.65,-1093.51 241.06,-1087.4"/>
</a>
</g>
</g>
<!-- Node7 -->
<g id="Node000007" class="node">
<title>Node7</title>
<g id="a_Node000007"><a xlink:href="class_boundary_condition_node_id_exception.html" target="_top" xlink:title="Exception thrown when a node ID is out of range.">
<polygon fill="white" stroke="#666666" points="532,-1128.5 340,-1128.5 340,-1109.5 532,-1109.5 532,-1128.5"/>
<text text-anchor="middle" x="436" y="-1116.5" font-family="Helvetica,sans-Serif" font-size="10.00">BoundaryConditionNodeIdException</text>
</a>
</g>
</g>
<!-- Node1&#45;&gt;Node7 -->
<g id="edge64_Node000001_Node000007" class="edge">
<title>Node1&#45;&gt;Node7</title>
<g id="a_edge64_Node000001_Node000007"><a xlink:title=" ">
<path fill="none" stroke="#63b8ff" d="M273.22,-1087.52C308.52,-1094.39 352.79,-1103 386.09,-1109.48"/>
<polygon fill="#63b8ff" stroke="#63b8ff" points="273.53,-1084.02 263.05,-1085.54 272.19,-1090.89 273.53,-1084.02"/>
</a>
</g>
</g>
<!-- Node8 -->
<g id="Node000008" class="node">
<title>Node8</title>
<g id="a_Node000008"><a xlink:href="class_boundary_condition_not_initialized_exception.html" target="_top" xlink:title="Exception thrown when BoundaryCondition is not properly initialized.">
<polygon fill="white" stroke="#666666" points="523.5,-1091 348.5,-1091 348.5,-1061 523.5,-1061 523.5,-1091"/>
<text text-anchor="start" x="356.5" y="-1079" font-family="Helvetica,sans-Serif" font-size="10.00">BoundaryConditionNotInitialized</text>
<text text-anchor="middle" x="436" y="-1068" font-family="Helvetica,sans-Serif" font-size="10.00">Exception</text>
</a>
</g>
</g>
<!-- Node1&#45;&gt;Node8 -->
<g id="edge65_Node000001_Node000008" class="edge">
<title>Node1&#45;&gt;Node8</title>
<g id="a_edge65_Node000001_Node000008"><a xlink:title=" ">
<path fill="none" stroke="#63b8ff" d="M314.51,-1076C325.79,-1076 337.21,-1076 348.29,-1076"/>
<polygon fill="#63b8ff" stroke="#63b8ff" points="314.21,-1072.5 304.21,-1076 314.21,-1079.5 314.21,-1072.5"/>
</a>
</g>
</g>
<!-- Node9 -->
<g id="Node000009" class="node">
<title>Node9</title>
<g id="a_Node000009"><a xlink:href="class_boundary_condition_null_face_exception.html" target="_top" xlink:title="Exception thrown when face_ is nullptr during distribute.">
<polygon fill="white" stroke="#666666" points="511.5,-1043 360.5,-1043 360.5,-1013 511.5,-1013 511.5,-1043"/>
<text text-anchor="start" x="368.5" y="-1031" font-family="Helvetica,sans-Serif" font-size="10.00">BoundaryConditionNullFace</text>
<text text-anchor="middle" x="436" y="-1020" font-family="Helvetica,sans-Serif" font-size="10.00">Exception</text>
</a>
</g>
</g>
<!-- Node1&#45;&gt;Node9 -->
<g id="edge66_Node000001_Node000009" class="edge">
<title>Node1&#45;&gt;Node9</title>
<g id="a_edge66_Node000001_Node000009"><a xlink:title=" ">
<path fill="none" stroke="#63b8ff" d="M268.03,-1064.26C297.53,-1057.86 334.36,-1049.86 365.92,-1043"/>
<polygon fill="#63b8ff" stroke="#63b8ff" points="266.96,-1060.92 257.93,-1066.46 268.44,-1067.76 266.96,-1060.92"/>
</a>
</g>
</g>
<!-- Node10 -->
<g id="Node000010" class="node">
<title>Node10</title>
<g id="a_Node000010"><a xlink:href="class_boundary_condition_point_not_found_exception.html" target="_top" xlink:title="Exception thrown when a point cannot be found in VTP file.">
<polygon fill="white" stroke="#666666" points="512,-995 360,-995 360,-965 512,-965 512,-995"/>
<text text-anchor="start" x="368" y="-983" font-family="Helvetica,sans-Serif" font-size="10.00">BoundaryConditionPointNot</text>
<text text-anchor="middle" x="436" y="-972" font-family="Helvetica,sans-Serif" font-size="10.00">FoundException</text>
</a>
</g>
</g>
<!-- Node1&#45;&gt;Node10 -->
<g id="edge67_Node000001_Node000010" class="edge">
<title>Node1&#45;&gt;Node10</title>
<g id="a_edge67_Node000001_Node000010"><a xlink:title=" ">
<path fill="none" stroke="#63b8ff" d="M236.26,-1060.79C260.73,-1044.67 301.67,-1019.46 340,-1004 348.28,-1000.66 357.16,-997.68 366.05,-995.05"/>
<polygon fill="#63b8ff" stroke="#63b8ff" points="234.1,-1058.02 227.72,-1066.48 237.99,-1063.84 234.1,-1058.02"/>
</a>
</g>
</g>
<!-- Node11 -->
<g id="Node000011" class="node">
<title>Node11</title>
<g id="a_Node000011"><a xlink:href="class_boundary_condition_validation_exception.html" target="_top" xlink:title="Exception thrown when array validation fails.">
<polygon fill="white" stroke="#666666" points="515,-947 357,-947 357,-917 515,-917 515,-947"/>
<text text-anchor="start" x="365" y="-935" font-family="Helvetica,sans-Serif" font-size="10.00">BoundaryConditionValidation</text>
<text text-anchor="middle" x="436" y="-924" font-family="Helvetica,sans-Serif" font-size="10.00">Exception</text>
</a>
</g>
</g>
<!-- Node1&#45;&gt;Node11 -->
<g id="edge68_Node000001_Node000011" class="edge">
<title>Node1&#45;&gt;Node11</title>
<g id="a_edge68_Node000001_Node000011"><a xlink:title=" ">
<path fill="none" stroke="#63b8ff" d="M227.61,-1058.15C248.73,-1031.73 292,-982.49 340,-956 346.26,-952.55 353.02,-949.58 359.95,-947.04"/>
<polygon fill="#63b8ff" stroke="#63b8ff" points="224.74,-1056.14 221.32,-1066.17 230.25,-1060.46 224.74,-1056.14"/>
</a>
</g>
</g>
<!-- Node12 -->
<g id="Node000012" class="node">
<title>Node12</title>
<g id="a_Node000012"><a xlink:href="class_boundary_condition_vtp_array_dimension_exception.html" target="_top" xlink:title="Exception thrown when a VTP array has incorrect dimensions.">
<polygon fill="white" stroke="#666666" points="512,-899 360,-899 360,-869 512,-869 512,-899"/>
<text text-anchor="start" x="368" y="-887" font-family="Helvetica,sans-Serif" font-size="10.00">BoundaryConditionVtpArray</text>
<text text-anchor="middle" x="436" y="-876" font-family="Helvetica,sans-Serif" font-size="10.00">DimensionException</text>
</a>
</g>
</g>
<!-- Node1&#45;&gt;Node12 -->
<g id="edge69_Node000001_Node000012" class="edge">
<title>Node1&#45;&gt;Node12</title>
<g id="a_edge69_Node000001_Node000012"><a xlink:title=" ">
<path fill="none" stroke="#63b8ff" d="M222.75,-1057.05C239.97,-1021.93 281.72,-946.8 340,-908 346.09,-903.95 352.81,-900.58 359.79,-897.78"/>
<polygon fill="#63b8ff" stroke="#63b8ff" points="219.53,-1055.67 218.38,-1066.2 225.84,-1058.69 219.53,-1055.67"/>
</a>
</g>
</g>
<!-- Node13 -->
<g id="Node000013" class="node">
<title>Node13</title>
<g id="a_Node000013"><a xlink:href="class_boundary_condition_vtp_array_exception.html" target="_top" xlink:title="Exception thrown when a VTP file doesn&#39;t contain a required array.">
<polygon fill="white" stroke="#666666" points="512,-851 360,-851 360,-821 512,-821 512,-851"/>
<text text-anchor="start" x="368" y="-839" font-family="Helvetica,sans-Serif" font-size="10.00">BoundaryConditionVtpArray</text>
<text text-anchor="middle" x="436" y="-828" font-family="Helvetica,sans-Serif" font-size="10.00">Exception</text>
</a>
</g>
</g>
<!-- Node1&#45;&gt;Node13 -->
<g id="edge70_Node000001_Node000013" class="edge">
<title>Node1&#45;&gt;Node13</title>
<g id="a_edge70_Node000001_Node000013"><a xlink:title=" ">
<path fill="none" stroke="#63b8ff" d="M219.57,-1056.77C232.89,-1014.29 270.75,-912.11 340,-860 345.98,-855.5 352.71,-851.84 359.76,-848.86"/>
<polygon fill="#63b8ff" stroke="#63b8ff" points="216.19,-1055.85 216.64,-1066.43 222.89,-1057.87 216.19,-1055.85"/>
</a>
</g>
</g>
<!-- Node15 -->
<g id="Node000015" class="node">
<title>Node15</title>
<g id="a_Node000015"><a xlink:href="class_capping_surface_coupling_topology_exception.html" target="_top" xlink:title="Cap mesh shares no nodes with the coupled boundary face.">
<polygon fill="white" stroke="#666666" points="525.5,-803 346.5,-803 346.5,-773 525.5,-773 525.5,-803"/>
<text text-anchor="start" x="354.5" y="-791" font-family="Helvetica,sans-Serif" font-size="10.00">CappingSurfaceCouplingTopology</text>
<text text-anchor="middle" x="436" y="-780" font-family="Helvetica,sans-Serif" font-size="10.00">Exception</text>
</a>
</g>
</g>
<!-- Node14&#45;&gt;Node15 -->
<g id="edge72_Node000014_Node000015" class="edge">
<title>Node14&#45;&gt;Node15</title>
<g id="a_edge72_Node000014_Node000015"><a xlink:title=" ">
<path fill="none" stroke="#63b8ff" d="M232.79,-694C256.36,-713.28 298.71,-745.4 340,-764 347.52,-767.39 355.6,-770.35 363.76,-772.94"/>
<polygon fill="#63b8ff" stroke="#63b8ff" points="234.92,-691.22 224.99,-687.52 230.45,-696.6 234.92,-691.22"/>
</a>
</g>
</g>
<!-- Node16 -->
<g id="Node000016" class="node">
<title>Node16</title>
<g id="a_Node000016"><a xlink:href="class_capping_surface_file_exception.html" target="_top" xlink:title="Cap VTP file cannot be opened.">
<polygon fill="white" stroke="#666666" points="515,-754.5 357,-754.5 357,-735.5 515,-735.5 515,-754.5"/>
<text text-anchor="middle" x="436" y="-742.5" font-family="Helvetica,sans-Serif" font-size="10.00">CappingSurfaceFileException</text>
</a>
</g>
</g>
<!-- Node14&#45;&gt;Node16 -->
<g id="edge73_Node000014_Node000016" class="edge">
<title>Node14&#45;&gt;Node16</title>
<g id="a_edge73_Node000014_Node000016"><a xlink:title=" ">
<path fill="none" stroke="#63b8ff" d="M245.33,-691.61C270.52,-702.14 307.04,-716.5 340,-726 352.61,-729.63 366.35,-732.82 379.37,-735.49"/>
<polygon fill="#63b8ff" stroke="#63b8ff" points="246.5,-688.3 235.93,-687.64 243.77,-694.75 246.5,-688.3"/>
</a>
</g>
</g>
<!-- Node17 -->
<g id="Node000017" class="node">
<title>Node17</title>
<g id="a_Node000017"><a xlink:href="class_capping_surface_invalid_element_nodes_exception.html" target="_top" xlink:title="Cap VTP connectivity does not match expected TRI3 topology.">
<polygon fill="white" stroke="#666666" points="519.5,-717 352.5,-717 352.5,-687 519.5,-687 519.5,-717"/>
<text text-anchor="start" x="360.5" y="-705" font-family="Helvetica,sans-Serif" font-size="10.00">CappingSurfaceInvalidElement</text>
<text text-anchor="middle" x="436" y="-694" font-family="Helvetica,sans-Serif" font-size="10.00">NodesException</text>
</a>
</g>
</g>
<!-- Node14&#45;&gt;Node17 -->
<g id="edge74_Node000014_Node000017" class="edge">
<title>Node14&#45;&gt;Node17</title>
<g id="a_edge74_Node000014_Node000017"><a xlink:title=" ">
<path fill="none" stroke="#63b8ff" d="M305.71,-687.96C321.11,-689.63 337.03,-691.36 352.19,-693.01"/>
<polygon fill="#63b8ff" stroke="#63b8ff" points="305.98,-684.47 295.66,-686.87 305.23,-691.43 305.98,-684.47"/>
</a>
</g>
</g>
<!-- Node18 -->
<g id="Node000018" class="node">
<title>Node18</title>
<g id="a_Node000018"><a xlink:href="class_capping_surface_quadrature_exception.html" target="_top" xlink:title="Cap face quadrature (shape functions on TRI3) setup failed.">
<polygon fill="white" stroke="#666666" points="510,-669 362,-669 362,-639 510,-639 510,-669"/>
<text text-anchor="start" x="370" y="-657" font-family="Helvetica,sans-Serif" font-size="10.00">CappingSurfaceQuadrature</text>
<text text-anchor="middle" x="436" y="-646" font-family="Helvetica,sans-Serif" font-size="10.00">Exception</text>
</a>
</g>
</g>
<!-- Node14&#45;&gt;Node18 -->
<g id="edge75_Node000014_Node000018" class="edge">
<title>Node14&#45;&gt;Node18</title>
<g id="a_edge75_Node000014_Node000018"><a xlink:title=" ">
<path fill="none" stroke="#63b8ff" d="M305.65,-668.05C324.33,-666.02 343.76,-663.91 361.7,-661.96"/>
<polygon fill="#63b8ff" stroke="#63b8ff" points="305.23,-664.57 295.66,-669.13 305.98,-671.53 305.23,-664.57"/>
</a>
</g>
</g>
<!-- Node19 -->
<g id="Node000019" class="node">
<title>Node19</title>
<g id="a_Node000019"><a xlink:href="class_capping_surface_unsupported_cell_exception.html" target="_top" xlink:title="Cap VTP uses an unsupported cell type (only TRI3 is supported).">
<polygon fill="white" stroke="#666666" points="513.5,-621 358.5,-621 358.5,-591 513.5,-591 513.5,-621"/>
<text text-anchor="start" x="366.5" y="-609" font-family="Helvetica,sans-Serif" font-size="10.00">CappingSurfaceUnsupported</text>
<text text-anchor="middle" x="436" y="-598" font-family="Helvetica,sans-Serif" font-size="10.00">CellException</text>
</a>
</g>
</g>
<!-- Node14&#45;&gt;Node19 -->
<g id="edge76_Node000014_Node000019" class="edge">
<title>Node14&#45;&gt;Node19</title>
<g id="a_edge76_Node000014_Node000019"><a xlink:title=" ">
<path fill="none" stroke="#63b8ff" d="M246.38,-664.47C271.62,-654.22 307.68,-640.2 340,-630 349.98,-626.85 360.64,-623.83 371.09,-621.06"/>
<polygon fill="#63b8ff" stroke="#63b8ff" points="244.87,-661.31 236.94,-668.33 247.52,-667.78 244.87,-661.31"/>
</a>
</g>
</g>
<!-- Node20 -->
<g id="Node000020" class="node">
<title>Node20</title>
<g id="a_Node000020"><a xlink:href="class_capping_surface_vtp_exception.html" target="_top" xlink:title="VTP read, parse, or validation error during cap load.">
<polygon fill="white" stroke="#666666" points="515,-572.5 357,-572.5 357,-553.5 515,-553.5 515,-572.5"/>
<text text-anchor="middle" x="436" y="-560.5" font-family="Helvetica,sans-Serif" font-size="10.00">CappingSurfaceVtpException</text>
</a>
</g>
</g>
<!-- Node14&#45;&gt;Node20 -->
<g id="edge77_Node000014_Node000020" class="edge">
<title>Node14&#45;&gt;Node20</title>
<g id="a_edge77_Node000014_Node000020"><a xlink:title=" ">
<path fill="none" stroke="#63b8ff" d="M230.86,-661.04C253.58,-639.21 296.25,-601.76 340,-582 348.66,-578.09 358.13,-574.98 367.62,-572.51"/>
<polygon fill="#63b8ff" stroke="#63b8ff" points="228.12,-658.81 223.42,-668.31 233.02,-663.82 228.12,-658.81"/>
</a>
</g>
</g>
<!-- Node22 -->
<g id="Node000022" class="node">
<title>Node22</title>
<g id="a_Node000022"><a xlink:href="classsvmp_1_1_core_exception.html" target="_top" xlink:title=" ">
<polygon fill="white" stroke="#666666" points="496,-535.5 376,-535.5 376,-516.5 496,-516.5 496,-535.5"/>
<text text-anchor="middle" x="436" y="-523.5" font-family="Helvetica,sans-Serif" font-size="10.00">svmp::CoreException</text>
</a>
</g>
</g>
<!-- Node21&#45;&gt;Node22 -->
<g id="edge79_Node000021_Node000022" class="edge">
<title>Node21&#45;&gt;Node22</title>
<g id="a_edge79_Node000021_Node000022"><a xlink:title=" ">
<path fill="none" stroke="#63b8ff" d="M284.3,-526C313.72,-526 347.54,-526 375.68,-526"/>
<polygon fill="#63b8ff" stroke="#63b8ff" points="284.1,-522.5 274.1,-526 284.1,-529.5 284.1,-522.5"/>
</a>
</g>
</g>
<!-- Node27 -->
<g id="Node000027" class="node">
<title>Node27</title>
<g id="a_Node000027"><a xlink:href="classsvmp_1_1_f_e_1_1_f_e_exception.html" target="_top" xlink:title="Base exception type for errors originating in the FE library.">
<polygon fill="white" stroke="#666666" points="500,-329.5 372,-329.5 372,-310.5 500,-310.5 500,-329.5"/>
<text text-anchor="middle" x="436" y="-317.5" font-family="Helvetica,sans-Serif" font-size="10.00">svmp::FE::FEException</text>
</a>
</g>
</g>
<!-- Node21&#45;&gt;Node27 -->
<g id="edge84_Node000021_Node000027" class="edge">
<title>Node21&#45;&gt;Node27</title>
<g id="a_edge84_Node000021_Node000027"><a xlink:title=" ">
<path fill="none" stroke="#63b8ff" d="M231.77,-509.44C275.95,-468.25 389.75,-362.18 424.66,-329.64"/>
<polygon fill="#63b8ff" stroke="#63b8ff" points="229.29,-506.96 224.36,-516.34 234.06,-512.08 229.29,-506.96"/>
</a>
</g>
</g>
<!-- Node23 -->
<g id="Node000023" class="node">
<title>Node23</title>
<g id="a_Node000023"><a xlink:href="classsvmp_1_1_dependency_exception.html" target="_top" xlink:title="A required dependency is missing or failed to load.">
<polygon fill="white" stroke="#666666" points="739,-609.5 581,-609.5 581,-590.5 739,-590.5 739,-609.5"/>
<text text-anchor="middle" x="660" y="-597.5" font-family="Helvetica,sans-Serif" font-size="10.00">svmp::DependencyException</text>
</a>
</g>
</g>
<!-- Node22&#45;&gt;Node23 -->
<g id="edge80_Node000022_Node000023" class="edge">
<title>Node22&#45;&gt;Node23</title>
<g id="a_edge80_Node000022_Node000023"><a xlink:title=" ">
<path fill="none" stroke="#63b8ff" d="M506.03,-534.66C515.07,-537.26 523.97,-540.63 532,-545 552.15,-555.96 547.83,-571.06 568,-582 574.23,-585.38 581,-588.13 587.95,-590.37"/>
<polygon fill="#63b8ff" stroke="#63b8ff" points="506.75,-531.24 496.2,-532.14 505.01,-538.02 506.75,-531.24"/>
</a>
</g>
</g>
<!-- Node24 -->
<g id="Node000024" class="node">
<title>Node24</title>
<g id="a_Node000024"><a xlink:href="classsvmp_1_1_index_out_of_range_exception.html" target="_top" xlink:title="An index is outside its valid range.">
<polygon fill="white" stroke="#666666" points="752,-572.5 568,-572.5 568,-553.5 752,-553.5 752,-572.5"/>
<text text-anchor="middle" x="660" y="-560.5" font-family="Helvetica,sans-Serif" font-size="10.00">svmp::IndexOutOfRangeException</text>
</a>
</g>
</g>
<!-- Node22&#45;&gt;Node24 -->
<g id="edge81_Node000022_Node000024" class="edge">
<title>Node22&#45;&gt;Node24</title>
<g id="a_edge81_Node000022_Node000024"><a xlink:title=" ">
<path fill="none" stroke="#63b8ff" d="M504.07,-537.18C535.19,-542.37 571.82,-548.47 601.64,-553.44"/>
<polygon fill="#63b8ff" stroke="#63b8ff" points="504.61,-533.72 494.17,-535.53 503.46,-540.62 504.61,-533.72"/>
</a>
</g>
</g>
<!-- Node25 -->
<g id="Node000025" class="node">
<title>Node25</title>
<g id="a_Node000025"><a xlink:href="classsvmp_1_1_not_implemented_exception.html" target="_top" xlink:title="A requested operation or feature is not implemented.">
<polygon fill="white" stroke="#666666" points="750,-535.5 570,-535.5 570,-516.5 750,-516.5 750,-535.5"/>
<text text-anchor="middle" x="660" y="-523.5" font-family="Helvetica,sans-Serif" font-size="10.00">svmp::NotImplementedException</text>
</a>
</g>
</g>
<!-- Node22&#45;&gt;Node25 -->
<g id="edge82_Node000022_Node000025" class="edge">
<title>Node22&#45;&gt;Node25</title>
<g id="a_edge82_Node000022_Node000025"><a xlink:title=" ">
<path fill="none" stroke="#63b8ff" d="M506.22,-526C526.38,-526 548.69,-526 569.89,-526"/>
<polygon fill="#63b8ff" stroke="#63b8ff" points="506.2,-522.5 496.2,-526 506.2,-529.5 506.2,-522.5"/>
</a>
</g>
</g>
<!-- Node26 -->
<g id="Node000026" class="node">
<title>Node26</title>
<g id="a_Node000026"><a xlink:href="classsvmp_1_1_parse_exception.html" target="_top" xlink:title="A parsing or input&#45;format error.">
<polygon fill="white" stroke="#666666" points="722,-498.5 598,-498.5 598,-479.5 722,-479.5 722,-498.5"/>
<text text-anchor="middle" x="660" y="-486.5" font-family="Helvetica,sans-Serif" font-size="10.00">svmp::ParseException</text>
</a>
</g>
</g>
<!-- Node22&#45;&gt;Node26 -->
<g id="edge83_Node000022_Node000026" class="edge">
<title>Node22&#45;&gt;Node26</title>
<g id="a_edge83_Node000022_Node000026"><a xlink:title=" ">
<path fill="none" stroke="#63b8ff" d="M504.07,-514.82C535.19,-509.63 571.82,-503.53 601.64,-498.56"/>
<polygon fill="#63b8ff" stroke="#63b8ff" points="503.46,-511.38 494.17,-516.47 504.61,-518.28 503.46,-511.38"/>
</a>
</g>
</g>
<!-- Node28 -->
<g id="Node000028" class="node">
<title>Node28</title>
<g id="a_Node000028"><a xlink:href="classsvmp_1_1_f_e_1_1_assembly_exception.html" target="_top" xlink:title="Global assembly failure.">
<polygon fill="white" stroke="#666666" points="742,-461.5 578,-461.5 578,-442.5 742,-442.5 742,-461.5"/>
<text text-anchor="middle" x="660" y="-449.5" font-family="Helvetica,sans-Serif" font-size="10.00">svmp::FE::AssemblyException</text>
</a>
</g>
</g>
<!-- Node27&#45;&gt;Node28 -->
<g id="edge85_Node000027_Node000028" class="edge">
<title>Node27&#45;&gt;Node28</title>
<g id="a_edge85_Node000027_Node000028"><a xlink:title=" ">
<path fill="none" stroke="#63b8ff" d="M451.68,-337.61C474.01,-363.16 519.11,-410.04 568,-434 574.94,-437.4 582.48,-440.16 590.15,-442.4"/>
<polygon fill="#63b8ff" stroke="#63b8ff" points="454.17,-335.14 445.01,-329.83 448.86,-339.7 454.17,-335.14"/>
</a>
</g>
</g>
<!-- Node29 -->
<g id="Node000029" class="node">
<title>Node29</title>
<g id="a_Node000029"><a xlink:href="classsvmp_1_1_f_e_1_1_backend_exception.html" target="_top" xlink:title="Failure reported by a linear&#45;algebra or solver backend.">
<polygon fill="white" stroke="#666666" points="738.5,-424.5 581.5,-424.5 581.5,-405.5 738.5,-405.5 738.5,-424.5"/>
<text text-anchor="middle" x="660" y="-412.5" font-family="Helvetica,sans-Serif" font-size="10.00">svmp::FE::BackendException</text>
</a>
</g>
</g>
<!-- Node27&#45;&gt;Node29 -->
<g id="edge86_Node000027_Node000029" class="edge">
<title>Node27&#45;&gt;Node29</title>
<g id="a_edge86_Node000027_Node000029"><a xlink:title=" ">
<path fill="none" stroke="#63b8ff" d="M458.36,-335.63C483.39,-353.2 526.71,-381.3 568,-397 576.88,-400.38 586.5,-403.15 596.05,-405.43"/>
<polygon fill="#63b8ff" stroke="#63b8ff" points="460.18,-332.63 450.01,-329.68 456.12,-338.33 460.18,-332.63"/>
</a>
</g>
</g>
<!-- Node30 -->
<g id="Node000030" class="node">
<title>Node30</title>
<g id="a_Node000030"><a xlink:href="classsvmp_1_1_f_e_1_1_convergence_exception.html" target="_top" xlink:title="Iterative process failed to converge.">
<polygon fill="white" stroke="#666666" points="749.5,-387.5 570.5,-387.5 570.5,-368.5 749.5,-368.5 749.5,-387.5"/>
<text text-anchor="middle" x="660" y="-375.5" font-family="Helvetica,sans-Serif" font-size="10.00">svmp::FE::ConvergenceException</text>
</a>
</g>
</g>
<!-- Node27&#45;&gt;Node30 -->
<g id="edge87_Node000027_Node000030" class="edge">
<title>Node27&#45;&gt;Node30</title>
<g id="a_edge87_Node000027_Node000030"><a xlink:title=" ">
<path fill="none" stroke="#63b8ff" d="M475.21,-332.79C501.19,-341.2 536.44,-352.08 568,-360 580.18,-363.06 593.39,-365.92 605.87,-368.43"/>
<polygon fill="#63b8ff" stroke="#63b8ff" points="475.98,-329.35 465.39,-329.58 473.81,-336.01 475.98,-329.35"/>
</a>
</g>
</g>
<!-- Node31 -->
<g id="Node000031" class="node">
<title>Node31</title>
<g id="a_Node000031"><a xlink:href="classsvmp_1_1_f_e_1_1_dof_exception.html" target="_top" xlink:title="Degree&#45;of&#45;freedom numbering or lookup failure.">
<polygon fill="white" stroke="#666666" points="726.5,-350.5 593.5,-350.5 593.5,-331.5 726.5,-331.5 726.5,-350.5"/>
<text text-anchor="middle" x="660" y="-338.5" font-family="Helvetica,sans-Serif" font-size="10.00">svmp::FE::DofException</text>
</a>
</g>
</g>
<!-- Node27&#45;&gt;Node31 -->
<g id="edge88_Node000027_Node000031" class="edge">
<title>Node27&#45;&gt;Node31</title>
<g id="a_edge88_Node000027_Node000031"><a xlink:title=" ">
<path fill="none" stroke="#63b8ff" d="M510.15,-326.92C537.05,-329.46 567.32,-332.33 593.5,-334.8"/>
<polygon fill="#63b8ff" stroke="#63b8ff" points="510.31,-323.42 500.02,-325.96 509.65,-330.39 510.31,-323.42"/>
</a>
</g>
</g>
<!-- Node32 -->
<g id="Node000032" class="node">
<title>Node32</title>
<g id="a_Node000032"><a xlink:href="classsvmp_1_1_f_e_1_1_invalid_argument_exception.html" target="_top" xlink:title="An argument failed validation.">
<polygon fill="white" stroke="#666666" points="734.5,-313 585.5,-313 585.5,-283 734.5,-283 734.5,-313"/>
<text text-anchor="start" x="593.5" y="-301" font-family="Helvetica,sans-Serif" font-size="10.00">svmp::FE::InvalidArgument</text>
<text text-anchor="middle" x="660" y="-290" font-family="Helvetica,sans-Serif" font-size="10.00">Exception</text>
</a>
</g>
</g>
<!-- Node27&#45;&gt;Node32 -->
<g id="edge89_Node000027_Node000032" class="edge">
<title>Node27&#45;&gt;Node32</title>
<g id="a_edge89_Node000027_Node000032"><a xlink:title=" ">
<path fill="none" stroke="#63b8ff" d="M510.17,-312.75C534.27,-310.36 561.07,-307.7 585.22,-305.31"/>
<polygon fill="#63b8ff" stroke="#63b8ff" points="509.63,-309.29 500.02,-313.75 510.32,-316.25 509.63,-309.29"/>
</a>
</g>
</g>
<!-- Node33 -->
<g id="Node000033" class="node">
<title>Node33</title>
<g id="a_Node000033"><a xlink:href="classsvmp_1_1_f_e_1_1_invalid_element_exception.html" target="_top" xlink:title="Unsupported or malformed element request.">
<polygon fill="white" stroke="#666666" points="730.5,-265 589.5,-265 589.5,-235 730.5,-235 730.5,-265"/>
<text text-anchor="start" x="597.5" y="-253" font-family="Helvetica,sans-Serif" font-size="10.00">svmp::FE::InvalidElement</text>
<text text-anchor="middle" x="660" y="-242" font-family="Helvetica,sans-Serif" font-size="10.00">Exception</text>
</a>
</g>
</g>
<!-- Node27&#45;&gt;Node33 -->
<g id="edge90_Node000027_Node000033" class="edge">
<title>Node27&#45;&gt;Node33</title>
<g id="a_edge90_Node000027_Node000033"><a xlink:title=" ">
<path fill="none" stroke="#63b8ff" d="M471.91,-306.89C498.16,-297.24 535.1,-284.1 568,-274 578,-270.93 588.68,-267.9 599.09,-265.07"/>
<polygon fill="#63b8ff" stroke="#63b8ff" points="470.57,-303.65 462.4,-310.4 473,-310.22 470.57,-303.65"/>
</a>
</g>
</g>
<!-- Node34 -->
<g id="Node000034" class="node">
<title>Node34</title>
<g id="a_Node000034"><a xlink:href="classsvmp_1_1_f_e_1_1_not_initialized_exception.html" target="_top" xlink:title="Required initialization step has not been performed.">
<polygon fill="white" stroke="#666666" points="726.5,-217 593.5,-217 593.5,-187 726.5,-187 726.5,-217"/>
<text text-anchor="start" x="601.5" y="-205" font-family="Helvetica,sans-Serif" font-size="10.00">svmp::FE::NotInitialized</text>
<text text-anchor="middle" x="660" y="-194" font-family="Helvetica,sans-Serif" font-size="10.00">Exception</text>
</a>
</g>
</g>
<!-- Node27&#45;&gt;Node34 -->
<g id="edge91_Node000027_Node000034" class="edge">
<title>Node27&#45;&gt;Node34</title>
<g id="a_edge91_Node000027_Node000034"><a xlink:title=" ">
<path fill="none" stroke="#63b8ff" d="M454.97,-303.79C479.03,-282.9 523.83,-246.8 568,-226 575.98,-222.24 584.65,-219 593.35,-216.23"/>
<polygon fill="#63b8ff" stroke="#63b8ff" points="452.55,-301.26 447.36,-310.49 457.17,-306.51 452.55,-301.26"/>
</a>
</g>
</g>
<!-- Node35 -->
<g id="Node000035" class="node">
<title>Node35</title>
<g id="a_Node000035"><a xlink:href="classsvmp_1_1_f_e_1_1_singular_mapping_exception.html" target="_top" xlink:title="Element geometric mapping is singular or inverted.">
<polygon fill="white" stroke="#666666" points="734.5,-169 585.5,-169 585.5,-139 734.5,-139 734.5,-169"/>
<text text-anchor="start" x="593.5" y="-157" font-family="Helvetica,sans-Serif" font-size="10.00">svmp::FE::SingularMapping</text>
<text text-anchor="middle" x="660" y="-146" font-family="Helvetica,sans-Serif" font-size="10.00">Exception</text>
</a>
</g>
</g>
<!-- Node27&#45;&gt;Node35 -->
<g id="edge92_Node000027_Node000035" class="edge">
<title>Node27&#45;&gt;Node35</title>
<g id="a_edge92_Node000027_Node000035"><a xlink:title=" ">
<path fill="none" stroke="#63b8ff" d="M448.51,-301.95C468.84,-271.59 514.09,-210.45 568,-178 573.74,-174.55 579.97,-171.58 586.4,-169.04"/>
<polygon fill="#63b8ff" stroke="#63b8ff" points="445.58,-300.04 443.02,-310.32 451.44,-303.88 445.58,-300.04"/>
</a>
</g>
</g>
<!-- Node36 -->
<g id="Node000036" class="node">
<title>Node36</title>
<g id="a_Node000036"><a xlink:href="classsvmp_1_1_f_e_1_1basis_1_1_basis_exception.html" target="_top" xlink:title="Base exception type for errors originating in the Basis module.">
<polygon fill="white" stroke="#666666" points="746.5,-120.5 573.5,-120.5 573.5,-101.5 746.5,-101.5 746.5,-120.5"/>
<text text-anchor="middle" x="660" y="-108.5" font-family="Helvetica,sans-Serif" font-size="10.00">svmp::FE::basis::BasisException</text>
</a>
</g>
</g>
<!-- Node27&#45;&gt;Node36 -->
<g id="edge93_Node000027_Node000036" class="edge">
<title>Node27&#45;&gt;Node36</title>
<g id="a_edge93_Node000027_Node000036"><a xlink:title=" ">
<path fill="none" stroke="#63b8ff" d="M444.53,-300.51C460.72,-261.4 502.72,-173.38 568,-130 573.78,-126.16 580.19,-123.07 586.84,-120.6"/>
<polygon fill="#63b8ff" stroke="#63b8ff" points="441.13,-299.58 440.65,-310.17 447.63,-302.19 441.13,-299.58"/>
</a>
</g>
</g>
<!-- Node37 -->
<g id="Node000037" class="node">
<title>Node37</title>
<g id="a_Node000037"><a xlink:href="classsvmp_1_1_f_e_1_1basis_1_1_basis_configuration_exception.html" target="_top" xlink:title="Invalid Basis request or configuration.">
<polygon fill="white" stroke="#666666" points="979,-222 788,-222 788,-192 979,-192 979,-222"/>
<text text-anchor="start" x="796" y="-210" font-family="Helvetica,sans-Serif" font-size="10.00">svmp::FE::basis::BasisConfiguration</text>
<text text-anchor="middle" x="883.5" y="-199" font-family="Helvetica,sans-Serif" font-size="10.00">Exception</text>
</a>
</g>
</g>
<!-- Node36&#45;&gt;Node37 -->
<g id="edge94_Node000036_Node000037" class="edge">
<title>Node36&#45;&gt;Node37</title>
<g id="a_edge94_Node000036_Node000037"><a xlink:title=" ">
<path fill="none" stroke="#63b8ff" d="M742.63,-124.61C745.89,-126.22 749.03,-128.01 752,-130 775.66,-145.84 764.68,-166.65 788,-183 792.85,-186.4 798.14,-189.32 803.66,-191.83"/>
<polygon fill="#63b8ff" stroke="#63b8ff" points="743.75,-121.29 733.18,-120.55 740.99,-127.72 743.75,-121.29"/>
</a>
</g>
</g>
<!-- Node38 -->
<g id="Node000038" class="node">
<title>Node38</title>
<g id="a_Node000038"><a xlink:href="classsvmp_1_1_f_e_1_1basis_1_1_basis_construction_exception.html" target="_top" xlink:title="Internal basis construction or transform setup failure.">
<polygon fill="white" stroke="#666666" points="977,-174 790,-174 790,-144 977,-144 977,-174"/>
<text text-anchor="start" x="798" y="-162" font-family="Helvetica,sans-Serif" font-size="10.00">svmp::FE::basis::BasisConstruction</text>
<text text-anchor="middle" x="883.5" y="-151" font-family="Helvetica,sans-Serif" font-size="10.00">Exception</text>
</a>
</g>
</g>
<!-- Node36&#45;&gt;Node38 -->
<g id="edge95_Node000036_Node000038" class="edge">
<title>Node36&#45;&gt;Node38</title>
<g id="a_edge95_Node000036_Node000038"><a xlink:title=" ">
<path fill="none" stroke="#63b8ff" d="M717.26,-122.63C728.76,-125.04 740.77,-127.58 752,-130 772.65,-134.45 795.1,-139.4 815.48,-143.93"/>
<polygon fill="#63b8ff" stroke="#63b8ff" points="717.82,-119.17 707.32,-120.55 716.39,-126.02 717.82,-119.17"/>
</a>
</g>
</g>
<!-- Node39 -->
<g id="Node000039" class="node">
<title>Node39</title>
<g id="a_Node000039"><a xlink:href="classsvmp_1_1_f_e_1_1basis_1_1_basis_element_compatibility_exception.html" target="_top" xlink:title="Requested element topology is incompatible with the basis family.">
<polygon fill="white" stroke="#666666" points="966.5,-126 800.5,-126 800.5,-96 966.5,-96 966.5,-126"/>
<text text-anchor="start" x="808.5" y="-114" font-family="Helvetica,sans-Serif" font-size="10.00">svmp::FE::basis::BasisElement</text>
<text text-anchor="middle" x="883.5" y="-103" font-family="Helvetica,sans-Serif" font-size="10.00">CompatibilityException</text>
</a>
</g>
</g>
<!-- Node36&#45;&gt;Node39 -->
<g id="edge96_Node000036_Node000039" class="edge">
<title>Node36&#45;&gt;Node39</title>
<g id="a_edge96_Node000036_Node000039"><a xlink:title=" ">
<path fill="none" stroke="#63b8ff" d="M756.65,-111C771.21,-111 786.13,-111 800.36,-111"/>
<polygon fill="#63b8ff" stroke="#63b8ff" points="756.64,-107.5 746.64,-111 756.64,-114.5 756.64,-107.5"/>
</a>
</g>
</g>
<!-- Node40 -->
<g id="Node000040" class="node">
<title>Node40</title>
<g id="a_Node000040"><a xlink:href="classsvmp_1_1_f_e_1_1basis_1_1_basis_evaluation_exception.html" target="_top" xlink:title="Basis evaluation request cannot be satisfied.">
<polygon fill="white" stroke="#666666" points="972,-78 795,-78 795,-48 972,-48 972,-78"/>
<text text-anchor="start" x="803" y="-66" font-family="Helvetica,sans-Serif" font-size="10.00">svmp::FE::basis::BasisEvaluation</text>
<text text-anchor="middle" x="883.5" y="-55" font-family="Helvetica,sans-Serif" font-size="10.00">Exception</text>
</a>
</g>
</g>
<!-- Node36&#45;&gt;Node40 -->
<g id="edge97_Node000036_Node000040" class="edge">
<title>Node36&#45;&gt;Node40</title>
<g id="a_edge97_Node000036_Node000040"><a xlink:title=" ">
<path fill="none" stroke="#63b8ff" d="M715.15,-99.26C744.72,-92.86 781.63,-84.86 813.26,-78"/>
<polygon fill="#63b8ff" stroke="#63b8ff" points="714.06,-95.92 705.03,-101.46 715.54,-102.76 714.06,-95.92"/>
</a>
</g>
</g>
<!-- Node41 -->
<g id="Node000041" class="node">
<title>Node41</title>
<g id="a_Node000041"><a xlink:href="classsvmp_1_1_f_e_1_1basis_1_1_basis_node_ordering_exception.html" target="_top" xlink:title="Public&#45;to&#45;canonical node ordering or coordinate lookup failure.">
<polygon fill="white" stroke="#666666" points="959,-30 808,-30 808,0 959,0 959,-30"/>
<text text-anchor="start" x="816" y="-18" font-family="Helvetica,sans-Serif" font-size="10.00">svmp::FE::basis::BasisNode</text>
<text text-anchor="middle" x="883.5" y="-7" font-family="Helvetica,sans-Serif" font-size="10.00">OrderingException</text>
</a>
</g>
</g>
<!-- Node36&#45;&gt;Node41 -->
<g id="edge98_Node000036_Node000041" class="edge">
<title>Node36&#45;&gt;Node41</title>
<g id="a_edge98_Node000036_Node000041"><a xlink:title=" ">
<path fill="none" stroke="#63b8ff" d="M683.46,-95.81C708.14,-79.71 749.42,-54.51 788,-39 796.32,-35.65 805.25,-32.66 814.18,-30.03"/>
<polygon fill="#63b8ff" stroke="#63b8ff" points="681.26,-93.06 674.85,-101.49 685.12,-98.9 681.26,-93.06"/>
</a>
</g>
</g>
</g>
</svg>
