<?xml version="1.0" encoding="UTF-8" standalone="no"?>
<!DOCTYPE svg PUBLIC "-//W3C//DTD SVG 1.1//EN"
 "http://www.w3.org/Graphics/SVG/1.1/DTD/svg11.dtd">
<!-- Generated by graphviz version 2.43.0 (0)
 -->
<!-- Title: Graphical Class Hierarchy Pages: 1 -->
<svg width="253pt" height="182pt"
 viewBox="0.00 0.00 253.00 182.00" xmlns="http://www.w3.org/2000/svg" xmlns:xlink="http://www.w3.org/1999/xlink">
<g id="graph0" class="graph" transform="scale(1 1) rotate(0) translate(4 178)">
<title>Graphical Class Hierarchy</title>
<!-- Node0 -->
<g id="Node000000" class="node">
<title>Node0</title>
<g id="a_Node000000"><a xlink:title=" ">
<polygon fill="#e0e0e0" stroke="#999999" points="84,-96.5 0,-96.5 0,-77.5 84,-77.5 84,-96.5"/>
<text text-anchor="middle" x="42" y="-84.5" font-family="Helvetica,sans-Serif" font-size="10.00">std::true_type</text>
</a>
</g>
</g>
<!-- Node1 -->
<g id="Node000001" class="node">
<title>Node1</title>
<g id="a_Node000001"><a xlink:href="structsvmp_1_1_f_e_1_1is__field__type_3_01_field_type_01_4.html" target="_top" xlink:title=" ">
<polygon fill="white" stroke="#666666" points="238.5,-174 126.5,-174 126.5,-144 238.5,-144 238.5,-174"/>
<text text-anchor="start" x="134.5" y="-162" font-family="Helvetica,sans-Serif" font-size="10.00">svmp::FE::is_field</text>
<text text-anchor="middle" x="182.5" y="-151" font-family="Helvetica,sans-Serif" font-size="10.00">_type&lt; FieldType &gt;</text>
</a>
</g>
</g>
<!-- Node0&#45;&gt;Node1 -->
<g id="edge101_Node000000_Node000001" class="edge">
<title>Node0&#45;&gt;Node1</title>
<g id="a_edge101_Node000000_Node000001"><a xlink:title=" ">
<path fill="none" stroke="#63b8ff" d="M65.33,-102.46C80.37,-112.49 100.87,-125.41 120,-135 126.25,-138.13 133.01,-141.14 139.69,-143.89"/>
<polygon fill="#63b8ff" stroke="#63b8ff" points="66.98,-99.36 56.74,-96.66 63.06,-105.16 66.98,-99.36"/>
</a>
</g>
</g>
<!-- Node2 -->
<g id="Node000002" class="node">
<title>Node2</title>
<g id="a_Node000002"><a xlink:href="structsvmp_1_1_f_e_1_1is__index__type_3_01_dof_index_01_4.html" target="_top" xlink:title=" ">
<polygon fill="white" stroke="#666666" points="237.5,-126 127.5,-126 127.5,-96 237.5,-96 237.5,-126"/>
<text text-anchor="start" x="135.5" y="-114" font-family="Helvetica,sans-Serif" font-size="10.00">svmp::FE::is_index</text>
<text text-anchor="middle" x="182.5" y="-103" font-family="Helvetica,sans-Serif" font-size="10.00">_type&lt; DofIndex &gt;</text>
</a>
</g>
</g>
<!-- Node0&#45;&gt;Node2 -->
<g id="edge102_Node000000_Node000002" class="edge">
<title>Node0&#45;&gt;Node2</title>
<g id="a_edge102_Node000000_Node000002"><a xlink:title=" ">
<path fill="none" stroke="#63b8ff" d="M94.29,-95.89C105.08,-97.76 116.5,-99.74 127.39,-101.62"/>
<polygon fill="#63b8ff" stroke="#63b8ff" points="94.63,-92.39 84.18,-94.14 93.44,-99.29 94.63,-92.39"/>
</a>
</g>
</g>
<!-- Node3 -->
<g id="Node000003" class="node">
<title>Node3</title>
<g id="a_Node000003"><a xlink:href="structsvmp_1_1_f_e_1_1is__index__type_3_01_global_index_01_4.html" target="_top" xlink:title=" ">
<polygon fill="white" stroke="#666666" points="245,-78 120,-78 120,-48 245,-48 245,-78"/>
<text text-anchor="start" x="128" y="-66" font-family="Helvetica,sans-Serif" font-size="10.00">svmp::FE::is_index</text>
<text text-anchor="middle" x="182.5" y="-55" font-family="Helvetica,sans-Serif" font-size="10.00">_type&lt; GlobalIndex &gt;</text>
</a>
</g>
</g>
<!-- Node0&#45;&gt;Node3 -->
<g id="edge103_Node000000_Node000003" class="edge">
<title>Node0&#45;&gt;Node3</title>
<g id="a_edge103_Node000000_Node000003"><a xlink:title=" ">
<path fill="none" stroke="#63b8ff" d="M94.19,-78.13C102.58,-76.68 111.36,-75.16 119.97,-73.66"/>
<polygon fill="#63b8ff" stroke="#63b8ff" points="93.44,-74.71 84.18,-79.86 94.63,-81.61 93.44,-74.71"/>
</a>
</g>
</g>
<!-- Node4 -->
<g id="Node000004" class="node">
<title>Node4</title>
<g id="a_Node000004"><a xlink:href="structsvmp_1_1_f_e_1_1is__index__type_3_01_local_index_01_4.html" target="_top" xlink:title=" ">
<polygon fill="white" stroke="#666666" points="242,-30 123,-30 123,0 242,0 242,-30"/>
<text text-anchor="start" x="131" y="-18" font-family="Helvetica,sans-Serif" font-size="10.00">svmp::FE::is_index</text>
<text text-anchor="middle" x="182.5" y="-7" font-family="Helvetica,sans-Serif" font-size="10.00">_type&lt; LocalIndex &gt;</text>
</a>
</g>
</g>
<!-- Node0&#45;&gt;Node4 -->
<g id="edge104_Node000000_Node000004" class="edge">
<title>Node0&#45;&gt;Node4</title>
<g id="a_edge104_Node000000_Node000004"><a xlink:title=" ">
<path fill="none" stroke="#63b8ff" d="M65.33,-71.54C80.37,-61.51 100.87,-48.59 120,-39 126.25,-35.87 133.01,-32.86 139.69,-30.11"/>
<polygon fill="#63b8ff" stroke="#63b8ff" points="63.06,-68.84 56.74,-77.34 66.98,-74.64 63.06,-68.84"/>
</a>
</g>
</g>
</g>
</svg>
