<?xml version="1.0" encoding="UTF-8" standalone="no"?>
<!DOCTYPE svg PUBLIC "-//W3C//DTD SVG 1.1//EN"
 "http://www.w3.org/Graphics/SVG/1.1/DTD/svg11.dtd">
<!-- Generated by graphviz version 2.43.0 (0)
 -->
<!-- Title: Graphical Class Hierarchy Pages: 1 -->
<svg width="241pt" height="86pt"
 viewBox="0.00 0.00 241.00 86.00" xmlns="http://www.w3.org/2000/svg" xmlns:xlink="http://www.w3.org/1999/xlink">
<g id="graph0" class="graph" transform="scale(1 1) rotate(0) translate(4 82)">
<title>Graphical Class Hierarchy</title>
<!-- Node0 -->
<g id="Node000000" class="node">
<title>Node0</title>
<g id="a_Node000000"><a xlink:title=" ">
<polygon fill="#e0e0e0" stroke="#999999" points="89,-48.5 0,-48.5 0,-29.5 89,-29.5 89,-48.5"/>
<text text-anchor="middle" x="44.5" y="-36.5" font-family="Helvetica,sans-Serif" font-size="10.00">std::false_type</text>
</a>
</g>
</g>
<!-- Node1 -->
<g id="Node000001" class="node">
<title>Node1</title>
<g id="a_Node000001"><a xlink:href="structsvmp_1_1_f_e_1_1is__field__type.html" target="_top" xlink:title="Check if a type represents a field type.">
<polygon fill="white" stroke="#666666" points="230,-78 128,-78 128,-48 230,-48 230,-78"/>
<text text-anchor="start" x="136" y="-66" font-family="Helvetica,sans-Serif" font-size="10.00">svmp::FE::is_field</text>
<text text-anchor="middle" x="179" y="-55" font-family="Helvetica,sans-Serif" font-size="10.00">_type&lt; T &gt;</text>
</a>
</g>
</g>
<!-- Node0&#45;&gt;Node1 -->
<g id="edge99_Node000000_Node000001" class="edge">
<title>Node0&#45;&gt;Node1</title>
<g id="a_edge99_Node000000_Node000001"><a xlink:title=" ">
<path fill="none" stroke="#63b8ff" d="M99.32,-48.75C108.75,-50.46 118.54,-52.23 127.87,-53.92"/>
<polygon fill="#63b8ff" stroke="#63b8ff" points="99.72,-45.26 89.25,-46.93 98.47,-52.15 99.72,-45.26"/>
</a>
</g>
</g>
<!-- Node2 -->
<g id="Node000002" class="node">
<title>Node2</title>
<g id="a_Node000002"><a xlink:href="structsvmp_1_1_f_e_1_1is__index__type.html" target="_top" xlink:title="Check if a type is a valid index type.">
<polygon fill="white" stroke="#666666" points="233,-30 125,-30 125,0 233,0 233,-30"/>
<text text-anchor="start" x="133" y="-18" font-family="Helvetica,sans-Serif" font-size="10.00">svmp::FE::is_index</text>
<text text-anchor="middle" x="179" y="-7" font-family="Helvetica,sans-Serif" font-size="10.00">_type&lt; T &gt;</text>
</a>
</g>
</g>
<!-- Node0&#45;&gt;Node2 -->
<g id="edge100_Node000000_Node000002" class="edge">
<title>Node0&#45;&gt;Node2</title>
<g id="a_edge100_Node000000_Node000002"><a xlink:title=" ">
<path fill="none" stroke="#63b8ff" d="M99.27,-29.26C107.62,-27.75 116.25,-26.18 124.6,-24.67"/>
<polygon fill="#63b8ff" stroke="#63b8ff" points="98.47,-25.85 89.25,-31.07 99.72,-32.74 98.47,-25.85"/>
</a>
</g>
</g>
</g>
</svg>
